<?xml version="1.0" encoding="UTF-8"?>
<svg xmlns="http://www.w3.org/2000/svg" xmlns:xlink="http://www.w3.org/1999/xlink" width="375pt" height="374.999991pt" viewBox="0 0 375 374.999991" version="1.2">
<defs>
<clipPath id="clip1">
  <path d="M 128 138.132812 L 253 138.132812 L 253 170 L 128 170 Z M 128 138.132812 "/>
</clipPath>
<clipPath id="clip2">
  <path d="M 108 212 L 251 212 L 251 237.882812 L 108 237.882812 Z M 108 212 "/>
</clipPath>
<clipPath id="clip3">
  <path d="M 107.730469 210 L 112 210 L 112 213 L 107.730469 213 Z M 107.730469 210 "/>
</clipPath>
</defs>
<g id="surface1">
<g clip-path="url(#clip1)" clip-rule="nonzero">
<path style=" stroke:none;fill-rule:nonzero;fill:rgb(93.328857%,13.729858%,19.60907%);fill-opacity:1;" d="M 151.453125 148.691406 C 151.605469 148.660156 151.761719 148.628906 151.914062 148.597656 C 152.019531 148.421875 152.128906 148.316406 152.296875 148.519531 C 153 148.378906 153.644531 148.3125 154.09375 148.605469 C 154.953125 149.179688 155.839844 149.183594 156.691406 149.152344 C 157.546875 149.117188 158.375 149.050781 159.140625 149.460938 C 159.503906 149.609375 159.394531 149.855469 159.1875 150.09375 C 159.289062 150.09375 159.390625 150.097656 159.492188 150.097656 C 160.113281 149.722656 160.734375 149.433594 161.347656 149.421875 C 162.03125 149.492188 162.707031 149.582031 163.382812 149.664062 L 163.777344 149.648438 L 163.578125 149.691406 C 165.304688 149.914062 167.007812 150.246094 168.707031 150.539062 C 169.726562 150.464844 170.746094 150.386719 171.769531 150.3125 C 170.84375 150.140625 169.90625 150.027344 168.976562 149.890625 C 168.042969 149.75 167.113281 149.589844 166.207031 149.277344 C 167.449219 148.703125 168.796875 148.335938 170.144531 148.304688 C 169.273438 148.203125 168.394531 148.140625 167.515625 148.082031 C 166.847656 147.828125 166.191406 147.554688 165.746094 147 C 166.597656 147.191406 167.3125 147.214844 167.996094 146.925781 C 166.53125 146.691406 165.054688 146.371094 163.558594 146.042969 C 164.375 146.179688 165.230469 146.070312 166.078125 146.058594 C 166.929688 146.046875 167.777344 146.109375 168.59375 146.59375 C 168.394531 146.734375 168.199219 146.839844 167.996094 146.925781 C 169.328125 147.132812 170.644531 147.3125 171.953125 147.433594 C 173.269531 147.546875 174.574219 147.613281 175.878906 147.621094 C 175.191406 146.800781 174.3125 146.855469 173.40625 146.949219 C 172.5 147.039062 171.566406 147.171875 170.78125 146.484375 C 173.625 146.046875 176.601562 146.289062 179.582031 146.289062 C 180.511719 146.289062 181.433594 146.265625 182.359375 146.195312 C 182.476562 146.808594 183.152344 147.738281 183.714844 148.570312 C 183.101562 148.625 182.496094 148.675781 181.902344 148.601562 C 182.59375 148.726562 183.28125 148.839844 183.964844 148.949219 C 184.316406 149.492188 184.566406 149.957031 184.503906 150.222656 C 183.65625 152.585938 182.324219 152.457031 180.546875 152.839844 C 180.59375 152.746094 180.644531 152.648438 180.699219 152.558594 C 181.164062 152.472656 181.625 152.371094 182.085938 152.246094 C 182.019531 152.242188 181.957031 152.234375 181.890625 152.230469 C 181.484375 152.269531 181.09375 152.34375 180.730469 152.515625 C 181.164062 151.816406 181.753906 151.289062 182.214844 150.621094 C 178.734375 149.882812 175.253906 150.039062 171.769531 150.3125 C 173.074219 150.542969 174.351562 150.902344 175.578125 151.660156 C 174.433594 151.519531 173.292969 151.34375 172.148438 151.15625 C 171.003906 150.96875 169.859375 150.746094 168.707031 150.539062 C 167.472656 150.636719 166.242188 150.703125 165.011719 150.714844 C 163.78125 150.730469 162.554688 150.710938 161.339844 150.570312 C 161.5625 150.28125 161.808594 150.085938 162.070312 149.953125 C 161.210938 150.058594 160.347656 150.097656 159.492188 150.097656 C 159.222656 150.257812 158.949219 150.433594 158.675781 150.613281 C 158.78125 150.484375 159.019531 150.292969 159.1875 150.09375 C 157.859375 150.089844 156.546875 149.921875 155.25 149.75 C 154.601562 149.65625 153.957031 149.570312 153.320312 149.457031 C 152.683594 149.34375 152.054688 149.230469 151.425781 149.121094 C 151.628906 149.125 151.753906 148.882812 151.867188 148.679688 C 151.726562 148.691406 151.589844 148.695312 151.453125 148.691406 C 151.074219 148.761719 150.699219 148.816406 150.339844 148.808594 C 150.71875 148.660156 151.085938 148.683594 151.453125 148.691406 Z M 187.628906 156.6875 C 187.167969 156.746094 186.707031 156.800781 186.25 156.863281 C 186.148438 156.878906 186.046875 156.886719 185.945312 156.898438 C 185.546875 156.757812 185.148438 156.59375 184.753906 156.402344 C 185.710938 156.480469 186.667969 156.582031 187.628906 156.6875 Z M 178.550781 155.53125 C 178.089844 155.59375 177.632812 155.675781 177.171875 155.765625 C 177.617188 155.539062 178.121094 155.453125 178.683594 155.328125 C 178.640625 155.394531 178.597656 155.464844 178.550781 155.53125 Z M 176.757812 157.382812 C 176.464844 157.386719 176.167969 157.386719 175.871094 157.386719 C 176.199219 156.550781 176.589844 156.105469 177.042969 155.835938 C 177.066406 155.839844 177.085938 155.839844 177.109375 155.84375 C 177.601562 155.808594 178.078125 155.742188 178.515625 155.574219 C 178 156.246094 177.316406 156.753906 176.757812 157.382812 Z M 194.558594 145.429688 C 194.523438 145.460938 194.492188 145.492188 194.457031 145.527344 C 194.441406 145.484375 194.417969 145.445312 194.398438 145.40625 C 194.453125 145.414062 194.503906 145.421875 194.558594 145.429688 Z M 143.398438 169.355469 L 252.132812 169.355469 C 252.140625 169.339844 252.144531 169.320312 252.152344 169.304688 C 252.199219 169.214844 252.222656 169.128906 252.230469 169.046875 C 252.246094 168.886719 252.179688 168.753906 252.019531 168.648438 C 251.914062 168.527344 251.753906 168.429688 251.53125 168.359375 C 251.417969 168.324219 251.292969 168.296875 251.152344 168.28125 C 251.078125 168.269531 251.003906 168.261719 250.925781 168.257812 C 250.835938 168.246094 250.738281 168.238281 250.632812 168.230469 C 248.898438 168.296875 246.675781 168.191406 244.078125 168.046875 C 242.792969 167.976562 241.355469 167.90625 239.832031 167.871094 C 239.636719 167.867188 239.464844 167.863281 239.292969 167.863281 L 238.769531 167.863281 L 237.71875 167.859375 L 235.621094 167.855469 C 234.222656 167.867188 232.820312 167.890625 231.421875 167.929688 C 231.539062 167.480469 231.527344 167.03125 231.164062 166.578125 C 230.042969 165.191406 225.550781 166.117188 224.425781 165.191406 C 221.054688 164.265625 226.675781 163.804688 230.042969 163.804688 C 228.921875 162.878906 232.289062 163.804688 232.289062 162.878906 C 232.289062 162.347656 232.289062 161.816406 232.179688 161.292969 C 232.386719 161.359375 232.59375 161.425781 232.796875 161.5 C 234.769531 162.238281 236.59375 163.371094 238.179688 165.023438 C 236.925781 163.011719 234.3125 162.417969 232.996094 160.410156 L 233.527344 159.835938 C 233.265625 158.964844 232.199219 158.414062 231.660156 157.84375 C 231.929688 157.554688 232.199219 157.839844 232.464844 158.121094 C 232.195312 157.839844 232.195312 157.839844 231.929688 157.554688 C 233.003906 157.527344 234.539062 158.191406 235.769531 158.523438 C 237 158.855469 237.933594 158.859375 237.828125 157.570312 C 237.722656 156.277344 236.722656 155.484375 235.410156 154.863281 C 234.753906 154.554688 234.019531 154.28125 233.273438 154.03125 C 232.53125 153.785156 231.785156 153.542969 231.105469 153.261719 C 233.554688 151.777344 236.28125 153.550781 238.734375 153.277344 C 238.199219 152.699219 237.941406 151.835938 237.121094 151.542969 L 234.019531 150.328125 C 232.957031 150.226562 231.992188 150.621094 231.101562 149.28125 C 231.011719 149.253906 230.921875 149.21875 230.832031 149.1875 C 230.636719 149.261719 230.449219 149.542969 230.257812 149.546875 C 229.429688 149.265625 229.28125 148.554688 228.324219 148.992188 C 228.320312 148.835938 228.359375 148.722656 228.417969 148.628906 C 228.125 148.820312 227.691406 148.515625 227.359375 148.875 C 227.351562 148.585938 227.347656 148.296875 227.289062 148.0625 C 226.277344 147.777344 225.253906 147.507812 224.222656 147.265625 C 223.707031 147.140625 223.1875 147.027344 222.667969 146.917969 C 222.148438 146.816406 221.625 146.722656 221.105469 146.636719 C 220.480469 146.539062 219.867188 146.453125 219.257812 146.378906 C 218.734375 146.417969 218.203125 146.425781 217.65625 146.351562 C 217.378906 146.367188 217.128906 146.949219 217 147.097656 C 216.296875 146.707031 215.59375 146.3125 214.761719 146.070312 C 214.628906 146.222656 214.359375 146.238281 214.097656 146.539062 C 213.941406 146.300781 213.78125 146.09375 213.609375 145.917969 C 212.558594 145.867188 211.519531 145.832031 210.5 145.8125 L 210.503906 145.882812 C 209.046875 146.074219 207.125 145.558594 205.695312 145.917969 C 205.273438 145.808594 204.855469 145.703125 204.433594 145.59375 C 204.5 145.824219 204.515625 146.117188 204.535156 146.40625 C 204.667969 146.242188 204.832031 146.203125 204.992188 146.195312 C 204.722656 146.355469 204.484375 146.566406 204.289062 146.851562 C 203.902344 146.316406 203.46875 145.9375 202.992188 145.679688 C 203.0625 145.675781 203.128906 145.671875 203.195312 145.667969 C 202.972656 145.589844 202.722656 145.609375 202.46875 145.65625 C 201.480469 145.617188 200.488281 145.566406 199.496094 145.496094 C 199.402344 145.699219 199.484375 145.972656 199.5 146.175781 C 199.054688 145.976562 198.605469 145.71875 198.15625 145.476562 C 198.46875 145.019531 199.195312 145.308594 199.558594 144.792969 C 198.367188 144.382812 197.363281 144.183594 196.25 144.207031 C 196.328125 144.199219 196.40625 144.195312 196.484375 144.1875 C 196.453125 144.183594 196.421875 144.179688 196.390625 144.175781 L 198.394531 144.019531 C 197.617188 144.082031 196.808594 144.109375 195.984375 144.140625 C 194.253906 143.980469 192.585938 143.886719 190.945312 143.835938 C 191.117188 144.011719 191.28125 144.210938 191.433594 144.445312 C 191.679688 144.140625 191.949219 144.125 192.074219 143.972656 C 192.414062 144.066406 192.726562 144.191406 193.03125 144.328125 C 192.589844 144.375 192.144531 144.4375 191.699219 144.515625 C 191.457031 144.503906 191.199219 144.503906 190.929688 144.507812 C 190.164062 144.097656 189.417969 142.367188 188.335938 143.964844 C 189.023438 144.148438 189.714844 144.335938 190.414062 144.519531 C 189.785156 144.539062 189.105469 144.578125 188.417969 144.636719 C 188.285156 144.84375 188.179688 145.027344 188.113281 144.964844 C 188 144.960938 187.886719 144.957031 187.773438 144.953125 C 187.972656 144.867188 188.175781 144.777344 188.375 144.679688 C 186.589844 144.570312 184.8125 144.453125 183.023438 143.929688 C 183.492188 143.78125 184.027344 143.742188 184.585938 143.75 C 185.703125 143.765625 186.917969 143.96875 187.910156 143.832031 L 187.90625 143.765625 C 186.667969 143.75 185.4375 143.734375 184.214844 143.71875 C 183.871094 143.714844 183.53125 143.703125 183.191406 143.695312 C 183.324219 143.664062 183.460938 143.628906 183.59375 143.59375 C 182.210938 143.625 180.902344 143.546875 179.476562 143.640625 C 179.476562 143.617188 179.484375 143.601562 179.492188 143.582031 C 178.714844 143.585938 177.933594 143.527344 177.15625 143.429688 C 177.164062 143.417969 177.167969 143.402344 177.171875 143.390625 C 176.867188 143.363281 176.558594 143.324219 176.25 143.292969 C 175.730469 143.203125 175.214844 143.097656 174.699219 142.972656 C 173.121094 142.601562 171.550781 142.128906 170.027344 141.648438 C 171.289062 139.863281 171.988281 142.410156 172.863281 142.351562 C 174.058594 142.136719 175.253906 142.0625 176.421875 142.023438 C 177.597656 141.976562 178.75 141.96875 179.839844 141.890625 C 178.964844 141.953125 178.09375 142.011719 177.21875 142.074219 C 178.53125 141.984375 179.632812 142.195312 180.972656 142.671875 C 180.566406 143.265625 179.703125 142.792969 179.492188 143.582031 C 181.304688 143.578125 183.140625 143.230469 184.929688 142.367188 C 187.109375 141.617188 185.875 139.128906 184.996094 139.203125 C 180.582031 139.542969 176.625 138.113281 172.5625 139.214844 C 171.597656 139.707031 170.648438 140.03125 169.679688 140.300781 C 168.714844 140.5625 167.742188 140.769531 166.78125 140.941406 C 165.710938 140.691406 164.210938 140.460938 163.566406 140.769531 C 162.707031 141.378906 161.839844 141.9375 160.945312 142.480469 C 160.054688 143.011719 159.140625 143.523438 158.21875 143.957031 C 157.292969 144.386719 156.351562 144.761719 155.394531 145.066406 C 154.914062 145.21875 154.429688 145.351562 153.945312 145.464844 C 153.460938 145.566406 152.972656 145.648438 152.480469 145.707031 C 151.617188 145.6875 150.730469 145.695312 149.832031 145.71875 C 148.9375 145.730469 148.035156 145.726562 147.125 145.730469 C 146.671875 145.726562 146.21875 145.71875 145.761719 145.71875 L 145.082031 145.699219 L 144.40625 145.652344 C 143.507812 145.585938 142.613281 145.488281 141.738281 145.335938 C 140.863281 145.203125 140.011719 144.96875 139.195312 144.675781 C 138.371094 144.378906 137.585938 144.015625 136.84375 143.566406 C 135.367188 142.625 134.082031 141.3125 133.097656 139.519531 C 133.757812 141.625 135.757812 142.496094 136.519531 144.625 L 136.003906 145.132812 C 136.078125 146.023438 136.871094 146.671875 137.222656 147.292969 C 136.964844 147.550781 136.785156 147.242188 136.609375 146.9375 C 136.789062 147.242188 136.789062 147.242188 136.964844 147.550781 C 136.527344 147.496094 136.011719 147.300781 135.496094 147.011719 C 134.980469 146.734375 134.457031 146.414062 133.980469 146.183594 C 133.03125 145.722656 132.273438 145.613281 132.152344 146.898438 C 132.027344 148.179688 132.71875 149.074219 133.703125 149.835938 C 134.199219 150.214844 134.765625 150.566406 135.339844 150.894531 C 135.917969 151.214844 136.503906 151.535156 137.027344 151.882812 C 135.914062 152.472656 134.835938 152.296875 133.796875 151.914062 C 132.753906 151.542969 131.746094 151.035156 130.703125 151.023438 C 131.050781 151.65625 131.128906 152.53125 131.765625 152.917969 L 134.175781 154.472656 C 135.046875 154.691406 135.90625 154.398438 136.46875 155.820312 C 136.539062 155.863281 136.613281 155.902344 136.683594 155.945312 C 136.855469 155.890625 137.054688 155.632812 137.214844 155.652344 C 137.871094 156.015625 137.902344 156.738281 138.761719 156.40625 C 138.746094 156.558594 138.699219 156.667969 138.636719 156.753906 C 138.910156 156.601562 139.234375 156.941406 139.5625 156.617188 C 139.527344 156.90625 139.496094 157.191406 139.515625 157.429688 C 139.832031 157.578125 140.160156 157.726562 140.480469 157.871094 C 139.9375 158.054688 139.460938 158.324219 139.082031 158.714844 L 142.449219 158.714844 C 139.082031 160.101562 135.710938 158.714844 132.34375 159.175781 C 132.34375 160.101562 132.34375 160.566406 131.21875 161.027344 C 133.464844 161.027344 136.835938 160.566406 139.082031 161.027344 L 139.082031 162.414062 C 136.835938 162.878906 133.464844 161.953125 131.21875 162.414062 C 131.21875 162.878906 131.21875 163.804688 131.21875 164.265625 C 131.21875 164.730469 130.097656 164.730469 128.976562 164.730469 C 130.097656 164.730469 132.34375 164.730469 133.464844 164.730469 C 133.464844 165.191406 133.464844 166.117188 133.464844 166.578125 C 133.464844 167.042969 132.34375 167.042969 131.21875 167.042969 C 131.21875 167.964844 130.097656 168.890625 131.21875 169.355469 L 143.398438 169.355469 "/>
</g>
<g clip-path="url(#clip2)" clip-rule="nonzero">
<path style=" stroke:none;fill-rule:nonzero;fill:rgb(93.328857%,13.729858%,19.60907%);fill-opacity:1;" d="M 176.082031 225.222656 C 176.460938 225.078125 176.839844 224.972656 177.222656 224.886719 C 176.347656 224.816406 175.476562 224.75 174.609375 224.6875 C 174.820312 224.675781 175.035156 224.660156 175.242188 224.640625 C 176.269531 224.5625 177.296875 224.476562 178.316406 224.386719 C 178.960938 224.328125 179.605469 224.269531 180.25 224.203125 C 180.753906 224.347656 181.21875 224.527344 181.605469 224.765625 C 179.9375 224.59375 178.539062 224.589844 177.222656 224.886719 C 180.089844 225.105469 182.992188 225.371094 185.941406 225.667969 C 182.730469 225.4375 179.296875 226.175781 176.082031 225.222656 Z M 176.058594 231.28125 C 176.382812 231.242188 176.707031 231.203125 177.035156 231.167969 C 177.542969 231.257812 178.0625 231.308594 178.617188 231.316406 Z M 167.84375 229.4375 C 165.871094 229.605469 163.894531 229.667969 161.941406 229.699219 C 161.933594 229.679688 161.921875 229.664062 161.910156 229.648438 C 161.898438 229.664062 161.886719 229.683594 161.875 229.699219 C 159.738281 229.726562 157.640625 229.714844 155.625 229.738281 C 155.628906 229.734375 155.628906 229.730469 155.632812 229.726562 C 156.847656 229.699219 158.066406 229.667969 159.28125 229.640625 C 158.046875 229.671875 156.910156 229.628906 155.769531 229.523438 C 155.820312 229.457031 155.859375 229.425781 155.890625 229.457031 C 156.386719 229.476562 156.863281 229.515625 157.324219 229.601562 C 158.921875 229.402344 160.402344 229.121094 161.230469 228.832031 C 161.355469 228.75 161.417969 228.625 161.425781 228.46875 C 165.484375 228.882812 169.515625 229.546875 173.476562 230.167969 C 171.039062 231.949219 169.558594 229.398438 167.84375 229.4375 Z M 159.714844 224.976562 L 161.230469 225.003906 L 161.988281 225.011719 L 162.769531 225.015625 C 163.8125 225.011719 164.855469 225.007812 165.898438 225.007812 C 166.941406 224.992188 167.980469 225.003906 169.023438 224.953125 C 169.457031 224.933594 169.890625 224.917969 170.320312 224.898438 C 170.835938 224.980469 171.335938 225.117188 171.808594 225.324219 C 167.925781 225.617188 163.90625 225.5625 159.855469 225.472656 C 159.75 225.296875 159.65625 225.128906 159.574219 224.976562 C 159.621094 224.976562 159.667969 224.976562 159.714844 224.976562 Z M 134.105469 216.234375 C 134.101562 216.441406 134.09375 216.644531 134.09375 216.851562 C 133.125 216.789062 132.167969 216.71875 131.21875 216.664062 C 131.457031 216.648438 131.570312 216.394531 131.679688 216.179688 C 131.519531 216.207031 131.363281 216.222656 131.203125 216.230469 C 130.773438 216.339844 130.347656 216.429688 129.929688 216.457031 C 130.347656 216.269531 130.777344 216.261719 131.203125 216.230469 C 131.375 216.183594 131.550781 216.140625 131.722656 216.09375 C 131.824219 215.90625 131.941406 215.792969 132.160156 215.980469 C 132.957031 215.769531 133.699219 215.628906 134.25 215.894531 C 134.28125 215.910156 134.3125 215.921875 134.347656 215.9375 C 134.203125 216 134.109375 216.09375 134.105469 216.234375 Z M 118.914062 225.726562 C 118.949219 225.699219 118.984375 225.667969 119.019531 225.628906 C 119.019531 225.640625 119.019531 225.652344 119.019531 225.664062 C 118.992188 225.691406 118.949219 225.707031 118.914062 225.726562 Z M 239.863281 212.476562 L 133.078125 212.476562 C 133.453125 212.53125 133.824219 212.59375 134.199219 212.644531 C 133.496094 212.847656 132.785156 213.023438 132.066406 213.160156 C 125.246094 213.59375 117.605469 215.488281 111.367188 212.476562 L 110.957031 212.476562 C 111.800781 212.984375 112.617188 213.53125 113.210938 214.359375 L 112.730469 214.964844 C 113.027344 215.808594 114.078125 216.316406 114.617188 216.859375 C 114.375 217.160156 114.105469 216.890625 113.835938 216.621094 C 114.105469 216.890625 114.105469 216.890625 114.375 217.160156 C 112.335938 217.289062 108.382812 214.957031 108.769531 217.519531 C 109.152344 220.078125 112.75 220.425781 115.355469 221.410156 C 113.132812 222.984375 110.5 221.429688 108.21875 221.859375 C 108.761719 222.402344 109.058594 223.242188 109.835938 223.484375 L 112.785156 224.484375 C 113.769531 224.523438 114.648438 224.09375 115.535156 225.382812 C 115.621094 225.410156 115.707031 225.4375 115.792969 225.464844 C 115.964844 225.382812 116.128906 225.09375 116.304688 225.082031 C 117.085938 225.320312 117.25 226.027344 118.117188 225.542969 C 118.125 225.695312 118.09375 225.8125 118.042969 225.910156 C 118.234375 225.761719 118.503906 225.867188 118.75 225.800781 C 118.078125 226.082031 116.921875 225.898438 116.304688 226.355469 C 118.085938 226.695312 119.65625 226.90625 121.289062 226.980469 C 121.398438 227.007812 121.515625 227.035156 121.625 227.0625 L 118.503906 227.152344 C 119.570312 227.121094 120.664062 227.109375 121.78125 227.097656 C 122.804688 227.328125 123.835938 227.53125 124.875 227.695312 C 125.453125 227.78125 126.027344 227.855469 126.589844 227.921875 C 127.074219 227.878906 127.570312 227.859375 128.078125 227.921875 C 128.335938 227.90625 128.5625 227.320312 128.679688 227.167969 C 129.339844 227.554688 130 227.945312 130.777344 228.183594 C 130.898438 228.03125 131.152344 228.015625 131.390625 227.710938 C 131.539062 227.949219 131.691406 228.15625 131.851562 228.332031 C 132.828125 228.375 133.792969 228.402344 134.753906 228.425781 L 134.75 228.359375 C 136.113281 228.171875 137.90625 228.691406 139.253906 228.339844 C 139.648438 228.449219 140.042969 228.5625 140.4375 228.671875 C 140.375 228.441406 140.363281 228.148438 140.347656 227.859375 C 140.21875 228.023438 140.066406 228.058594 139.914062 228.066406 C 140.167969 227.910156 140.394531 227.699219 140.582031 227.414062 C 140.941406 227.957031 141.351562 228.335938 141.792969 228.601562 C 142.886719 228.648438 143.984375 228.714844 145.085938 228.8125 C 145.179688 228.613281 145.101562 228.339844 145.089844 228.136719 C 145.449219 228.308594 145.8125 228.527344 146.175781 228.742188 C 145.53125 228.859375 144.882812 228.984375 144.234375 229.132812 C 142.113281 229.46875 141.644531 230.277344 141.90625 230.984375 C 142.164062 231.695312 143.171875 232.316406 144.03125 232.296875 C 152.640625 232.09375 160.4375 233.632812 168.515625 232.585938 C 171.011719 231.957031 173.53125 231.585938 176.046875 231.28125 C 178.367188 231.332031 180.902344 231.644531 183.425781 231.332031 C 184.382812 231.324219 185.066406 233.898438 186.53125 232.167969 C 185.394531 231.804688 184.246094 231.429688 183.09375 231.082031 C 184.414062 231.140625 185.644531 231.117188 186.339844 230.9375 C 189.65625 229.6875 193.09375 228.503906 196.652344 227.53125 C 197.699219 227.246094 198.765625 226.980469 199.835938 226.734375 C 201.433594 226.785156 203.035156 226.738281 204.632812 226.65625 C 203.964844 226.523438 203.300781 226.367188 202.652344 226.148438 C 203.246094 226.039062 203.84375 225.933594 204.445312 225.835938 C 205.59375 226.046875 206.746094 226.261719 207.90625 226.480469 C 209.226562 226.40625 210.546875 226.347656 211.855469 226.335938 C 212.503906 226.328125 213.148438 226.332031 213.792969 226.351562 C 214.4375 226.390625 215.078125 226.445312 215.71875 226.519531 C 215.476562 226.804688 215.214844 226.996094 214.9375 227.125 C 215.839844 227.023438 216.75 227.019531 217.65625 227.050781 C 217.949219 226.898438 218.238281 226.730469 218.535156 226.570312 C 218.421875 226.695312 218.164062 226.871094 217.980469 227.0625 C 220.789062 227.214844 223.558594 227.820312 226.261719 228.269531 C 226.042969 228.261719 225.910156 228.507812 225.789062 228.707031 C 225.9375 228.695312 226.089844 228.695312 226.238281 228.703125 C 226.644531 228.632812 227.054688 228.585938 227.441406 228.59375 C 227.035156 228.742188 226.636719 228.710938 226.238281 228.703125 C 226.070312 228.730469 225.902344 228.761719 225.738281 228.789062 C 225.625 228.964844 225.507812 229.070312 225.324219 228.863281 C 224.558594 228.996094 223.863281 229.0625 223.378906 228.742188 C 222.457031 228.136719 221.523438 228.101562 220.605469 228.101562 C 219.691406 228.109375 218.8125 228.152344 218.011719 227.703125 C 217.632812 227.535156 217.753906 227.296875 217.980469 227.0625 C 217.871094 227.058594 217.765625 227.054688 217.65625 227.050781 C 216.988281 227.40625 216.328125 227.667969 215.683594 227.664062 C 214.972656 227.589844 214.269531 227.484375 213.566406 227.386719 L 213.152344 227.40625 L 213.359375 227.363281 C 212.460938 227.246094 211.570312 227.109375 210.644531 226.957031 C 209.726562 226.808594 208.816406 226.644531 207.90625 226.480469 C 206.816406 226.539062 205.726562 226.597656 204.632812 226.65625 C 206.605469 227.035156 208.632812 227.15625 210.589844 227.769531 C 209.253906 228.351562 207.804688 228.675781 206.34375 228.6875 C 207.28125 228.804688 208.234375 228.882812 209.183594 228.957031 C 209.902344 229.222656 210.617188 229.488281 211.101562 230.046875 C 210.179688 229.855469 209.402344 229.832031 208.660156 230.105469 C 209.453125 230.238281 210.253906 230.378906 211.0625 230.53125 L 211.664062 230.644531 L 212.230469 230.765625 C 212.605469 230.84375 212.980469 230.925781 213.363281 231.007812 C 213.511719 231.035156 213.65625 231.066406 213.804688 231.113281 C 213.65625 231.074219 213.507812 231.039062 213.363281 231.007812 C 212.523438 230.871094 211.707031 230.980469 210.75 230.992188 C 209.820312 231.003906 208.894531 230.925781 208.015625 230.425781 C 208.226562 230.289062 208.441406 230.1875 208.660156 230.105469 C 205.78125 229.636719 202.960938 229.328125 200.148438 229.214844 C 201.585938 230.910156 203.953125 229.109375 205.632812 230.496094 C 204.085938 230.683594 202.507812 230.699219 200.914062 230.640625 C 199.320312 230.578125 197.714844 230.453125 196.105469 230.378906 C 194.496094 230.308594 192.890625 230.289062 191.292969 230.441406 C 189.695312 230.570312 188.105469 230.867188 186.539062 231.453125 C 188.695312 231.714844 190.855469 232.015625 193 232.8125 C 192.59375 232.65625 192.113281 232.78125 191.640625 232.867188 C 193.144531 232.90625 194.546875 233.0625 196.105469 233.027344 C 196.101562 233.050781 196.09375 233.070312 196.085938 233.085938 C 197.828125 233.15625 199.566406 233.476562 201.285156 233.902344 C 203.011719 234.320312 204.71875 234.851562 206.40625 235.347656 C 204.988281 237.113281 204.242188 234.550781 203.285156 234.582031 C 200.65625 234.953125 198.023438 234.703125 195.628906 234.761719 C 196.585938 234.742188 197.542969 234.71875 198.5 234.699219 C 197.066406 234.730469 195.867188 234.472656 194.433594 233.929688 C 194.902344 233.359375 195.820312 233.867188 196.085938 233.085938 C 194.105469 233.003906 192.128906 233.265625 190.121094 234.003906 C 187.710938 234.597656 188.890625 237.167969 189.863281 237.164062 C 191.082031 237.164062 192.25 237.230469 193.402344 237.359375 C 194.554688 237.480469 195.6875 237.644531 196.8125 237.78125 C 199.058594 238.058594 201.277344 238.230469 203.554688 237.726562 C 205.707031 236.804688 207.855469 236.457031 210.007812 236.105469 C 210.308594 236.167969 210.640625 236.230469 210.976562 236.285156 C 211.144531 236.308594 211.320312 236.335938 211.484375 236.355469 C 211.628906 236.375 211.773438 236.390625 211.914062 236.40625 C 212.480469 236.453125 212.996094 236.433594 213.308594 236.277344 C 214.980469 235.109375 216.828125 234.035156 218.839844 233.242188 C 220.832031 232.441406 222.953125 231.886719 225.125 231.675781 C 226.089844 231.707031 227.070312 231.710938 228.082031 231.6875 C 228.585938 231.679688 229.09375 231.664062 229.601562 231.652344 C 230.117188 231.632812 230.632812 231.613281 231.148438 231.59375 C 232.171875 231.566406 233.230469 231.496094 234.265625 231.480469 C 234.785156 231.46875 235.316406 231.441406 235.835938 231.4375 C 236.359375 231.421875 236.871094 231.445312 237.398438 231.429688 C 238.449219 231.421875 239.480469 231.488281 240.53125 231.542969 C 241.054688 231.574219 241.574219 231.636719 242.097656 231.695312 C 242.625 231.746094 243.152344 231.8125 243.683594 231.90625 C 243.949219 231.949219 244.214844 232 244.480469 232.058594 C 244.746094 232.109375 245.019531 232.152344 245.289062 232.207031 C 245.832031 232.316406 246.378906 232.449219 246.933594 232.609375 C 247.070312 232.648438 247.210938 232.6875 247.347656 232.730469 C 247.492188 232.765625 247.632812 232.804688 247.773438 232.839844 C 248.058594 232.917969 248.34375 233 248.632812 233.089844 C 249.210938 233.269531 249.800781 233.480469 250.402344 233.714844 C 249.859375 233.363281 249.277344 233.121094 248.671875 232.925781 C 248.375 232.832031 248.066406 232.75 247.761719 232.667969 C 247.609375 232.628906 247.457031 232.59375 247.304688 232.554688 C 247.15625 232.511719 247.003906 232.464844 246.855469 232.417969 C 246.253906 232.234375 245.667969 232.046875 245.128906 231.800781 C 244.859375 231.675781 244.597656 231.546875 244.355469 231.375 C 244.113281 231.207031 243.886719 231.015625 243.679688 230.800781 L 244.082031 230.140625 C 243.660156 229.34375 242.566406 228.964844 241.996094 228.484375 C 242.199219 228.160156 242.484375 228.394531 242.777344 228.632812 C 242.488281 228.394531 242.488281 228.394531 242.199219 228.160156 C 242.648438 228.074219 243.210938 228.109375 243.808594 228.183594 C 244.667969 228.773438 245.414062 229.460938 246.011719 230.226562 C 245.628906 229.445312 244.957031 228.792969 244.144531 228.214844 C 244.734375 228.261719 245.34375 228.324219 245.890625 228.332031 C 246.042969 228.335938 246.1875 228.335938 246.328125 228.332031 C 246.464844 228.320312 246.597656 228.296875 246.71875 228.269531 C 246.964844 228.214844 247.167969 228.136719 247.320312 228.023438 C 247.625 227.796875 247.703125 227.429688 247.445312 226.835938 C 247.1875 226.242188 246.789062 225.828125 246.3125 225.53125 C 246.074219 225.378906 245.820312 225.273438 245.542969 225.15625 C 245.265625 225.042969 244.972656 224.949219 244.671875 224.871094 C 244.066406 224.710938 243.429688 224.628906 242.777344 224.476562 C 242.457031 224.410156 242.140625 224.339844 241.824219 224.273438 C 241.511719 224.203125 241.210938 224.125 240.914062 224.015625 C 241.027344 223.910156 241.140625 223.816406 241.257812 223.734375 C 241.371094 223.644531 241.484375 223.566406 241.601562 223.496094 C 241.835938 223.355469 242.074219 223.257812 242.320312 223.183594 C 242.425781 223.15625 242.535156 223.132812 242.648438 223.109375 C 242.890625 223.175781 243.125 223.238281 243.351562 223.296875 C 244.273438 223.546875 245.070312 223.71875 245.628906 223.695312 C 246.191406 223.652344 246.535156 223.386719 246.519531 222.726562 C 246.515625 222.699219 246.511719 222.667969 246.507812 222.640625 C 246.59375 222.605469 246.675781 222.570312 246.753906 222.53125 C 246.648438 222.453125 246.542969 222.363281 246.445312 222.269531 C 246.304688 221.796875 245.964844 221.359375 245.46875 220.945312 C 244.816406 220.425781 243.894531 219.964844 242.828125 219.585938 C 242.296875 219.390625 241.726562 219.238281 241.140625 219.074219 C 240.789062 218.980469 240.429688 218.898438 240.066406 218.816406 C 240.496094 218.621094 240.875 218.378906 241.1875 218.066406 C 239.925781 218.121094 238.664062 218.167969 237.398438 218.242188 C 238.734375 217.675781 240.085938 217.472656 241.445312 217.417969 C 241.628906 217.441406 241.8125 217.46875 241.996094 217.492188 C 244.171875 217.8125 246.320312 218.417969 248.414062 218.71875 C 247.980469 218.324219 247.667969 217.882812 247.273438 217.480469 C 247.765625 217.460938 248.253906 217.417969 248.742188 217.347656 C 248.722656 216.421875 248.710938 215.960938 249.96875 215.464844 C 248.703125 215.496094 247.121094 215.65625 245.539062 215.757812 C 244.917969 215.792969 244.300781 215.824219 243.695312 215.84375 C 243.007812 215.636719 242.320312 215.441406 241.628906 215.265625 C 241.84375 215.261719 242.058594 215.257812 242.269531 215.253906 C 243.398438 215.039062 243.675781 214.691406 243.675781 214.285156 C 243.675781 214.238281 243.667969 214.191406 243.664062 214.144531 C 244.261719 214.144531 244.875 214.164062 245.492188 214.199219 C 247.085938 214.269531 248.675781 214.34375 249.945312 214.078125 C 249.9375 213.6875 249.921875 212.96875 249.914062 212.476562 L 239.863281 212.476562 "/>
</g>
<path style=" stroke:none;fill-rule:nonzero;fill:rgb(93.328857%,13.729858%,19.60907%);fill-opacity:1;" d="M 125.195312 169.042969 C 123.070312 168.066406 121.136719 166.734375 119.507812 164.898438 C 120.578125 166.785156 122.917969 167.703125 124.332031 169.355469 L 125.914062 169.355469 C 125.671875 169.253906 125.433594 169.152344 125.195312 169.042969 "/>
<path style=" stroke:none;fill-rule:nonzero;fill:rgb(97.648621%,65.098572%,12.548828%);fill-opacity:1;" d="M 229.761719 199.230469 C 229.957031 199.207031 230.15625 199.1875 230.351562 199.175781 C 230.992188 199.140625 231.632812 199.140625 232.261719 199.097656 C 232.882812 199.078125 233.503906 198.996094 234.101562 198.828125 C 234.058594 198.359375 234.027344 198.011719 234.109375 197.714844 C 234.925781 197.667969 235.75 197.609375 236.570312 197.5625 C 238.679688 197.4375 240.796875 197.351562 242.859375 197.472656 C 243.890625 197.546875 244.914062 197.621094 245.914062 197.777344 C 246.917969 197.933594 247.898438 198.160156 248.855469 198.484375 C 249.0625 198.554688 249.265625 198.632812 249.46875 198.710938 C 242.859375 198.667969 236.285156 198.882812 229.761719 199.230469 Z M 144.433594 193.425781 C 143.679688 193.304688 142.898438 193.15625 142.132812 193.019531 C 142.390625 192.910156 142.675781 192.839844 142.984375 192.683594 C 143.582031 192.675781 144.164062 192.683594 144.734375 192.703125 C 144.671875 192.933594 144.554688 193.179688 144.433594 193.425781 Z M 141.882812 185.863281 C 141.519531 185.820312 141.121094 185.78125 140.804688 185.808594 C 140.960938 185.648438 141.097656 185.460938 141.179688 185.394531 C 141.433594 185.554688 141.6875 185.714844 141.949219 185.871094 C 141.925781 185.867188 141.902344 185.863281 141.882812 185.863281 Z M 138.949219 188.617188 C 138.304688 188.417969 137.664062 188.183594 137.019531 187.96875 C 136.3125 188.054688 135.609375 188.113281 134.910156 188.117188 C 134.207031 188.125 133.511719 188.09375 132.828125 187.949219 C 132.976562 187.664062 133.128906 187.46875 133.285156 187.339844 C 132.792969 187.4375 132.300781 187.476562 131.8125 187.472656 C 131.644531 187.632812 131.476562 187.808594 131.308594 187.984375 C 131.375 187.855469 131.527344 187.664062 131.640625 187.46875 C 130.886719 187.457031 130.152344 187.292969 129.429688 187.121094 C 128.707031 186.949219 128.007812 186.710938 127.316406 186.503906 C 127.433594 186.507812 127.53125 186.265625 127.617188 186.066406 C 127.539062 186.078125 127.457031 186.082031 127.378906 186.078125 C 127.160156 186.148438 126.9375 186.203125 126.738281 186.199219 C 126.96875 186.050781 127.171875 186.074219 127.378906 186.078125 C 127.472656 186.050781 127.5625 186.015625 127.652344 185.984375 C 127.730469 185.808594 127.804688 185.703125 127.875 185.90625 C 128.289062 185.761719 128.660156 185.6875 128.886719 185.984375 C 129.3125 186.554688 129.816406 186.558594 130.304688 186.523438 C 130.789062 186.492188 131.261719 186.425781 131.660156 186.835938 C 131.855469 186.988281 131.777344 187.234375 131.640625 187.46875 L 131.8125 187.472656 C 132.195312 187.101562 132.566406 186.8125 132.914062 186.808594 C 133.292969 186.878906 133.667969 186.972656 134.046875 187.058594 L 134.273438 187.042969 L 134.15625 187.085938 C 135.121094 187.324219 136.066406 187.660156 137.019531 187.96875 C 137.601562 187.902344 138.183594 187.835938 138.765625 187.765625 C 137.734375 187.402344 136.65625 187.3125 135.664062 186.691406 C 136.398438 186.121094 137.171875 185.769531 137.929688 185.75 C 137.445312 185.640625 136.953125 185.574219 136.460938 185.503906 C 136.3125 185.394531 136.164062 185.285156 136.023438 185.148438 C 136.210938 185.203125 136.398438 185.257812 136.585938 185.3125 C 137.265625 185.488281 137.9375 185.65625 138.605469 185.8125 C 139.148438 185.839844 139.703125 185.898438 140.265625 186.023438 C 140.238281 186.066406 140.222656 186.109375 140.214844 186.160156 C 140.167969 186.652344 140.121094 187.140625 140.164062 187.628906 C 139.699219 187.664062 139.230469 187.710938 138.765625 187.765625 C 139.332031 187.957031 139.890625 188.222656 140.425781 188.691406 C 140.484375 188.824219 140.550781 188.953125 140.632812 189.085938 C 140.070312 188.945312 139.511719 188.789062 138.949219 188.617188 Z M 125.308594 183.183594 C 124.289062 183.21875 123.285156 183.140625 122.347656 182.878906 C 121.875 182.761719 121.433594 182.550781 121.023438 182.285156 C 120.609375 182.019531 120.230469 181.6875 119.898438 181.269531 C 119.285156 180.460938 118.847656 179.335938 118.671875 177.820312 C 118.863281 178.074219 119.101562 178.296875 119.433594 178.445312 L 122.734375 180.007812 C 123.890625 180.238281 124.992188 179.984375 125.835938 181.429688 C 125.933594 181.476562 126.027344 181.519531 126.125 181.5625 C 126.34375 181.511719 126.582031 181.261719 126.792969 181.285156 C 127.675781 181.671875 127.765625 182.402344 128.863281 182.09375 C 128.851562 182.246094 128.796875 182.355469 128.722656 182.441406 C 129.0625 182.296875 129.511719 182.644531 129.914062 182.328125 C 129.910156 182.382812 129.90625 182.4375 129.902344 182.492188 C 129.640625 182.632812 129.375 182.761719 129.113281 182.863281 C 128.835938 182.96875 128.558594 183.054688 128.28125 183.117188 C 127.808594 183.101562 127.3125 183.117188 126.8125 183.144531 C 126.316406 183.15625 125.8125 183.167969 125.308594 183.183594 Z M 253.644531 198.769531 C 252.539062 198.742188 251.4375 198.730469 250.335938 198.71875 C 249.832031 198.347656 249.371094 197.925781 249.007812 197.390625 L 249.488281 196.792969 C 249.207031 195.945312 248.1875 195.421875 247.667969 194.871094 C 247.910156 194.574219 248.167969 194.847656 248.429688 195.121094 C 248.167969 194.847656 248.167969 194.847656 247.910156 194.574219 C 249.898438 194.476562 253.769531 196.871094 253.398438 194.304688 C 253.027344 191.738281 249.542969 191.332031 247.046875 190.3125 C 249.21875 188.765625 251.734375 190.363281 253.941406 189.96875 C 253.421875 189.417969 253.136719 188.570312 252.390625 188.320312 L 249.574219 187.273438 C 248.632812 187.222656 247.777344 187.636719 246.960938 186.335938 C 246.898438 186.3125 246.835938 186.289062 246.777344 186.269531 C 246.835938 185.703125 247.070312 185.347656 248.0625 184.992188 C 247.421875 184.988281 246.679688 185.027344 245.949219 185.042969 C 245.578125 185.050781 245.195312 185.0625 244.808594 185.074219 C 244.433594 185.082031 244.054688 185.085938 243.675781 185.09375 C 243.527344 185.09375 243.382812 185.09375 243.238281 185.09375 C 242.046875 184.707031 240.847656 184.351562 239.640625 184.042969 L 239.640625 183.445312 C 240.214844 183.339844 240.847656 183.3125 241.542969 183.339844 C 242.238281 183.375 242.960938 183.449219 243.722656 183.535156 C 244.097656 183.570312 244.476562 183.609375 244.847656 183.644531 C 245.226562 183.679688 245.605469 183.703125 245.972656 183.71875 C 246.695312 183.753906 247.425781 183.71875 248.054688 183.605469 C 248.050781 183.144531 248.046875 182.21875 248.042969 181.753906 C 248.039062 181.367188 248.933594 181.296875 249.964844 181.25 C 249.785156 181.253906 249.59375 181.257812 249.394531 181.265625 C 248.96875 181.277344 248.5 181.300781 248.042969 181.292969 C 247.582031 181.292969 247.121094 181.292969 246.699219 181.289062 C 246.28125 181.28125 245.902344 181.273438 245.597656 181.265625 C 245.609375 180.804688 245.628906 179.878906 245.636719 179.417969 C 245.648438 178.957031 246.839844 178.984375 248.027344 178.980469 C 248.03125 178.054688 249.167969 177.125 248.015625 176.667969 C 246.867188 176.671875 245.703125 176.644531 244.515625 176.613281 C 245.402344 176.554688 246.195312 176.417969 246.894531 176.230469 L 247.015625 176.214844 C 247.3125 176.179688 247.605469 176.136719 247.902344 176.09375 C 248.035156 176.078125 248.230469 176.035156 248.402344 176 L 248.929688 175.886719 C 249.246094 175.789062 249.527344 175.691406 249.78125 175.59375 C 250.082031 175.46875 250.351562 175.347656 250.589844 175.226562 C 251.058594 174.992188 251.402344 174.777344 251.636719 174.59375 C 251.761719 174.359375 251.753906 174.15625 251.675781 173.96875 C 251.527344 173.628906 251.152344 173.339844 250.949219 172.96875 C 251 172.757812 251.015625 172.554688 251 172.375 C 250.066406 172.90625 250.011719 171.535156 249.019531 172.019531 C 249.203125 171.925781 249.390625 171.832031 249.574219 171.738281 C 249.664062 171.691406 249.757812 171.644531 249.847656 171.597656 C 249.933594 171.546875 250.011719 171.492188 250.09375 171.4375 C 250.414062 171.230469 250.71875 171.019531 250.988281 170.8125 C 251.128906 170.710938 251.242188 170.601562 251.347656 170.488281 C 251.453125 170.378906 251.546875 170.273438 251.636719 170.167969 C 251.808594 169.960938 251.945312 169.761719 252.039062 169.574219 C 252.078125 169.5 252.101562 169.425781 252.132812 169.355469 L 131.21875 169.355469 C 132.34375 169.355469 133.464844 169.355469 134.589844 169.355469 C 132.726562 169.546875 131.253906 170.058594 130.164062 170.691406 C 129.605469 170.5625 129.054688 170.421875 128.511719 170.261719 C 127.621094 170.003906 126.753906 169.703125 125.914062 169.355469 L 124.332031 169.355469 C 124.527344 169.585938 124.710938 169.835938 124.867188 170.101562 L 124.214844 170.605469 C 124.324219 171.074219 124.691406 171.492188 125.089844 171.875 C 124.449219 171.984375 124.046875 172.121094 123.808594 172.285156 C 123.734375 172.339844 123.679688 172.398438 123.636719 172.457031 C 121.488281 171.613281 119.222656 170.445312 119.222656 172.363281 C 119.214844 174.957031 123.34375 175.992188 126.238281 177.46875 C 123.390625 178.597656 120.558594 176.550781 117.824219 176.535156 C 118.136719 176.910156 118.339844 177.371094 118.628906 177.765625 C 118.621094 179.566406 119.484375 180.355469 119.511719 182.300781 L 119.121094 182.808594 C 118.996094 183.664062 119.332031 184.28125 119.425781 184.875 C 119.226562 185.132812 119.179688 184.835938 119.132812 184.542969 C 119.179688 184.835938 119.179688 184.835938 119.226562 185.132812 C 118.726562 185.066406 118.207031 184.296875 117.742188 183.878906 C 117.28125 183.457031 116.859375 183.375 116.519531 184.613281 C 116.179688 185.847656 116.410156 186.695312 116.863281 187.40625 C 117.089844 187.765625 117.367188 188.09375 117.65625 188.402344 C 117.945312 188.707031 118.242188 189.011719 118.5 189.339844 C 117.722656 189.933594 117.09375 189.765625 116.527344 189.414062 C 115.957031 189.074219 115.4375 188.601562 114.796875 188.609375 C 114.882812 189.210938 114.753906 190.054688 115.078125 190.417969 C 115.472656 190.910156 115.875 191.402344 116.289062 191.890625 C 116.796875 192.097656 117.375 191.804688 117.484375 193.183594 L 117.601562 193.300781 C 117.714844 193.25 117.882812 192.996094 117.980469 193.015625 C 118.328125 193.363281 118.230469 194.070312 118.824219 193.738281 C 118.785156 193.890625 118.738281 193.996094 118.6875 194.082031 C 118.882812 193.929688 119.03125 194.261719 119.285156 193.945312 C 119.21875 194.226562 119.15625 194.507812 119.128906 194.738281 C 119.582031 195.117188 120.046875 195.476562 120.523438 195.8125 C 120.761719 195.980469 121.007812 196.140625 121.253906 196.296875 C 121.5 196.445312 121.75 196.582031 122 196.714844 C 122.304688 196.867188 122.605469 197.007812 122.90625 197.132812 C 123.179688 197.144531 123.457031 197.183594 123.730469 197.304688 C 123.875 197.316406 124.105469 196.761719 124.199219 196.625 C 124.488281 197.070312 124.785156 197.515625 125.175781 197.824219 C 125.265625 197.683594 125.410156 197.691406 125.59375 197.414062 C 125.632812 197.664062 125.683594 197.878906 125.746094 198.070312 C 126.28125 198.199219 126.8125 198.332031 127.335938 198.417969 L 127.34375 198.351562 C 128.117188 198.265625 129.050781 198.921875 129.824219 198.664062 C 129.957031 198.753906 130.089844 198.839844 130.222656 198.925781 C 130.148438 199.410156 130.035156 200.132812 129.972656 200.523438 C 129.902344 200.980469 128.800781 200.808594 127.695312 200.632812 C 127.582031 201.308594 126.867188 201.871094 126.910156 202.378906 C 126.667969 202.382812 126.429688 202.382812 126.191406 202.386719 C 123.300781 202.40625 120.417969 202.425781 117.539062 202.445312 C 116.882812 202.550781 116.46875 202.6875 116.222656 202.851562 C 115.984375 203.019531 115.902344 203.207031 115.90625 203.410156 C 115.90625 203.8125 116.226562 204.277344 116.226562 204.738281 C 118.84375 204.777344 121.460938 204.699219 123.914062 204.734375 C 124.117188 204.734375 124.320312 204.742188 124.523438 204.746094 C 123.738281 205.253906 123.273438 205.847656 123.175781 206.371094 C 124.402344 206.132812 124.152344 207.5 125.382812 207.261719 C 121.710938 207.972656 117.777344 209.101562 122.386719 210.457031 C 125.9375 211.292969 129.507812 211.9375 133.078125 212.476562 L 249.914062 212.476562 C 249.910156 212.382812 249.910156 212.296875 249.90625 212.226562 C 249.898438 211.792969 250.972656 211.75 252.136719 211.738281 C 251.519531 211.742188 250.710938 211.746094 249.898438 211.761719 C 248.9375 211.789062 247.976562 211.816406 247.339844 211.832031 C 247.324219 211.371094 247.300781 210.445312 247.289062 209.984375 C 247.277344 209.519531 248.566406 209.484375 249.851562 209.449219 C 249.832031 208.523438 251.113281 207.578125 249.808594 207.140625 C 248.507812 207.171875 247.214844 207.207031 245.921875 207.242188 C 248.503906 206.941406 250.433594 206.1875 251.734375 205.378906 C 253.027344 204.558594 253.675781 203.625 253.671875 202.933594 C 252.363281 203.40625 252.34375 202.019531 251.035156 202.496094 C 252.019531 202.136719 253.007812 201.75 253.855469 201.363281 C 253.992188 201.484375 254.128906 201.601562 254.265625 201.730469 C 254.164062 201.585938 254.054688 201.453125 253.941406 201.324219 C 256.410156 200.1875 257.589844 199.074219 253.644531 198.769531 "/>
<g clip-path="url(#clip3)" clip-rule="nonzero">
<path style=" stroke:none;fill-rule:nonzero;fill:rgb(97.648621%,65.098572%,12.548828%);fill-opacity:1;" d="M 107.882812 210.101562 C 108.664062 211.199219 109.839844 211.800781 110.957031 212.476562 L 111.367188 212.476562 C 110.148438 211.886719 108.980469 211.113281 107.882812 210.101562 "/>
</g>
</g>
</svg>
