<?xml version="1.0" encoding="UTF-8"?>
<svg xmlns="http://www.w3.org/2000/svg" xmlns:xlink="http://www.w3.org/1999/xlink" width="375pt" height="374.999991pt" viewBox="0 0 375 374.999991" version="1.2">
<defs>
<clipPath id="clip1">
  <path d="M 112.316406 148 L 160 148 L 160 242 L 112.316406 242 Z M 112.316406 148 "/>
</clipPath>
<clipPath id="clip2">
  <path d="M 191 238 L 213 238 L 213 246.734375 L 191 246.734375 Z M 191 238 "/>
</clipPath>
</defs>
<g id="surface1">
<g clip-path="url(#clip1)" clip-rule="nonzero">
<path style=" stroke:none;fill-rule:nonzero;fill:rgb(22.749329%,46.269226%,76.858521%);fill-opacity:1;" d="M 149.023438 202.285156 C 148.269531 202.164062 147.488281 202.015625 146.722656 201.878906 C 146.980469 201.769531 147.261719 201.699219 147.574219 201.539062 C 148.171875 201.535156 148.753906 201.539062 149.324219 201.5625 C 149.261719 201.792969 149.144531 202.039062 149.023438 202.285156 Z M 146.46875 194.71875 C 146.109375 194.679688 145.710938 194.640625 145.394531 194.664062 C 145.550781 194.507812 145.6875 194.320312 145.769531 194.253906 C 146.023438 194.414062 146.277344 194.574219 146.539062 194.726562 C 146.515625 194.726562 146.492188 194.722656 146.46875 194.71875 Z M 143.539062 197.476562 C 142.894531 197.277344 142.253906 197.042969 141.609375 196.828125 C 140.902344 196.914062 140.199219 196.96875 139.5 196.976562 C 138.800781 196.980469 138.101562 196.953125 137.417969 196.808594 C 137.566406 196.519531 137.71875 196.328125 137.875 196.199219 C 137.382812 196.296875 136.890625 196.335938 136.402344 196.332031 C 136.234375 196.492188 136.066406 196.664062 135.898438 196.839844 C 135.96875 196.710938 136.117188 196.523438 136.230469 196.328125 C 135.472656 196.316406 134.742188 196.152344 134.019531 195.980469 C 133.296875 195.8125 132.597656 195.570312 131.910156 195.363281 C 132.023438 195.367188 132.121094 195.125 132.207031 194.925781 C 132.128906 194.9375 132.050781 194.941406 131.972656 194.9375 C 131.75 195.007812 131.53125 195.0625 131.324219 195.054688 C 131.558594 194.90625 131.765625 194.929688 131.972656 194.9375 C 132.0625 194.90625 132.152344 194.875 132.242188 194.84375 C 132.320312 194.667969 132.394531 194.5625 132.46875 194.765625 C 132.882812 194.617188 133.25 194.546875 133.476562 194.84375 C 133.90625 195.414062 134.40625 195.417969 134.894531 195.382812 C 135.378906 195.351562 135.851562 195.285156 136.253906 195.695312 C 136.445312 195.847656 136.367188 196.089844 136.230469 196.328125 L 136.402344 196.332031 C 136.785156 195.960938 137.15625 195.671875 137.503906 195.667969 C 137.882812 195.738281 138.261719 195.832031 138.636719 195.917969 L 138.863281 195.902344 L 138.746094 195.945312 C 139.710938 196.179688 140.65625 196.519531 141.609375 196.828125 C 142.191406 196.761719 142.773438 196.695312 143.355469 196.625 C 142.324219 196.261719 141.246094 196.171875 140.253906 195.550781 C 140.988281 194.980469 141.761719 194.628906 142.519531 194.609375 C 142.035156 194.5 141.542969 194.433594 141.050781 194.363281 C 140.902344 194.253906 140.75 194.144531 140.613281 194.007812 C 140.800781 194.0625 140.988281 194.121094 141.179688 194.171875 C 141.855469 194.347656 142.527344 194.515625 143.195312 194.667969 C 143.738281 194.699219 144.292969 194.757812 144.851562 194.882812 C 144.828125 194.921875 144.8125 194.96875 144.804688 195.019531 C 144.757812 195.511719 144.710938 196 144.753906 196.488281 C 144.289062 196.519531 143.824219 196.570312 143.355469 196.625 C 143.921875 196.816406 144.476562 197.082031 145.015625 197.550781 C 145.074219 197.679688 145.140625 197.8125 145.222656 197.945312 C 144.660156 197.804688 144.101562 197.648438 143.539062 197.476562 Z M 138.695312 225.089844 C 138.691406 225.296875 138.683594 225.503906 138.683594 225.707031 C 137.714844 225.644531 136.757812 225.578125 135.808594 225.519531 C 136.046875 225.503906 136.160156 225.25 136.269531 225.039062 C 136.109375 225.0625 135.953125 225.078125 135.792969 225.089844 C 135.367188 225.195312 134.9375 225.289062 134.523438 225.316406 C 134.941406 225.128906 135.367188 225.121094 135.792969 225.089844 C 135.96875 225.042969 136.140625 224.996094 136.316406 224.953125 C 136.417969 224.765625 136.53125 224.648438 136.746094 224.835938 C 137.546875 224.628906 138.289062 224.488281 138.839844 224.753906 C 138.871094 224.769531 138.90625 224.78125 138.941406 224.792969 C 138.792969 224.855469 138.703125 224.949219 138.695312 225.089844 Z M 129.898438 192.042969 C 128.878906 192.078125 127.878906 192 126.9375 191.738281 C 126.464844 191.621094 126.023438 191.410156 125.613281 191.144531 C 125.203125 190.878906 124.820312 190.546875 124.488281 190.128906 C 123.875 189.320312 123.4375 188.195312 123.261719 186.679688 C 123.457031 186.933594 123.691406 187.15625 124.027344 187.304688 L 127.328125 188.867188 C 128.480469 189.097656 129.582031 188.839844 130.425781 190.289062 C 130.523438 190.335938 130.621094 190.378906 130.71875 190.421875 C 130.933594 190.371094 131.171875 190.121094 131.382812 190.140625 C 132.265625 190.53125 132.355469 191.261719 133.453125 190.953125 C 133.441406 191.105469 133.386719 191.214844 133.3125 191.300781 C 133.652344 191.15625 134.101562 191.503906 134.503906 191.1875 C 134.5 191.242188 134.496094 191.296875 134.492188 191.351562 C 134.230469 191.492188 133.96875 191.621094 133.703125 191.722656 C 133.429688 191.828125 133.152344 191.914062 132.871094 191.976562 C 132.394531 191.960938 131.90625 191.976562 131.402344 192.003906 C 130.90625 192.015625 130.402344 192.03125 129.898438 192.042969 Z M 123.503906 234.585938 C 123.542969 234.558594 123.574219 234.527344 123.609375 234.484375 C 123.609375 234.496094 123.609375 234.507812 123.609375 234.523438 C 123.582031 234.546875 123.539062 234.5625 123.503906 234.585938 Z M 159.617188 236.0625 L 159.617188 158.578125 C 159.042969 158.496094 158.472656 158.417969 157.910156 158.316406 C 157.273438 158.203125 156.640625 158.09375 156.015625 157.984375 C 156.21875 157.988281 156.34375 157.742188 156.457031 157.542969 C 156.316406 157.554688 156.179688 157.554688 156.042969 157.550781 C 155.667969 157.621094 155.289062 157.675781 154.929688 157.667969 C 155.308594 157.519531 155.675781 157.542969 156.042969 157.550781 C 156.195312 157.519531 156.351562 157.488281 156.503906 157.460938 C 156.609375 157.28125 156.71875 157.175781 156.882812 157.378906 C 157.589844 157.238281 158.234375 157.171875 158.683594 157.46875 C 158.992188 157.671875 159.304688 157.804688 159.617188 157.886719 L 159.617188 154.035156 C 159.257812 154.140625 158.898438 154.242188 158.53125 154.324219 C 158.050781 154.425781 157.5625 154.507812 157.070312 154.570312 C 156.207031 154.546875 155.320312 154.558594 154.421875 154.578125 C 153.527344 154.589844 152.625 154.589844 151.714844 154.589844 C 151.261719 154.585938 150.808594 154.582031 150.351562 154.578125 L 149.671875 154.558594 L 148.996094 154.515625 C 148.097656 154.445312 147.203125 154.347656 146.328125 154.199219 C 145.449219 154.0625 144.601562 153.828125 143.78125 153.535156 C 142.964844 153.242188 142.175781 152.878906 141.429688 152.425781 C 139.957031 151.488281 138.671875 150.171875 137.6875 148.378906 C 138.347656 150.488281 140.347656 151.355469 141.109375 153.484375 L 140.59375 153.992188 C 140.671875 154.886719 141.457031 155.53125 141.816406 156.152344 C 141.554688 156.414062 141.375 156.105469 141.199219 155.796875 C 141.375 156.105469 141.375 156.105469 141.554688 156.414062 C 141.117188 156.359375 140.601562 156.160156 140.085938 155.871094 C 139.570312 155.59375 139.046875 155.277344 138.570312 155.042969 C 137.625 154.582031 136.867188 154.476562 136.742188 155.757812 C 136.617188 157.039062 137.308594 157.9375 138.296875 158.695312 C 138.789062 159.074219 139.355469 159.425781 139.929688 159.757812 C 140.507812 160.078125 141.09375 160.394531 141.617188 160.742188 C 140.5 161.335938 139.421875 161.160156 138.386719 160.773438 C 137.347656 160.40625 136.335938 159.894531 135.292969 159.886719 C 135.644531 160.515625 135.71875 161.394531 136.355469 161.78125 L 138.761719 163.335938 C 139.636719 163.550781 140.5 163.257812 141.058594 164.679688 C 141.128906 164.722656 141.203125 164.761719 141.273438 164.804688 C 141.445312 164.75 141.644531 164.492188 141.804688 164.511719 C 142.460938 164.875 142.492188 165.597656 143.355469 165.265625 C 143.335938 165.417969 143.289062 165.527344 143.226562 165.613281 C 143.5 165.460938 143.824219 165.800781 144.152344 165.480469 C 144.117188 165.765625 144.085938 166.050781 144.105469 166.289062 C 144.421875 166.441406 144.746094 166.585938 145.070312 166.730469 C 144.527344 166.914062 144.050781 167.183594 143.671875 167.574219 L 147.039062 167.574219 C 143.671875 168.960938 140.304688 167.574219 136.933594 168.039062 C 136.933594 168.960938 136.933594 169.425781 135.8125 169.886719 C 138.058594 169.886719 141.425781 169.425781 143.671875 169.886719 L 143.671875 171.273438 C 141.425781 171.738281 138.058594 170.8125 135.8125 171.273438 C 135.8125 171.738281 135.8125 172.664062 135.8125 173.125 C 135.8125 173.585938 134.6875 173.585938 133.566406 173.585938 C 134.6875 173.585938 136.933594 173.585938 138.058594 173.585938 C 138.058594 174.050781 138.058594 174.976562 138.058594 175.4375 C 138.058594 175.902344 136.933594 175.902344 135.8125 175.902344 C 135.8125 176.828125 134.6875 177.753906 135.8125 178.214844 C 136.933594 178.214844 138.058594 178.214844 139.179688 178.214844 C 137.316406 178.40625 135.84375 178.917969 134.753906 179.546875 C 134.199219 179.421875 133.644531 179.28125 133.101562 179.125 C 131.957031 178.789062 130.847656 178.390625 129.785156 177.902344 C 127.660156 176.925781 125.726562 175.59375 124.097656 173.757812 C 125.320312 175.910156 128.191406 176.800781 129.457031 178.960938 L 128.808594 179.464844 C 128.917969 179.933594 129.28125 180.351562 129.679688 180.734375 C 129.039062 180.84375 128.636719 180.980469 128.398438 181.144531 C 128.324219 181.199219 128.273438 181.257812 128.226562 181.320312 C 126.082031 180.472656 123.8125 179.304688 123.8125 181.222656 C 123.808594 183.816406 127.9375 184.851562 130.828125 186.328125 C 127.980469 187.457031 125.148438 185.410156 122.414062 185.394531 C 122.726562 185.769531 122.929688 186.230469 123.21875 186.625 C 123.210938 188.425781 124.078125 189.214844 124.105469 191.160156 L 123.710938 191.667969 C 123.585938 192.523438 123.921875 193.140625 124.019531 193.734375 C 123.820312 193.992188 123.769531 193.695312 123.726562 193.398438 C 123.773438 193.695312 123.773438 193.695312 123.820312 193.992188 C 123.316406 193.925781 122.796875 193.15625 122.332031 192.738281 C 121.871094 192.316406 121.449219 192.234375 121.109375 193.46875 C 120.769531 194.707031 121.003906 195.554688 121.457031 196.265625 C 121.679688 196.621094 121.960938 196.949219 122.246094 197.265625 C 122.535156 197.566406 122.832031 197.867188 123.089844 198.199219 C 122.3125 198.792969 121.683594 198.625 121.117188 198.273438 C 120.546875 197.933594 120.027344 197.460938 119.386719 197.46875 C 119.472656 198.070312 119.34375 198.914062 119.667969 199.277344 C 120.0625 199.769531 120.46875 200.261719 120.878906 200.75 C 121.386719 200.953125 121.96875 200.660156 122.074219 202.042969 L 122.191406 202.160156 C 122.304688 202.105469 122.472656 201.855469 122.570312 201.871094 C 122.917969 202.222656 122.820312 202.929688 123.414062 202.597656 C 123.378906 202.746094 123.332031 202.851562 123.277344 202.941406 C 123.472656 202.785156 123.621094 203.121094 123.875 202.804688 C 123.8125 203.085938 123.746094 203.367188 123.71875 203.597656 C 124.171875 203.976562 124.636719 204.335938 125.113281 204.671875 C 125.355469 204.839844 125.597656 205 125.84375 205.15625 C 126.089844 205.304688 126.339844 205.441406 126.59375 205.574219 C 126.894531 205.722656 127.195312 205.863281 127.496094 205.992188 C 127.773438 206.003906 128.050781 206.042969 128.320312 206.160156 C 128.464844 206.171875 128.699219 205.621094 128.789062 205.484375 C 129.078125 205.929688 129.375 206.375 129.765625 206.683594 C 129.855469 206.542969 130 206.550781 130.183594 206.273438 C 130.222656 206.519531 130.277344 206.738281 130.335938 206.925781 C 130.871094 207.058594 131.40625 207.1875 131.929688 207.277344 L 131.933594 207.210938 C 132.707031 207.125 133.640625 207.78125 134.414062 207.523438 C 134.546875 207.609375 134.679688 207.695312 134.8125 207.78125 C 134.738281 208.269531 134.625 208.992188 134.566406 209.382812 C 134.492188 209.839844 133.390625 209.667969 132.285156 209.492188 C 132.171875 210.167969 131.457031 210.730469 131.5 211.238281 C 131.257812 211.242188 131.019531 211.242188 130.78125 211.242188 C 127.890625 211.261719 125.007812 211.28125 122.128906 211.304688 C 121.472656 211.410156 121.0625 211.546875 120.816406 211.710938 C 120.574219 211.878906 120.496094 212.066406 120.496094 212.265625 C 120.496094 212.671875 120.820312 213.136719 120.820312 213.597656 C 123.433594 213.636719 126.050781 213.554688 128.503906 213.589844 C 128.710938 213.59375 128.910156 213.601562 129.113281 213.605469 C 128.332031 214.113281 127.867188 214.703125 127.765625 215.226562 C 128.996094 214.992188 128.742188 216.355469 129.976562 216.121094 C 126.300781 216.832031 122.371094 217.960938 126.980469 219.3125 C 130.898438 220.238281 134.847656 220.9375 138.789062 221.503906 C 138.085938 221.707031 137.375 221.882812 136.65625 222.019531 C 128.503906 222.539062 119.175781 225.144531 112.472656 218.960938 C 113.851562 220.882812 116.425781 221.296875 117.800781 223.21875 L 117.320312 223.824219 C 117.621094 224.664062 118.667969 225.175781 119.207031 225.714844 C 118.964844 226.019531 118.695312 225.746094 118.425781 225.476562 C 118.695312 225.746094 118.695312 225.746094 118.964844 226.019531 C 116.925781 226.148438 112.976562 223.8125 113.359375 226.375 C 113.746094 228.933594 117.339844 229.28125 119.945312 230.265625 C 117.722656 231.84375 115.09375 230.285156 112.8125 230.71875 C 113.351562 231.261719 113.648438 232.101562 114.425781 232.339844 L 117.375 233.34375 C 118.359375 233.382812 119.242188 232.949219 120.125 234.242188 C 120.210938 234.269531 120.296875 234.296875 120.382812 234.324219 C 120.554688 234.238281 120.722656 233.949219 120.898438 233.9375 C 121.675781 234.175781 121.839844 234.882812 122.710938 234.398438 C 122.71875 234.554688 122.6875 234.667969 122.636719 234.765625 C 122.824219 234.617188 123.09375 234.726562 123.339844 234.660156 C 122.667969 234.9375 121.515625 234.753906 120.898438 235.210938 C 122.675781 235.554688 124.246094 235.761719 125.878906 235.839844 C 125.992188 235.867188 126.105469 235.890625 126.214844 235.917969 L 123.09375 236.011719 C 124.160156 235.980469 125.253906 235.964844 126.371094 235.953125 C 127.394531 236.183594 128.425781 236.386719 129.464844 236.554688 C 130.042969 236.640625 130.617188 236.714844 131.183594 236.78125 C 131.667969 236.734375 132.160156 236.71875 132.671875 236.78125 C 132.925781 236.761719 133.152344 236.175781 133.273438 236.023438 C 133.929688 236.410156 134.589844 236.800781 135.367188 237.039062 C 135.488281 236.890625 135.742188 236.871094 135.984375 236.570312 C 136.125 236.808594 136.28125 237.011719 136.441406 237.1875 C 137.417969 237.230469 138.382812 237.261719 139.34375 237.285156 L 139.339844 237.21875 C 140.703125 237.027344 142.5 237.546875 143.84375 237.195312 C 144.238281 237.308594 144.632812 237.417969 145.027344 237.527344 C 144.964844 237.296875 144.953125 237.007812 144.9375 236.71875 C 144.808594 236.882812 144.65625 236.917969 144.503906 236.921875 C 144.757812 236.765625 144.984375 236.554688 145.171875 236.273438 C 145.53125 236.8125 145.941406 237.195312 146.382812 237.457031 C 147.476562 237.503906 148.574219 237.570312 149.675781 237.671875 C 149.769531 237.46875 149.691406 237.195312 149.679688 236.992188 C 150.039062 237.167969 150.402344 237.386719 150.765625 237.601562 C 150.117188 237.714844 149.472656 237.839844 148.828125 237.988281 C 146.703125 238.324219 146.234375 239.132812 146.496094 239.84375 C 146.753906 240.550781 147.761719 241.171875 148.621094 241.152344 C 152.414062 241.0625 156.046875 241.3125 159.617188 241.53125 L 159.617188 236.0625 "/>
</g>
<path style=" stroke:none;fill-rule:nonzero;fill:rgb(100%,100%,100%);fill-opacity:1;" d="M 209.21875 235.511719 C 210.230469 235.707031 211.253906 235.832031 212.277344 235.992188 L 212.277344 235.347656 C 211.257812 235.402344 210.242188 235.457031 209.21875 235.511719 "/>
<path style=" stroke:none;fill-rule:nonzero;fill:rgb(100%,100%,100%);fill-opacity:1;" d="M 210.929688 237.546875 C 211.378906 237.601562 211.828125 237.648438 212.277344 237.6875 L 212.277344 237.441406 C 211.832031 237.503906 211.382812 237.539062 210.929688 237.546875 "/>
<g clip-path="url(#clip2)" clip-rule="nonzero">
<path style=" stroke:none;fill-rule:nonzero;fill:rgb(100%,100%,100%);fill-opacity:1;" d="M 212.277344 238.820312 C 209.734375 238.433594 207.230469 238.171875 204.734375 238.074219 C 206.171875 239.769531 208.542969 237.964844 210.21875 239.355469 C 208.675781 239.542969 207.09375 239.558594 205.503906 239.5 C 203.910156 239.433594 202.300781 239.308594 200.691406 239.238281 C 199.085938 239.164062 197.476562 239.144531 195.882812 239.296875 C 194.28125 239.425781 192.695312 239.722656 191.128906 240.308594 C 193.28125 240.570312 195.445312 240.871094 197.589844 241.667969 C 197.183594 241.511719 196.699219 241.636719 196.230469 241.726562 C 197.730469 241.761719 199.132812 241.921875 200.695312 241.886719 C 200.6875 241.910156 200.679688 241.925781 200.671875 241.945312 C 202.417969 242.011719 204.152344 242.332031 205.875 242.761719 C 207.597656 243.179688 209.304688 243.707031 210.992188 244.207031 C 209.574219 245.96875 208.828125 243.40625 207.871094 243.4375 C 205.242188 243.808594 202.609375 243.558594 200.21875 243.617188 C 201.175781 243.597656 202.132812 243.578125 203.089844 243.558594 C 201.652344 243.585938 200.457031 243.328125 199.019531 242.785156 C 199.488281 242.214844 200.40625 242.722656 200.671875 241.945312 C 198.695312 241.859375 196.714844 242.121094 194.710938 242.863281 C 192.300781 243.453125 193.480469 246.023438 194.449219 246.019531 C 195.671875 246.019531 196.835938 246.085938 197.992188 246.214844 C 199.140625 246.335938 200.273438 246.5 201.398438 246.636719 C 203.644531 246.914062 205.863281 247.085938 208.140625 246.585938 C 209.519531 245.992188 210.898438 245.640625 212.277344 245.367188 L 212.277344 238.820312 "/>
</g>
<path style=" stroke:none;fill-rule:nonzero;fill:rgb(100%,100%,100%);fill-opacity:1;" d="M 199.046875 154.386719 C 199.027344 154.34375 199.007812 154.304688 198.988281 154.269531 C 199.039062 154.273438 199.09375 154.28125 199.144531 154.292969 C 199.113281 154.324219 199.078125 154.351562 199.046875 154.386719 Z M 190.835938 165.726562 C 190.734375 165.738281 190.632812 165.746094 190.535156 165.757812 C 190.132812 165.617188 189.734375 165.453125 189.34375 165.261719 C 190.300781 165.34375 191.257812 165.441406 192.214844 165.546875 C 191.757812 165.605469 191.292969 165.664062 190.835938 165.726562 Z M 180.671875 234.078125 C 181.050781 233.9375 181.425781 233.828125 181.8125 233.742188 C 180.9375 233.671875 180.066406 233.609375 179.195312 233.546875 C 179.410156 233.53125 179.621094 233.519531 179.832031 233.5 C 180.859375 233.417969 181.882812 233.335938 182.902344 233.246094 C 183.550781 233.1875 184.195312 233.125 184.835938 233.058594 C 185.339844 233.207031 185.804688 233.386719 186.191406 233.621094 C 184.523438 233.449219 183.128906 233.449219 181.8125 233.742188 C 184.675781 233.960938 187.582031 234.230469 190.53125 234.523438 C 187.320312 234.292969 183.882812 235.03125 180.671875 234.078125 Z M 180.644531 240.140625 C 180.96875 240.097656 181.296875 240.058594 181.621094 240.023438 C 182.132812 240.117188 182.648438 240.167969 183.203125 240.171875 Z M 172.429688 238.296875 C 170.460938 238.460938 168.484375 238.527344 166.53125 238.554688 C 166.519531 238.539062 166.507812 238.523438 166.496094 238.503906 C 166.488281 238.523438 166.472656 238.539062 166.464844 238.554688 C 164.328125 238.582031 162.230469 238.570312 160.214844 238.59375 C 160.21875 238.589844 160.21875 238.585938 160.222656 238.582031 C 161.4375 238.554688 162.652344 238.527344 163.871094 238.5 C 162.636719 238.527344 161.496094 238.488281 160.359375 238.378906 C 160.40625 238.316406 160.449219 238.285156 160.480469 238.316406 C 160.976562 238.335938 161.453125 238.371094 161.914062 238.460938 C 163.511719 238.257812 164.992188 237.976562 165.816406 237.6875 C 165.945312 237.605469 166.007812 237.484375 166.011719 237.328125 C 170.070312 237.738281 174.105469 238.40625 178.0625 239.023438 C 175.628906 240.804688 174.144531 238.253906 172.429688 238.296875 Z M 164.304688 233.835938 L 166.578125 233.871094 L 167.359375 233.871094 C 168.402344 233.871094 169.445312 233.867188 170.484375 233.863281 C 171.53125 233.851562 172.570312 233.859375 173.609375 233.808594 C 174.046875 233.792969 174.476562 233.773438 174.910156 233.757812 C 175.425781 233.839844 175.921875 233.972656 176.398438 234.179688 C 172.515625 234.476562 168.496094 234.417969 164.445312 234.332031 C 164.339844 234.15625 164.242188 233.988281 164.164062 233.832031 C 164.210938 233.832031 164.257812 233.835938 164.304688 233.835938 Z M 181.632812 164.699219 C 181.652344 164.699219 181.675781 164.703125 181.699219 164.703125 C 182.1875 164.667969 182.664062 164.601562 183.105469 164.433594 C 182.589844 165.109375 181.90625 165.613281 181.347656 166.246094 C 181.050781 166.246094 180.757812 166.246094 180.460938 166.246094 C 180.785156 165.414062 181.175781 164.964844 181.632812 164.699219 Z M 183.273438 164.1875 C 183.226562 164.257812 183.1875 164.324219 183.140625 164.390625 C 182.679688 164.457031 182.21875 164.535156 181.761719 164.625 C 182.207031 164.398438 182.710938 164.3125 183.273438 164.1875 Z M 209.035156 234.691406 C 210.109375 234.890625 211.191406 235.09375 212.277344 235.296875 L 212.277344 154.671875 C 211.574219 154.632812 210.882812 154.625 210.28125 154.777344 C 209.863281 154.671875 209.441406 154.5625 209.019531 154.457031 C 209.085938 154.6875 209.105469 154.976562 209.121094 155.265625 C 209.257812 155.101562 209.417969 155.066406 209.578125 155.058594 C 209.308594 155.214844 209.070312 155.429688 208.878906 155.714844 C 208.488281 155.175781 208.054688 154.796875 207.582031 154.539062 C 207.648438 154.535156 207.714844 154.53125 207.785156 154.527344 C 207.558594 154.449219 207.308594 154.46875 207.058594 154.519531 C 206.066406 154.480469 205.074219 154.429688 204.085938 154.359375 C 203.988281 154.558594 204.074219 154.832031 204.085938 155.035156 C 203.640625 154.839844 203.191406 154.578125 202.742188 154.335938 C 203.054688 153.878906 203.785156 154.171875 204.144531 153.652344 C 202.957031 153.246094 201.953125 153.046875 200.835938 153.066406 C 200.914062 153.0625 200.996094 153.054688 201.074219 153.046875 C 201.039062 153.042969 201.007812 153.042969 200.976562 153.039062 L 202.980469 152.878906 C 202.203125 152.941406 201.394531 152.96875 200.570312 153.003906 C 198.839844 152.84375 197.175781 152.746094 195.53125 152.695312 C 195.703125 152.871094 195.867188 153.074219 196.019531 153.308594 C 196.269531 153.003906 196.535156 152.984375 196.664062 152.832031 C 197 152.929688 197.316406 153.050781 197.621094 153.1875 C 197.175781 153.234375 196.730469 153.296875 196.285156 153.375 C 196.046875 153.367188 195.789062 153.363281 195.519531 153.367188 C 194.753906 152.957031 194.003906 151.230469 192.925781 152.824219 C 193.609375 153.007812 194.304688 153.195312 195 153.378906 C 194.371094 153.398438 193.695312 153.441406 193.007812 153.496094 C 192.871094 153.703125 192.765625 153.886719 192.699219 153.824219 C 192.585938 153.824219 192.472656 153.820312 192.363281 153.8125 C 192.5625 153.726562 192.761719 153.636719 192.960938 153.539062 C 191.179688 153.429688 189.402344 153.3125 187.613281 152.792969 C 188.082031 152.640625 188.613281 152.601562 189.171875 152.609375 C 190.289062 152.625 191.503906 152.828125 192.496094 152.691406 L 192.496094 152.625 C 191.253906 152.609375 190.027344 152.59375 188.800781 152.582031 C 188.460938 152.574219 188.121094 152.566406 187.777344 152.558594 C 187.914062 152.523438 188.046875 152.488281 188.183594 152.453125 C 186.796875 152.488281 185.492188 152.40625 184.0625 152.5 C 184.066406 152.480469 184.074219 152.460938 184.078125 152.441406 C 183.300781 152.445312 182.523438 152.390625 181.746094 152.289062 C 181.753906 152.277344 181.753906 152.265625 181.761719 152.253906 C 181.453125 152.222656 181.144531 152.1875 180.835938 152.152344 C 180.320312 152.0625 179.800781 151.957031 179.289062 151.835938 C 177.707031 151.464844 176.140625 150.988281 174.617188 150.507812 C 175.875 148.722656 176.578125 151.273438 177.453125 151.214844 C 178.644531 150.996094 179.839844 150.925781 181.011719 150.882812 C 182.1875 150.839844 183.339844 150.828125 184.429688 150.75 C 183.554688 150.8125 182.683594 150.875 181.808594 150.933594 C 183.117188 150.84375 184.21875 151.054688 185.558594 151.53125 C 185.15625 152.125 184.292969 151.652344 184.078125 152.441406 C 185.894531 152.441406 187.726562 152.089844 189.515625 151.230469 C 191.695312 150.480469 190.464844 147.992188 189.585938 148.0625 C 185.167969 148.40625 181.214844 146.976562 177.152344 148.074219 C 176.1875 148.570312 175.234375 148.894531 174.269531 149.160156 C 173.304688 149.421875 172.332031 149.628906 171.371094 149.800781 C 170.296875 149.554688 168.800781 149.324219 168.15625 149.632812 C 167.296875 150.238281 166.429688 150.800781 165.535156 151.339844 C 164.644531 151.875 163.730469 152.382812 162.804688 152.820312 C 161.882812 153.25 160.941406 153.625 159.980469 153.925781 C 159.859375 153.964844 159.738281 154 159.617188 154.035156 L 159.617188 157.886719 C 160.175781 158.035156 160.734375 158.03125 161.28125 158.011719 C 162.136719 157.980469 162.964844 157.910156 163.730469 158.320312 C 164.089844 158.472656 163.984375 158.71875 163.777344 158.957031 C 163.878906 158.957031 163.980469 158.957031 164.082031 158.957031 C 164.703125 158.582031 165.324219 158.292969 165.9375 158.285156 C 166.617188 158.351562 167.296875 158.441406 167.96875 158.523438 L 168.367188 158.507812 L 168.164062 158.550781 C 169.890625 158.777344 171.597656 159.105469 173.296875 159.402344 C 174.316406 159.324219 175.335938 159.25 176.355469 159.171875 C 175.433594 159 174.496094 158.890625 173.566406 158.75 C 172.632812 158.613281 171.703125 158.449219 170.796875 158.140625 C 172.039062 157.5625 173.382812 157.195312 174.734375 157.167969 C 173.863281 157.066406 172.984375 157.003906 172.101562 156.941406 C 171.4375 156.6875 170.777344 156.417969 170.335938 155.859375 C 171.1875 156.054688 171.902344 156.078125 172.585938 155.785156 C 171.121094 155.550781 169.644531 155.230469 168.148438 154.902344 C 168.964844 155.039062 169.816406 154.933594 170.667969 154.917969 C 171.519531 154.90625 172.367188 154.972656 173.179688 155.457031 C 172.984375 155.59375 172.789062 155.699219 172.585938 155.785156 C 173.917969 155.996094 175.230469 156.171875 176.542969 156.292969 C 177.855469 156.40625 179.164062 156.472656 180.46875 156.484375 C 179.777344 155.664062 178.898438 155.71875 177.992188 155.808594 C 177.089844 155.898438 176.152344 156.03125 175.371094 155.347656 C 178.214844 154.910156 181.1875 155.148438 184.171875 155.148438 C 185.097656 155.148438 186.023438 155.125 186.945312 155.054688 C 187.0625 155.667969 187.738281 156.597656 188.304688 157.429688 C 187.691406 157.484375 187.082031 157.535156 186.488281 157.460938 C 187.183594 157.585938 187.871094 157.703125 188.554688 157.808594 C 188.902344 158.351562 189.152344 158.820312 189.089844 159.082031 C 188.242188 161.445312 186.910156 161.316406 185.132812 161.703125 C 185.183594 161.605469 185.234375 161.507812 185.289062 161.421875 C 185.75 161.335938 186.214844 161.230469 186.675781 161.109375 C 186.609375 161.101562 186.542969 161.097656 186.476562 161.089844 C 186.074219 161.128906 185.679688 161.203125 185.316406 161.375 C 185.753906 160.675781 186.34375 160.148438 186.800781 159.484375 C 183.320312 158.742188 179.839844 158.898438 176.355469 159.171875 C 177.660156 159.402344 178.941406 159.761719 180.167969 160.519531 C 179.023438 160.378906 177.882812 160.203125 176.738281 160.015625 C 175.59375 159.828125 174.449219 159.605469 173.296875 159.402344 C 172.0625 159.5 170.828125 159.5625 169.597656 159.574219 C 168.371094 159.589844 167.144531 159.570312 165.925781 159.429688 C 166.152344 159.140625 166.398438 158.945312 166.660156 158.8125 C 165.796875 158.917969 164.9375 158.957031 164.082031 158.957031 C 163.808594 159.121094 163.539062 159.296875 163.265625 159.472656 C 163.371094 159.34375 163.605469 159.152344 163.777344 158.957031 C 162.449219 158.949219 161.136719 158.78125 159.839844 158.609375 C 159.765625 158.597656 159.691406 158.589844 159.617188 158.578125 L 159.617188 241.53125 C 164.152344 241.804688 168.585938 242.027344 173.101562 241.441406 C 175.601562 240.8125 178.121094 240.441406 180.632812 240.140625 C 182.957031 240.191406 185.488281 240.503906 188.011719 240.1875 C 188.96875 240.179688 189.65625 242.757812 191.121094 241.023438 C 189.980469 240.660156 188.835938 240.285156 187.679688 239.941406 C 189.003906 239.996094 190.234375 239.976562 190.925781 239.796875 C 194.246094 238.542969 197.679688 237.363281 201.238281 236.390625 C 202.289062 236.105469 203.351562 235.839844 204.425781 235.59375 C 206.019531 235.640625 207.621094 235.59375 209.21875 235.511719 C 208.550781 235.382812 207.890625 235.222656 207.238281 235.003906 C 207.835938 234.894531 208.429688 234.789062 209.035156 234.691406 "/>
<path style=" stroke:none;fill-rule:nonzero;fill:rgb(93.328857%,13.729858%,19.60907%);fill-opacity:1;" d="M 234.347656 208.085938 C 234.542969 208.066406 234.742188 208.046875 234.9375 208.03125 C 235.578125 207.996094 236.21875 208 236.851562 207.957031 C 237.46875 207.933594 238.089844 207.855469 238.6875 207.6875 C 238.644531 207.21875 238.613281 206.871094 238.695312 206.570312 C 239.511719 206.527344 240.332031 206.464844 241.15625 206.417969 C 243.265625 206.296875 245.382812 206.210938 247.445312 206.332031 C 248.476562 206.40625 249.496094 206.480469 250.5 206.636719 C 251.5 206.792969 252.484375 207.019531 253.441406 207.34375 C 253.648438 207.414062 253.851562 207.488281 254.054688 207.566406 C 247.449219 207.527344 240.871094 207.742188 234.347656 208.085938 Z M 258.851562 210.589844 C 258.746094 210.445312 258.636719 210.3125 258.527344 210.183594 C 260.996094 209.046875 262.175781 207.933594 258.226562 207.628906 C 257.125 207.601562 256.019531 207.585938 254.917969 207.574219 C 254.417969 207.203125 253.957031 206.785156 253.589844 206.25 L 254.074219 205.652344 C 253.792969 204.804688 252.769531 204.277344 252.253906 203.730469 C 252.496094 203.433594 252.753906 203.707031 253.015625 203.980469 C 252.753906 203.707031 252.753906 203.707031 252.496094 203.433594 C 254.484375 203.332031 258.351562 205.730469 257.984375 203.160156 C 257.613281 200.59375 254.125 200.191406 251.628906 199.171875 C 253.804688 197.625 256.316406 199.222656 258.527344 198.828125 C 258.007812 198.277344 257.722656 197.429688 256.972656 197.179688 L 254.160156 196.132812 C 253.21875 196.078125 252.363281 196.5 251.546875 195.195312 C 251.484375 195.171875 251.421875 195.148438 251.359375 195.128906 C 251.421875 194.5625 251.65625 194.207031 252.648438 193.851562 C 252.007812 193.847656 251.265625 193.886719 250.53125 193.898438 C 250.164062 193.910156 249.78125 193.921875 249.394531 193.933594 C 249.019531 193.9375 248.640625 193.945312 248.261719 193.953125 C 248.113281 193.953125 247.96875 193.953125 247.824219 193.953125 C 246.632812 193.5625 245.433594 193.207031 244.226562 192.902344 L 244.226562 192.304688 C 244.800781 192.199219 245.429688 192.167969 246.125 192.199219 C 246.824219 192.234375 247.546875 192.308594 248.308594 192.390625 C 248.683594 192.429688 249.0625 192.46875 249.433594 192.503906 C 249.8125 192.539062 250.1875 192.5625 250.554688 192.578125 C 251.285156 192.617188 252.011719 192.578125 252.640625 192.464844 C 252.636719 192 252.632812 191.078125 252.628906 190.613281 C 252.625 190.226562 253.519531 190.15625 254.550781 190.109375 C 254.371094 190.113281 254.179688 190.117188 253.976562 190.125 C 253.554688 190.136719 253.085938 190.15625 252.625 190.152344 C 252.164062 190.152344 251.707031 190.148438 251.285156 190.148438 C 250.867188 190.140625 250.488281 190.132812 250.183594 190.128906 C 250.195312 189.664062 250.214844 188.738281 250.222656 188.277344 C 250.234375 187.8125 251.425781 187.84375 252.613281 187.835938 C 252.617188 186.917969 253.753906 185.988281 252.597656 185.527344 C 251.457031 185.53125 250.289062 185.507812 249.101562 185.472656 C 249.988281 185.414062 250.78125 185.277344 251.480469 185.089844 L 251.601562 185.074219 C 251.894531 185.035156 252.191406 184.996094 252.488281 184.953125 C 252.621094 184.933594 252.816406 184.894531 252.988281 184.859375 L 253.515625 184.742188 C 253.832031 184.648438 254.113281 184.550781 254.363281 184.453125 C 254.667969 184.328125 254.9375 184.207031 255.175781 184.089844 C 255.644531 183.851562 255.988281 183.636719 256.21875 183.453125 C 256.347656 183.214844 256.339844 183.015625 256.257812 182.832031 C 256.113281 182.488281 255.738281 182.199219 255.535156 181.828125 C 255.582031 181.617188 255.601562 181.417969 255.585938 181.234375 C 254.652344 181.765625 254.59375 180.394531 253.605469 180.878906 C 253.789062 180.785156 253.976562 180.691406 254.160156 180.597656 C 254.25 180.550781 254.339844 180.503906 254.429688 180.457031 C 254.515625 180.40625 254.59375 180.351562 254.679688 180.300781 C 255 180.089844 255.300781 179.878906 255.574219 179.671875 C 255.714844 179.574219 255.828125 179.460938 255.933594 179.351562 C 256.039062 179.238281 256.132812 179.132812 256.222656 179.027344 C 256.394531 178.820312 256.53125 178.621094 256.625 178.433594 C 256.675781 178.34375 256.695312 178.253906 256.738281 178.164062 C 256.78125 178.074219 256.808594 177.988281 256.816406 177.90625 C 256.828125 177.75 256.765625 177.613281 256.605469 177.507812 C 256.496094 177.386719 256.335938 177.289062 256.117188 177.21875 C 256.003906 177.1875 255.878906 177.15625 255.738281 177.136719 C 255.664062 177.128906 255.589844 177.121094 255.511719 177.117188 C 255.417969 177.105469 255.320312 177.097656 255.21875 177.089844 C 253.484375 177.160156 251.261719 177.050781 248.664062 176.90625 C 247.378906 176.839844 245.941406 176.769531 244.414062 176.730469 C 244.222656 176.726562 244.050781 176.726562 243.875 176.726562 L 243.351562 176.722656 L 242.304688 176.71875 L 240.207031 176.714844 C 238.804688 176.726562 237.40625 176.75 236.007812 176.792969 C 236.125 176.339844 236.117188 175.890625 235.75 175.4375 C 234.628906 174.050781 230.136719 174.976562 229.015625 174.050781 C 225.640625 173.125 231.261719 172.664062 234.628906 172.664062 C 233.507812 171.738281 236.875 172.664062 236.875 171.738281 C 236.875 171.207031 236.875 170.675781 236.765625 170.152344 C 236.972656 170.21875 237.179688 170.285156 237.382812 170.359375 C 239.355469 171.101562 241.179688 172.230469 242.765625 173.882812 C 241.515625 171.875 238.894531 171.277344 237.578125 169.269531 L 238.113281 168.695312 C 237.851562 167.824219 236.785156 167.273438 236.246094 166.703125 C 236.515625 166.414062 236.785156 166.699219 237.050781 166.984375 C 236.785156 166.699219 236.785156 166.699219 236.515625 166.414062 C 237.589844 166.390625 239.125 167.050781 240.355469 167.382812 C 241.585938 167.714844 242.519531 167.722656 242.414062 166.429688 C 242.308594 165.140625 241.3125 164.34375 239.996094 163.722656 C 239.339844 163.417969 238.601562 163.144531 237.859375 162.890625 C 237.121094 162.644531 236.371094 162.402344 235.691406 162.125 C 238.140625 160.636719 240.863281 162.410156 243.320312 162.136719 C 242.785156 161.558594 242.527344 160.699219 241.707031 160.402344 L 238.601562 159.1875 C 237.542969 159.085938 236.582031 159.484375 235.691406 158.144531 C 235.597656 158.113281 235.507812 158.082031 235.417969 158.050781 C 235.222656 158.125 235.035156 158.402344 234.84375 158.40625 C 234.015625 158.128906 233.867188 157.414062 232.910156 157.851562 C 232.90625 157.699219 232.945312 157.585938 233.003906 157.488281 C 232.710938 157.679688 232.277344 157.375 231.945312 157.734375 C 231.9375 157.445312 231.933594 157.160156 231.875 156.925781 C 230.863281 156.636719 229.839844 156.367188 228.808594 156.125 C 228.292969 156.003906 227.773438 155.886719 227.253906 155.777344 C 226.734375 155.675781 226.214844 155.582031 225.691406 155.496094 C 225.070312 155.402344 224.453125 155.316406 223.84375 155.238281 C 223.324219 155.277344 222.789062 155.285156 222.242188 155.214844 C 221.964844 155.226562 221.714844 155.808594 221.585938 155.960938 C 220.882812 155.566406 220.179688 155.175781 219.347656 154.929688 C 219.214844 155.082031 218.945312 155.097656 218.683594 155.398438 C 218.53125 155.160156 218.367188 154.957031 218.195312 154.777344 C 217.144531 154.730469 216.105469 154.691406 215.085938 154.675781 L 215.089844 154.742188 C 214.246094 154.855469 213.246094 154.730469 212.277344 154.671875 L 212.277344 235.296875 C 212.347656 235.308594 212.421875 235.324219 212.492188 235.335938 C 213.8125 235.265625 215.132812 235.203125 216.441406 235.191406 C 217.089844 235.183594 217.734375 235.191406 218.378906 235.210938 C 219.023438 235.246094 219.667969 235.304688 220.304688 235.378906 C 220.0625 235.664062 219.800781 235.851562 219.523438 235.980469 C 220.425781 235.882812 221.339844 235.878906 222.242188 235.910156 C 222.535156 235.757812 222.828125 235.589844 223.121094 235.425781 C 223.007812 235.550781 222.75 235.730469 222.566406 235.921875 C 225.375 236.070312 228.144531 236.679688 230.851562 237.128906 C 230.628906 237.121094 230.5 237.363281 230.375 237.566406 C 230.527344 237.554688 230.675781 237.550781 230.824219 237.558594 C 231.234375 237.492188 231.640625 237.441406 232.027344 237.453125 C 231.621094 237.597656 231.222656 237.570312 230.824219 237.558594 C 230.65625 237.589844 230.488281 237.617188 230.324219 237.648438 C 230.210938 237.824219 230.09375 237.925781 229.910156 237.722656 C 229.144531 237.855469 228.445312 237.917969 227.964844 237.601562 C 227.046875 236.992188 226.109375 236.957031 225.191406 236.960938 C 224.277344 236.964844 223.398438 237.007812 222.597656 236.558594 C 222.222656 236.394531 222.339844 236.152344 222.566406 235.921875 C 222.460938 235.917969 222.351562 235.910156 222.242188 235.910156 C 221.578125 236.261719 220.914062 236.523438 220.273438 236.523438 C 219.5625 236.449219 218.855469 236.339844 218.152344 236.246094 L 217.738281 236.261719 L 217.949219 236.21875 C 217.050781 236.101562 216.15625 235.964844 215.230469 235.816406 C 214.3125 235.664062 213.402344 235.503906 212.492188 235.335938 C 212.421875 235.339844 212.347656 235.34375 212.277344 235.347656 L 212.277344 235.992188 C 213.25 236.144531 214.222656 236.328125 215.175781 236.625 C 214.253906 237.027344 213.273438 237.304688 212.277344 237.441406 L 212.277344 237.6875 C 212.773438 237.734375 213.273438 237.773438 213.769531 237.816406 C 214.488281 238.078125 215.203125 238.347656 215.691406 238.90625 C 214.765625 238.710938 213.988281 238.6875 213.246094 238.964844 C 214.039062 239.09375 214.839844 239.234375 215.648438 239.386719 L 216.25 239.503906 L 216.816406 239.621094 C 217.191406 239.703125 217.570312 239.785156 217.949219 239.867188 C 218.097656 239.890625 218.242188 239.921875 218.390625 239.96875 C 218.242188 239.929688 218.09375 239.898438 217.949219 239.867188 C 217.109375 239.730469 216.292969 239.835938 215.335938 239.847656 C 214.40625 239.863281 213.480469 239.785156 212.601562 239.28125 C 212.8125 239.148438 213.027344 239.046875 213.246094 238.964844 C 212.921875 238.910156 212.601562 238.867188 212.277344 238.820312 L 212.277344 245.367188 C 213.050781 245.214844 213.824219 245.089844 214.59375 244.964844 C 214.894531 245.027344 215.226562 245.085938 215.5625 245.140625 C 215.730469 245.167969 215.90625 245.191406 216.070312 245.210938 C 216.214844 245.230469 216.359375 245.25 216.5 245.261719 C 217.066406 245.3125 217.582031 245.292969 217.894531 245.136719 C 219.566406 243.964844 221.414062 242.894531 223.425781 242.101562 C 225.417969 241.296875 227.539062 240.742188 229.710938 240.53125 C 230.679688 240.5625 231.65625 240.570312 232.667969 240.546875 C 233.175781 240.535156 233.679688 240.523438 234.1875 240.511719 C 234.703125 240.488281 235.21875 240.46875 235.734375 240.449219 C 236.761719 240.421875 237.816406 240.351562 238.851562 240.335938 C 239.371094 240.324219 239.898438 240.296875 240.417969 240.292969 C 240.945312 240.28125 241.457031 240.300781 241.984375 240.289062 C 243.035156 240.277344 244.066406 240.34375 245.117188 240.398438 C 245.640625 240.429688 246.160156 240.492188 246.683594 240.554688 C 247.210938 240.601562 247.742188 240.671875 248.269531 240.761719 C 248.535156 240.808594 248.800781 240.859375 249.066406 240.914062 C 249.332031 240.96875 249.605469 241.007812 249.875 241.0625 C 250.417969 241.171875 250.964844 241.304688 251.519531 241.464844 C 251.65625 241.503906 251.796875 241.546875 251.933594 241.585938 C 252.078125 241.625 252.21875 241.660156 252.359375 241.699219 C 252.644531 241.773438 252.929688 241.859375 253.21875 241.945312 C 253.796875 242.128906 254.386719 242.335938 254.984375 242.570312 C 254.445312 242.222656 253.859375 241.976562 253.261719 241.785156 C 252.957031 241.6875 252.652344 241.605469 252.347656 241.527344 C 252.195312 241.488281 252.042969 241.449219 251.890625 241.410156 C 251.742188 241.367188 251.589844 241.320312 251.441406 241.277344 C 250.84375 241.09375 250.253906 240.90625 249.710938 240.660156 C 249.441406 240.53125 249.179688 240.40625 248.941406 240.234375 C 248.699219 240.0625 248.472656 239.875 248.265625 239.65625 L 248.667969 239 C 248.242188 238.203125 247.152344 237.820312 246.582031 237.34375 C 246.785156 237.015625 247.070312 237.253906 247.363281 237.492188 C 247.074219 237.253906 247.074219 237.253906 246.78125 237.015625 C 247.234375 236.929688 247.796875 236.96875 248.394531 237.039062 C 249.253906 237.628906 250 238.316406 250.597656 239.082031 C 250.214844 238.300781 249.539062 237.652344 248.730469 237.074219 C 249.320312 237.117188 249.929688 237.179688 250.476562 237.191406 C 250.625 237.195312 250.773438 237.191406 250.910156 237.1875 C 251.050781 237.175781 251.183594 237.152344 251.304688 237.125 C 251.546875 237.074219 251.753906 236.996094 251.90625 236.882812 C 252.210938 236.652344 252.289062 236.289062 252.03125 235.695312 C 251.773438 235.097656 251.375 234.6875 250.898438 234.386719 C 250.660156 234.234375 250.40625 234.128906 250.128906 234.015625 C 249.851562 233.902344 249.558594 233.808594 249.253906 233.730469 C 248.648438 233.566406 248.015625 233.488281 247.363281 233.335938 C 247.042969 233.265625 246.722656 233.199219 246.410156 233.128906 C 246.097656 233.0625 245.796875 232.984375 245.5 232.875 C 245.613281 232.765625 245.726562 232.675781 245.84375 232.589844 C 245.957031 232.5 246.070312 232.421875 246.1875 232.351562 C 246.421875 232.214844 246.660156 232.113281 246.902344 232.042969 C 247.011719 232.011719 247.121094 231.988281 247.234375 231.964844 C 247.472656 232.03125 247.710938 232.09375 247.9375 232.15625 C 248.859375 232.40625 249.65625 232.578125 250.214844 232.550781 C 250.777344 232.511719 251.121094 232.242188 251.105469 231.585938 C 251.101562 231.554688 251.097656 231.527344 251.09375 231.496094 C 251.179688 231.460938 251.261719 231.429688 251.339844 231.386719 C 251.234375 231.3125 251.128906 231.222656 251.027344 231.128906 C 250.886719 230.652344 250.550781 230.214844 250.054688 229.804688 C 249.402344 229.285156 248.480469 228.820312 247.414062 228.445312 C 246.882812 228.25 246.3125 228.09375 245.726562 227.929688 C 245.375 227.839844 245.011719 227.753906 244.652344 227.671875 C 245.082031 227.480469 245.460938 227.234375 245.773438 226.925781 C 244.511719 226.976562 243.25 227.027344 241.984375 227.101562 C 243.320312 226.535156 244.671875 226.332031 246.03125 226.277344 C 246.214844 226.300781 246.398438 226.324219 246.582031 226.351562 C 248.757812 226.667969 250.90625 227.273438 252.996094 227.578125 C 252.566406 227.179688 252.253906 226.742188 251.859375 226.339844 C 252.347656 226.320312 252.839844 226.277344 253.328125 226.207031 C 253.308594 225.28125 253.296875 224.816406 254.554688 224.320312 C 253.289062 224.355469 251.707031 224.515625 250.125 224.617188 C 249.503906 224.652344 248.886719 224.683594 248.28125 224.703125 C 247.59375 224.496094 246.902344 224.300781 246.214844 224.121094 C 246.425781 224.121094 246.644531 224.117188 246.855469 224.113281 C 247.984375 223.894531 248.261719 223.546875 248.257812 223.140625 C 248.257812 223.097656 248.253906 223.050781 248.25 223.003906 C 248.84375 223 249.460938 223.023438 250.078125 223.054688 C 251.667969 223.125 253.261719 223.199219 254.527344 222.933594 C 254.519531 222.46875 254.503906 221.546875 254.492188 221.082031 C 254.484375 220.652344 255.558594 220.609375 256.722656 220.59375 C 256.105469 220.601562 255.292969 220.605469 254.484375 220.621094 C 253.523438 220.648438 252.5625 220.671875 251.921875 220.691406 C 251.910156 220.226562 251.886719 219.304688 251.875 218.84375 C 251.859375 218.378906 253.148438 218.34375 254.4375 218.308594 C 254.417969 217.378906 255.699219 216.433594 254.394531 215.996094 C 253.09375 216.03125 251.800781 216.066406 250.503906 216.101562 C 253.089844 215.800781 255.019531 215.046875 256.316406 214.238281 C 257.609375 213.414062 258.261719 212.484375 258.257812 211.789062 C 256.945312 212.265625 256.929688 210.875 255.621094 211.351562 C 256.601562 210.996094 257.589844 210.609375 258.4375 210.222656 C 258.578125 210.34375 258.714844 210.460938 258.851562 210.589844 "/>
</g>
</svg>
