<?xml version="1.0" encoding="UTF-8"?>
<svg xmlns="http://www.w3.org/2000/svg" xmlns:xlink="http://www.w3.org/1999/xlink" width="375pt" height="374.999991pt" viewBox="0 0 375 374.999991" version="1.2">
<defs>
<clipPath id="clip1">
  <path d="M 22 90 L 352 90 L 352 308.492188 L 22 308.492188 Z M 22 90 "/>
</clipPath>
<clipPath id="clip2">
  <path d="M 9 83 L 366 83 L 366 308.492188 L 9 308.492188 Z M 9 83 "/>
</clipPath>
<clipPath id="clip3">
  <path d="M 93 80.492188 L 284 80.492188 L 284 233 L 93 233 Z M 93 80.492188 "/>
</clipPath>
<clipPath id="clip4">
  <path d="M 6.125 94 L 365.285156 94 L 365.285156 308.492188 L 6.125 308.492188 Z M 6.125 94 "/>
</clipPath>
<clipPath id="clip5">
  <path d="M 44 150 L 129 150 L 129 308.492188 L 44 308.492188 Z M 44 150 "/>
</clipPath>
</defs>
<g id="surface1">
<g clip-path="url(#clip1)" clip-rule="nonzero">
<path style=" stroke:none;fill-rule:nonzero;fill:rgb(100%,100%,100%);fill-opacity:1;" d="M 83.214844 93.070312 C 125.996094 83.027344 163.539062 101.789062 175.382812 107.902344 C 222.585938 132.324219 218.9375 159.394531 253.566406 167.242188 C 291.792969 175.960938 313.523438 146.839844 335.027344 161.492188 C 355.804688 175.6875 352.023438 214.808594 350.609375 229.917969 C 346.828125 269.308594 326.507812 296.695312 316.578125 308.472656 L 65.214844 308.472656 C 43.664062 292.726562 20.703125 270.722656 23.117188 247.214844 C 25.121094 227.816406 42.574219 225.214844 48.632812 201.890625 C 57.699219 166.925781 24.941406 145.835938 36.285156 120.273438 C 44.347656 102.195312 68.085938 96.628906 83.210938 93.066406 "/>
</g>
<path style=" stroke:none;fill-rule:nonzero;fill:rgb(5.879211%,5.488586%,4.708862%);fill-opacity:1;" d="M 295.207031 301.902344 L 298.578125 301.902344 L 303.910156 264.5625 C 303.957031 264.378906 304.09375 264.242188 304.273438 264.242188 L 305.960938 264.335938 C 306.144531 264.335938 306.28125 264.515625 306.28125 264.699219 L 306.28125 280.675781 L 308.695312 301.535156 L 312.113281 301.902344 L 313.023438 277.617188 L 314.023438 252.421875 C 311.199219 253.105469 308.332031 253.332031 305.414062 253.105469 C 302.636719 252.878906 299.902344 252.238281 297.351562 251.144531 L 294.753906 277.984375 Z M 312.476562 302.585938 L 308.332031 302.175781 C 308.148438 302.175781 308.011719 302.039062 308.011719 301.855469 L 305.550781 280.675781 L 305.550781 265.019531 L 304.546875 264.972656 L 299.21875 302.3125 C 299.171875 302.496094 299.035156 302.632812 298.851562 302.632812 L 294.84375 302.632812 C 294.660156 302.632812 294.480469 302.496094 294.480469 302.265625 L 294.070312 277.9375 L 296.710938 250.550781 C 296.710938 250.457031 296.804688 250.320312 296.894531 250.277344 C 296.984375 250.230469 297.121094 250.230469 297.214844 250.277344 C 299.855469 251.417969 302.636719 252.148438 305.503906 252.375 C 308.464844 252.601562 311.429688 252.375 314.34375 251.597656 C 314.433594 251.554688 314.570312 251.597656 314.664062 251.644531 C 314.753906 251.734375 314.800781 251.828125 314.800781 251.917969 L 313.796875 277.570312 L 312.839844 302.265625 C 312.839844 302.359375 312.796875 302.449219 312.703125 302.539062 C 312.660156 302.585938 312.566406 302.585938 312.476562 302.585938 "/>
<g clip-path="url(#clip2)" clip-rule="nonzero">
<path style=" stroke:none;fill-rule:nonzero;fill:rgb(26.669312%,71.759033%,74.899292%);fill-opacity:1;" d="M 142.441406 235.667969 L 146.496094 231.148438 L 142.671875 222.613281 L 138.386719 226.628906 L 139.753906 231.789062 L 141.03125 229.6875 L 141.074219 233.25 L 141.257812 236.398438 Z M 224.222656 157.066406 C 218.664062 157.066406 214.109375 161.585938 214.109375 167.199219 C 214.109375 172.769531 218.621094 177.332031 224.222656 177.332031 C 229.78125 177.332031 234.339844 172.8125 234.339844 167.199219 C 234.339844 161.628906 229.828125 157.066406 224.222656 157.066406 Z M 241.628906 167.199219 C 241.628906 157.566406 233.835938 149.761719 224.222656 149.761719 C 214.609375 149.761719 206.820312 157.566406 206.820312 167.199219 C 206.820312 176.832031 214.609375 184.636719 224.222656 184.636719 C 233.835938 184.636719 241.628906 176.832031 241.628906 167.199219 Z M 249.144531 167.199219 C 249.144531 180.984375 237.984375 192.167969 224.222656 192.167969 C 210.464844 192.167969 199.300781 180.984375 199.300781 167.199219 C 199.300781 153.414062 210.464844 142.230469 224.222656 142.230469 C 237.984375 142.230469 249.144531 153.414062 249.144531 167.199219 Z M 258.257812 167.199219 C 258.257812 148.394531 243.042969 133.101562 224.222656 133.101562 C 205.40625 133.101562 190.191406 148.347656 190.191406 167.199219 C 190.191406 186.050781 205.40625 201.296875 224.222656 201.296875 C 243.042969 201.296875 258.257812 186.003906 258.257812 167.199219 Z M 281.859375 192.441406 L 272.976562 205.769531 L 261.902344 198.558594 C 259.988281 200.933594 257.804688 203.121094 255.480469 205.085938 L 255.523438 205.085938 L 261.902344 218.140625 L 248.371094 226.082031 L 241.71875 213.347656 L 241.765625 213.300781 C 238.574219 214.535156 235.203125 215.492188 231.695312 216.039062 L 231.742188 216.039062 L 231.742188 229.414062 L 216.933594 229.414062 L 216.933594 216.175781 L 216.980469 216.175781 C 213.335938 215.675781 209.828125 214.761719 206.5 213.484375 L 206.546875 213.53125 L 199.757812 226.128906 L 186.726562 217.914062 L 193.242188 205.863281 L 193.289062 205.90625 C 190.875 203.988281 188.6875 201.84375 186.683594 199.515625 L 186.726562 199.5625 L 174.925781 205.90625 L 166.773438 192.578125 L 178.164062 185.273438 L 178.207031 185.320312 C 177.070312 182.308594 176.15625 179.160156 175.609375 175.917969 L 175.609375 175.964844 L 161.667969 175.964844 L 161.667969 159.300781 L 175.609375 159.300781 L 175.609375 159.347656 C 176.15625 156.015625 177.070312 152.773438 178.300781 149.671875 L 178.253906 149.761719 L 166.773438 143.417969 L 174.925781 129.496094 L 185.726562 136.890625 L 185.679688 136.933594 C 187.867188 134.195312 190.371094 131.6875 193.105469 129.449219 L 193.0625 129.449219 L 186.726562 118.496094 L 200.53125 109.824219 L 206.59375 121.554688 L 206.546875 121.597656 C 209.871094 120.320312 213.382812 119.410156 217.027344 118.90625 L 216.980469 118.90625 L 216.980469 105.074219 L 231.789062 105.074219 L 231.789062 118.859375 L 230.96875 118.859375 C 234.75 119.410156 238.394531 120.367188 241.8125 121.734375 L 241.71875 121.691406 L 248.144531 109.730469 L 261.949219 118.402344 L 254.886719 129.359375 L 254.839844 129.359375 C 257.4375 131.457031 259.851562 133.878906 261.949219 136.480469 L 261.949219 136.433594 L 264.773438 134.789062 L 264.683594 134.015625 C 264.683594 134.015625 274.75 102.746094 298.808594 94.53125 C 298.808594 94.53125 303.226562 122.007812 288.601562 141 C 288.601562 141 320.496094 138.441406 330.199219 145.425781 C 330.199219 145.425781 318.582031 160.625 291.152344 166.105469 L 286.78125 165.695312 L 286.78125 175.828125 L 272.335938 175.828125 C 271.972656 177.925781 271.425781 180.164062 270.652344 182.582031 C 270.378906 183.496094 270.058594 184.363281 269.738281 185.230469 L 269.785156 185.183594 Z M 154.378906 136.433594 C 155.335938 134.609375 156.109375 132.644531 156.613281 130.589844 L 170.78125 130.589844 L 170.78125 115.800781 L 156.339844 115.800781 C 155.792969 113.976562 155.0625 112.195312 154.195312 110.550781 L 163.539062 99.550781 L 153.605469 88.824219 L 143.398438 99.550781 C 141.714844 98.59375 139.890625 97.816406 138.023438 97.222656 L 138.023438 83.210938 L 123.214844 83.210938 L 123.214844 96.8125 C 121.164062 97.3125 119.207031 98.046875 117.339844 99.003906 L 107.589844 88.824219 L 96.335938 99.824219 L 106.359375 109.136719 C 105.082031 111.191406 104.078125 113.425781 103.398438 115.800781 L 89.089844 115.800781 L 89.089844 116.621094 C 90.320312 116.941406 91.09375 117.625 91.460938 118.039062 C 92.78125 117.398438 93.921875 116.988281 94.785156 116.761719 C 95.011719 117.03125 95.605469 117.765625 96.699219 118.082031 C 97.429688 118.265625 98.066406 118.21875 98.386719 118.128906 C 99.339844 118.449219 100.707031 119.042969 102.121094 120.09375 C 103.808594 121.414062 104.535156 122.738281 105.265625 123.699219 C 106.449219 125.25 108.5 127.210938 112.464844 128.671875 C 113.375 128.492188 114.421875 128.171875 115.5625 127.714844 C 116.699219 127.257812 117.65625 126.757812 118.476562 126.207031 C 118.25 125.296875 118.113281 124.335938 118.113281 123.378906 C 118.113281 116.851562 123.398438 111.601562 129.867188 111.601562 C 136.335938 111.601562 141.621094 116.898438 141.621094 123.378906 C 141.621094 129.859375 136.335938 135.15625 129.867188 135.15625 C 127.269531 135.15625 124.902344 134.332031 122.988281 132.917969 C 122.304688 133.464844 121.53125 134.152344 120.617188 134.882812 C 118.023438 136.980469 116.699219 138.03125 116.015625 138.394531 C 114.878906 138.945312 111.871094 139.902344 106.039062 136.523438 C 105.765625 142.550781 105.445312 148.53125 105.171875 154.554688 L 105.082031 154.554688 L 107.453125 157.066406 L 116.472656 147.890625 C 118.570312 149.03125 120.847656 149.945312 123.214844 150.539062 L 123.214844 163.636719 L 138.023438 163.636719 L 138.023438 150.539062 L 136.472656 150.539062 C 138.933594 149.945312 141.257812 148.984375 143.398438 147.753906 L 153.46875 157.066406 L 164.492188 146.703125 Z M 323.820312 213.257812 C 324.550781 211.566406 324.730469 210.105469 324.730469 209.421875 L 326.054688 209.421875 L 326.054688 204.8125 L 317.808594 204.8125 C 317.488281 203.761719 317.078125 202.757812 316.578125 201.800781 L 321.953125 195.5 L 316.257812 189.335938 L 310.425781 195.5 C 309.46875 194.953125 308.421875 194.496094 307.328125 194.175781 L 307.328125 186.140625 L 298.851562 186.140625 L 298.851562 193.949219 C 297.667969 194.222656 296.574219 194.679688 295.480469 195.179688 L 289.921875 189.382812 L 283.5 195.683594 L 289.195312 201.023438 C 288.464844 202.210938 287.875 203.488281 287.507812 204.855469 L 279.351562 204.855469 L 279.351562 213.300781 L 287.371094 213.300781 C 287.738281 214.671875 288.238281 215.949219 288.921875 217.136719 L 284.820312 220.652344 C 285.457031 221.0625 286.140625 221.382812 286.917969 221.609375 C 290.015625 222.566406 292.886719 221.5625 296.210938 220.378906 C 297.304688 219.964844 298.308594 219.554688 299.171875 219.097656 C 295.117188 217.636719 292.203125 213.757812 292.203125 209.195312 C 292.203125 203.398438 296.894531 198.695312 302.679688 198.695312 C 308.46875 198.695312 313.160156 203.398438 313.160156 209.195312 C 313.160156 213.027344 311.109375 216.359375 308.101562 218.1875 C 311.15625 218.597656 314.207031 219.007812 317.261719 219.417969 C 317.625 219.28125 318.125 219.097656 318.761719 218.734375 L 316.667969 216.632812 C 317.214844 215.585938 317.671875 214.441406 317.945312 213.257812 Z M 364.277344 253.152344 C 363.003906 250.6875 359.996094 248.722656 357.082031 248.496094 C 351.25 248.085938 346.964844 254.703125 346.511719 255.480469 C 347.421875 250.046875 348.015625 242.742188 347.101562 234.207031 C 346.417969 227.816406 345.050781 222.339844 343.59375 218.003906 C 341.089844 219.417969 327.101562 227.589844 316.167969 242.425781 C 316.304688 238.226562 316.484375 234.023438 316.621094 229.824219 C 322.820312 226.949219 325.050781 223.710938 325.824219 221.0625 C 325.824219 221.0625 326.191406 219.828125 326.417969 211.566406 L 324.59375 211.566406 C 324.550781 212.570312 324.230469 215.265625 322.226562 217.820312 C 320.359375 220.195312 318.035156 221.199219 317.078125 221.519531 C 312.066406 220.832031 307.007812 220.148438 301.996094 219.464844 C 300.628906 220.378906 298.625 221.519531 296.027344 222.429688 C 292.703125 223.617188 289.832031 224.621094 286.734375 223.664062 C 282.90625 222.476562 280.949219 219.007812 280.308594 217.730469 L 278.667969 219.785156 C 278.804688 221.105469 279.445312 225.078125 282.769531 228.363281 C 283.679688 229.277344 286.507812 232.109375 290.972656 232.289062 C 293.339844 232.382812 295.253906 231.699219 296.257812 231.195312 L 296.300781 250.277344 C 298.671875 251.371094 302.863281 252.96875 308.238281 252.832031 C 308.738281 252.832031 309.242188 252.785156 309.742188 252.742188 C 306.1875 259.679688 303.589844 267.574219 302.773438 276.566406 C 301.542969 290.035156 304.867188 301.261719 307.828125 308.472656 C 312.660156 306.875 319.355469 304.273438 326.738281 299.9375 C 348.878906 286.929688 369.382812 263.101562 364.277344 253.152344 Z M 40.976562 246.210938 C 34.964844 227.636719 35.464844 219.738281 29.359375 217.59375 C 25.441406 216.222656 20.386719 217.730469 17.789062 220.652344 C 11.589844 227.542969 16.785156 244.660156 31.089844 265.203125 C 28.449219 262.964844 24.851562 260.363281 20.339844 258.035156 C 16.148438 255.84375 12.273438 254.476562 9.085938 253.609375 C 9.3125 259.40625 10.542969 270.863281 17.605469 282.820312 C 27.171875 298.933594 41.34375 305.871094 46.582031 308.109375 C 47.402344 306.648438 48.222656 304.914062 48.953125 302.859375 C 49.953125 299.984375 50.457031 297.382812 50.726562 295.238281 C 51.320312 291.675781 51.914062 286.335938 51.457031 279.898438 C 50.59375 267.347656 46.71875 263.878906 40.976562 246.210938 Z M 246.503906 263.101562 C 244.132812 262.371094 241.082031 263.878906 238.894531 266.84375 C 241.582031 262.78125 244.910156 256.4375 244.089844 250 C 243.90625 248.539062 243.542969 245.9375 241.902344 245.253906 C 239.988281 244.476562 237.4375 246.761719 236.800781 247.308594 C 232.835938 250.867188 231.742188 256.621094 231.832031 256.027344 C 232.882812 250.960938 231.925781 246.53125 229.78125 244.617188 C 228.007812 243.019531 226.136719 242.742188 226.136719 242.742188 C 226 242.742188 224.589844 242.515625 223.769531 242.878906 C 221.765625 243.703125 221.21875 248.769531 222.765625 255.160156 C 219.941406 250.277344 216.480469 247.628906 214.15625 248.359375 C 212.742188 248.816406 212.105469 250.320312 211.878906 250.914062 C 209.144531 257.257812 216.933594 266.160156 217.9375 267.253906 C 217.617188 266.890625 212.425781 261.59375 209.964844 263.011719 C 209.144531 263.46875 208.960938 264.472656 208.871094 264.835938 C 207.824219 269.675781 218.667969 277.617188 220.625 279.03125 L 235.980469 279.03125 C 238.074219 276.476562 240.125 274.96875 241.675781 274.058594 C 245.089844 272.003906 247.371094 272.003906 248.691406 269.582031 C 248.917969 269.21875 250.011719 267.027344 249.054688 265.109375 C 248.28125 263.742188 246.824219 263.238281 246.503906 263.101562 Z M 215.203125 280.265625 L 243.722656 280.265625 L 243.722656 283.960938 L 241.171875 283.960938 L 238.121094 308.519531 L 220.988281 308.519531 L 217.300781 283.960938 L 215.25 283.960938 L 215.25 280.265625 L 215.203125 280.265625 "/>
</g>
<g clip-path="url(#clip3)" clip-rule="nonzero">
<path style=" stroke:none;fill-rule:nonzero;fill:rgb(5.879211%,5.488586%,4.708862%);fill-opacity:1;" d="M 283.042969 178.109375 L 268.964844 178.109375 C 268.78125 178.109375 268.644531 178.246094 268.601562 178.382812 C 268.191406 180.664062 267.644531 182.902344 266.960938 185.09375 C 266.6875 185.960938 266.367188 186.828125 266.050781 187.695312 C 266.003906 187.875 266.09375 188.015625 266.230469 188.105469 C 266.277344 188.105469 266.324219 188.152344 266.324219 188.152344 L 278.03125 195.226562 L 269.558594 207.960938 L 258.894531 200.976562 C 258.894531 200.933594 258.851562 200.933594 258.804688 200.886719 C 258.667969 200.792969 258.441406 200.792969 258.351562 200.933594 C 256.4375 203.257812 254.292969 205.449219 251.972656 207.414062 C 251.835938 207.550781 251.835938 207.734375 251.925781 207.871094 C 251.925781 207.871094 251.925781 207.914062 251.972656 207.914062 L 258.167969 220.558594 L 245.226562 228.136719 L 238.847656 215.902344 C 238.847656 215.8125 238.847656 215.765625 238.804688 215.675781 C 238.710938 215.492188 238.53125 215.445312 238.347656 215.492188 C 235.113281 216.769531 231.742188 217.683594 228.371094 218.230469 C 228.1875 218.277344 228.050781 218.414062 228.097656 218.597656 L 228.097656 231.652344 L 214.019531 231.652344 L 214.019531 218.960938 C 214.0625 218.917969 214.0625 218.871094 214.0625 218.78125 C 214.0625 218.597656 213.925781 218.414062 213.746094 218.414062 C 210.191406 217.914062 206.683594 217 203.3125 215.722656 C 203.128906 215.628906 202.949219 215.765625 202.902344 215.902344 C 202.902344 215.949219 202.855469 215.996094 202.855469 215.996094 L 196.339844 228.183594 L 183.902344 220.378906 L 190.191406 208.78125 C 190.234375 208.738281 190.28125 208.738281 190.328125 208.691406 C 190.417969 208.554688 190.417969 208.328125 190.234375 208.234375 C 187.867188 206.316406 185.679688 204.171875 183.675781 201.890625 C 183.539062 201.753906 183.355469 201.753906 183.21875 201.84375 C 183.175781 201.84375 183.175781 201.890625 183.128906 201.9375 L 171.738281 208.050781 L 163.945312 195.316406 L 174.882812 188.289062 C 174.925781 188.289062 174.972656 188.289062 175.0625 188.242188 C 175.246094 188.152344 175.292969 187.96875 175.246094 187.785156 C 174.0625 184.773438 173.195312 181.625 172.695312 178.429688 C 172.648438 178.246094 172.511719 178.152344 172.332031 178.152344 L 158.753906 178.152344 L 158.753906 162.179688 L 172.148438 162.179688 C 172.195312 162.222656 172.238281 162.222656 172.332031 162.222656 C 172.511719 162.269531 172.695312 162.132812 172.695312 161.949219 C 173.242188 158.664062 174.152344 155.421875 175.382812 152.363281 C 175.429688 152.179688 175.382812 152 175.199219 151.90625 C 175.109375 151.863281 175.0625 151.863281 174.972656 151.863281 L 166.636719 147.25 L 166.726562 147.160156 C 166.5 147.023438 166.316406 146.886719 166.179688 146.703125 L 165.996094 146.886719 L 163.992188 145.789062 L 166.226562 142.003906 L 166.316406 142.09375 C 166.40625 141.867188 166.542969 141.683594 166.679688 141.546875 L 166.679688 141.5 L 166.542969 141.363281 L 171.691406 132.507812 L 181.988281 139.582031 C 182.035156 139.628906 182.035156 139.71875 182.125 139.71875 C 182.261719 139.8125 182.492188 139.8125 182.628906 139.628906 C 184.8125 136.890625 187.273438 134.378906 190.007812 132.1875 C 190.144531 132.050781 190.144531 131.867188 190.054688 131.730469 C 190.054688 131.6875 190.007812 131.6875 190.007812 131.640625 L 183.902344 121.050781 L 197.070312 112.789062 L 202.8125 124.109375 C 202.8125 124.15625 202.8125 124.246094 202.855469 124.292969 C 202.949219 124.472656 203.128906 124.519531 203.3125 124.472656 C 206.683594 123.195312 210.144531 122.28125 213.699219 121.78125 C 213.882812 121.734375 213.972656 121.597656 213.972656 121.414062 L 213.972656 108.132812 L 228.050781 108.132812 L 228.050781 121.1875 L 227.597656 121.1875 C 227.414062 121.1875 227.277344 121.324219 227.230469 121.507812 C 227.1875 121.691406 227.367188 121.871094 227.550781 121.871094 C 231.242188 122.375 234.839844 123.332031 238.347656 124.703125 C 238.53125 124.75 238.710938 124.703125 238.804688 124.519531 C 238.847656 124.429688 238.847656 124.382812 238.847656 124.292969 L 244.953125 112.832031 L 258.121094 121.097656 L 251.289062 131.6875 C 251.242188 131.730469 251.195312 131.730469 251.195312 131.777344 C 251.105469 131.914062 251.105469 132.144531 251.289062 132.234375 C 253.882812 134.332031 256.253906 136.707031 258.351562 139.308594 C 258.484375 139.445312 258.667969 139.492188 258.804688 139.355469 L 258.851562 139.308594 L 270.742188 132.460938 L 278.078125 145.015625 L 266.460938 152.867188 C 266.324219 152.957031 266.277344 153.140625 266.324219 153.277344 C 267.324219 155.96875 268.054688 158.847656 268.601562 161.8125 C 268.644531 161.996094 268.78125 162.085938 268.964844 162.085938 L 283.089844 162.085938 Z M 283.40625 161.449219 L 269.238281 161.449219 C 268.738281 158.664062 268.007812 155.925781 267.097656 153.367188 L 278.761719 145.472656 C 278.898438 145.378906 278.941406 145.152344 278.851562 145.015625 L 271.199219 131.867188 C 271.105469 131.6875 270.878906 131.640625 270.695312 131.730469 L 258.667969 138.671875 C 256.664062 136.25 254.429688 134.015625 251.972656 132.003906 L 258.894531 121.277344 C 258.941406 121.1875 258.988281 121.097656 258.941406 121.003906 C 258.941406 120.914062 258.851562 120.820312 258.804688 120.777344 L 245 112.105469 C 244.910156 112.058594 244.816406 112.058594 244.726562 112.058594 C 244.636719 112.105469 244.542969 112.148438 244.5 112.238281 L 238.210938 123.925781 C 235.160156 122.738281 232.015625 121.917969 228.78125 121.371094 L 228.78125 107.769531 C 228.78125 107.585938 228.644531 107.402344 228.417969 107.402344 L 213.609375 107.402344 C 213.425781 107.402344 213.246094 107.539062 213.246094 107.769531 L 213.246094 121.234375 C 209.871094 121.734375 206.59375 122.601562 203.402344 123.789062 L 197.527344 112.238281 C 197.480469 112.148438 197.390625 112.105469 197.296875 112.058594 C 197.207031 112.011719 197.117188 112.058594 197.023438 112.105469 L 183.21875 120.777344 C 183.039062 120.867188 182.992188 121.097656 183.082031 121.277344 L 189.277344 132.003906 C 186.726562 134.105469 184.402344 136.480469 182.308594 139.035156 L 171.785156 131.824219 C 171.691406 131.777344 171.601562 131.730469 171.511719 131.777344 C 171.417969 131.777344 171.328125 131.867188 171.28125 131.960938 L 166.042969 140.859375 L 159.390625 134.105469 C 160.300781 132.371094 160.984375 130.546875 161.488281 128.671875 L 175.382812 128.671875 C 175.566406 128.671875 175.746094 128.535156 175.746094 128.308594 L 175.746094 113.566406 C 175.746094 113.382812 175.609375 113.199219 175.382812 113.199219 L 161.214844 113.199219 C 160.710938 111.511719 160.027344 109.914062 159.207031 108.359375 L 168.414062 97.542969 C 168.550781 97.40625 168.503906 97.222656 168.414062 97.085938 L 158.480469 86.359375 C 158.433594 86.269531 158.34375 86.222656 158.207031 86.222656 C 158.117188 86.222656 158.023438 86.269531 157.933594 86.316406 L 147.910156 96.859375 C 146.316406 95.992188 144.675781 95.261719 142.945312 94.710938 L 142.945312 80.929688 C 142.945312 80.742188 142.808594 80.5625 142.578125 80.5625 L 127.773438 80.5625 C 127.679688 80.5625 127.589844 80.609375 127.5 80.652344 C 127.453125 80.699219 127.40625 80.789062 127.40625 80.929688 L 127.40625 94.257812 C 125.539062 94.757812 123.71875 95.398438 121.984375 96.261719 L 112.417969 86.269531 C 112.371094 86.222656 112.28125 86.175781 112.191406 86.175781 C 112.097656 86.175781 112.007812 86.222656 111.917969 86.269531 L 100.664062 97.269531 C 100.570312 97.3125 100.570312 97.453125 100.570312 97.542969 C 100.570312 97.632812 100.617188 97.726562 100.664062 97.816406 L 110.414062 106.945312 C 109.226562 108.910156 108.316406 111.007812 107.632812 113.199219 L 103.488281 113.199219 C 103.488281 113.425781 103.488281 113.65625 103.441406 113.929688 L 107.816406 113.929688 C 108 113.976562 108.136719 113.835938 108.226562 113.65625 C 108.910156 111.328125 109.910156 109.136719 111.140625 107.082031 C 111.234375 106.945312 111.1875 106.761719 111.097656 106.628906 L 101.390625 97.542969 L 112.097656 87.042969 L 121.574219 96.902344 C 121.667969 97.042969 121.847656 97.085938 122.03125 96.996094 C 123.855469 96.035156 125.8125 95.351562 127.816406 94.851562 C 127.953125 94.804688 128.089844 94.664062 128.089844 94.484375 L 128.089844 81.292969 L 142.214844 81.292969 L 142.214844 94.941406 C 142.214844 95.121094 142.304688 95.257812 142.441406 95.304688 C 144.265625 95.851562 146.042969 96.628906 147.773438 97.589844 C 147.910156 97.679688 148.09375 97.632812 148.183594 97.542969 L 158.117188 87.089844 L 167.546875 97.3125 L 158.433594 108.039062 C 158.296875 108.132812 158.296875 108.316406 158.34375 108.453125 C 159.207031 110.09375 159.9375 111.828125 160.484375 113.609375 C 160.53125 113.746094 160.667969 113.882812 160.804688 113.882812 L 174.882812 113.882812 L 174.882812 127.941406 L 161.078125 127.941406 C 160.894531 127.941406 160.757812 128.035156 160.710938 128.214844 C 160.210938 130.226562 159.4375 132.140625 158.480469 134.015625 C 158.390625 134.152344 158.433594 134.378906 158.570312 134.46875 L 165.496094 141.5 L 162.992188 145.789062 C 162.945312 145.882812 162.945312 145.972656 162.945312 146.066406 C 162.992188 146.15625 163.035156 146.246094 163.128906 146.292969 L 165.222656 147.433594 L 157.886719 154.328125 L 148.136719 145.289062 C 148.046875 145.152344 147.820312 145.105469 147.683594 145.195312 C 145.539062 146.429688 143.21875 147.34375 140.847656 147.9375 C 140.664062 147.980469 140.574219 148.164062 140.574219 148.347656 C 140.574219 148.53125 140.757812 148.667969 140.9375 148.667969 L 142.125 148.667969 L 142.125 161.035156 L 128 161.035156 L 128 148.347656 C 128 148.164062 127.910156 147.980469 127.726562 147.9375 C 125.402344 147.34375 123.171875 146.476562 121.074219 145.335938 C 120.9375 145.242188 120.710938 145.289062 120.617188 145.425781 L 111.917969 154.328125 L 101.300781 143.097656 L 110.367188 135.335938 L 110.414062 135.292969 C 110.550781 135.199219 110.59375 134.972656 110.503906 134.835938 C 109.320312 132.734375 108.453125 130.542969 107.863281 128.261719 C 107.816406 128.125 107.679688 127.988281 107.496094 127.988281 L 93.828125 127.988281 L 93.828125 119.316406 C 93.554688 119.132812 93.328125 118.953125 93.101562 118.722656 L 93.101562 128.308594 C 93.101562 128.492188 93.238281 128.671875 93.464844 128.671875 L 107.222656 128.671875 C 107.816406 130.820312 108.636719 132.917969 109.730469 134.882812 L 100.527344 142.777344 C 100.433594 142.824219 100.390625 142.914062 100.390625 143.050781 C 100.390625 143.144531 100.433594 143.234375 100.480469 143.324219 L 111.597656 155.101562 C 111.644531 155.195312 111.734375 155.195312 111.871094 155.195312 C 112.007812 155.195312 112.054688 155.148438 112.144531 155.101562 L 120.984375 146.109375 C 122.988281 147.207031 125.082031 148.027344 127.269531 148.574219 L 127.269531 161.355469 C 127.269531 161.539062 127.40625 161.722656 127.636719 161.722656 L 142.441406 161.722656 C 142.625 161.722656 142.808594 161.585938 142.808594 161.355469 L 142.808594 148.253906 C 142.808594 148.210938 142.808594 148.164062 142.761719 148.074219 C 144.492188 147.523438 146.179688 146.792969 147.773438 145.925781 L 157.660156 155.058594 C 157.796875 155.195312 158.023438 155.195312 158.160156 155.058594 L 165.90625 147.753906 L 174.378906 152.410156 C 173.289062 155.332031 172.421875 158.34375 171.875 161.402344 L 158.207031 161.402344 C 158.023438 161.402344 157.84375 161.539062 157.84375 161.765625 L 157.84375 178.429688 C 157.84375 178.609375 157.980469 178.792969 158.207031 178.792969 L 171.875 178.792969 C 172.421875 181.804688 173.242188 184.773438 174.289062 187.601562 L 163.308594 194.816406 C 163.128906 194.90625 163.082031 195.132812 163.21875 195.316406 L 171.375 208.644531 C 171.464844 208.828125 171.691406 208.875 171.828125 208.78125 L 183.402344 202.574219 C 185.269531 204.71875 187.320312 206.726562 189.550781 208.554688 L 183.175781 220.332031 C 183.082031 220.515625 183.128906 220.695312 183.3125 220.789062 L 196.339844 229.003906 C 196.433594 229.050781 196.523438 229.050781 196.613281 229.050781 C 196.707031 229.003906 196.796875 228.957031 196.84375 228.867188 L 203.449219 216.542969 C 206.636719 217.730469 209.964844 218.597656 213.289062 219.097656 L 213.289062 232.0625 C 213.289062 232.246094 213.425781 232.425781 213.652344 232.425781 L 228.460938 232.425781 C 228.644531 232.425781 228.824219 232.289062 228.824219 232.0625 L 228.824219 219.007812 C 232.015625 218.460938 235.203125 217.59375 238.257812 216.449219 L 244.773438 228.914062 C 244.816406 229.003906 244.910156 229.050781 245 229.09375 C 245.089844 229.140625 245.183594 229.09375 245.273438 229.050781 L 258.804688 221.105469 C 258.988281 221.015625 259.03125 220.832031 258.941406 220.652344 L 252.699219 207.871094 C 254.886719 206 256.890625 203.945312 258.714844 201.753906 L 269.511719 208.828125 C 269.695312 208.917969 269.875 208.875 270.011719 208.738281 L 278.898438 195.40625 C 278.941406 195.316406 278.988281 195.226562 278.941406 195.132812 C 278.941406 195.042969 278.851562 194.953125 278.761719 194.90625 L 266.871094 187.738281 C 267.144531 186.964844 267.417969 186.1875 267.691406 185.457031 C 268.371094 183.359375 268.917969 181.167969 269.328125 178.929688 L 283.5 178.929688 C 283.679688 178.929688 283.863281 178.792969 283.863281 178.566406 L 283.863281 161.8125 C 283.773438 161.585938 283.589844 161.449219 283.40625 161.449219 "/>
</g>
<path style=" stroke:none;fill-rule:nonzero;fill:rgb(100%,100%,100%);fill-opacity:1;" d="M 152.832031 225.535156 C 148.867188 222.523438 146.632812 221.246094 146.222656 221.65625 C 145.90625 221.976562 146.632812 223.253906 148.367188 225.535156 C 146.863281 225.582031 146.085938 225.761719 146.042969 225.992188 C 145.996094 226.449219 147.957031 227.132812 151.964844 228.136719 Z M 141.03125 233.84375 C 141.347656 231.148438 141.347656 229.734375 141.03125 229.644531 C 140.800781 229.597656 140.347656 230.28125 139.753906 231.742188 C 139.117188 228.273438 138.660156 226.539062 138.386719 226.585938 C 138.023438 226.628906 137.976562 229.644531 138.207031 235.621094 C 139.160156 235.074219 140.117188 234.4375 141.03125 233.84375 Z M 154.835938 208.554688 C 153.785156 209.742188 153.285156 210.929688 153.058594 211.613281 C 152.695312 212.707031 152.148438 214.351562 152.921875 215.949219 C 153.46875 217.042969 154.332031 217.59375 154.835938 217.867188 L 154.835938 220.558594 C 155.425781 220.558594 156.15625 220.515625 157.023438 220.285156 C 158.980469 219.785156 160.257812 218.597656 160.847656 217.957031 C 160.53125 216.816406 160.164062 215.628906 159.847656 214.488281 C 160.621094 214.167969 161.167969 213.394531 161.121094 212.570312 C 161.078125 211.796875 160.574219 211.066406 159.847656 210.792969 C 159.390625 210.835938 158.207031 210.929688 156.886719 210.289062 C 155.746094 209.785156 155.109375 208.964844 154.835938 208.554688 Z M 122.121094 129.128906 C 122.804688 128.445312 123.898438 127.167969 124.261719 125.25 C 124.628906 123.289062 124.125 121.050781 123.582031 121.007812 C 123.351562 121.007812 122.851562 121.371094 122.078125 124.65625 C 122.078125 122.875 121.941406 122.007812 121.757812 121.964844 C 121.484375 121.917969 120.984375 123.652344 120.300781 127.074219 Z M 88.679688 114.75 C 89.363281 115.070312 89.820312 115.527344 90.136719 115.800781 L 93.28125 114.617188 L 91.640625 112.878906 C 91.277344 112.695312 90.546875 112.46875 89.636719 112.5625 C 87.996094 112.742188 87.039062 113.976562 86.902344 114.203125 C 87.3125 114.25 87.996094 114.386719 88.679688 114.75 Z M 101.390625 111.421875 C 100.433594 111.738281 99.570312 111.738281 99.066406 111.691406 C 99.886719 114.066406 99.203125 116.394531 97.609375 117.308594 C 96.515625 117.992188 95.285156 117.765625 94.785156 117.625 C 94.921875 117.945312 95.285156 118.8125 96.242188 119.316406 C 97.382812 119.910156 98.839844 119.726562 99.980469 118.8125 C 101.300781 118.90625 102.074219 118.449219 102.394531 118.21875 C 103.851562 117.125 103.851562 114.980469 103.851562 113.335938 C 103.851562 112.011719 103.625 110.964844 103.441406 110.277344 C 103.03125 110.640625 102.347656 111.097656 101.390625 111.421875 Z M 103.261719 152.042969 L 90.09375 146.613281 L 85.765625 150.402344 L 86.492188 180.207031 L 86.902344 202.667969 L 92.28125 203.351562 L 95.605469 165.511719 L 95.605469 166.285156 L 97.839844 173.636719 L 101.253906 203.351562 L 106.265625 203.351562 L 106.585938 181.074219 Z M 149.457031 254.886719 L 144.128906 274.011719 L 146.085938 301.855469 L 151.464844 301.855469 L 152.148438 276.566406 L 156.839844 261.550781 L 156.839844 276.75 L 158.160156 301.855469 L 164.039062 301.855469 L 165.449219 261.734375 L 164.539062 252.96875 C 163.671875 253.789062 161.257812 255.707031 157.613281 256.253906 C 153.558594 256.847656 150.460938 255.386719 149.457031 254.886719 Z M 326.417969 211.382812 C 326.78125 210.425781 327.191406 208.875 327.011719 207.046875 C 326.828125 205.3125 326.097656 203.488281 325.734375 203.535156 C 325.507812 203.578125 325.277344 204.171875 325.414062 207.460938 C 324.867188 206.773438 324.457031 206.5 324.230469 206.636719 C 323.773438 206.820312 323.910156 208.417969 324.640625 211.382812 Z M 280.308594 217.546875 C 281.175781 215.402344 281.539062 214.261719 281.3125 214.167969 C 281.175781 214.078125 280.8125 214.441406 280.21875 215.171875 C 280.355469 211.566406 280.082031 210.792969 279.808594 210.746094 C 279.351562 210.65625 278.53125 212.433594 278.167969 213.988281 C 277.667969 216.359375 278.214844 218.460938 278.667969 219.601562 Z M 302.5 217.089844 C 302.226562 216.175781 301.816406 215.996094 301.132812 214.945312 C 301.132812 214.945312 300.628906 214.167969 300.21875 213.210938 C 299.945312 212.527344 299.535156 211.066406 300.175781 208.828125 C 298.351562 211.75 298.351562 214.992188 299.992188 216.90625 C 300.355469 217.320312 301.132812 218.09375 302.636719 218.460938 C 302.636719 217.730469 302.542969 217.320312 302.5 217.089844 "/>
<g clip-path="url(#clip4)" clip-rule="nonzero">
<path style=" stroke:none;fill-rule:nonzero;fill:rgb(5.879211%,5.488586%,4.708862%);fill-opacity:1;" d="M 214.429688 283.1875 L 237.527344 283.1875 L 234.613281 306.648438 L 217.984375 306.648438 Z M 212.332031 279.488281 L 240.125 279.488281 L 240.125 282.5 L 212.332031 282.5 Z M 205.589844 263.558594 C 206 262.738281 207.640625 262.097656 209.097656 262.234375 C 211.695312 262.417969 213.199219 264.972656 213.472656 265.476562 L 213.519531 265.519531 C 215.976562 270.039062 218.894531 274.605469 221.398438 278.300781 C 219.714844 276.796875 218.027344 275.289062 216.433594 273.691406 C 213.835938 271.089844 211.375 268.304688 209.097656 265.429688 C 208.960938 265.292969 208.734375 265.246094 208.597656 265.382812 C 208.460938 265.519531 208.414062 265.75 208.550781 265.886719 C 210.828125 268.808594 213.335938 271.59375 215.933594 274.195312 C 217.527344 275.792969 219.167969 277.296875 220.851562 278.804688 L 219.621094 278.804688 C 206.773438 268.761719 204.90625 264.972656 205.589844 263.558594 Z M 210.054688 248.585938 C 210.328125 248.265625 211.742188 246.714844 213.472656 246.804688 C 215.566406 246.898438 217.574219 249.269531 218.710938 253.015625 C 219.121094 258.445312 220.304688 265.566406 222.21875 274.421875 C 221.125 270.542969 219.851562 266.707031 218.4375 262.964844 C 216.796875 258.675781 214.929688 254.382812 212.878906 250.277344 C 212.789062 250.09375 212.5625 250.046875 212.425781 250.136719 C 212.242188 250.230469 212.195312 250.457031 212.289062 250.59375 C 214.335938 254.703125 216.207031 258.902344 217.800781 263.191406 C 219.714844 268.261719 221.355469 273.507812 222.722656 278.757812 L 222.675781 278.757812 C 211.742188 262.964844 207.183594 251.964844 210.054688 248.585938 Z M 221.535156 240.691406 C 222.402344 240.277344 224.359375 240.140625 225.910156 241.007812 C 228.417969 242.46875 228.917969 246.304688 229.054688 249.5 C 229.507812 258.949219 227.1875 270.589844 225.136719 278.757812 L 224.953125 278.757812 C 225.726562 271.546875 225.957031 264.289062 225.683594 257.078125 C 225.5 252.601562 225.089844 248.085938 224.542969 243.65625 C 224.496094 243.472656 224.316406 243.335938 224.132812 243.335938 C 223.949219 243.382812 223.8125 243.519531 223.8125 243.746094 C 224.40625 248.175781 224.769531 252.695312 224.953125 257.121094 C 225.226562 264.335938 225 271.59375 224.222656 278.757812 L 223.90625 278.757812 C 217.207031 249.453125 218.9375 241.875 221.535156 240.691406 Z M 153.652344 304.457031 C 152.695312 304.914062 152.054688 305.78125 151.644531 306.648438 L 150.414062 306.648438 L 150.414062 302.175781 L 151.417969 302.175781 C 151.601562 302.175781 151.78125 302.039062 151.78125 301.808594 L 152.464844 276.566406 L 156.476562 263.785156 L 156.476562 276.660156 L 157.796875 301.765625 C 157.796875 301.945312 157.980469 302.085938 158.160156 302.085938 L 159.617188 302.085938 C 158.070312 303.363281 156.703125 303.820312 155.699219 304 C 154.835938 304.230469 154.332031 304.136719 153.652344 304.457031 Z M 144.445312 274.011719 L 149.640625 255.34375 C 151.234375 256.117188 154.105469 257.078125 157.613281 256.527344 C 160.667969 256.074219 162.945312 254.65625 164.21875 253.609375 L 165.039062 261.640625 L 163.628906 301.445312 L 158.433594 301.445312 L 157.160156 276.703125 L 157.160156 261.503906 C 157.160156 261.320312 157.023438 261.183594 156.839844 261.140625 C 156.65625 261.09375 156.519531 261.230469 156.429688 261.367188 L 151.738281 276.386719 L 151.738281 276.476562 L 151.054688 301.398438 L 146.359375 301.398438 Z M 8.039062 255.296875 C 26.855469 259.269531 41.480469 270.222656 46.535156 283.644531 C 46.765625 284.375 47.039062 285.058594 47.265625 285.789062 C 47.632812 287.066406 47.949219 288.390625 48.175781 289.714844 C 49 295.144531 48.316406 300.804688 46.082031 306.558594 C 44.941406 305.140625 43.757812 303.726562 42.621094 302.3125 L 43.484375 285.058594 C 43.484375 284.875 43.347656 284.691406 43.164062 284.691406 C 42.980469 284.691406 42.800781 284.828125 42.800781 285.011719 L 41.980469 301.445312 C 40.019531 299.027344 38.109375 296.5625 36.148438 294.097656 L 36.148438 275.792969 C 36.148438 275.609375 36.011719 275.425781 35.785156 275.425781 C 35.558594 275.425781 35.421875 275.5625 35.421875 275.792969 L 35.421875 293.273438 C 33.050781 290.214844 30.679688 287.113281 28.402344 284.054688 C 27.449219 282.777344 26.535156 281.496094 25.578125 280.265625 L 24.53125 266.664062 C 24.53125 266.480469 24.347656 266.296875 24.167969 266.34375 C 23.984375 266.34375 23.800781 266.527344 23.847656 266.707031 L 24.804688 279.125 C 20.066406 272.640625 15.464844 266.070312 11.046875 259.449219 C 10.953125 259.269531 10.726562 259.222656 10.542969 259.359375 C 10.363281 259.449219 10.316406 259.679688 10.453125 259.859375 C 13.734375 264.789062 17.148438 269.675781 20.613281 274.511719 L 13.367188 273.191406 C 13.1875 273.144531 13.003906 273.28125 12.957031 273.464844 C 12.910156 273.644531 13.050781 273.828125 13.234375 273.875 L 21.207031 275.335938 C 22.4375 277.070312 23.710938 278.804688 24.941406 280.492188 C 24.941406 280.539062 24.984375 280.585938 25.03125 280.628906 C 25.804688 281.679688 26.582031 282.730469 27.355469 283.78125 L 20.65625 283.09375 C 20.476562 283.050781 20.292969 283.230469 20.25 283.414062 C 20.25 283.597656 20.386719 283.78125 20.566406 283.824219 L 27.902344 284.554688 C 30.363281 287.886719 32.914062 291.175781 35.464844 294.460938 C 35.464844 294.507812 35.511719 294.507812 35.558594 294.550781 C 36.421875 295.648438 37.289062 296.742188 38.152344 297.882812 L 32.957031 297.882812 C 32.777344 297.882812 32.597656 298.023438 32.597656 298.25 C 32.597656 298.433594 32.730469 298.613281 32.957031 298.613281 L 38.699219 298.613281 C 39.792969 299.984375 40.886719 301.355469 41.980469 302.722656 C 41.980469 302.722656 41.980469 302.769531 42.027344 302.769531 C 43.074219 304.046875 44.078125 305.324219 45.125 306.601562 C 37.835938 304.09375 31.320312 300.257812 25.804688 295.144531 C 11 281.316406 8.449219 263.011719 8.039062 255.296875 Z M 29.769531 263.238281 C 27.082031 259.175781 13.824219 238.363281 16.785156 226.3125 C 17.285156 224.210938 18.378906 219.875 21.796875 218.367188 C 24.4375 217.226562 27.265625 218.324219 28.175781 218.6875 C 33.78125 220.878906 35.785156 228.273438 39.066406 240.550781 C 40.660156 246.488281 42.664062 253.882812 45.535156 262.371094 C 46.265625 264.515625 46.949219 266.433594 47.585938 268.214844 C 50.410156 276.15625 52.09375 280.949219 51.503906 288.390625 C 51.183594 292.589844 50.179688 296.699219 48.585938 300.761719 C 49.359375 297.015625 49.453125 293.320312 48.90625 289.714844 C 48.722656 288.390625 48.40625 287.113281 48.039062 285.832031 L 48.039062 285.789062 C 48.039062 285.742188 47.992188 285.695312 47.992188 285.652344 C 47.765625 284.921875 47.539062 284.191406 47.265625 283.507812 C 44.625 275.699219 41.660156 267.941406 38.382812 260.410156 C 34.007812 250.367188 29.042969 240.460938 23.527344 231.011719 C 23.4375 230.828125 23.210938 230.785156 23.027344 230.875 C 22.84375 230.96875 22.800781 231.195312 22.890625 231.378906 C 28.359375 240.828125 33.324219 250.6875 37.699219 260.726562 C 40.15625 266.386719 42.484375 272.1875 44.578125 278.027344 C 41.160156 272.324219 36.105469 267.300781 29.769531 263.238281 Z M 324.6875 274.285156 C 324.777344 274.058594 324.867188 273.875 324.960938 273.644531 C 324.960938 273.601562 325.003906 273.601562 325.003906 273.554688 C 326.371094 270.496094 327.648438 267.4375 328.832031 264.289062 L 336.894531 258.125 C 332.429688 262.964844 328.285156 268.714844 324.6875 274.285156 Z M 356.125 306.648438 L 306.6875 306.648438 C 302.222656 299.253906 299.671875 291.632812 299.21875 283.824219 C 297.988281 263.605469 310.925781 247.671875 321.316406 234.890625 C 327.28125 227.589844 334.027344 220.878906 341.453125 214.945312 C 342.863281 220.332031 343.867188 225.898438 344.367188 231.46875 C 345.050781 238.816406 345.050781 244.753906 344.367188 251.28125 C 343.136719 252.191406 341.90625 253.195312 340.722656 254.292969 L 329.378906 263.011719 C 329.605469 262.371094 329.878906 261.734375 330.109375 261.09375 C 330.65625 259.632812 331.15625 258.171875 331.65625 256.710938 C 335.027344 246.761719 337.578125 236.535156 339.265625 226.21875 C 339.3125 226.039062 339.175781 225.855469 338.992188 225.808594 C 338.808594 225.761719 338.628906 225.898438 338.582031 226.082031 C 336.941406 236.078125 334.480469 246.03125 331.292969 255.660156 L 322.316406 237.449219 C 322.226562 237.265625 321.996094 237.21875 321.859375 237.265625 C 321.679688 237.359375 321.632812 237.585938 321.679688 237.722656 L 330.882812 256.621094 C 330.382812 258.035156 329.925781 259.449219 329.378906 260.867188 C 327.921875 264.835938 326.328125 268.761719 324.59375 272.640625 L 314.753906 254.429688 C 314.664062 254.246094 314.433594 254.199219 314.253906 254.292969 C 314.070312 254.382812 314.023438 254.613281 314.117188 254.792969 L 324.230469 273.507812 C 323.320312 275.519531 322.363281 277.527344 321.40625 279.535156 C 320.632812 280.8125 319.902344 282.046875 319.21875 283.230469 L 309.605469 270.269531 C 309.46875 270.132812 309.285156 270.085938 309.105469 270.175781 C 308.96875 270.3125 308.921875 270.496094 309.011719 270.679688 L 318.808594 283.917969 C 315.4375 289.851562 313.113281 294.507812 312.382812 296.011719 C 312.292969 296.195312 312.382812 296.425781 312.566406 296.46875 C 312.75 296.5625 312.976562 296.46875 313.023438 296.285156 C 313.160156 296.058594 313.296875 295.738281 313.476562 295.328125 C 315.664062 291.722656 317.714844 288.070312 319.675781 284.328125 C 319.71875 284.28125 319.71875 284.234375 319.765625 284.191406 C 320.539062 282.683594 321.316406 281.179688 322.089844 279.625 C 327.101562 271.320312 333.707031 261.6875 340.632812 255.160156 L 341.089844 254.839844 C 341.132812 254.792969 341.179688 254.75 341.226562 254.65625 C 342.410156 253.609375 343.546875 252.601562 344.734375 251.734375 C 344.824219 251.691406 344.914062 251.644531 344.960938 251.554688 C 349.242188 248.449219 353.617188 246.804688 357.761719 247.582031 C 359.175781 247.855469 362.636719 248.769531 364.003906 251.507812 C 368.515625 260.589844 345.691406 282.363281 327.464844 294.597656 C 322.863281 297.703125 317.988281 300.53125 313.023438 303.042969 C 312.839844 303.132812 312.792969 303.363281 312.886719 303.5 C 312.929688 303.636719 313.066406 303.679688 313.203125 303.679688 C 313.25 303.679688 313.296875 303.679688 313.386719 303.636719 C 318.351562 301.125 323.226562 298.25 327.875 295.144531 C 345.597656 283.230469 369.519531 261.003906 364.644531 251.144531 C 363.140625 248.128906 359.449219 247.125 357.898438 246.851562 C 353.753906 246.074219 349.378906 247.628906 345.097656 250.640625 C 345.734375 244.339844 345.734375 238.5 345.050781 231.285156 C 344.503906 225.535156 343.457031 219.738281 341.953125 214.125 C 341.90625 213.988281 341.816406 213.894531 341.726562 213.894531 C 341.636719 213.847656 341.5 213.894531 341.40625 213.941406 C 333.796875 219.964844 326.828125 226.8125 320.722656 234.34375 C 310.242188 247.21875 297.257812 263.238281 298.488281 283.78125 C 298.945312 291.539062 301.449219 299.164062 305.824219 306.558594 L 298.03125 306.558594 L 298.03125 302.128906 L 295.4375 302.128906 C 295.070312 302.265625 293.386719 302.90625 292.519531 304.6875 C 292.199219 305.371094 292.109375 306.007812 292.0625 306.511719 L 235.296875 306.511719 L 238.210938 283.050781 L 240.445312 283.050781 C 240.625 283.050781 240.808594 282.914062 240.808594 282.683594 L 240.808594 279.125 C 240.808594 278.941406 240.671875 278.757812 240.445312 278.757812 L 232.015625 278.757812 C 233.792969 276.523438 235.75 274.421875 237.800781 272.460938 C 240.035156 270.3125 242.402344 268.304688 244.910156 266.527344 C 245.046875 266.386719 245.089844 266.207031 245 266.023438 C 244.863281 265.839844 244.679688 265.839844 244.5 265.933594 C 241.992188 267.757812 239.53125 269.765625 237.300781 271.957031 C 235.066406 274.058594 232.972656 276.386719 231.058594 278.757812 L 227.730469 278.757812 C 229.875 274.789062 231.789062 270.679688 233.425781 266.527344 C 235.476562 261.320312 237.117188 255.9375 238.300781 250.503906 C 238.347656 250.320312 238.210938 250.136719 238.027344 250.09375 C 237.847656 250.046875 237.664062 250.183594 237.617188 250.367188 C 236.433594 255.753906 234.792969 261.140625 232.789062 266.296875 C 231.105469 270.542969 229.144531 274.742188 226.957031 278.804688 L 225.820312 278.804688 C 227.367188 272.550781 229.097656 264.378906 229.601562 256.664062 C 230.054688 253.746094 231.378906 249.636719 234.886719 246.804688 C 235.933594 245.984375 238.347656 244.023438 240.078125 244.707031 C 241.035156 245.117188 242.539062 246.761719 242.085938 253.332031 C 241.765625 258.035156 239.761719 262.78125 236.296875 267.074219 C 236.160156 267.210938 236.207031 267.4375 236.34375 267.574219 C 236.390625 267.621094 236.480469 267.667969 236.570312 267.667969 C 236.664062 267.667969 236.800781 267.621094 236.84375 267.53125 C 240.398438 263.148438 242.449219 258.261719 242.765625 253.425781 C 243.222656 246.761719 241.71875 244.707031 240.351562 244.113281 C 238.257812 243.246094 235.570312 245.390625 234.476562 246.304688 C 232.0625 248.265625 230.648438 250.777344 229.828125 253.152344 C 229.828125 251.917969 229.828125 250.730469 229.78125 249.546875 C 229.601562 246.167969 229.097656 242.058594 226.273438 240.460938 C 224.632812 239.503906 222.445312 239.546875 221.261719 240.097656 C 219.210938 241.007812 218.300781 244.523438 218.574219 250.6875 C 217.296875 247.902344 215.429688 246.214844 213.515625 246.121094 C 211.511719 246.03125 209.964844 247.671875 209.554688 248.175781 C 207.367188 250.777344 209.050781 256.527344 212.152344 262.78125 C 211.375 262.144531 210.375 261.640625 209.1875 261.550781 C 207.640625 261.457031 205.636719 262.050781 204.996094 263.285156 C 204.222656 264.789062 204.859375 268.078125 218.527344 278.804688 L 212.015625 278.804688 C 211.832031 278.804688 211.648438 278.941406 211.648438 279.167969 L 211.648438 282.867188 C 211.648438 283.050781 211.785156 283.230469 212.015625 283.230469 L 213.746094 283.230469 L 217.296875 306.695312 L 163.21875 306.695312 L 163.21875 302.222656 L 163.992188 302.222656 C 164.175781 302.222656 164.355469 302.085938 164.355469 301.855469 L 165.769531 261.6875 L 164.859375 252.921875 C 164.859375 252.785156 164.765625 252.695312 164.628906 252.648438 C 164.492188 252.601562 164.355469 252.648438 164.265625 252.742188 C 163.171875 253.746094 160.847656 255.433594 157.523438 255.9375 C 153.921875 256.484375 151.007812 255.34375 149.59375 254.613281 C 149.503906 254.566406 149.367188 254.566406 149.277344 254.613281 C 149.183594 254.65625 149.09375 254.75 149.09375 254.839844 L 143.761719 273.964844 L 143.761719 274.101562 L 145.722656 301.945312 C 145.722656 302.128906 145.90625 302.265625 146.085938 302.265625 L 146.769531 302.265625 C 145.222656 303.542969 143.855469 304 142.851562 304.183594 C 142.078125 304.320312 141.578125 304.230469 140.894531 304.550781 C 139.9375 305.003906 139.296875 305.871094 138.886719 306.738281 L 46.855469 306.738281 C 47.082031 306.148438 47.308594 305.554688 47.492188 305.003906 C 50.179688 299.664062 51.777344 294.140625 52.230469 288.480469 C 52.824219 280.859375 51.136719 276.019531 48.265625 267.984375 C 47.628906 266.207031 46.945312 264.289062 46.261719 262.1875 C 43.347656 253.609375 41.34375 246.257812 39.746094 240.324219 C 36.375 227.863281 34.371094 220.332031 28.402344 218.003906 C 27.398438 217.636719 24.394531 216.453125 21.476562 217.730469 C 17.742188 219.371094 16.554688 224.121094 16.101562 226.175781 C 13.324219 237.449219 23.890625 255.480469 28.359375 262.417969 C 22.386719 258.855469 15.417969 256.117188 7.71875 254.566406 C 7.628906 254.566406 7.492188 254.566406 7.398438 254.65625 C 7.308594 254.75 7.261719 254.839844 7.261719 254.929688 C 7.582031 262.417969 9.949219 281.453125 25.257812 295.648438 C 30.453125 300.441406 36.46875 304.183594 43.253906 306.695312 L 7.171875 306.695312 C 6.578125 306.695312 6.125 307.152344 6.125 307.746094 C 6.125 308.335938 6.578125 308.792969 7.171875 308.792969 L 356.078125 308.792969 C 356.671875 308.792969 357.125 308.335938 357.125 307.746094 C 357.125 307.152344 356.714844 306.648438 356.125 306.648438 Z M 220.898438 136.160156 C 239.441406 136.160156 254.566406 151.269531 254.566406 169.890625 C 254.566406 188.515625 239.488281 203.625 220.898438 203.625 C 202.308594 203.625 187.226562 188.515625 187.226562 169.890625 C 187.226562 151.269531 202.355469 136.160156 220.898438 136.160156 Z M 220.898438 204.308594 C 239.851562 204.308594 255.25 188.882812 255.25 169.890625 C 255.25 150.902344 239.851562 135.476562 220.898438 135.476562 C 201.945312 135.476562 186.546875 150.902344 186.546875 169.890625 C 186.546875 188.882812 201.945312 204.308594 220.898438 204.308594 Z M 220.898438 145.289062 C 234.429688 145.289062 245.457031 156.335938 245.457031 169.890625 C 245.457031 183.449219 234.429688 194.496094 220.898438 194.496094 C 207.367188 194.496094 196.339844 183.449219 196.339844 169.890625 C 196.339844 156.335938 207.367188 145.289062 220.898438 145.289062 Z M 220.898438 195.226562 C 234.839844 195.226562 246.183594 183.859375 246.183594 169.890625 C 246.183594 155.925781 234.839844 144.558594 220.898438 144.558594 C 206.957031 144.558594 195.613281 155.925781 195.613281 169.890625 C 195.613281 183.859375 206.957031 195.226562 220.898438 195.226562 Z M 220.898438 152.820312 C 230.285156 152.820312 237.9375 160.488281 237.9375 169.890625 C 237.9375 179.296875 230.285156 186.964844 220.898438 186.964844 C 211.511719 186.964844 203.859375 179.296875 203.859375 169.890625 C 203.859375 160.488281 211.511719 152.820312 220.898438 152.820312 Z M 220.898438 187.648438 C 230.695312 187.648438 238.621094 179.660156 238.621094 169.890625 C 238.621094 160.078125 230.648438 152.136719 220.898438 152.136719 C 211.101562 152.136719 203.175781 160.125 203.175781 169.890625 C 203.175781 179.707031 211.101562 187.648438 220.898438 187.648438 Z M 325.824219 204.308594 C 326.097656 204.8125 326.507812 206.042969 326.644531 207.277344 C 326.78125 208.554688 326.597656 209.878906 326.144531 211.203125 L 324.867188 211.203125 C 324.140625 208.144531 324.230469 207.320312 324.320312 207.140625 C 324.414062 207.183594 324.640625 207.320312 325.097656 207.871094 C 325.1875 208.007812 325.371094 208.007812 325.507812 207.960938 C 325.644531 207.914062 325.734375 207.777344 325.734375 207.597656 C 325.644531 205.585938 325.734375 204.675781 325.824219 204.308594 Z M 299.261719 212.023438 C 299.71875 213.710938 300.492188 214.945312 300.628906 215.128906 C 300.859375 215.445312 301.039062 215.675781 301.175781 215.902344 C 301.269531 216.039062 301.359375 216.132812 301.449219 216.222656 C 301.449219 216.222656 301.449219 216.269531 301.496094 216.269531 C 301.722656 216.542969 301.859375 216.816406 301.996094 217.273438 L 302.132812 217.410156 C 302.179688 217.59375 302.222656 217.820312 302.222656 218.050781 C 302.222656 218.09375 302.222656 218.09375 302.179688 218.140625 C 301.359375 217.867188 300.675781 217.410156 300.175781 216.863281 C 299.171875 215.675781 298.851562 213.894531 299.261719 212.023438 Z M 299.035156 216.359375 Z M 299.125 216.542969 Z M 295.253906 208.050781 C 295.253906 202.4375 299.808594 197.875 305.414062 197.875 C 311.019531 197.875 315.574219 202.4375 315.574219 208.050781 C 315.574219 210.835938 314.480469 213.4375 312.519531 215.308594 C 312.019531 213.257812 313.796875 212.296875 313.386719 209.832031 C 312.839844 206.316406 308.601562 204.492188 308.101562 204.265625 C 306.871094 203.761719 304.273438 202.667969 301.949219 203.945312 C 299.125 205.496094 299.035156 209.332031 298.988281 209.832031 L 298.988281 210.472656 C 298.304688 212.25 298.214844 214.125 298.714844 215.628906 C 296.574219 213.757812 295.253906 211.019531 295.253906 208.050781 Z M 319.71875 200.75 L 324.914062 194.632812 C 325.050781 194.496094 325.003906 194.3125 324.914062 194.175781 L 319.21875 188.015625 C 319.171875 187.921875 319.035156 187.921875 318.945312 187.875 C 318.855469 187.875 318.761719 187.921875 318.671875 187.96875 L 313.023438 193.902344 C 312.15625 193.445312 311.292969 193.035156 310.378906 192.761719 L 310.378906 185 C 310.378906 184.820312 310.242188 184.636719 310.015625 184.636719 L 301.542969 184.636719 C 301.449219 184.636719 301.359375 184.679688 301.269531 184.726562 C 301.222656 184.773438 301.175781 184.863281 301.175781 185 L 301.175781 192.53125 C 300.175781 192.804688 299.21875 193.171875 298.261719 193.628906 L 292.882812 188.015625 C 292.839844 187.96875 292.746094 187.921875 292.65625 187.921875 C 292.519531 187.921875 292.472656 187.96875 292.382812 188.015625 L 285.960938 194.3125 C 285.867188 194.359375 285.867188 194.496094 285.867188 194.585938 C 285.867188 194.679688 285.914062 194.769531 285.960938 194.859375 L 291.472656 199.972656 C 290.835938 201.023438 290.332031 202.164062 289.96875 203.351562 L 282.039062 203.351562 C 281.859375 203.351562 281.675781 203.488281 281.675781 203.714844 L 281.675781 212.160156 C 281.675781 212.34375 281.8125 212.527344 282.039062 212.527344 L 289.785156 212.527344 C 290.105469 213.667969 290.5625 214.808594 291.152344 215.902344 L 287.28125 219.191406 C 287.1875 219.28125 287.144531 219.371094 287.144531 219.507812 C 287.144531 219.601562 287.234375 219.738281 287.324219 219.785156 C 288.007812 220.195312 288.738281 220.558594 289.511719 220.789062 C 290.425781 221.0625 291.335938 221.199219 292.199219 221.199219 C 294.433594 221.199219 296.621094 220.421875 299.035156 219.554688 C 299.855469 219.28125 300.628906 218.917969 301.40625 218.550781 C 301.632812 218.640625 301.859375 218.734375 302.132812 218.824219 C 302.042969 219.507812 301.859375 220.421875 301.3125 221.5625 C 299.765625 224.851562 297.988281 224.941406 297.851562 226.492188 C 297.621094 229.003906 301.90625 232.472656 306.417969 232.703125 C 311.882812 233.019531 314.980469 228.410156 315.300781 227.953125 C 315.484375 227.726562 318.398438 223.117188 316.578125 219.691406 C 316.121094 218.871094 315.527344 218.367188 314.980469 217.957031 L 319.949219 218.640625 L 320.128906 218.640625 C 320.632812 218.460938 321.179688 218.230469 321.679688 217.957031 C 321.769531 217.914062 321.863281 217.820312 321.863281 217.683594 C 321.863281 217.59375 321.863281 217.457031 321.769531 217.363281 L 319.855469 215.445312 C 320.3125 214.488281 320.722656 213.53125 320.996094 212.527344 L 324.09375 212.527344 C 324.09375 212.296875 324.140625 212.023438 324.183594 211.796875 L 320.722656 211.796875 C 320.539062 211.796875 320.402344 211.886719 320.359375 212.070312 C 320.085938 213.210938 319.628906 214.304688 319.082031 215.355469 C 318.992188 215.492188 319.035156 215.675781 319.171875 215.8125 L 320.90625 217.546875 L 319.949219 217.957031 L 313.660156 217.089844 C 313.339844 216.816406 313.023438 216.496094 312.792969 216.039062 C 315.027344 213.988281 316.304688 211.15625 316.304688 208.050781 C 316.304688 202.074219 311.429688 197.1875 305.460938 197.1875 C 299.492188 197.1875 294.617188 202.074219 294.617188 208.050781 C 294.617188 211.796875 296.574219 215.21875 299.628906 217.183594 C 299.535156 217.136719 299.492188 217.042969 299.445312 216.953125 C 299.535156 217.089844 299.628906 217.183594 299.71875 217.320312 C 299.992188 217.636719 300.3125 217.910156 300.675781 218.140625 C 300.082031 218.414062 299.445312 218.640625 298.808594 218.871094 C 295.574219 220.011719 292.746094 221.015625 289.742188 220.101562 C 289.195312 219.921875 288.691406 219.691406 288.144531 219.417969 L 291.792969 216.269531 C 291.792969 216.269531 291.835938 216.269531 291.835938 216.222656 C 291.972656 216.132812 292.019531 215.902344 291.929688 215.765625 C 291.246094 214.578125 290.742188 213.347656 290.425781 212.023438 C 290.378906 211.886719 290.242188 211.75 290.058594 211.75 L 282.40625 211.75 L 282.40625 204.035156 L 290.152344 204.035156 C 290.332031 204.082031 290.515625 203.945312 290.5625 203.808594 C 290.925781 202.484375 291.519531 201.25 292.199219 200.0625 C 292.292969 199.925781 292.246094 199.746094 292.15625 199.609375 L 286.734375 194.542969 L 292.65625 188.742188 L 297.988281 194.3125 C 298.078125 194.402344 298.261719 194.449219 298.398438 194.402344 C 299.445312 193.855469 300.539062 193.445312 301.679688 193.171875 C 301.816406 193.125 301.953125 192.988281 301.953125 192.804688 L 301.953125 185.367188 L 309.695312 185.367188 L 309.695312 193.035156 C 309.695312 193.171875 309.789062 193.308594 309.925781 193.355469 C 310.972656 193.675781 311.976562 194.128906 312.929688 194.679688 C 313.066406 194.769531 313.25 194.722656 313.339844 194.632812 L 318.945312 188.742188 L 324.140625 194.359375 L 318.992188 200.382812 C 318.855469 200.476562 318.855469 200.65625 318.945312 200.792969 C 319.445312 201.707031 319.855469 202.710938 320.128906 203.714844 C 320.175781 203.851562 320.3125 203.988281 320.449219 203.988281 L 325.050781 203.988281 C 325.050781 203.808594 325.140625 203.578125 325.277344 203.441406 C 325.050781 203.714844 324.867188 204.492188 324.914062 206.636719 C 324.59375 206.363281 324.277344 206.226562 323.957031 206.363281 C 323.5 206.546875 323.089844 207.140625 324.183594 211.523438 C 324.230469 211.660156 324.367188 211.796875 324.550781 211.796875 L 326.328125 211.796875 C 326.464844 211.796875 326.601562 211.703125 326.644531 211.566406 C 327.191406 210.0625 327.417969 208.554688 327.28125 207.046875 C 327.148438 205.632812 326.554688 203.808594 326.007812 203.351562 C 325.871094 203.257812 325.78125 203.214844 325.6875 203.214844 L 325.78125 203.214844 C 326.234375 203.214844 326.464844 203.578125 326.464844 203.945312 L 328.375 203.945312 L 328.375 207.824219 L 327.464844 207.824219 C 327.511719 208.007812 327.511719 208.234375 327.417969 208.371094 C 327.554688 208.464844 327.648438 208.554688 327.785156 208.691406 L 327.785156 208.507812 L 328.742188 208.507812 C 328.921875 208.507812 329.105469 208.371094 329.105469 208.144531 L 329.105469 203.535156 C 329.105469 203.351562 328.96875 203.167969 328.742188 203.167969 L 320.769531 203.167969 C 320.496094 202.4375 320.128906 201.570312 319.71875 200.75 Z M 259.898438 134.289062 C 259.988281 134.015625 270.878906 104.527344 294.796875 94.164062 C 294.890625 94.117188 295.027344 94.117188 295.117188 94.164062 C 295.207031 94.210938 295.300781 94.300781 295.300781 94.4375 C 295.34375 94.667969 296.984375 107.21875 293.566406 121.554688 C 293.613281 121.691406 293.566406 121.824219 293.476562 121.917969 C 291.925781 128.125 289.46875 134.652344 285.457031 140.679688 C 289.695312 140.085938 310.789062 137.574219 326.28125 145.378906 C 326.371094 145.425781 326.464844 145.515625 326.464844 145.652344 C 326.464844 145.746094 326.464844 145.882812 326.371094 145.972656 C 326.191406 146.15625 308.148438 165.054688 290.515625 165.054688 C 289.238281 165.054688 288.007812 164.960938 286.777344 164.734375 C 286.597656 164.6875 286.460938 164.507812 286.507812 164.324219 C 286.550781 164.140625 286.734375 164.003906 286.914062 164.050781 C 304 166.878906 322.816406 148.574219 325.550781 145.835938 C 309.148438 137.847656 286.597656 141.226562 284.957031 141.5 C 282.40625 145.199219 279.261719 148.667969 275.390625 151.726562 C 276.621094 151.40625 278.214844 151.085938 280.082031 150.765625 C 282.722656 150.308594 285.960938 149.808594 289.421875 149.304688 L 295.9375 142.003906 C 296.074219 141.867188 296.300781 141.867188 296.4375 141.957031 C 296.574219 142.09375 296.574219 142.320312 296.484375 142.457031 L 290.425781 149.167969 C 293.886719 148.710938 297.578125 148.210938 301.132812 147.800781 L 307.007812 142.003906 C 307.144531 141.867188 307.371094 141.867188 307.507812 142.003906 C 307.644531 142.140625 307.644531 142.367188 307.507812 142.503906 L 302.269531 147.664062 C 311.746094 146.519531 320.039062 145.652344 320.8125 145.5625 C 320.996094 145.5625 321.179688 145.699219 321.222656 145.882812 C 321.222656 146.066406 321.085938 146.246094 320.90625 146.292969 C 320.675781 146.292969 309.695312 147.433594 298.304688 148.894531 L 308.054688 153.914062 C 308.238281 154.007812 308.285156 154.234375 308.191406 154.371094 C 308.148438 154.507812 308.011719 154.554688 307.875 154.554688 C 307.828125 154.554688 307.78125 154.554688 307.691406 154.507812 L 297.03125 149.03125 C 291.246094 149.761719 285.414062 150.582031 280.992188 151.3125 L 293.019531 159.484375 C 293.203125 159.574219 293.203125 159.804688 293.113281 159.988281 C 293.019531 160.078125 292.929688 160.125 292.839844 160.125 C 292.746094 160.125 292.703125 160.125 292.65625 160.078125 L 280.035156 151.496094 C 276.847656 152.042969 274.476562 152.59375 273.566406 153.046875 C 272.882812 153.550781 272.152344 154.054688 271.425781 154.507812 C 271.378906 154.554688 271.289062 154.554688 271.242188 154.554688 C 271.105469 154.554688 271.015625 154.507812 270.925781 154.371094 C 270.832031 154.191406 270.878906 154.007812 271.015625 153.871094 C 283.636719 145.835938 289.742188 133.648438 292.609375 122.464844 L 280.628906 129.496094 C 279.398438 131.6875 278.304688 133.421875 277.300781 134.425781 C 277.210938 134.515625 277.121094 134.515625 277.027344 134.515625 C 276.9375 134.515625 276.847656 134.46875 276.800781 134.425781 C 276.664062 134.289062 276.664062 134.058594 276.800781 133.921875 C 278.214844 132.460938 280.035156 129.265625 281.949219 125.433594 C 281.359375 123.289062 277.53125 109.957031 277.484375 109.410156 C 277.4375 109.230469 277.574219 109.042969 277.804688 109 C 277.984375 108.953125 278.167969 109.089844 278.214844 109.320312 C 278.304688 109.730469 280.71875 118.3125 282.449219 124.472656 C 287.050781 114.980469 291.925781 102.199219 292.0625 101.46875 C 292.0625 101.285156 292.199219 101.148438 292.429688 101.148438 C 292.609375 101.148438 292.792969 101.332031 292.792969 101.511719 C 292.792969 101.652344 287.597656 115.574219 282.722656 125.523438 C 282.722656 125.570312 282.679688 125.613281 282.632812 125.660156 C 282.175781 126.574219 281.722656 127.441406 281.3125 128.261719 L 292.882812 121.460938 C 295.984375 108.726562 294.980469 97.40625 294.707031 94.988281 C 271.378906 105.394531 260.71875 134.195312 260.628906 134.46875 C 260.582031 134.652344 260.355469 134.746094 260.171875 134.699219 C 259.945312 134.699219 259.851562 134.46875 259.898438 134.289062 Z M 276.027344 158.847656 C 276.164062 158.984375 276.210938 159.210938 276.074219 159.347656 C 275.980469 159.4375 275.890625 159.484375 275.800781 159.484375 C 275.707031 159.484375 275.617188 159.4375 275.570312 159.394531 C 274.25 158.253906 272.972656 156.882812 271.789062 155.375 C 271.652344 155.238281 271.699219 155.011719 271.835938 154.875 C 271.972656 154.738281 272.199219 154.785156 272.335938 154.921875 C 273.476562 156.378906 274.707031 157.703125 276.027344 158.847656 Z M 273.019531 129.90625 L 270.378906 118.675781 C 270.332031 118.496094 270.46875 118.3125 270.652344 118.265625 C 270.832031 118.21875 271.015625 118.359375 271.0625 118.539062 L 273.703125 129.769531 C 273.75 129.953125 273.613281 130.132812 273.429688 130.179688 L 273.339844 130.179688 C 273.203125 130.179688 273.066406 130.042969 273.019531 129.90625 Z M 220.898438 160.125 C 226.273438 160.125 230.648438 164.507812 230.648438 169.890625 C 230.648438 175.277344 226.273438 179.660156 220.898438 179.660156 C 215.523438 179.660156 211.148438 175.277344 211.148438 169.890625 C 211.148438 164.507812 215.523438 160.125 220.898438 160.125 Z M 220.898438 180.34375 C 226.683594 180.34375 231.332031 175.644531 231.332031 169.890625 C 231.332031 164.140625 226.640625 159.4375 220.898438 159.4375 C 215.113281 159.4375 210.464844 164.140625 210.464844 169.890625 C 210.464844 175.644531 215.113281 180.34375 220.898438 180.34375 Z M 313.023438 301.171875 C 312.929688 301.261719 312.839844 301.308594 312.75 301.308594 C 312.65625 301.308594 312.613281 301.308594 312.519531 301.214844 C 312.382812 301.078125 312.339844 300.898438 312.429688 300.714844 C 319.402344 291.21875 327.144531 282.089844 335.394531 273.691406 C 342.363281 266.617188 349.835938 259.859375 357.582031 253.699219 C 357.71875 253.5625 357.945312 253.609375 358.082031 253.746094 C 358.21875 253.882812 358.171875 254.109375 358.035156 254.246094 C 350.292969 260.410156 342.863281 267.117188 335.894531 274.195312 C 327.691406 282.636719 319.992188 291.675781 313.023438 301.171875 Z M 152.601562 225.808594 C 148.089844 222.429688 146.863281 221.929688 146.542969 221.929688 C 146.589844 222.15625 146.863281 222.933594 148.683594 225.308594 C 148.773438 225.398438 148.773438 225.535156 148.730469 225.671875 C 148.683594 225.808594 148.546875 225.855469 148.410156 225.855469 C 147.363281 225.898438 146.816406 225.992188 146.589844 226.039062 C 147 226.265625 148.226562 226.8125 152.101562 227.773438 C 152.28125 227.816406 152.417969 228 152.375 228.183594 C 152.328125 228.363281 152.191406 228.457031 152.011719 228.457031 L 151.917969 228.457031 C 146.085938 226.996094 145.675781 226.402344 145.722656 225.898438 C 145.769531 225.535156 146.132812 225.261719 147.679688 225.167969 C 145.769531 222.566406 145.585938 221.792969 145.996094 221.382812 C 146.40625 220.925781 147.316406 220.878906 153.058594 225.214844 C 153.195312 225.351562 153.238281 225.535156 153.148438 225.71875 C 152.964844 225.898438 152.738281 225.945312 152.601562 225.808594 Z M 140.664062 233.84375 C 140.9375 231.652344 140.9375 230.691406 140.894531 230.28125 C 140.757812 230.511719 140.484375 231.011719 140.074219 231.972656 C 140.027344 232.109375 139.84375 232.199219 139.707031 232.199219 C 139.570312 232.199219 139.433594 232.0625 139.390625 231.925781 C 138.980469 229.550781 138.660156 228.320312 138.476562 227.679688 C 138.386719 228.640625 138.386719 230.828125 138.570312 235.714844 C 138.570312 235.898438 138.433594 236.078125 138.25 236.078125 C 138.066406 236.078125 137.886719 235.941406 137.886719 235.761719 C 137.519531 226.449219 137.886719 226.402344 138.386719 226.355469 C 138.75 226.3125 139.070312 226.265625 139.9375 230.691406 C 140.484375 229.550781 140.800781 229.371094 141.167969 229.414062 C 141.621094 229.507812 141.894531 229.917969 141.441406 233.980469 C 141.441406 234.164062 141.257812 234.300781 141.03125 234.300781 C 140.800781 234.207031 140.664062 234.023438 140.664062 233.84375 Z M 153.742188 209.421875 C 153.742188 208.644531 153.511719 208.144531 153.332031 207.777344 C 153.011719 207.230469 152.601562 206.957031 152.375 206.273438 C 152.191406 205.679688 152.238281 205.175781 152.28125 204.8125 C 153.285156 204.492188 155.746094 203.808594 158.433594 204.8125 C 159.34375 205.132812 160.941406 205.769531 161.941406 207.414062 C 162.535156 208.464844 162.671875 209.511719 162.671875 210.105469 C 163.71875 210.929688 164.21875 212.253906 163.945312 213.484375 C 163.628906 214.945312 162.304688 216.039062 160.710938 216.132812 L 161.214844 217.867188 C 161.257812 218.050781 161.167969 218.230469 160.984375 218.324219 C 160.804688 218.367188 160.621094 218.277344 160.53125 218.09375 L 159.527344 214.625 C 159.480469 214.441406 159.574219 214.261719 159.753906 214.214844 C 160.394531 213.941406 160.847656 213.347656 160.804688 212.617188 C 160.804688 211.976562 160.394531 211.429688 159.847656 211.15625 C 159.070312 211.246094 157.976562 211.203125 156.792969 210.609375 C 155.929688 210.152344 155.289062 209.558594 154.878906 209.058594 C 154.242188 209.832031 153.742188 210.746094 153.46875 211.660156 C 153.101562 212.753906 152.601562 214.261719 153.332031 215.765625 C 153.785156 216.679688 154.5625 217.226562 155.109375 217.546875 C 155.246094 217.59375 155.289062 217.730469 155.289062 217.867188 L 155.289062 220.558594 C 155.289062 220.742188 155.152344 220.925781 154.925781 220.925781 C 154.742188 220.925781 154.5625 220.789062 154.5625 220.558594 L 154.5625 218.09375 C 153.921875 217.730469 153.148438 217.089844 152.691406 216.132812 C 151.828125 214.398438 152.417969 212.664062 152.785156 211.523438 C 152.964844 210.792969 153.285156 210.105469 153.742188 209.421875 Z M 122.714844 121.550781 Z M 134.515625 109.683594 C 140.800781 109.683594 145.90625 114.796875 145.90625 121.097656 C 145.90625 127.394531 140.800781 132.507812 134.515625 132.507812 C 130.09375 132.507812 126.222656 129.949219 124.355469 126.253906 C 124.492188 125.933594 124.582031 125.613281 124.628906 125.25 C 124.945312 123.515625 124.628906 121.550781 124.125 120.914062 C 123.988281 120.730469 123.808594 120.640625 123.625 120.59375 C 123.488281 120.59375 123.304688 120.640625 123.125 120.820312 C 123.304688 114.707031 128.316406 109.683594 134.515625 109.683594 Z M 120.253906 127.441406 C 120.4375 127.484375 120.617188 127.347656 120.664062 127.167969 C 121.164062 124.65625 121.484375 123.421875 121.667969 122.832031 C 121.710938 123.195312 121.757812 123.746094 121.757812 124.65625 C 121.757812 124.839844 121.894531 124.976562 122.078125 125.019531 C 122.257812 125.019531 122.441406 124.929688 122.441406 124.746094 C 123.03125 122.238281 123.441406 121.597656 123.578125 121.414062 C 123.851562 121.78125 124.21875 123.46875 123.898438 125.15625 C 123.625 126.527344 122.941406 127.804688 121.847656 128.855469 C 121.710938 128.992188 121.710938 129.222656 121.847656 129.359375 C 121.941406 129.449219 122.03125 129.449219 122.121094 129.449219 C 122.210938 129.449219 122.304688 129.402344 122.347656 129.359375 C 123.03125 128.671875 123.578125 127.898438 123.988281 127.121094 C 126.085938 130.773438 130.003906 133.285156 134.515625 133.285156 C 141.210938 133.285156 146.632812 127.851562 146.632812 121.140625 C 146.632812 114.429688 141.210938 109 134.515625 109 C 127.816406 109 122.394531 114.429688 122.394531 121.140625 C 122.394531 121.460938 122.441406 121.78125 122.441406 122.148438 C 122.441406 122.054688 122.484375 122.007812 122.53125 121.960938 C 122.484375 122.101562 122.394531 122.28125 122.347656 122.464844 C 122.257812 121.824219 122.078125 121.644531 121.804688 121.644531 C 121.394531 121.597656 121.027344 121.550781 119.933594 127.03125 C 119.933594 127.210938 120.070312 127.394531 120.253906 127.441406 Z M 86.675781 114.476562 C 86.539062 114.339844 86.492188 114.160156 86.585938 113.972656 C 86.949219 113.519531 87.90625 112.375 89.589844 112.148438 C 90.457031 112.058594 91.1875 112.238281 91.640625 112.421875 C 91.734375 111.097656 92.144531 109.410156 93.371094 107.859375 C 94.832031 105.941406 96.746094 105.210938 97.5625 104.9375 C 98.566406 105.027344 100.480469 105.347656 102.4375 106.625 C 103.851562 107.539062 104.71875 108.632812 105.265625 109.367188 L 104.035156 111.191406 C 104.171875 111.875 104.214844 112.5625 104.214844 113.246094 C 104.214844 114.933594 104.214844 117.214844 102.621094 118.402344 C 102.03125 118.859375 101.253906 119.085938 100.34375 119.085938 L 99.980469 119.085938 C 99.796875 119.085938 99.613281 118.90625 99.660156 118.722656 C 99.660156 118.539062 99.84375 118.402344 100.023438 118.402344 C 100.890625 118.449219 101.664062 118.265625 102.210938 117.855469 C 103.53125 116.898438 103.53125 114.796875 103.53125 113.289062 C 103.53125 112.46875 103.441406 111.648438 103.257812 110.824219 C 102.710938 111.191406 102.167969 111.464844 101.527344 111.648438 C 100.890625 111.828125 100.253906 111.921875 99.613281 111.921875 C 100.207031 114.203125 99.523438 116.484375 97.835938 117.488281 C 96.699219 118.171875 95.421875 118.039062 94.785156 117.855469 C 94.601562 117.808594 94.464844 117.625 94.511719 117.445312 C 94.511719 117.398438 94.558594 117.308594 94.601562 117.261719 C 93.875 116.574219 93.097656 115.890625 92.371094 115.207031 L 90.320312 115.984375 L 90.183594 115.984375 C 90.046875 115.984375 89.910156 115.890625 89.863281 115.757812 C 89.773438 115.570312 89.910156 115.34375 90.09375 115.300781 L 91.777344 114.796875 C 91.734375 114.566406 91.640625 114.066406 91.640625 113.378906 L 91.460938 113.152344 C 91.050781 112.972656 90.410156 112.832031 89.683594 112.878906 C 88.269531 113.0625 87.402344 114.066406 87.175781 114.386719 C 87.085938 114.566406 86.859375 114.613281 86.675781 114.476562 Z M 280.902344 215.035156 C 280.765625 215.445312 280.539062 216.222656 279.992188 217.546875 L 278.761719 219.054688 C 278.257812 217.410156 278.167969 215.8125 278.488281 214.214844 C 278.804688 212.84375 279.398438 211.660156 279.671875 211.339844 C 279.761719 211.613281 279.945312 212.480469 279.808594 215.308594 C 279.808594 215.445312 279.898438 215.585938 280.035156 215.675781 C 280.171875 215.722656 280.355469 215.675781 280.445312 215.585938 C 280.675781 215.308594 280.8125 215.128906 280.902344 215.035156 Z M 279.855469 210.5625 C 278.851562 210.378906 277.984375 213.300781 277.804688 214.078125 C 277.394531 215.949219 277.574219 217.914062 278.304688 219.875 C 278.351562 220.011719 278.441406 220.101562 278.578125 220.101562 L 278.625 220.101562 C 278.714844 220.101562 278.851562 220.058594 278.898438 219.964844 L 280.539062 217.914062 C 280.539062 217.867188 280.582031 217.867188 280.582031 217.820312 C 281.949219 214.578125 281.8125 214.167969 281.449219 213.988281 C 281.222656 213.851562 280.949219 213.941406 280.539062 214.304688 C 280.675781 211.019531 280.265625 210.609375 279.855469 210.5625 "/>
</g>
<path style=" stroke:none;fill-rule:nonzero;fill:rgb(26.669312%,71.759033%,74.899292%);fill-opacity:1;" d="M 158.296875 219.875 C 156.839844 220.515625 155.5625 220.605469 154.835938 220.605469 C 154.425781 221.472656 153.785156 222.84375 153.148438 224.667969 C 150.6875 231.332031 151.054688 234.574219 148.273438 236.535156 C 147.910156 236.765625 146.222656 237.949219 144.355469 237.496094 C 142.03125 236.902344 141.121094 234.207031 141.03125 233.886719 L 137.386719 236.214844 C 138.207031 239.730469 140.847656 242.515625 144.21875 243.472656 C 148.410156 244.617188 151.78125 242.378906 152.285156 242.011719 C 151.054688 246.121094 149.824219 250.277344 148.59375 254.382812 C 149.503906 254.929688 152.96875 256.984375 157.613281 256.253906 C 161.804688 255.617188 164.402344 253.152344 165.175781 252.328125 C 165.222656 250.503906 165.359375 247.535156 165.585938 243.886719 C 166.542969 230.28125 168.230469 224.621094 164.722656 220.605469 C 164.039062 219.828125 162.898438 218.78125 160.847656 218.050781 C 160.394531 218.550781 159.527344 219.28125 158.296875 219.875 Z M 96.746094 119.542969 C 97.472656 119.726562 98.113281 119.683594 98.429688 119.589844 C 99.386719 119.910156 100.753906 120.503906 102.167969 121.554688 C 103.851562 122.875 104.582031 124.203125 105.308594 125.160156 C 106.496094 126.710938 108.546875 128.675781 112.507812 130.136719 C 113.421875 129.953125 114.46875 129.632812 115.605469 129.175781 C 117.476562 128.445312 118.886719 127.488281 119.933594 126.710938 C 120.847656 127.714844 121.757812 128.765625 122.667969 129.769531 C 121.894531 130.410156 120.710938 131.414062 119.25 132.601562 C 116.65625 134.699219 115.332031 135.75 114.648438 136.113281 C 113.511719 136.664062 110.503906 137.621094 104.671875 134.242188 C 104.398438 140.269531 104.078125 146.25 103.808594 152.273438 C 101.664062 152.957031 97.703125 153.871094 92.828125 153.140625 C 89.546875 152.640625 86.949219 151.496094 85.261719 150.585938 L 84.167969 132.234375 C 83.667969 131.734375 80.433594 128.308594 80.84375 123.105469 C 81.300781 117.582031 85.535156 114.660156 86.039062 114.292969 C 86.449219 114.25 86.949219 114.25 87.585938 114.386719 C 88.90625 114.660156 89.773438 115.484375 90.136719 115.847656 C 89.363281 116.441406 88.179688 117.535156 87.449219 119.273438 C 87.269531 119.683594 86.539062 121.371094 87.039062 121.734375 C 87.496094 122.101562 88.636719 121.050781 90.777344 119.957031 C 92.371094 119.132812 93.828125 118.632812 94.832031 118.3125 C 95.011719 118.539062 95.652344 119.273438 96.746094 119.542969 "/>
<g clip-path="url(#clip5)" clip-rule="nonzero">
<path style=" stroke:none;fill-rule:nonzero;fill:rgb(5.879211%,5.488586%,4.708862%);fill-opacity:1;" d="M 113.738281 209.101562 L 107.863281 209.101562 C 108 208.917969 108.089844 208.691406 108.179688 208.371094 C 108.273438 207.824219 108.179688 207.320312 107.453125 205.816406 C 107.222656 205.3125 106.90625 204.71875 106.539062 204.035156 C 106.632812 203.988281 106.722656 203.851562 106.722656 203.761719 L 106.996094 185.730469 L 120.847656 185.730469 Z M 105.8125 235.347656 L 68.40625 235.347656 L 75.742188 211.203125 L 113.054688 211.203125 Z M 97.929688 261.640625 L 60.433594 261.640625 L 67.769531 237.496094 L 105.171875 237.496094 Z M 90.183594 287.292969 L 52.597656 287.292969 L 59.75 263.742188 L 97.246094 263.742188 Z M 83.53125 185.6875 L 86.265625 185.6875 L 86.585938 203.03125 C 86.585938 203.214844 86.722656 203.351562 86.902344 203.398438 L 87.679688 203.488281 C 87.496094 204.445312 87.359375 205.585938 87.40625 206.957031 C 87.449219 207.734375 87.542969 208.417969 87.632812 209.058594 L 76.46875 209.058594 Z M 86.039062 177.285156 L 86.128906 180.574219 L 86.175781 183.539062 L 84.125 183.539062 Z M 93.511719 185.6875 L 91.960938 203.351562 L 87.269531 202.757812 L 86.949219 185.730469 L 93.511719 185.730469 Z M 95.742188 168.339844 L 97.472656 174.046875 L 98.566406 183.539062 L 94.421875 183.539062 Z M 101.847656 204.082031 C 101.847656 205.769531 101.800781 207.414062 101.800781 209.101562 L 93.007812 209.101562 C 92.964844 208.417969 92.871094 207.640625 92.597656 206.730469 C 92.28125 205.585938 91.871094 204.675781 91.460938 203.988281 L 92.1875 204.082031 L 92.234375 204.082031 C 92.324219 204.082031 92.417969 204.035156 92.460938 203.988281 C 92.554688 203.945312 92.597656 203.851562 92.597656 203.761719 L 94.191406 185.6875 L 98.796875 185.6875 L 100.890625 203.761719 C 100.890625 203.945312 101.074219 204.082031 101.253906 204.082031 Z M 106.175781 185.6875 L 105.902344 203.351562 L 101.527344 203.351562 L 99.476562 185.6875 Z M 128.226562 164.550781 C 127.679688 164.367188 127.089844 164.6875 126.90625 165.28125 L 121.394531 183.539062 L 106.949219 183.539062 L 106.996094 181.394531 L 103.625 152.363281 C 103.578125 152.179688 103.441406 152.042969 103.214844 152.042969 C 103.03125 152.042969 102.894531 152.226562 102.894531 152.457031 L 106.265625 181.441406 L 106.222656 183.539062 L 99.296875 183.539062 L 98.203125 173.910156 L 95.96875 166.558594 C 95.96875 166.515625 95.925781 166.515625 95.925781 166.46875 L 95.96875 165.875 L 95.96875 159.894531 C 95.96875 159.714844 95.832031 159.53125 95.605469 159.53125 C 95.421875 159.53125 95.242188 159.667969 95.242188 159.894531 L 95.242188 165.828125 L 93.691406 183.496094 L 86.902344 183.496094 L 86.859375 180.527344 L 86.722656 175.097656 L 90.136719 163.867188 C 90.320312 163.320312 90 162.726562 89.410156 162.542969 C 88.863281 162.359375 88.269531 162.679688 88.089844 163.273438 L 86.539062 168.339844 L 86.082031 150.722656 C 86.082031 150.539062 85.902344 150.402344 85.71875 150.355469 C 85.535156 150.355469 85.355469 150.539062 85.355469 150.722656 L 85.855469 170.484375 L 44.394531 306.96875 C 44.214844 307.515625 44.53125 308.109375 45.125 308.292969 C 45.214844 308.335938 45.351562 308.335938 45.445312 308.335938 C 45.898438 308.335938 46.308594 308.0625 46.445312 307.5625 L 51.957031 289.394531 L 89.546875 289.394531 L 84.304688 306.96875 C 84.125 307.515625 84.441406 308.109375 85.035156 308.292969 C 85.125 308.335938 85.261719 308.335938 85.355469 308.335938 C 85.808594 308.335938 86.21875 308.019531 86.355469 307.5625 L 128.957031 165.828125 C 129.09375 165.328125 128.773438 164.6875 128.226562 164.550781 "/>
</g>
</g>
</svg>
