<?xml version="1.0" encoding="UTF-8"?>
<svg xmlns="http://www.w3.org/2000/svg" xmlns:xlink="http://www.w3.org/1999/xlink" width="375pt" height="374.999991pt" viewBox="0 0 375 374.999991" version="1.2">
<defs>
<clipPath id="clip1">
  <path d="M 6.769531 177.539062 L 365.265625 177.539062 L 365.265625 293.792969 L 6.769531 293.792969 Z M 6.769531 177.539062 "/>
</clipPath>
<clipPath id="clip2">
  <path d="M 62.183594 49.222656 L 309 49.222656 L 309 323.339844 L 62.183594 323.339844 Z M 62.183594 49.222656 "/>
</clipPath>
</defs>
<g id="surface1">
<path style=" stroke:none;fill-rule:nonzero;fill:rgb(21.569824%,52.159119%,73.329163%);fill-opacity:1;" d="M 294.667969 289.359375 C 295.21875 292.210938 297.960938 286.726562 301.527344 277.675781 C 301.253906 279.761719 300.539062 280.085938 300.265625 282.886719 C 300.101562 284.636719 299.605469 289.296875 301.910156 290.5625 C 303.558594 291.492188 305.863281 290.289062 306.738281 289.789062 C 308.386719 290.886719 312.996094 293.683594 319.359375 293.46875 C 323.695312 293.304688 326.988281 291.824219 328.742188 290.839844 C 329.402344 291.4375 333.078125 294.617188 338.398438 294.179688 C 345.09375 293.683594 348.496094 287.925781 348.714844 287.4375 C 351.566406 288.695312 354.914062 288.308594 357.382812 286.390625 C 361.113281 283.539062 360.785156 278.988281 360.785156 278.714844 C 360.128906 277.726562 358.097656 275.039062 354.367188 273.777344 C 348.933594 271.96875 344.269531 274.710938 343.558594 275.148438 C 342.238281 274.550781 339.605469 273.566406 336.203125 273.730469 C 332.855469 273.886719 330.332031 275.039062 329.070312 275.699219 C 327.972656 275.210938 325.890625 274.386719 323.199219 274.492188 C 321.335938 274.550781 319.796875 275.039062 318.8125 275.421875 C 320.128906 274.21875 321.992188 272.195312 323.144531 269.28125 C 325.558594 262.976562 322.046875 259.199219 323.75 252.941406 C 325.285156 247.242188 328.90625 248.113281 331.484375 242.199219 C 334.886719 234.355469 333.132812 222.019531 325.777344 218.394531 C 324.570312 217.796875 323.308594 217.460938 322.101562 217.355469 L 327.535156 199.152344 C 327.917969 197.007812 328.632812 191.582031 325.558594 186.375 C 324.902344 185.277344 321.882812 180.171875 318.425781 180.507812 C 315.574219 180.78125 313.707031 184.617188 311.84375 189.664062 C 306.628906 203.585938 305.53125 215.054688 305.53125 215.054688 C 303.777344 233.363281 299.992188 232.101562 296.644531 253.273438 C 295.328125 261.664062 291.707031 274.21875 294.667969 289.359375 Z M 77.445312 290.179688 C 76.894531 293.03125 74.152344 287.546875 70.585938 278.5 C 70.859375 280.582031 71.574219 280.90625 71.847656 283.710938 C 72.011719 285.457031 72.503906 290.121094 70.203125 291.386719 C 68.554688 292.3125 66.25 291.113281 65.371094 290.613281 C 63.726562 291.710938 59.117188 294.507812 52.75 294.292969 C 48.417969 294.128906 45.125 292.648438 43.367188 291.660156 C 42.710938 292.257812 39.03125 295.4375 33.710938 295 C 27.015625 294.507812 23.617188 288.75 23.394531 288.261719 C 20.542969 289.515625 17.195312 289.132812 14.726562 287.214844 C 10.996094 284.363281 11.324219 279.8125 11.324219 279.535156 C 11.984375 278.550781 14.015625 275.863281 17.746094 274.601562 C 23.175781 272.792969 27.839844 275.535156 28.554688 275.972656 C 29.871094 275.375 32.503906 274.386719 35.90625 274.550781 C 39.253906 274.710938 41.777344 275.863281 43.039062 276.519531 C 44.136719 276.03125 46.222656 275.210938 48.910156 275.3125 C 50.777344 275.375 52.3125 275.863281 53.296875 276.246094 C 51.984375 275.039062 50.117188 273.015625 48.964844 270.105469 C 46.550781 263.796875 50.0625 260.019531 48.359375 253.761719 C 46.824219 248.066406 43.203125 248.9375 40.625 243.019531 C 37.222656 235.179688 38.980469 222.839844 46.332031 219.214844 C 47.539062 218.617188 48.800781 218.285156 50.007812 218.179688 L 44.574219 199.972656 C 44.191406 197.828125 43.476562 192.40625 46.550781 187.195312 C 47.210938 186.101562 50.226562 180.996094 53.683594 181.328125 C 56.539062 181.601562 58.402344 185.441406 60.269531 190.488281 C 65.480469 204.410156 66.578125 215.875 66.578125 215.875 C 68.335938 234.1875 72.121094 232.925781 75.46875 254.097656 C 76.839844 262.488281 80.460938 275.101562 77.445312 290.179688 "/>
<g clip-path="url(#clip1)" clip-rule="nonzero">
<path style=" stroke:none;fill-rule:nonzero;fill:rgb(5.879211%,5.488586%,4.708862%);fill-opacity:1;" d="M 361.222656 284.363281 C 360.457031 284.910156 359.632812 285.355469 358.753906 285.628906 L 352.226562 278.164062 C 356.339844 277.566406 360.457031 277.019531 364.515625 276.519531 C 365.175781 279.152344 363.804688 282.441406 361.222656 284.363281 Z M 352.554688 285.183594 C 352.5 285.128906 352.390625 285.128906 352.335938 285.183594 C 352.28125 285.246094 352.171875 285.292969 352.171875 285.355469 C 351.730469 286.390625 351.128906 287.324219 350.414062 288.144531 C 349.867188 288.808594 349.207031 289.359375 348.550781 289.789062 L 338.617188 280.25 C 342.898438 279.535156 347.179688 278.9375 351.511719 278.273438 L 358.097656 285.792969 C 356.285156 286.175781 354.3125 286.007812 352.554688 285.183594 Z M 340.484375 291.824219 C 336.480469 291.601562 333.570312 289.632812 332.199219 288.476562 C 332.144531 288.421875 332.089844 288.421875 331.980469 288.421875 C 331.925781 288.421875 331.871094 288.421875 331.816406 288.476562 C 331.265625 288.808594 330.554688 289.242188 329.621094 289.632812 L 323.804688 282.828125 C 326.601562 282.339844 329.457031 281.789062 332.253906 281.347656 C 334.066406 281.015625 335.929688 280.742188 337.742188 280.417969 L 347.890625 290.179688 C 344.984375 291.875 341.636719 291.875 340.484375 291.824219 Z M 321.773438 290.777344 C 319.523438 290.503906 317.4375 289.789062 315.410156 288.535156 C 314.695312 288.261719 312.445312 287.273438 311.625 285.128906 C 315.464844 284.363281 319.304688 283.601562 323.144531 282.886719 L 329.015625 289.789062 C 327.152344 290.5625 324.628906 291.160156 321.773438 290.777344 Z M 306.300781 289.359375 L 312.941406 266.484375 L 327.863281 259.960938 C 328.027344 261.9375 327.917969 264.015625 326.929688 266.484375 C 325.945312 269.066406 324.242188 271.421875 321.992188 273.503906 C 318.976562 274.003906 315.519531 275.210938 313.105469 278.164062 C 312.226562 279.210938 309.976562 281.953125 310.910156 285.019531 C 311.183594 285.953125 311.679688 286.664062 312.28125 287.273438 C 310.417969 289.191406 308.058594 289.789062 306.300781 289.359375 Z M 305.753906 289.132812 C 305.53125 289.023438 305.257812 288.917969 305.09375 288.75 C 303.777344 287.761719 303.558594 285.902344 303.503906 285.292969 C 303.226562 283.050781 303.996094 281.292969 304.65625 279.921875 C 304.765625 279.644531 304.875 279.371094 304.984375 279.152344 C 306.082031 276.582031 305.640625 274.710938 305.09375 272.40625 C 304.710938 270.761719 304.269531 268.953125 304.214844 266.328125 C 304.160156 264.789062 304.269531 263.695312 304.492188 262.597656 L 311.457031 269.554688 Z M 303.339844 281.347656 L 300.539062 287.4375 C 299.992188 288.097656 299.058594 288.859375 298.507812 288.859375 C 300.59375 270.988281 303.777344 253.050781 307.945312 235.503906 C 312.117188 218.117188 317.382812 200.796875 323.585938 184.011719 C 323.640625 183.847656 323.585938 183.679688 323.421875 183.632812 C 323.253906 183.570312 323.089844 183.632812 323.035156 183.796875 C 316.835938 200.570312 311.570312 217.953125 307.398438 235.394531 C 303.226562 252.726562 300.101562 270.488281 298.015625 288.261719 C 297.960938 287.988281 297.90625 287.546875 297.960938 286.890625 C 298.949219 261.550781 299.496094 248.828125 302.1875 238.792969 C 302.734375 236.714844 303.117188 235.394531 303.613281 233.808594 C 304.214844 231.71875 304.929688 229.421875 306.191406 224.699219 C 307.015625 221.632812 307.726562 219.214844 308.277344 217.296875 C 309.429688 213.292969 310.140625 210.878906 310.582031 207.808594 C 310.964844 204.847656 315.464844 181.988281 321.0625 178.746094 C 321.71875 178.363281 322.378906 178.3125 323.035156 178.585938 C 329.402344 181.164062 330.992188 190.210938 329.347656 195.527344 C 327.863281 200.355469 325.175781 212.25 324.738281 214.066406 C 319.46875 214.28125 314.039062 217.953125 311.84375 222.183594 C 310.855469 224.042969 310.800781 225.359375 310.636719 228.050781 C 310.527344 230.242188 310.359375 233.308594 309.59375 238.246094 C 309.097656 241.316406 308.660156 243.453125 308.113281 246.195312 C 306.683594 253.105469 305.53125 256.777344 304.820312 259.246094 C 303.941406 262.050781 303.503906 263.417969 303.613281 266.4375 C 303.722656 269.066406 304.160156 271.035156 304.546875 272.632812 C 305.09375 274.933594 305.476562 276.628906 304.433594 278.988281 C 304.324219 279.210938 304.214844 279.488281 304.105469 279.761719 C 303.832031 280.144531 303.558594 280.742188 303.339844 281.347656 Z M 328.414062 215.101562 C 335.4375 217.460938 338.234375 228.265625 335.984375 236 C 335.050781 239.183594 333.570312 240.601562 331.980469 242.136719 C 331.210938 242.90625 330.441406 243.617188 329.730469 244.605469 L 318.921875 245.597656 L 325.722656 222.183594 C 325.78125 222.019531 325.667969 221.847656 325.503906 221.792969 C 325.339844 221.742188 325.175781 221.847656 325.121094 222.019531 L 322.597656 230.683594 L 313.214844 220.96875 C 316.453125 216.636719 323.144531 213.347656 328.414062 215.101562 Z M 308.332031 248.003906 C 308.441406 247.457031 308.550781 246.859375 308.714844 246.25 C 309.265625 243.507812 309.703125 241.375 310.195312 238.300781 C 310.964844 233.308594 311.128906 230.242188 311.238281 228.050781 C 311.402344 225.472656 311.457031 224.152344 312.335938 222.457031 C 312.5 222.121094 312.71875 221.792969 312.941406 221.46875 L 322.488281 231.339844 L 318.316406 245.871094 L 315.628906 255.242188 Z M 315.355469 255.90625 L 311.625 268.902344 L 304.601562 261.878906 C 304.765625 261.117188 305.039062 260.34375 305.367188 259.355469 C 306.027344 257.21875 307.015625 254.148438 308.167969 248.71875 Z M 327.699219 249.101562 C 326.875 252.34375 327.207031 254.921875 327.535156 257.386719 C 327.644531 258.039062 327.699219 258.648438 327.753906 259.246094 L 313.105469 265.664062 L 318.757812 246.195312 L 329.289062 245.214844 C 328.6875 246.25 328.140625 247.515625 327.699219 249.101562 Z M 314.53125 283.921875 C 313.488281 284.148438 312.5 284.308594 311.457031 284.53125 C 310.855469 281.894531 312.832031 279.425781 313.597656 278.5 C 315.574219 276.136719 318.316406 274.933594 320.894531 274.328125 Z M 326.988281 273.667969 C 329.125 273.667969 331.320312 273.886719 333.40625 274.4375 C 333.515625 274.4375 333.625 274.4375 333.679688 274.386719 C 334.230469 273.839844 335.160156 273.121094 336.425781 272.515625 L 330.773438 280.859375 C 328.25 281.292969 325.667969 281.730469 323.089844 282.230469 L 323.035156 282.230469 C 320.402344 282.71875 317.824219 283.210938 315.246094 283.710938 L 321.609375 274.113281 C 323.914062 273.730469 325.890625 273.730469 326.988281 273.667969 Z M 337.519531 272.195312 C 338.234375 271.96875 338.949219 271.808594 339.824219 271.695312 C 342.679688 271.476562 344.875 272.515625 345.972656 273.179688 C 346.082031 273.230469 346.191406 273.230469 346.246094 273.179688 C 347.507812 272.570312 348.824219 272.085938 350.140625 271.808594 L 345.859375 278.441406 C 341.308594 279.152344 336.753906 279.871094 332.199219 280.632812 C 332.035156 280.695312 331.871094 280.695312 331.707031 280.742188 Z M 350.964844 271.695312 C 352.117188 271.476562 353.214844 271.421875 354.367188 271.476562 C 361.167969 271.808594 363.527344 274.050781 364.296875 275.972656 C 360.070312 276.519531 355.847656 277.070312 351.621094 277.675781 L 351.457031 277.675781 C 349.867188 277.890625 348.277344 278.117188 346.628906 278.390625 Z M 364.957031 275.921875 C 363.859375 272.792969 360.292969 271.097656 354.367188 270.824219 C 353.160156 270.761719 351.953125 270.871094 350.746094 271.097656 L 350.636719 271.097656 C 349.097656 271.371094 347.507812 271.859375 346.082031 272.570312 C 344.929688 271.859375 342.625 270.824219 339.714844 271.097656 C 338.785156 271.144531 337.960938 271.371094 337.246094 271.585938 L 337.191406 271.585938 C 335.4375 272.195312 334.175781 273.121094 333.40625 273.777344 C 331.320312 273.230469 329.125 273.015625 326.988281 273.015625 C 326.109375 273.015625 324.683594 273.015625 323.035156 273.230469 C 325.066406 271.261719 326.546875 269.007812 327.480469 266.601562 C 328.523438 263.859375 328.578125 261.550781 328.414062 259.410156 C 328.359375 258.699219 328.25 257.984375 328.140625 257.277344 C 327.808594 254.859375 327.480469 252.34375 328.25 249.210938 C 328.6875 247.40625 329.347656 246.085938 330.113281 245.050781 C 330.828125 244.058594 331.59375 243.34375 332.363281 242.519531 C 333.953125 240.984375 335.546875 239.457031 336.535156 236.105469 C 338.5625 229.085938 336.480469 217.1875 328.523438 214.503906 C 327.480469 214.117188 326.328125 213.957031 325.230469 213.957031 C 325.722656 211.703125 328.304688 200.296875 329.785156 195.585938 C 331.429688 190.152344 330.058594 180.71875 323.089844 177.875 C 322.269531 177.539062 321.390625 177.601562 320.566406 178.089844 C 314.640625 181.488281 310.195312 204.46875 309.757812 207.652344 C 309.375 210.667969 308.660156 213.074219 307.507812 217.023438 C 306.960938 218.941406 306.246094 221.410156 305.421875 224.425781 C 304.160156 229.085938 303.449219 231.445312 302.84375 233.535156 C 302.40625 235.117188 301.964844 236.488281 301.417969 238.519531 C 298.675781 248.554688 298.179688 261.332031 297.191406 286.726562 C 297.136719 287.710938 297.191406 288.859375 297.90625 289.242188 L 297.960938 289.242188 C 298.125 289.296875 298.234375 289.359375 298.398438 289.359375 C 299.441406 289.359375 300.703125 287.988281 300.980469 287.710938 L 301.035156 287.652344 L 302.734375 283.921875 C 302.734375 284.363281 302.734375 284.804688 302.789062 285.292969 C 302.898438 285.953125 303.117188 288.035156 304.65625 289.191406 C 304.984375 289.40625 305.3125 289.570312 305.753906 289.742188 C 305.753906 289.742188 305.808594 289.789062 305.863281 289.789062 L 305.917969 289.789062 C 306.410156 289.957031 306.90625 290.015625 307.507812 290.015625 C 309.210938 290.015625 311.183594 289.242188 312.777344 287.597656 C 313.761719 288.421875 314.804688 288.859375 315.191406 289.023438 C 317.21875 290.289062 319.414062 291.113281 321.773438 291.328125 C 326.4375 291.875 330.113281 290.121094 332.035156 288.96875 C 333.515625 290.179688 336.480469 292.097656 340.484375 292.3125 L 341.199219 292.3125 C 342.84375 292.3125 345.917969 292.039062 348.660156 290.339844 C 348.714844 290.339844 348.769531 290.289062 348.769531 290.289062 C 349.539062 289.789062 350.25 289.191406 350.910156 288.476562 C 351.621094 287.710938 352.171875 286.773438 352.609375 285.792969 C 354.585938 286.617188 356.78125 286.726562 358.753906 286.175781 C 359.742188 285.902344 360.730469 285.402344 361.609375 284.804688 C 364.515625 282.664062 366 278.824219 364.957031 275.921875 Z M 74.207031 289.082031 C 72.121094 271.371094 68.996094 253.597656 64.824219 236.214844 C 60.652344 218.777344 55.382812 201.453125 49.183594 184.617188 C 49.128906 184.453125 48.964844 184.394531 48.800781 184.453125 C 48.636719 184.503906 48.582031 184.667969 48.636719 184.832031 C 54.835938 201.617188 60.105469 218.941406 64.277344 236.324219 C 68.445312 253.824219 71.628906 271.808594 73.710938 289.679688 C 73.164062 289.679688 72.230469 288.917969 71.683594 288.261719 L 68.882812 282.167969 C 68.664062 281.515625 68.390625 280.96875 68.171875 280.46875 C 68.0625 280.195312 67.953125 279.976562 67.84375 279.699219 C 66.800781 277.292969 67.238281 275.648438 67.730469 273.339844 C 68.117188 271.75 68.554688 269.832031 68.664062 267.148438 C 68.773438 264.132812 68.335938 262.761719 67.457031 259.960938 C 66.691406 257.550781 65.539062 253.871094 64.164062 246.910156 C 63.617188 244.167969 63.179688 242.035156 62.683594 238.957031 C 61.917969 234.023438 61.75 230.957031 61.640625 228.761719 C 61.476562 226.070312 61.417969 224.761719 60.433594 222.890625 C 58.183594 218.617188 52.804688 214.992188 47.539062 214.78125 C 47.152344 212.96875 44.464844 201.070312 42.929688 196.246094 C 41.285156 190.925781 42.929688 181.925781 49.238281 179.292969 C 49.898438 179.019531 50.554688 179.074219 51.214844 179.457031 C 56.8125 182.699219 61.308594 205.566406 61.695312 208.523438 C 62.136719 211.597656 62.792969 214.007812 64 218.007812 C 64.550781 219.929688 65.261719 222.339844 66.085938 225.414062 C 67.347656 230.132812 68.0625 232.4375 68.664062 234.519531 C 69.105469 236.105469 69.542969 237.421875 70.089844 239.503906 C 72.78125 249.484375 73.328125 262.214844 74.316406 287.597656 C 74.316406 288.308594 74.261719 288.75 74.207031 289.082031 Z M 68.664062 286.175781 C 68.609375 286.773438 68.335938 288.644531 67.074219 289.632812 C 66.855469 289.789062 66.636719 289.90625 66.414062 290.015625 L 60.761719 270.4375 L 67.730469 263.46875 C 67.953125 264.566406 68.0625 265.664062 68.007812 267.199219 C 67.898438 269.773438 67.511719 271.644531 67.128906 273.289062 C 66.578125 275.648438 66.140625 277.453125 67.238281 280.035156 C 67.347656 280.25 67.457031 280.523438 67.566406 280.796875 C 68.171875 282.167969 68.996094 283.921875 68.664062 286.175781 Z M 59.882812 288.097656 C 60.488281 287.488281 60.980469 286.773438 61.253906 285.84375 C 62.136719 282.777344 59.882812 280.035156 59.058594 278.988281 C 56.648438 276.082031 53.1875 274.875 50.171875 274.328125 C 47.867188 272.242188 46.222656 269.890625 45.234375 267.308594 C 44.300781 264.839844 44.136719 262.761719 44.300781 260.78125 L 59.226562 267.308594 L 65.867188 290.179688 C 64.054688 290.613281 61.695312 290.066406 59.882812 288.097656 Z M 56.648438 289.40625 C 54.726562 290.613281 52.585938 291.386719 50.335938 291.660156 C 47.484375 291.984375 44.957031 291.4375 43.039062 290.667969 L 48.910156 283.757812 C 52.75 284.472656 56.648438 285.183594 60.433594 286.007812 C 59.664062 288.097656 57.414062 289.132812 56.648438 289.40625 Z M 40.296875 289.296875 C 40.1875 289.242188 40.019531 289.242188 39.910156 289.296875 C 38.539062 290.453125 35.632812 292.421875 31.625 292.648438 C 30.476562 292.695312 27.074219 292.695312 24.109375 290.941406 L 34.257812 281.179688 C 36.125 281.457031 37.9375 281.789062 39.746094 282.113281 C 42.546875 282.613281 45.398438 283.101562 48.199219 283.601562 L 42.488281 290.453125 C 41.613281 290.066406 40.84375 289.632812 40.296875 289.296875 Z M 21.75 289.023438 C 21.039062 288.199219 20.433594 287.273438 19.992188 286.226562 C 19.941406 286.175781 19.882812 286.066406 19.828125 286.066406 L 19.71875 286.066406 C 19.667969 286.066406 19.609375 286.066406 19.609375 286.117188 C 17.855469 286.9375 15.878906 287.105469 14.066406 286.726562 L 20.652344 279.210938 C 24.933594 279.808594 29.269531 280.46875 33.546875 281.179688 L 23.617188 290.730469 C 22.957031 290.179688 22.296875 289.632812 21.75 289.023438 Z M 13.410156 286.453125 C 12.535156 286.175781 11.710938 285.734375 10.941406 285.183594 C 8.304688 283.265625 6.992188 279.976562 7.648438 277.34375 C 11.765625 277.84375 15.824219 278.390625 19.941406 278.988281 Z M 17.746094 272.296875 C 18.84375 272.242188 19.992188 272.359375 21.148438 272.515625 L 25.425781 279.210938 C 23.835938 278.988281 22.246094 278.714844 20.597656 278.5 L 20.433594 278.5 C 16.207031 277.890625 11.984375 277.34375 7.757812 276.792969 C 8.582031 274.875 10.941406 272.632812 17.746094 272.296875 Z M 25.921875 274.050781 C 26.027344 274.113281 26.140625 274.113281 26.195312 274.050781 C 27.238281 273.394531 29.429688 272.359375 32.339844 272.570312 C 33.164062 272.632812 33.933594 272.792969 34.644531 273.066406 L 40.460938 281.621094 C 40.296875 281.566406 40.128906 281.566406 39.96875 281.515625 C 35.464844 280.742188 30.859375 280.035156 26.304688 279.324219 L 22.023438 272.683594 C 23.339844 273.015625 24.65625 273.453125 25.921875 274.050781 Z M 51.269531 275.148438 C 53.847656 275.757812 56.589844 276.960938 58.566406 279.324219 C 59.335938 280.25 61.308594 282.71875 60.707031 285.355469 C 59.664062 285.128906 58.675781 284.96875 57.632812 284.746094 Z M 38.375 275.257812 C 38.429688 275.3125 38.539062 275.375 38.648438 275.3125 C 40.734375 274.765625 42.929688 274.492188 45.070312 274.550781 C 46.222656 274.550781 48.199219 274.601562 50.390625 274.984375 L 56.753906 284.582031 C 54.175781 284.085938 51.542969 283.601562 48.964844 283.101562 L 48.910156 283.101562 C 46.332031 282.613281 43.808594 282.167969 41.285156 281.730469 L 35.632812 273.394531 C 36.894531 274.003906 37.824219 274.765625 38.375 275.257812 Z M 42.820312 246.085938 L 53.355469 247.074219 L 58.949219 266.539062 L 44.300781 260.128906 C 44.355469 259.519531 44.464844 258.863281 44.519531 258.257812 C 44.851562 255.792969 45.179688 253.214844 44.355469 249.984375 C 44.027344 248.339844 43.476562 247.132812 42.820312 246.085938 Z M 64 249.601562 C 65.207031 254.96875 66.140625 258.101562 66.800781 260.234375 C 67.128906 261.226562 67.347656 262.050781 67.566406 262.761719 L 60.542969 269.773438 L 56.753906 256.730469 Z M 56.589844 256.066406 L 49.679688 232.164062 L 59.226562 222.292969 C 59.445312 222.617188 59.609375 222.945312 59.828125 223.277344 C 60.707031 224.972656 60.816406 226.296875 60.925781 228.871094 C 61.035156 231.117188 61.199219 234.132812 61.972656 239.121094 C 62.464844 242.199219 62.902344 244.390625 63.453125 247.074219 C 63.5625 247.679688 63.726562 248.28125 63.835938 248.828125 Z M 40.128906 242.960938 C 38.539062 241.425781 37.058594 240.003906 36.125 236.824219 C 33.875 229.148438 36.675781 218.34375 43.695312 215.925781 C 44.792969 215.542969 45.945312 215.378906 47.101562 215.4375 L 47.261719 215.4375 C 51.707031 215.542969 56.316406 218.285156 58.839844 221.742188 L 49.457031 231.445312 L 46.933594 222.78125 C 46.878906 222.617188 46.714844 222.507812 46.550781 222.566406 C 46.386719 222.617188 46.277344 222.78125 46.332031 222.945312 L 53.136719 246.359375 L 42.324219 245.371094 C 41.667969 244.5 40.898438 243.726562 40.128906 242.960938 Z M 70.640625 239.457031 C 70.089844 237.371094 69.652344 236 69.214844 234.460938 C 68.609375 232.375 67.898438 230.074219 66.636719 225.359375 C 65.8125 222.292969 65.097656 219.875 64.550781 217.953125 C 63.398438 214.007812 62.683594 211.597656 62.300781 208.582031 C 61.859375 205.457031 57.414062 182.476562 51.488281 179.019531 C 50.667969 178.527344 49.789062 178.472656 48.964844 178.800781 C 41.996094 181.652344 40.625 191.085938 42.269531 196.519531 C 43.695312 201.230469 46.332031 212.636719 46.824219 214.890625 C 45.730469 214.890625 44.574219 215.054688 43.535156 215.4375 C 35.578125 218.117188 33.492188 230.019531 35.523438 237.039062 C 36.511719 240.386719 38.101562 241.921875 39.691406 243.453125 C 40.515625 244.226562 41.285156 244.988281 41.941406 245.976562 C 42.710938 247.019531 43.3125 248.339844 43.808594 250.148438 C 44.574219 253.273438 44.246094 255.792969 43.917969 258.210938 C 43.808594 258.921875 43.753906 259.628906 43.644531 260.34375 C 43.421875 262.488281 43.476562 264.789062 44.574219 267.53125 C 45.507812 269.941406 46.988281 272.195312 49.019531 274.164062 C 47.375 273.941406 46.003906 273.941406 45.070312 273.941406 C 42.929688 273.941406 40.734375 274.164062 38.648438 274.710938 C 37.882812 274.050781 36.621094 273.121094 34.863281 272.515625 L 34.808594 272.515625 C 34.042969 272.242188 33.273438 272.085938 32.339844 272.023438 C 29.429688 271.808594 27.125 272.792969 25.976562 273.503906 C 24.492188 272.792969 22.957031 272.296875 21.367188 272.023438 L 21.3125 272.023438 C 20.101562 271.808594 18.894531 271.695312 17.691406 271.75 C 11.765625 272.023438 8.199219 273.730469 7.097656 276.855469 C 6.058594 279.761719 7.539062 283.601562 10.5 285.792969 C 11.378906 286.453125 12.3125 286.890625 13.355469 287.164062 C 15.328125 287.710938 17.523438 287.597656 19.5 286.773438 C 19.941406 287.761719 20.542969 288.644531 21.199219 289.46875 C 21.859375 290.230469 22.574219 290.777344 23.339844 291.277344 C 23.394531 291.328125 23.394531 291.328125 23.449219 291.328125 C 26.195312 293.03125 29.269531 293.304688 30.914062 293.304688 L 31.625 293.304688 C 35.632812 293.082031 38.597656 291.160156 40.078125 289.957031 C 40.679688 290.339844 41.449219 290.730469 42.378906 291.113281 C 44.410156 291.933594 47.152344 292.648438 50.335938 292.257812 C 52.640625 291.984375 54.890625 291.214844 56.8125 289.957031 C 57.25 289.789062 58.292969 289.359375 59.28125 288.476562 C 60.871094 290.179688 62.792969 290.941406 64.496094 290.941406 C 65.097656 290.941406 65.648438 290.839844 66.140625 290.667969 C 66.578125 290.503906 66.964844 290.339844 67.292969 290.066406 C 68.773438 288.96875 69.050781 286.890625 69.160156 286.175781 C 69.214844 285.679688 69.214844 285.246094 69.214844 284.804688 L 70.914062 288.535156 L 70.96875 288.585938 C 71.242188 288.917969 72.503906 290.230469 73.546875 290.230469 C 73.710938 290.230469 73.878906 290.179688 73.988281 290.121094 L 74.042969 290.121094 C 74.753906 289.742188 74.808594 288.585938 74.753906 287.597656 C 73.878906 262.261719 73.382812 249.539062 70.640625 239.457031 "/>
</g>
<path style=" stroke:none;fill-rule:nonzero;fill:rgb(100%,100%,100%);fill-opacity:1;" d="M 92.367188 139.152344 L 65.648438 139.152344 L 65.648438 291.160156 L 78.925781 291.160156 L 64.769531 304.214844 L 68.171875 308.214844 L 83.316406 297.085938 C 84.414062 295.117188 85.507812 293.136719 86.550781 291.160156 L 87.15625 291.160156 L 86.550781 314.90625 L 92.3125 314.90625 L 97.800781 291.160156 L 270.910156 291.160156 L 277.496094 319.519531 L 283.257812 319.519531 L 282.597656 294.566406 C 283.914062 296.917969 285.230469 299.339844 286.492188 301.695312 L 301.636719 312.824219 L 305.039062 308.824219 L 289.675781 294.617188 C 289.730469 293.46875 289.785156 292.375 289.839844 291.214844 L 302.515625 291.214844 L 302.515625 139.152344 L 92.367188 139.152344 "/>
<path style=" stroke:none;fill-rule:nonzero;fill:rgb(21.569824%,52.159119%,73.329163%);fill-opacity:1;" d="M 123.972656 298.132812 L 123.972656 284.03125 L 211.160156 284.03125 L 211.160156 307.667969 L 211.214844 307.667969 L 196.234375 307.667969 L 196.234375 321.761719 L 123.808594 321.761719 M 123.863281 321.761719 L 108.992188 321.761719 L 108.992188 298.132812 L 123.972656 298.132812 "/>
<path style=" stroke:none;fill-rule:nonzero;fill:rgb(21.569824%,52.159119%,73.329163%);fill-opacity:1;" d="M 83.972656 237.039062 L 152.394531 237.039062 L 152.394531 242.136719 L 83.972656 242.136719 Z M 141.859375 182.152344 L 113 182.152344 L 113 178.3125 L 141.859375 178.3125 Z M 154.644531 176.058594 L 113 176.058594 L 113 172.21875 L 154.644531 172.21875 Z M 121.449219 270.214844 C 121.449219 272.515625 119.527344 274.4375 117.222656 274.4375 L 97.195312 274.4375 C 97.195312 273.667969 97.140625 272.90625 96.976562 272.132812 C 96.703125 271.144531 96.429688 270.214844 96.152344 269.28125 C 95.933594 268.246094 95.824219 267.199219 95.824219 266.101562 L 95.824219 265.992188 L 117.277344 265.992188 C 119.527344 265.992188 121.449219 267.910156 121.449219 270.214844 Z M 154.972656 274.492188 L 129.734375 274.492188 C 127.648438 274.492188 126.003906 272.792969 126.003906 270.761719 L 126.003906 269.777344 C 126.003906 267.695312 127.703125 266.050781 129.734375 266.050781 L 154.972656 266.050781 C 157.058594 266.050781 158.703125 267.746094 158.703125 269.777344 L 158.703125 270.761719 C 158.757812 272.792969 157.058594 274.492188 154.972656 274.492188 Z M 83.972656 219.214844 L 159.144531 219.214844 L 159.144531 231.503906 L 83.972656 231.503906 Z M 233.820312 245.703125 L 203.695312 223.875 L 177.140625 258.863281 L 167.097656 192.234375 L 292.804688 173.535156 L 302.460938 225.472656 L 267.453125 200.460938 Z M 297.027344 169.039062 L 163.585938 188.566406 L 174.945312 266.160156 L 308.386719 246.632812 L 297.027344 169.039062 "/>
<path style=" stroke:none;fill-rule:nonzero;fill:rgb(21.569824%,52.159119%,73.329163%);fill-opacity:1;" d="M 291.980469 153.027344 L 282.488281 153.027344 C 281.996094 153.027344 281.609375 152.648438 281.609375 152.148438 C 281.609375 151.65625 281.996094 151.277344 282.488281 151.277344 L 291.980469 151.277344 C 292.472656 151.277344 292.859375 151.65625 292.859375 152.148438 C 292.859375 152.648438 292.472656 153.027344 291.980469 153.027344 Z M 291.980469 156.105469 L 282.488281 156.105469 C 281.996094 156.105469 281.609375 155.714844 281.609375 155.222656 C 281.609375 154.734375 281.996094 154.34375 282.488281 154.34375 L 291.980469 154.34375 C 292.472656 154.34375 292.859375 154.734375 292.859375 155.222656 C 292.859375 155.714844 292.472656 156.105469 291.980469 156.105469 Z M 291.980469 159.121094 L 282.488281 159.121094 C 281.996094 159.121094 281.609375 158.730469 281.609375 158.238281 C 281.609375 157.75 281.996094 157.359375 282.488281 157.359375 L 291.980469 157.359375 C 292.472656 157.359375 292.859375 157.75 292.859375 158.238281 C 292.859375 158.730469 292.472656 159.121094 291.980469 159.121094 Z M 276.070312 156.152344 C 276.070312 157.960938 274.585938 159.445312 272.777344 159.445312 L 97.359375 159.445312 C 95.550781 159.445312 94.070312 157.960938 94.070312 156.152344 L 94.070312 153.085938 C 94.070312 151.277344 95.550781 149.796875 97.359375 149.796875 L 272.832031 149.796875 C 274.640625 149.796875 276.125 151.277344 276.125 153.085938 Z M 65.648438 147.378906 L 65.648438 162.519531 L 302.515625 162.519531 L 302.515625 147.378906 L 65.648438 147.378906 "/>
<path style=" stroke:none;fill-rule:nonzero;fill:rgb(21.569824%,52.159119%,73.329163%);fill-opacity:1;" d="M 101.09375 249.164062 L 119.855469 251.953125 L 119.855469 249.648438 L 106.25 244.773438 L 95.058594 234.246094 L 80.296875 231.9375 C 78.980469 231.9375 74.921875 231.71875 71.132812 228.703125 C 66.25 224.757812 65.757812 219.105469 65.703125 218.179688 L 63.890625 218.179688 C 63.617188 220.203125 63.34375 224.425781 65.207031 229.195312 C 66.691406 233.035156 68.9375 235.558594 70.367188 236.929688 Z M 268.824219 253.761719 L 250.0625 256.566406 L 250.0625 254.261719 L 263.667969 249.375 L 274.859375 238.847656 L 289.621094 236.550781 C 290.9375 236.550781 294.996094 236.324219 298.785156 233.308594 C 303.667969 229.359375 304.160156 223.710938 304.214844 222.78125 L 306.136719 222.78125 C 306.410156 224.808594 306.683594 229.035156 304.820312 233.808594 C 303.339844 237.644531 301.089844 240.164062 299.660156 241.535156 L 268.824219 253.761719 "/>
<path style=" stroke:none;fill-rule:nonzero;fill:rgb(100%,100%,100%);fill-opacity:1;" d="M 119.472656 251.792969 C 120.40625 252.007812 121.777344 252.28125 123.421875 252.390625 C 125.617188 252.554688 128.140625 252.453125 128.199219 252.179688 C 128.199219 252.007812 127.210938 251.679688 122.382812 251.082031 C 123.421875 250.363281 123.917969 249.816406 123.808594 249.539062 C 123.644531 249.101562 122.214844 249.101562 119.472656 249.539062 Z M 65.371094 218.007812 C 66.03125 214.78125 66.25 213.074219 65.867188 212.96875 C 65.703125 212.910156 65.425781 213.183594 65.042969 213.839844 C 65.042969 211.214844 64.878906 210.605469 64.660156 210.550781 C 64.332031 210.503906 63.835938 212.148438 63.617188 213.242188 C 63.179688 215.210938 63.289062 216.859375 63.453125 218.007812 Z M 90.0625 222.839844 C 90.0625 224.425781 92.257812 225.472656 94.398438 226.617188 C 95.332031 223.988281 93.792969 219.324219 93.792969 219.324219 C 91.984375 220.097656 90.0625 221.359375 90.0625 222.839844 Z M 250.445312 254.097656 C 247.757812 253.652344 246.273438 253.652344 246.109375 254.097656 C 246 254.421875 246.496094 254.921875 247.535156 255.632812 C 242.761719 256.230469 241.71875 256.566406 241.71875 256.730469 C 241.71875 257.003906 244.300781 257.113281 246.496094 256.945312 C 248.140625 256.839844 249.511719 256.566406 250.445312 256.339844 Z M 306.464844 222.617188 C 306.628906 221.46875 306.683594 219.824219 306.300781 217.84375 C 306.082031 216.75 305.585938 215.101562 305.257812 215.164062 C 305.09375 215.164062 304.875 215.761719 304.875 218.453125 C 304.492188 217.796875 304.214844 217.519531 304.050781 217.570312 C 303.722656 217.679688 303.886719 219.378906 304.546875 222.617188 Z M 146.304688 106.75 C 147.566406 104.878906 148.113281 103.839844 147.894531 103.675781 C 147.785156 103.566406 147.457031 103.730469 146.960938 104.117188 C 147.402344 102.03125 147.402344 100.933594 147.128906 100.824219 C 146.6875 100.660156 145.644531 102.195312 144 105.378906 Z M 155.46875 96.824219 C 159.035156 95.667969 160.734375 94.738281 160.679688 94.136719 C 160.625 93.75 159.910156 93.53125 158.484375 93.367188 C 161.394531 91.832031 161.941406 91.28125 161.886719 91.066406 C 161.722656 90.734375 159.363281 91.121094 157.386719 92.214844 C 155.90625 93.039062 154.863281 94.082031 154.261719 94.847656 Z M 152.175781 133.894531 L 162.820312 138.878906 C 164.136719 138.117188 165.398438 137.34375 166.714844 136.523438 C 165.289062 135.101562 163.148438 133.074219 160.351562 130.820312 C 155.960938 127.363281 153.765625 125.609375 150.96875 125.007812 C 145.152344 123.800781 139.664062 128.023438 137.578125 129.832031 L 118.761719 140.414062 L 135.496094 157.199219 L 152.777344 169.863281 L 155.46875 166.632812 L 144.769531 152.589844 L 135.164062 137.234375 L 137.25 140.585938 C 142.132812 138.390625 147.292969 136.089844 152.175781 133.894531 Z M 276.125 223.875 C 276.125 223.875 274.585938 228.597656 275.519531 231.171875 C 277.660156 230.019531 279.855469 228.976562 279.855469 227.390625 C 279.855469 225.960938 277.933594 224.699219 276.125 223.875 Z M 118.046875 91.335938 C 117.332031 92.433594 116.511719 93.144531 115.90625 93.636719 C 114.863281 93.472656 113.875 94.023438 113.546875 94.898438 C 113.164062 95.941406 113.710938 97.257812 114.917969 97.699219 C 114.917969 97.972656 115.027344 99.011719 114.261719 99.945312 C 113.710938 100.601562 113.054688 100.875 112.777344 100.988281 C 113.054688 101.972656 113.382812 102.960938 113.65625 103.949219 C 114.207031 104.117188 115.414062 104.4375 116.949219 104.117188 C 118.15625 103.839844 119.035156 103.289062 119.472656 102.90625 L 119.472656 99.503906 C 120.023438 99.175781 120.789062 98.574219 121.394531 97.585938 C 122.820312 95.285156 122.160156 92.597656 121.667969 90.621094 C 121.394531 89.417969 120.789062 87.605469 119.417969 85.578125 C 119.527344 86.457031 119.582031 88.921875 118.046875 91.335938 Z M 282.597656 291.214844 L 283.089844 291.214844 L 282.652344 294.617188 Z M 282.597656 291.214844 "/>
<g clip-path="url(#clip2)" clip-rule="nonzero">
<path style=" stroke:none;fill-rule:nonzero;fill:rgb(5.879211%,5.488586%,4.708862%);fill-opacity:1;" d="M 152.066406 171.457031 L 111.078125 171.457031 L 111.078125 174.6875 L 152.066406 174.6875 Z M 152.667969 175.296875 L 110.421875 175.296875 L 110.421875 170.792969 L 152.667969 170.792969 Z M 308.058594 246.359375 L 305.972656 232.265625 C 305.808594 232.816406 305.640625 233.363281 305.421875 233.910156 C 304.269531 236.824219 302.460938 239.566406 300.210938 241.757812 C 300.539062 242.035156 300.8125 242.355469 301.089844 242.746094 C 301.964844 243.953125 302.515625 245.539062 302.625 247.183594 Z M 302.1875 250.089844 C 300.15625 255.574219 291.542969 256.015625 291.265625 260.34375 C 290.992188 264.015625 296.753906 265.441406 296.316406 268.953125 C 296.09375 270.597656 294.613281 272.195312 292.695312 273.339844 C 292.695312 273.394531 292.75 273.394531 292.75 273.453125 C 292.804688 274.328125 292.804688 275.210938 292.636719 276.03125 C 292.363281 277.890625 291.707031 279.699219 290.609375 281.347656 L 290.167969 290.886719 L 302.1875 290.886719 Z M 289.511719 294.839844 C 289.457031 294.78125 289.402344 294.675781 289.402344 294.617188 L 290.058594 281.292969 C 290.058594 281.242188 290.058594 281.179688 290.113281 281.132812 C 291.15625 279.535156 291.871094 277.84375 292.089844 276.03125 C 292.199219 275.257812 292.199219 274.492188 292.199219 273.730469 C 290.113281 274.824219 287.589844 275.3125 285.617188 274.765625 C 285.890625 275.589844 286.109375 276.746094 285.835938 278.164062 C 285.5625 279.535156 284.902344 280.523438 284.351562 281.132812 L 282.871094 290.777344 L 282.980469 294.566406 L 286.824219 301.582031 L 301.691406 312.5 L 304.710938 308.933594 Z M 277.824219 319.242188 L 282.980469 319.242188 L 282.269531 290.667969 L 283.75 280.90625 C 283.75 280.859375 283.804688 280.796875 283.804688 280.742188 C 284.296875 280.195312 284.902344 279.261719 285.175781 278 C 285.449219 276.628906 285.175781 275.484375 284.902344 274.765625 C 284.847656 274.710938 284.902344 274.601562 284.902344 274.550781 C 284.792969 274.492188 284.683594 274.4375 284.574219 274.386719 C 281.773438 272.90625 283.035156 269.664062 279.964844 265.441406 C 278.8125 263.859375 277.496094 262.761719 276.179688 261.9375 L 270.964844 289.847656 Z M 250.773438 256.179688 L 269.210938 253.441406 C 269.320312 253.441406 269.429688 253.441406 269.484375 253.550781 C 272.777344 250.363281 279.746094 247.292969 279.304688 243.234375 C 279.085938 241.316406 277.332031 240.113281 275.574219 238.957031 C 275.574219 238.957031 275.574219 239.015625 275.519531 239.015625 L 264.328125 249.539062 C 264.273438 249.601562 264.273438 249.601562 264.214844 249.601562 L 250.828125 254.421875 L 250.828125 256.179688 Z M 250.117188 256.289062 L 250.117188 254.476562 C 246.824219 253.925781 246.4375 254.3125 246.382812 254.3125 C 246.382812 254.3125 246.4375 254.644531 247.703125 255.519531 C 247.8125 255.574219 247.867188 255.742188 247.8125 255.847656 C 247.757812 255.957031 247.703125 256.066406 247.535156 256.066406 C 244.957031 256.394531 243.53125 256.667969 242.761719 256.777344 C 243.640625 256.839844 245.011719 256.839844 246.4375 256.777344 C 247.703125 256.777344 248.964844 256.566406 250.117188 256.289062 Z M 276.34375 224.316406 C 276.011719 225.359375 275.191406 228.648438 275.738281 230.730469 L 275.902344 230.683594 C 277.824219 229.695312 279.636719 228.703125 279.636719 227.441406 C 279.578125 226.453125 278.425781 225.359375 276.34375 224.316406 Z M 175.21875 265.777344 L 241.664062 256.066406 C 241.832031 256.066406 241.996094 256.179688 241.996094 256.339844 L 241.996094 256.457031 C 242.597656 256.230469 243.914062 256.015625 246.769531 255.632812 C 246 255.023438 245.726562 254.585938 245.890625 254.148438 C 246.054688 253.652344 246.769531 253.324219 250.445312 253.925781 L 263.886719 249.050781 L 274.972656 238.632812 C 273.214844 237.535156 271.679688 236.441406 271.789062 234.90625 C 271.898438 233.425781 273.542969 232.328125 275.355469 231.390625 C 275.300781 231.339844 275.246094 231.339844 275.246094 231.230469 C 274.3125 228.539062 275.738281 223.988281 275.847656 223.710938 C 275.738281 223.664062 275.628906 223.601562 275.519531 223.554688 C 275.792969 222.292969 276.125 220.96875 276.398438 219.714844 C 284.023438 218.890625 287.261719 220.585938 288.742188 222.507812 C 291.707031 226.40625 288.140625 232.054688 289.839844 236.164062 L 289.949219 236.164062 C 291.871094 236.164062 295.546875 235.726562 298.894531 232.984375 C 303.394531 229.359375 304.105469 224.261719 304.214844 222.671875 C 303.339844 218.503906 303.449219 217.632812 303.777344 217.355469 L 299.441406 187.792969 L 285.285156 170.960938 L 172.257812 187.46875 L 166.988281 207.316406 C 166.933594 207.484375 166.824219 207.535156 166.714844 207.535156 L 166.660156 207.535156 Z M 166.550781 206.769531 L 171.597656 187.683594 L 163.917969 188.78125 Z M 172.476562 186.972656 L 284.902344 170.519531 L 284.296875 169.8125 L 241.777344 139.488281 L 227.785156 139.488281 L 172.804688 185.714844 Z M 228.496094 138.878906 L 240.84375 138.878906 L 235.738281 135.265625 C 234.972656 135.207031 234.3125 134.929688 233.65625 134.554688 Z M 296.808594 169.421875 L 286.109375 171.019531 L 299.386719 186.8125 Z M 242.816406 139.488281 L 284.683594 169.3125 L 284.738281 169.375 L 285.617188 170.410156 L 297.027344 168.765625 C 297.082031 168.765625 297.191406 168.765625 297.246094 168.824219 C 297.300781 168.875 297.359375 168.929688 297.359375 169.039062 L 300.101562 187.683594 L 301.691406 189.605469 C 301.800781 189.714844 301.800781 189.9375 301.636719 190.042969 C 301.527344 190.152344 301.308594 190.152344 301.199219 189.988281 L 300.265625 188.839844 L 302.242188 202.277344 L 302.242188 139.488281 Z M 304.160156 218.117188 C 304.160156 218.503906 304.214844 219.601562 304.765625 222.394531 L 306.136719 222.394531 C 306.300781 220.921875 306.246094 219.441406 305.917969 218.007812 C 305.699219 217.082031 305.421875 216.261719 305.257812 215.816406 C 305.203125 216.148438 305.09375 216.914062 305.148438 218.558594 C 305.148438 218.726562 305.039062 218.832031 304.929688 218.832031 C 304.820312 218.890625 304.65625 218.832031 304.601562 218.667969 C 304.433594 218.453125 304.269531 218.230469 304.160156 218.117188 Z M 299.773438 241.316406 C 301.964844 239.183594 303.722656 236.550781 304.820312 233.699219 C 305.203125 232.652344 305.53125 231.664062 305.753906 230.683594 L 305.753906 230.621094 C 306.464844 227.667969 306.410156 224.972656 306.191406 223.054688 L 304.875 223.054688 C 304.710938 224.925781 303.832031 229.96875 299.332031 233.535156 C 295.929688 236.277344 292.199219 236.761719 290.167969 236.824219 C 290.335938 237.148438 290.554688 237.476562 290.828125 237.75 C 293.296875 240.492188 296.972656 239.339844 299.773438 241.316406 C 299.714844 241.316406 299.773438 241.316406 299.773438 241.316406 Z M 208.414062 287.324219 L 121.832031 287.324219 L 121.832031 295.988281 L 194.3125 295.988281 C 194.480469 295.988281 194.644531 296.152344 194.644531 296.320312 L 194.644531 310.355469 L 208.414062 310.355469 Z M 194.039062 296.644531 L 107.457031 296.644531 L 107.457031 319.675781 L 194.039062 319.675781 Z M 98.953125 285.246094 L 93.738281 257.328125 C 92.421875 258.148438 91.105469 259.246094 89.953125 260.84375 C 86.882812 265.066406 88.144531 268.246094 85.34375 269.777344 C 85.234375 269.832031 85.125 269.890625 85.015625 269.941406 C 85.015625 270 85.070312 270.105469 85.015625 270.164062 C 84.742188 270.871094 84.46875 272.023438 84.742188 273.394531 C 85.015625 274.710938 85.621094 275.589844 86.113281 276.136719 C 86.167969 276.195312 86.167969 276.246094 86.167969 276.304688 L 87.648438 286.066406 L 87.539062 290.066406 L 87.539062 290.121094 L 86.9375 314.632812 L 92.09375 314.632812 Z M 86.9375 289.90625 L 87.046875 286.066406 L 85.5625 276.472656 C 85.015625 275.863281 84.355469 274.875 84.082031 273.503906 C 83.808594 272.132812 84.027344 270.925781 84.300781 270.105469 C 82.328125 270.652344 79.804688 270.164062 77.71875 269.066406 C 77.664062 269.832031 77.71875 270.597656 77.828125 271.371094 C 78.101562 273.179688 78.761719 274.875 79.804688 276.472656 C 79.859375 276.519531 79.859375 276.582031 79.859375 276.628906 L 80.515625 289.957031 C 80.515625 290.066406 80.460938 290.121094 80.40625 290.179688 L 65.152344 304.214844 L 68.171875 307.777344 L 83.039062 296.871094 Z M 78.816406 290.886719 L 79.914062 289.847656 L 79.308594 276.746094 C 78.210938 275.101562 77.554688 273.339844 77.277344 271.421875 C 77.167969 270.597656 77.113281 269.726562 77.167969 268.84375 C 77.167969 268.792969 77.167969 268.734375 77.222656 268.734375 C 75.304688 267.582031 73.824219 265.992188 73.601562 264.347656 C 73.164062 260.84375 78.925781 259.410156 78.652344 255.742188 C 78.320312 251.246094 69.050781 250.910156 67.511719 244.714844 C 66.964844 242.410156 67.566406 239.839844 68.828125 238.085938 C 69.105469 237.695312 69.433594 237.371094 69.707031 237.097656 C 68.28125 235.667969 67.019531 234.023438 65.976562 232.265625 L 65.976562 290.839844 L 78.816406 290.839844 Z M 65.097656 229.085938 C 66.195312 231.9375 67.953125 234.570312 70.144531 236.714844 L 70.144531 236.761719 C 72.945312 234.796875 76.621094 235.890625 79.035156 233.199219 C 79.308594 232.925781 79.527344 232.601562 79.695312 232.265625 C 77.664062 232.210938 73.933594 231.71875 70.53125 228.976562 C 66.085938 225.414062 65.207031 220.371094 64.988281 218.503906 L 63.671875 218.503906 C 63.453125 221.023438 63.453125 224.863281 65.097656 229.085938 Z M 63.726562 217.84375 L 65.097656 217.84375 C 65.703125 214.992188 65.757812 213.957031 65.703125 213.566406 C 65.59375 213.683594 65.484375 213.839844 65.316406 214.171875 C 65.261719 214.28125 65.097656 214.339844 64.988281 214.339844 C 64.878906 214.28125 64.769531 214.171875 64.769531 214.066406 C 64.769531 212.472656 64.714844 211.703125 64.660156 211.324219 C 64.441406 211.761719 64.164062 212.585938 64 213.519531 C 63.671875 214.890625 63.5625 216.363281 63.726562 217.84375 Z M 65.371094 212.859375 L 65.371094 213.019531 L 65.425781 212.96875 C 65.371094 212.96875 65.371094 212.910156 65.371094 212.859375 Z M 93.574219 219.714844 C 91.433594 220.75 90.339844 221.847656 90.339844 222.839844 C 90.339844 224.101562 92.148438 225.082031 94.070312 226.070312 L 94.234375 226.128906 C 94.726562 224.042969 93.90625 220.75 93.574219 219.714844 Z M 94.453125 234.40625 C 92.699219 235.558594 90.941406 236.761719 90.722656 238.683594 C 90.28125 242.6875 97.25 245.761719 100.542969 248.992188 C 100.597656 248.9375 100.707031 248.886719 100.816406 248.886719 L 119.253906 251.628906 L 119.253906 249.925781 L 105.867188 245.097656 C 105.8125 245.097656 105.8125 245.050781 105.757812 245.050781 L 94.5625 234.519531 C 94.453125 234.460938 94.453125 234.40625 94.453125 234.40625 Z M 119.800781 249.925781 L 119.800781 251.734375 C 121.007812 252.007812 122.214844 252.179688 123.480469 252.28125 C 124.90625 252.390625 126.277344 252.390625 127.15625 252.28125 C 126.386719 252.117188 125.015625 251.902344 122.382812 251.570312 C 122.273438 251.570312 122.160156 251.460938 122.105469 251.355469 C 122.050781 251.246094 122.105469 251.082031 122.214844 251.019531 C 123.480469 250.148438 123.535156 249.816406 123.535156 249.816406 C 123.480469 249.710938 123.09375 249.375 119.800781 249.925781 Z M 96.59375 269.34375 L 98.074219 277.179688 L 113.988281 277.179688 C 116.125 277.179688 117.9375 275.421875 117.9375 273.230469 C 117.9375 271.035156 116.179688 269.28125 113.988281 269.28125 L 96.59375 269.28125 Z M 163.039062 138.878906 Z M 141.203125 138.878906 L 162.65625 138.878906 L 152.175781 133.945312 Z M 236.453125 56.183594 C 236.453125 52.675781 233.601562 49.824219 230.089844 49.824219 C 228.828125 49.824219 227.566406 50.210938 226.523438 50.921875 C 224.765625 52.128906 223.722656 54.046875 223.722656 56.183594 C 223.722656 59.695312 226.578125 62.546875 230.089844 62.546875 C 233.601562 62.546875 236.453125 59.695312 236.453125 56.183594 Z M 308.714844 246.585938 C 308.714844 246.742188 308.605469 246.910156 308.441406 246.910156 L 302.84375 247.730469 L 302.84375 291.160156 C 302.84375 291.328125 302.679688 291.492188 302.515625 291.492188 L 290.167969 291.492188 L 290.003906 294.453125 L 305.367188 308.601562 C 305.476562 308.710938 305.476562 308.933594 305.367188 309.039062 L 305.3125 309.097656 L 307.34375 311.507812 C 303.226562 318.085938 300.8125 321.210938 300.046875 320.890625 C 299.441406 320.613281 299.9375 318.03125 301.582031 313.152344 C 301.527344 313.152344 301.527344 313.152344 301.472656 313.097656 L 286.328125 301.96875 C 286.273438 301.96875 286.273438 301.910156 286.21875 301.855469 L 282.925781 295.824219 L 283.53125 319.519531 C 283.53125 319.628906 283.476562 319.675781 283.421875 319.730469 C 283.367188 319.792969 283.257812 319.839844 283.203125 319.839844 L 283.144531 319.839844 L 282.542969 322.808594 C 273.488281 323.515625 268.878906 323.515625 268.769531 322.808594 C 268.660156 322.199219 271.460938 321.164062 277.164062 319.628906 L 270.746094 291.492188 L 209.074219 291.492188 L 209.074219 310.628906 C 209.074219 310.792969 208.910156 310.957031 208.746094 310.957031 L 194.644531 310.957031 L 194.644531 319.953125 C 194.644531 320.117188 194.480469 320.28125 194.3125 320.28125 L 107.128906 320.28125 C 106.964844 320.28125 106.796875 320.117188 106.796875 319.953125 L 106.796875 296.320312 C 106.796875 296.152344 106.964844 295.988281 107.128906 295.988281 L 121.230469 295.988281 L 121.230469 291.492188 L 98.128906 291.492188 L 92.699219 315.015625 C 98.347656 316.550781 101.148438 317.597656 101.09375 318.195312 C 100.984375 318.910156 96.375 318.910156 87.320312 318.195312 L 86.714844 315.242188 L 86.660156 315.242188 C 86.550781 315.242188 86.496094 315.179688 86.441406 315.132812 C 86.386719 315.070312 86.332031 314.964844 86.332031 314.90625 L 86.9375 291.214844 L 83.644531 297.25 C 83.644531 297.308594 83.589844 297.308594 83.535156 297.359375 L 68.390625 308.492188 C 68.390625 308.492188 68.335938 308.492188 68.28125 308.550781 C 69.925781 313.425781 70.421875 316.003906 69.816406 316.277344 C 69.105469 316.660156 66.636719 313.535156 62.519531 306.90625 L 64.550781 304.488281 L 64.496094 304.4375 C 64.386719 304.324219 64.386719 304.101562 64.496094 304 L 78.046875 291.492188 L 65.59375 291.492188 C 65.425781 291.492188 65.261719 291.328125 65.261719 291.160156 L 65.261719 232.164062 C 65.261719 231.992188 65.425781 231.828125 65.59375 231.828125 L 65.648438 231.828125 C 65.207031 231.003906 64.769531 230.132812 64.441406 229.25 C 62.683594 224.808594 62.738281 220.75 63.066406 218.117188 C 62.847656 216.472656 62.902344 214.890625 63.289062 213.292969 C 63.945312 210.277344 64.496094 210.332031 64.660156 210.390625 C 64.988281 210.441406 65.207031 210.667969 65.261719 212.746094 L 65.261719 139.152344 C 65.261719 138.988281 65.425781 138.832031 65.59375 138.832031 L 116.730469 138.832031 C 116.894531 138.832031 117.058594 138.988281 117.058594 139.152344 C 117.058594 139.316406 116.894531 139.488281 116.730469 139.488281 L 65.921875 139.488281 L 65.921875 212.800781 C 66.359375 212.96875 66.578125 213.457031 65.59375 218.179688 C 65.703125 219.714844 66.414062 224.863281 70.914062 228.488281 C 74.261719 231.171875 77.9375 231.613281 79.859375 231.664062 L 79.96875 231.664062 C 81.667969 227.550781 78.15625 221.90625 81.066406 218.007812 C 82.546875 216.089844 85.785156 214.339844 93.410156 215.210938 C 93.683594 216.472656 94.015625 217.796875 94.289062 219.050781 C 94.179688 219.105469 94.070312 219.167969 93.960938 219.214844 C 94.070312 219.488281 95.496094 224.042969 94.5625 226.726562 C 94.5625 226.785156 94.507812 226.84375 94.453125 226.894531 C 96.207031 227.824219 97.855469 228.921875 98.019531 230.40625 C 98.128906 231.9375 96.59375 232.984375 94.835938 234.132812 L 105.921875 244.550781 L 119.363281 249.4375 C 123.09375 248.828125 123.753906 249.164062 123.917969 249.648438 C 124.082031 250.035156 123.808594 250.472656 123.039062 251.128906 C 128.417969 251.84375 128.363281 252.117188 128.363281 252.453125 C 128.363281 252.777344 128.03125 252.941406 126.496094 253 L 125.34375 253 C 124.632812 253 123.917969 253 123.257812 252.941406 C 121.941406 252.832031 120.570312 252.667969 119.253906 252.34375 L 100.871094 249.601562 C 101.695312 250.53125 102.136719 251.460938 101.96875 252.390625 C 101.585938 254.808594 97.855469 254.921875 94.125 257.054688 C 94.125 257.113281 94.179688 257.113281 94.179688 257.164062 L 96.375 268.792969 L 113.875 268.792969 C 116.402344 268.792969 118.429688 270.824219 118.429688 273.339844 C 118.429688 275.863281 116.402344 277.890625 113.875 277.890625 L 98.074219 277.890625 L 99.445312 285.246094 L 99.445312 285.355469 L 98.128906 290.941406 L 121.0625 290.941406 L 121.0625 287.105469 C 121.0625 286.9375 121.230469 286.773438 121.394531 286.773438 L 208.746094 286.773438 C 208.910156 286.773438 209.074219 286.9375 209.074219 287.105469 L 209.074219 290.941406 L 270.636719 290.941406 L 270.417969 289.957031 L 270.417969 289.847656 L 275.683594 261.773438 C 275.683594 261.714844 275.683594 261.714844 275.738281 261.664062 C 272.007812 259.519531 268.277344 259.410156 267.894531 257.003906 C 267.726562 256.015625 268.167969 255.085938 268.992188 254.203125 L 250.609375 256.945312 C 249.292969 257.277344 247.976562 257.4375 246.605469 257.550781 C 246.054688 257.601562 245.230469 257.601562 244.464844 257.601562 C 243.203125 257.601562 241.941406 257.550781 241.664062 257.277344 C 241.609375 257.21875 241.554688 257.113281 241.554688 257.003906 C 241.554688 256.945312 241.554688 256.839844 241.609375 256.777344 L 175.109375 266.484375 L 175.054688 266.484375 C 175 266.484375 174.945312 266.484375 174.890625 266.4375 C 174.835938 266.375 174.78125 266.324219 174.78125 266.210938 L 163.753906 191.6875 L 85.453125 191.6875 C 85.289062 191.6875 85.125 191.523438 85.125 191.359375 C 85.125 191.199219 85.289062 191.035156 85.453125 191.035156 L 163.640625 191.035156 L 163.257812 188.566406 C 163.257812 188.398438 163.367188 188.234375 163.53125 188.234375 L 171.816406 187.027344 L 172.257812 185.441406 C 172.257812 185.382812 172.3125 185.328125 172.367188 185.277344 L 226.851562 139.488281 L 176.371094 139.488281 C 176.316406 139.488281 176.261719 139.488281 176.261719 139.429688 C 175.550781 140.035156 171.488281 140.25 164.136719 140.085938 L 163.53125 139.378906 C 163.476562 139.429688 163.421875 139.429688 163.367188 139.429688 L 139.882812 139.429688 L 137.800781 140.359375 L 145.097656 152.101562 L 155.796875 166.132812 L 155.796875 166.1875 C 160.019531 163.890625 162.378906 163.007812 162.765625 163.554688 C 163.257812 164.214844 160.84375 167.121094 155.523438 172.117188 L 153.054688 169.753906 C 152.996094 169.8125 152.886719 169.863281 152.832031 169.863281 C 152.777344 169.863281 152.722656 169.863281 152.667969 169.8125 L 135.386719 157.085938 L 118.59375 140.3125 C 118.484375 140.203125 118.484375 139.976562 118.59375 139.867188 C 118.707031 139.761719 118.925781 139.761719 119.035156 139.867188 L 135.769531 156.652344 L 152.777344 169.148438 L 155.136719 166.359375 L 144.546875 152.480469 L 134.945312 137.070312 C 134.835938 136.910156 134.890625 136.746094 135.054688 136.636719 C 135.21875 136.523438 135.386719 136.578125 135.496094 136.746094 L 137.46875 139.867188 C 137.46875 139.867188 137.523438 139.8125 137.578125 139.8125 L 139.71875 138.878906 L 152.175781 133.285156 C 152.285156 133.230469 152.339844 133.230469 152.449219 133.285156 L 162.984375 138.222656 L 166.386719 136.199219 C 164.464844 134.277344 162.433594 132.464844 160.351562 130.820312 C 156.015625 127.363281 153.820312 125.667969 151.132812 125.0625 C 145.753906 123.910156 140.597656 127.589844 138.019531 129.832031 C 137.910156 129.941406 137.691406 129.941406 137.578125 129.78125 C 137.46875 129.667969 137.46875 129.449219 137.636719 129.34375 C 140.324219 126.980469 145.699219 123.25 151.296875 124.40625 C 154.148438 125.007812 156.34375 126.765625 160.789062 130.269531 C 163.039062 132.023438 165.179688 133.945312 167.152344 135.972656 C 167.210938 136.027344 167.265625 136.136719 167.265625 136.246094 C 172.53125 137.34375 175.550781 138.222656 176.371094 138.878906 C 176.425781 138.832031 176.480469 138.769531 176.589844 138.769531 L 227.839844 138.769531 L 233.492188 134.003906 C 233.214844 133.78125 232.941406 133.503906 232.722656 133.230469 C 231.789062 132.023438 231.515625 130.378906 232.007812 128.960938 C 232.394531 127.863281 233.160156 127.089844 233.875 126.492188 C 234.203125 126.15625 234.53125 125.882812 234.808594 125.554688 C 235.519531 124.621094 235.960938 123.414062 236.070312 122.105469 L 236.070312 122.042969 C 233.65625 121.605469 231.84375 119.523438 231.84375 117.003906 C 231.84375 114.261719 234.039062 112.007812 236.726562 111.898438 L 236.726562 59.039062 C 235.628906 61.453125 233.214844 63.152344 230.363281 63.152344 C 226.523438 63.152344 223.394531 60.027344 223.394531 56.1875 C 223.394531 54.816406 223.777344 53.558594 224.492188 52.460938 L 161.832031 91.667969 C 161.449219 91.996094 160.734375 92.4375 159.417969 93.148438 C 160.40625 93.367188 160.84375 93.640625 160.953125 94.082031 C 161.0625 94.683594 160.460938 95.453125 155.632812 97.097656 L 148.277344 103.785156 C 148.277344 104.167969 147.894531 104.941406 146.578125 106.910156 C 146.523438 107.023438 146.414062 107.023438 146.304688 107.023438 C 146.25 107.023438 146.195312 107.023438 146.140625 106.964844 C 145.976562 106.859375 145.976562 106.691406 146.085938 106.527344 C 147.015625 105.15625 147.402344 104.441406 147.566406 104.058594 C 147.457031 104.117188 147.347656 104.222656 147.183594 104.332031 C 147.070312 104.394531 146.960938 104.441406 146.851562 104.332031 C 146.742188 104.28125 146.6875 104.117188 146.6875 104.007812 C 147.070312 101.976562 147.070312 101.320312 147.015625 101.101562 C 146.796875 101.265625 146.085938 102.03125 144.273438 105.429688 C 144.21875 105.59375 144 105.652344 143.835938 105.539062 C 143.671875 105.488281 143.617188 105.265625 143.726562 105.105469 C 146.195312 100.441406 146.796875 100.222656 147.238281 100.386719 C 147.621094 100.550781 147.839844 101.101562 147.402344 103.292969 C 147.566406 103.238281 147.675781 103.183594 147.839844 103.183594 L 155.246094 96.4375 C 155.246094 96.4375 155.300781 96.4375 155.300781 96.382812 C 155.300781 96.382812 155.355469 96.382812 155.355469 96.328125 C 160.296875 94.683594 160.351562 94.023438 160.351562 93.972656 C 160.351562 93.972656 160.242188 93.640625 158.429688 93.421875 C 158.320312 93.421875 158.210938 93.3125 158.15625 93.148438 C 158.15625 93.039062 158.210938 92.875 158.320312 92.820312 C 158.59375 92.652344 158.867188 92.542969 159.144531 92.378906 L 161.339844 91.007812 C 160.625 91.066406 159.035156 91.449219 157.496094 92.269531 C 156.34375 92.929688 155.355469 93.75 154.480469 94.847656 C 154.371094 94.957031 154.148438 95.011719 154.039062 94.902344 C 153.929688 94.792969 153.875 94.574219 153.984375 94.464844 C 154.917969 93.3125 155.960938 92.4375 157.222656 91.777344 C 159.035156 90.789062 161.226562 90.296875 161.886719 90.515625 C 161.941406 90.570312 161.996094 90.570312 162.050781 90.625 L 224.984375 51.25 C 225.039062 51.199219 225.148438 51.199219 225.261719 51.199219 C 225.535156 50.925781 225.863281 50.648438 226.191406 50.429688 C 227.34375 49.664062 228.714844 49.222656 230.089844 49.222656 C 233.214844 49.222656 235.90625 51.308594 236.726562 54.160156 C 236.890625 54.160156 237.058594 54.324219 237.058594 54.488281 L 237.058594 112.007812 C 239.691406 112.230469 241.832031 114.425781 241.832031 117.105469 C 241.832031 119.636719 240.019531 121.714844 237.605469 122.152344 L 237.605469 122.316406 C 237.496094 124.023438 236.890625 125.667969 235.960938 126.8125 C 235.628906 127.25 235.191406 127.636719 234.808594 127.96875 C 234.203125 128.519531 233.65625 129.007812 233.433594 129.71875 C 233.160156 130.542969 233.324219 131.535156 233.875 132.246094 C 234.585938 133.179688 235.738281 133.617188 236.890625 133.34375 C 238.097656 133.070312 238.976562 132.132812 239.25 130.925781 C 239.359375 130.4375 239.855469 130.101562 240.347656 130.214844 C 240.84375 130.328125 241.171875 130.816406 241.0625 131.308594 C 240.625 133.230469 239.195312 134.714844 237.277344 135.097656 C 237.113281 135.148438 236.945312 135.148438 236.78125 135.203125 L 241.886719 138.828125 L 302.460938 138.828125 C 302.625 138.828125 302.789062 138.988281 302.789062 139.152344 L 302.789062 204.082031 C 302.789062 204.242188 302.679688 204.40625 302.460938 204.40625 L 304.378906 217.566406 C 304.433594 217.628906 304.433594 217.628906 304.492188 217.679688 C 304.546875 215.324219 304.765625 215.101562 305.148438 215.050781 C 305.640625 214.992188 306.082031 215.984375 306.519531 217.953125 C 306.851562 219.546875 306.90625 221.132812 306.738281 222.777344 C 307.015625 224.808594 307.070312 227.601562 306.355469 230.789062 Z M 100.488281 153.910156 C 100.488281 153.027344 99.777344 152.265625 98.84375 152.265625 C 97.964844 152.265625 97.195312 152.972656 97.195312 153.910156 C 97.195312 154.78125 97.910156 155.554688 98.84375 155.554688 C 99.777344 155.554688 100.488281 154.84375 100.488281 153.910156 Z M 101.09375 153.910156 C 101.09375 154.34375 100.984375 154.734375 100.761719 155.054688 L 102.628906 156.59375 C 102.738281 156.703125 102.792969 156.925781 102.683594 157.035156 C 102.628906 157.085938 102.519531 157.140625 102.464844 157.140625 C 102.410156 157.140625 102.300781 157.140625 102.246094 157.085938 L 100.378906 155.554688 C 99.996094 155.9375 99.445312 156.152344 98.84375 156.152344 C 97.582031 156.152344 96.59375 155.167969 96.59375 153.910156 C 96.59375 152.648438 97.582031 151.65625 98.84375 151.65625 C 100.105469 151.65625 101.09375 152.699219 101.09375 153.910156 Z M 111.023438 180.71875 L 139.226562 180.71875 L 139.226562 177.492188 L 111.023438 177.492188 Z M 110.421875 176.882812 L 139.882812 176.882812 L 139.882812 181.378906 L 110.421875 181.378906 Z M 121.394531 90.625 C 121.066406 89.253906 120.515625 87.882812 119.800781 86.621094 C 119.746094 87.9375 119.417969 89.746094 118.320312 91.445312 C 117.71875 92.378906 117.003906 93.144531 116.070312 93.804688 C 116.015625 93.859375 115.90625 93.859375 115.851562 93.859375 C 114.972656 93.695312 114.097656 94.1875 113.820312 94.957031 C 113.65625 95.394531 113.65625 95.886719 113.875 96.328125 C 114.097656 96.820312 114.535156 97.203125 115.027344 97.367188 C 115.136719 97.425781 115.25 97.53125 115.25 97.644531 C 115.304688 98.082031 115.304688 99.121094 114.535156 100.109375 C 114.097656 100.660156 113.601562 100.988281 113.164062 101.152344 L 113.929688 103.675781 C 114.644531 103.894531 115.6875 104.054688 116.894531 103.785156 C 117.71875 103.617188 118.484375 103.234375 119.199219 102.742188 L 119.199219 99.453125 C 119.199219 99.34375 119.253906 99.230469 119.363281 99.179688 C 120.132812 98.683594 120.734375 98.082031 121.175781 97.367188 C 122.492188 95.175781 121.832031 92.542969 121.394531 90.625 Z M 105.976562 94.683594 C 105.480469 90.296875 108.773438 87.386719 109.101562 87.113281 C 109.488281 84.042969 111.847656 81.738281 114.699219 81.464844 C 117.058594 81.246094 119.363281 82.507812 120.570312 84.699219 C 120.789062 85.851562 120.953125 86.949219 121.175781 88.101562 C 121.503906 88.925781 121.777344 89.691406 121.996094 90.570312 C 122.492188 92.597656 123.148438 95.339844 121.667969 97.808594 C 121.175781 98.574219 120.570312 99.230469 119.800781 99.726562 L 119.800781 102.960938 C 119.800781 103.070312 119.746094 103.125 119.691406 103.183594 C 118.925781 103.785156 117.992188 104.21875 117.058594 104.441406 C 116.566406 104.554688 116.070312 104.605469 115.632812 104.605469 C 114.808594 104.605469 114.097656 104.441406 113.601562 104.28125 C 113.492188 104.21875 113.4375 104.164062 113.382812 104.054688 L 112.835938 102.195312 C 109.101562 101.207031 106.414062 98.191406 105.976562 94.683594 Z M 151.296875 269.335938 L 126.992188 269.335938 C 124.851562 269.335938 123.039062 271.09375 123.039062 273.285156 C 123.039062 275.480469 124.796875 277.230469 126.992188 277.230469 L 151.296875 277.230469 C 153.4375 277.230469 155.246094 275.480469 155.246094 273.285156 C 155.246094 271.09375 153.492188 269.335938 151.296875 269.335938 Z M 126.992188 268.730469 L 151.296875 268.730469 C 153.820312 268.730469 155.851562 270.757812 155.851562 273.285156 C 155.851562 275.804688 153.820312 277.835938 151.296875 277.835938 L 126.992188 277.835938 C 124.464844 277.835938 122.4375 275.804688 122.4375 273.285156 C 122.4375 270.757812 124.464844 268.730469 126.992188 268.730469 Z M 184.109375 310.625 L 131.929688 310.625 L 131.929688 311.722656 L 184.164062 311.722656 L 184.164062 310.625 Z M 178.183594 307.449219 L 131.929688 307.449219 L 131.929688 308.980469 L 178.183594 308.980469 Z M 184.109375 304.59375 L 131.929688 304.59375 L 131.929688 305.914062 L 184.109375 305.914062 Z M 119.417969 308.546875 L 114.042969 314.628906 C 114.480469 314.851562 114.917969 314.960938 115.414062 314.960938 L 123.148438 314.960938 C 123.808594 314.960938 124.355469 314.738281 124.851562 314.414062 Z M 113.4375 302.015625 C 112.835938 302.5625 112.394531 303.386719 112.394531 304.269531 L 112.394531 311.996094 C 112.394531 312.984375 112.890625 313.867188 113.65625 314.414062 L 119.144531 308.210938 Z M 125.179688 314.140625 C 125.78125 313.589844 126.113281 312.816406 126.113281 311.945312 L 126.113281 304.207031 C 126.113281 303.335938 125.726562 302.515625 125.125 301.964844 L 119.691406 308.109375 Z M 113.765625 301.742188 C 114.261719 301.46875 114.808594 301.253906 115.359375 301.253906 L 123.09375 301.253906 C 123.699219 301.253906 124.246094 301.417969 124.742188 301.742188 L 119.363281 307.832031 L 113.765625 301.742188 "/>
</g>
<path style=" stroke:none;fill-rule:nonzero;fill:rgb(21.569824%,52.159119%,73.329163%);fill-opacity:1;" d="M 116.949219 104.117188 C 115.46875 104.441406 114.261719 104.167969 113.65625 103.953125 C 112.066406 106.359375 110.308594 109.816406 109.542969 114.203125 C 107.128906 127.636719 115.960938 138.222656 117.496094 140.085938 C 119.472656 140.25 123.808594 140.359375 128.472656 138.058594 C 134.34375 135.207031 137.140625 130.488281 138.074219 128.796875 L 128.691406 117.445312 C 130.007812 117.878906 133.519531 118.863281 137.46875 117.445312 C 144.492188 114.914062 146.25 107.238281 146.359375 106.75 L 144 105.429688 C 143.339844 106.3125 141.203125 109.101562 137.304688 110.089844 C 135 110.699219 133.082031 110.425781 131.929688 110.199219 C 134.726562 108.230469 137.800781 106.203125 141.203125 104.167969 C 146.25 101.210938 151.023438 98.796875 155.46875 96.824219 L 154.261719 94.902344 L 119.472656 102.910156 C 118.980469 103.238281 118.15625 103.839844 116.949219 104.117188 Z M 131.707031 207.535156 L 125.839844 214.171875 C 126.277344 214.390625 126.769531 214.554688 127.320312 214.554688 L 135.714844 214.554688 C 136.425781 214.554688 137.03125 214.339844 137.578125 213.957031 Z M 125.179688 200.460938 C 124.464844 201.070312 124.027344 201.941406 124.027344 202.929688 L 124.027344 211.324219 C 124.027344 212.421875 124.574219 213.347656 125.398438 213.957031 L 131.324219 207.210938 Z M 137.964844 213.683594 C 138.621094 213.074219 139.007812 212.25 139.007812 211.324219 L 139.007812 202.929688 C 139.007812 201.941406 138.566406 201.121094 137.910156 200.523438 L 132.039062 207.210938 Z M 131.707031 206.828125 L 137.578125 200.1875 C 137.085938 199.859375 136.425781 199.640625 135.769531 199.640625 L 127.375 199.640625 C 126.714844 199.640625 126.113281 199.859375 125.617188 200.1875 Z M 111.628906 207.652344 L 105.8125 214.28125 C 106.25 214.503906 106.742188 214.664062 107.292969 214.664062 L 115.6875 214.664062 C 116.402344 214.664062 117.003906 214.445312 117.554688 214.066406 Z M 105.152344 200.570312 C 104.4375 201.179688 104 202.050781 104 203.039062 L 104 211.429688 C 104 212.527344 104.550781 213.457031 105.371094 214.066406 L 111.296875 207.316406 Z M 117.9375 213.792969 C 118.59375 213.183594 118.980469 212.359375 118.980469 211.429688 L 118.980469 203.039062 C 118.980469 202.050781 118.539062 201.230469 117.882812 200.632812 L 112.011719 207.316406 Z M 111.628906 206.9375 L 117.496094 200.296875 C 117.003906 199.972656 116.347656 199.75 115.6875 199.75 L 107.292969 199.75 C 106.632812 199.75 106.03125 199.972656 105.535156 200.296875 Z M 91.546875 207.535156 L 85.675781 214.171875 C 86.113281 214.390625 86.605469 214.554688 87.15625 214.554688 L 95.550781 214.554688 C 96.265625 214.554688 96.867188 214.339844 97.417969 213.957031 Z M 85.070312 200.460938 C 84.355469 201.070312 83.917969 201.941406 83.917969 202.929688 L 83.917969 211.324219 C 83.917969 212.421875 84.46875 213.347656 85.289062 213.957031 L 91.214844 207.210938 Z M 97.855469 213.730469 C 98.511719 213.132812 98.898438 212.3125 98.898438 211.375 L 98.898438 202.988281 C 98.898438 202.003906 98.457031 201.179688 97.800781 200.570312 L 91.875 207.210938 Z M 91.546875 206.878906 L 97.417969 200.246094 C 96.921875 199.914062 96.265625 199.699219 95.605469 199.699219 L 87.210938 199.699219 C 86.550781 199.699219 85.949219 199.914062 85.453125 200.246094 Z M 94.726562 167.285156 C 89.570312 167.285156 85.453125 171.457031 85.453125 176.550781 C 85.453125 181.652344 89.625 185.824219 94.726562 185.824219 C 99.832031 185.824219 104 181.652344 104 176.550781 C 104 171.457031 99.886719 167.285156 94.726562 167.285156 Z M 238.042969 202.167969 C 238.042969 208.140625 233.214844 212.96875 227.234375 212.96875 C 221.253906 212.96875 216.425781 208.140625 216.425781 202.167969 C 216.425781 196.183594 221.253906 191.359375 227.234375 191.359375 C 233.214844 191.359375 238.042969 196.183594 238.042969 202.167969 "/>
</g>
</svg>
