<svg width="270" height="273" viewBox="0 0 270 273" fill="none" xmlns="http://www.w3.org/2000/svg">
<path d="M183.488 170.77C190 179.398 190.762 190.305 185.766 197.902C185.168 198.77 179.906 206.422 170.461 206.801C164.324 207.02 159.113 204.09 156.074 200.941C149.453 194.051 148.746 181.785 154.824 170.824H118.402V206.746C116.937 205.715 109.77 200.996 100.652 202.84C93.4844 204.305 84.6367 210.004 83.4453 219.879C82.4141 228.453 87.4609 236.922 95.4961 240.34C103.367 243.703 112.648 241.531 118.402 235.02V272.031H206.176C213.613 272.031 219.641 266.008 219.641 258.574V170.77H183.488ZM70.4141 139.457C67.2109 132.129 59.7227 127.734 52.0703 128.113C42.0273 128.602 36.8711 137.016 36.4883 137.664C32.3086 144.828 33.2852 154.379 38.9844 161.762H0.335938V67.9844C0.335938 62.9375 4.46094 58.8125 9.50781 58.8125H103.363V98.8086C109.5 91.375 119.648 88.8789 127.898 92.5703C135.012 95.7148 139.57 102.934 139.789 110.641C139.949 117.805 136.312 124.695 130.344 128.332C122.254 133.324 110.855 131.75 103.309 123.988V161.707H65.1484C71.6094 156.227 73.7813 147.109 70.4141 139.457Z" fill="#F5E005"/>
<path d="M244.121 128.387C243.09 135.008 238.586 142.656 230.387 144.992C219.695 147.977 211.336 139.457 210.629 138.695C204.602 132.348 203.027 122.578 206.559 113.734C194.887 116.609 183.215 119.43 171.543 122.309L162.59 85.621C170.133 90.9414 180.066 90.8867 187.18 85.6757C193.367 81.1171 196.625 73.1406 195.105 65.2734C193.637 57.9453 188.266 51.9765 181.48 49.8593C172.414 47.039 161.828 51.2734 156.508 60.5507L147.172 22.2382L234.406 0.964798C240.375 -0.500046 246.348 3.13667 247.812 9.10542L269.578 98.375C257.801 101.254 246.074 104.129 234.297 107.004C241.516 111.891 245.371 120.246 244.121 128.387ZM211.879 252.551C211.879 259.551 206.176 265.25 199.176 265.25H112.105V165.559H146.52C141.039 176.359 141.797 188.516 148.473 195.461C152.383 199.477 157.918 201.754 163.402 201.594C172.957 201.211 178.332 193.832 179.309 192.367C184.355 184.769 183.758 174.187 177.895 165.559H211.824V252.551H211.879ZM111.344 126.379C111.074 126.484 110.855 126.758 110.855 127.082V164.039H75.3555C80.9453 158.234 82.6289 149.551 79.4258 142.223C76.168 134.789 68.5156 130.012 60.375 130.394C49.7344 130.883 44.3594 139.891 44.1406 140.269C40.0195 147.379 40.7227 156.551 45.8242 163.984H9.34766V70.9687C9.34766 66.3593 13.1484 62.5585 17.7617 62.5585H110.859V101.793C110.859 102.121 111.074 102.391 111.348 102.5C111.672 102.609 111.996 102.5 112.16 102.281C118.023 95.1718 127.793 92.6757 135.828 96.2578C142.559 99.2968 147.063 106.137 147.227 113.68C147.391 120.516 143.863 127.246 138.16 130.719C130.238 135.602 119.27 133.867 112.105 126.484C111.941 126.324 111.617 126.215 111.348 126.379H111.344ZM110.586 229.379C105.43 234.805 97.8281 237.027 90.7188 235.074C82.6289 232.852 76.3867 225.469 76.168 217.004C75.7891 205.391 86.7539 199.312 87.4609 198.934C94.5703 195.133 103.473 195.73 110.586 200.453V229.379ZM212.582 164.039H176.43C176.16 164.039 175.887 164.203 175.777 164.473C175.672 164.746 175.672 165.016 175.832 165.289C182.074 173.59 183 184.117 178.059 191.555C177.516 192.367 172.359 199.746 163.402 200.129C155.91 200.453 150.973 195.894 149.613 194.484C143.102 187.754 142.668 175.707 148.473 165.234C148.582 165.016 148.582 164.691 148.473 164.473C148.313 164.258 148.094 164.094 147.824 164.094H112.43V128.875C120.086 135.656 130.996 137.066 139.082 132.074C145.273 128.223 149.016 121.223 148.855 113.734C148.637 105.594 143.805 98.2109 136.531 94.957C128.445 91.375 118.836 93.3828 112.43 99.8945V61.8515C112.43 61.4179 112.105 61.0937 111.672 61.0937H17.7617C12.2773 61.0937 7.82812 65.5429 7.82812 71.0234V164.852C7.82812 165.289 8.15234 165.613 8.58594 165.613V254.883C8.58594 261.07 13.582 266.062 19.7695 266.062H110.586C110.586 266.496 110.91 266.82 111.344 266.82H199.121C206.937 266.82 213.344 260.473 213.344 252.605V164.801C213.344 164.363 213.016 164.039 212.582 164.039Z" fill="#0F0E0C"/>
</svg>
