<svg width="182" height="57" viewBox="0 0 182 57" xmlns="http://www.w3.org/2000/svg"
  xmlns:xlink="http://www.w3.org/1999/xlink">
  <path d="M9.11389 28.3634C11.1609 28.3634 12.9294 28.085 14.4194 27.5283C15.9093 26.9715 17.043 26.1882 17.8204 25.1783C18.5977 24.1684 18.9864 23.0161 18.9864 21.7214C18.9864 20.1936 18.5848 19.0024 17.7815 18.1479C16.9782 17.2934 16.0324 16.7043 14.9441 16.3806C13.8558 16.0569 12.4566 15.7526 10.7464 15.4678C9.21754 15.2347 8.10332 14.9887 7.40369 14.7298C6.70407 14.4708 6.35426 14.0177 6.35426 13.3703C6.35426 12.8006 6.67816 12.3345 7.32596 11.972C7.97376 11.6095 8.94546 11.4282 10.2411 11.4282C12.4177 11.4282 14.4259 11.9461 16.2656 12.9819L18.2868 8.67042C17.328 8.10074 16.1166 7.65405 14.6526 7.33037C13.2042 7.0084 11.7249 6.84559 10.2411 6.84484C8.24584 6.84484 6.51621 7.12968 5.05217 7.69937C3.58814 8.26905 2.47392 9.06532 1.70951 10.0882C0.945106 11.111 0.562903 12.2827 0.562903 13.6034C0.562903 15.1829 0.971018 16.4 1.78725 17.2545C2.57878 18.0938 3.57748 18.71 4.68293 19.0413C5.79715 19.3779 7.20935 19.6757 8.91955 19.9346C10.3706 20.1159 11.446 20.336 12.1456 20.5949C12.8452 20.8539 13.195 21.2812 13.195 21.8767C13.195 23.1456 11.9124 23.78 9.3471 23.78C8.07741 23.78 6.7818 23.5923 5.46029 23.2168C4.13877 22.8413 3.0116 22.3558 2.07876 21.7602L0.0576172 26.1105C1.04228 26.7579 2.36379 27.2952 4.02217 27.7225C5.68054 28.1497 7.37778 28.3634 9.11389 28.3634V28.3634ZM32.4636 28.3634C34.6661 28.3634 36.5901 27.8973 38.2355 26.9651C39.8809 26.0328 41.0793 24.7381 41.8308 23.0808L37.1277 20.5173C36.0653 22.4335 34.4977 23.3916 32.4247 23.3916C30.8441 23.3916 29.5355 22.8737 28.499 21.8379C27.4625 20.8021 26.9443 19.3908 26.9443 17.6041C26.9443 15.8174 27.4625 14.4061 28.499 13.3703C29.5355 12.3345 30.8441 11.8166 32.4247 11.8166C34.4717 11.8166 36.0394 12.7747 37.1277 14.6909L41.8308 12.1662C41.0793 10.4572 39.8809 9.143 38.2355 8.22374C36.5901 7.30447 34.6661 6.84484 32.4636 6.84484C30.2351 6.84484 28.2334 7.30447 26.4584 8.22374C24.6835 9.143 23.2972 10.4183 22.2995 12.0497C21.3019 13.6811 20.8031 15.5325 20.8031 17.6041C20.8031 19.6757 21.3019 21.5272 22.2995 23.1585C23.2972 24.7899 24.6835 26.0652 26.4584 26.9845C28.2334 27.9037 30.2351 28.3634 32.4636 28.3634V28.3634ZM53.7921 28.3634C55.0877 28.3634 56.2926 28.1238 57.4068 27.6448C58.5085 27.1748 59.4912 26.4649 60.2831 25.5667V28.0526H66.0356V7.15558H59.9721V17.4876C59.9721 19.352 59.5316 20.7568 58.6506 21.7019C57.7696 22.6471 56.6036 23.1197 55.1525 23.1197C52.3281 23.1197 50.9158 21.4365 50.9158 18.0702V7.15558H44.8524V18.9636C44.8524 22.0709 45.6557 24.4144 47.2622 25.994C48.8688 27.5736 51.0454 28.3634 53.7921 28.3634V28.3634ZM81.2618 28.3634C83.4643 28.3634 85.4336 27.9037 87.1697 26.9845C88.9059 26.0652 90.2662 24.7899 91.2509 23.1585C92.2356 21.5272 92.7279 19.6757 92.7279 17.6041C92.7279 15.5325 92.2356 13.6811 91.2509 12.0497C90.2662 10.4183 88.9059 9.143 87.1697 8.22374C85.4336 7.30447 83.4643 6.84484 81.2618 6.84484C79.0593 6.84484 77.0835 7.30447 75.3344 8.22374C73.5853 9.143 72.2185 10.4183 71.2338 12.0497C70.2492 13.6811 69.7568 15.5325 69.7568 17.6041C69.7568 19.6757 70.2492 21.5272 71.2338 23.1585C72.2185 24.7899 73.5853 26.0652 75.3344 26.9845C77.0835 27.9037 79.0593 28.3634 81.2618 28.3634ZM81.2618 23.3916C79.7071 23.3916 78.4244 22.8672 77.4138 21.8185C76.4033 20.7697 75.898 19.3649 75.898 17.6041C75.898 15.8433 76.4033 14.4385 77.4138 13.3897C78.4244 12.341 79.7071 11.8166 81.2618 11.8166C82.8165 11.8166 84.0927 12.341 85.0903 13.3897C86.0879 14.4385 86.5867 15.8433 86.5867 17.6041C86.5867 19.3649 86.0879 20.7697 85.0903 21.8185C84.0927 22.8672 82.8165 23.3916 81.2618 23.3916ZM119.183 28.3634C122.292 28.3634 124.417 27.3923 125.557 25.4502V28.0526H131.232V16.1281C131.232 13.0207 130.364 10.6967 128.628 9.15595C126.892 7.61521 124.404 6.84484 121.165 6.84484C119.481 6.84484 117.842 7.06495 116.248 7.50516C114.655 7.94537 113.288 8.56684 112.148 9.36958L114.324 13.6034C115.076 13.0078 115.989 12.5352 117.064 12.1856C118.125 11.8385 119.233 11.6615 120.349 11.6613C121.955 11.6613 123.16 12.0173 123.963 12.7294C124.767 13.4415 125.168 14.4579 125.168 15.7785H120.349C117.291 15.7785 115.03 16.3353 113.566 17.4487C112.102 18.5622 111.37 20.09 111.37 22.0321C111.37 23.2492 111.681 24.3367 112.303 25.2948C112.925 26.2529 113.825 27.0039 115.004 27.5477C116.183 28.0915 117.576 28.3634 119.183 28.3634ZM120.699 24.2849C119.636 24.2849 118.8 24.0584 118.192 23.6052C117.583 23.1521 117.278 22.5371 117.278 21.7602C117.278 20.1288 118.522 19.3132 121.009 19.3132H125.168V21.4495C124.832 22.3817 124.261 23.0873 123.458 23.5664C122.655 24.0454 121.735 24.2849 120.699 24.2849V24.2849ZM100.049 0H106.528L100.769 22.2982H108.687V28.0526H94.2913V22.2982L100.049 0Z" fill="#FFC107"/>
  <defs>
    <path
      d="M12.662 39.432c2.844 0 5.301-.387 7.371-1.161 2.07-.774 3.645-1.863 4.725-3.267 1.08-1.404 1.62-3.006 1.62-4.806 0-2.124-.558-3.78-1.674-4.968-1.116-1.188-2.43-2.007-3.942-2.457-1.512-.45-3.456-.873-5.832-1.269-2.124-.324-3.672-.666-4.644-1.026s-1.458-.99-1.458-1.89c0-.792.45-1.44 1.35-1.944.9-.504 2.25-.756 4.05-.756 3.024 0 5.814.72 8.37 2.16l2.808-5.994c-1.332-.792-3.015-1.413-5.049-1.863a28.293 28.293 0 0 0-6.129-.675c-2.772 0-5.175.396-7.209 1.188-2.034.792-3.582 1.899-4.644 3.321C1.313 15.447.782 17.076.782 18.912c0 2.196.567 3.888 1.701 5.076a9.132 9.132 0 0 0 4.023 2.484c1.548.468 3.51.882 5.886 1.242 2.016.252 3.51.558 4.482.918.972.36 1.458.954 1.458 1.782 0 1.764-1.782 2.646-5.346 2.646-1.764 0-3.564-.261-5.4-.783-1.836-.522-3.402-1.197-4.698-2.025L.08 36.3c1.368.9 3.204 1.647 5.508 2.241 2.304.594 4.662.891 7.074.891zm32.44 0c3.06 0 5.733-.648 8.019-1.944 2.286-1.296 3.951-3.096 4.995-5.4l-6.534-3.564c-1.476 2.664-3.654 3.996-6.534 3.996-2.196 0-4.014-.72-5.454-2.16-1.44-1.44-2.16-3.402-2.16-5.886s.72-4.446 2.16-5.886c1.44-1.44 3.258-2.16 5.454-2.16 2.844 0 5.022 1.332 6.534 3.996l6.534-3.51c-1.044-2.376-2.709-4.203-4.995-5.481-2.286-1.278-4.959-1.917-8.019-1.917-3.096 0-5.877.639-8.343 1.917s-4.392 3.051-5.778 5.319c-1.386 2.268-2.079 4.842-2.079 7.722 0 2.88.693 5.454 2.079 7.722 1.386 2.268 3.312 4.041 5.778 5.319 2.466 1.278 5.247 1.917 8.343 1.917zm29.632 0c1.8 0 3.474-.333 5.022-.999a11.172 11.172 0 0 0 3.996-2.889V39h7.992V9.948H83.32v14.364c0 2.592-.612 4.545-1.836 5.859-1.224 1.314-2.844 1.971-4.86 1.971-3.924 0-5.886-2.34-5.886-7.02V9.948h-8.424v16.416c0 4.32 1.116 7.578 3.348 9.774 2.232 2.196 5.256 3.294 9.072 3.294zm38.164 0c3.06 0 5.796-.639 8.208-1.917s4.302-3.051 5.67-5.319c1.368-2.268 2.052-4.842 2.052-7.722 0-2.88-.684-5.454-2.052-7.722-1.368-2.268-3.258-4.041-5.67-5.319-2.412-1.278-5.148-1.917-8.208-1.917-3.06 0-5.805.639-8.235 1.917-2.43 1.278-4.329 3.051-5.697 5.319-1.368 2.268-2.052 4.842-2.052 7.722 0 2.88.684 5.454 2.052 7.722 1.368 2.268 3.267 4.041 5.697 5.319 2.43 1.278 5.175 1.917 8.235 1.917zm0-6.912c-2.16 0-3.942-.729-5.346-2.187-1.404-1.458-2.106-3.411-2.106-5.859s.702-4.401 2.106-5.859c1.404-1.458 3.186-2.187 5.346-2.187s3.933.729 5.319 2.187c1.386 1.458 2.079 3.411 2.079 5.859s-.693 4.401-2.079 5.859c-1.386 1.458-3.159 2.187-5.319 2.187zm52.684 6.912c4.32 0 7.272-1.35 8.856-4.05V39h7.884V22.422c0-4.32-1.206-7.551-3.618-9.693-2.412-2.142-5.868-3.213-10.368-3.213-2.34 0-4.617.306-6.831.918-2.214.612-4.113 1.476-5.697 2.592l3.024 5.886c1.044-.828 2.313-1.485 3.807-1.971a14.663 14.663 0 0 1 4.563-.729c2.232 0 3.906.495 5.022 1.485 1.116.99 1.674 2.403 1.674 4.239h-6.696c-4.248 0-7.389.774-9.423 2.322s-3.051 3.672-3.051 6.372c0 1.692.432 3.204 1.296 4.536.864 1.332 2.115 2.376 3.753 3.132 1.638.756 3.573 1.134 5.805 1.134zm2.106-5.67c-1.476 0-2.637-.315-3.483-.945-.846-.63-1.269-1.485-1.269-2.565 0-2.268 1.728-3.402 5.184-3.402h5.778v2.97c-.468 1.296-1.26 2.277-2.376 2.943-1.116.666-2.394.999-3.834.999zM139 0h9l-8 31h11v8h-20v-8l8-31z"
      id="ab" />
  </defs>
  <g fill="none" fill-rule="evenodd">
    <path
      d="M114.836 56.76v-8.344c0-.43.019-.775.056-1.036.037-.261.114-.462.231-.602a.89.89 0 0 1 .49-.287c.21-.051.488-.082.833-.091v-.56h-4.158v.56c.308.01.558.037.749.084a.75.75 0 0 1 .448.294c.107.15.177.362.21.637s.049.642.049 1.099v5.418h-.056l-5.642-8.092h-3.906v.56c.317.019.572.058.763.119.191.06.338.166.441.315.103.15.173.352.21.609.037.257.056.581.056.973v5.628c0 .439-.019.786-.056 1.043-.037.257-.114.455-.231.595a.89.89 0 0 1-.49.287c-.21.051-.488.082-.833.091v.56h4.158v-.56a3.742 3.742 0 0 1-.749-.084.75.75 0 0 1-.448-.294c-.107-.15-.177-.36-.21-.63a9.719 9.719 0 0 1-.049-1.106v-6.02h.056l6.202 8.834h1.876zm6.922 0c1.27 0 2.329-.48 3.178-1.442l-.392-.49c-.364.327-.74.579-1.127.756a2.786 2.786 0 0 1-1.169.266c-.681 0-1.22-.266-1.617-.798s-.595-1.255-.595-2.17c0-.224.019-.378.056-.462h4.508c.215 0 .345-.016.392-.049.047-.033.07-.124.07-.273 0-.961-.275-1.708-.826-2.24-.55-.532-1.32-.798-2.31-.798-.588 0-1.127.098-1.617.294-.49.196-.915.469-1.274.819-.36.35-.637.765-.833 1.246a4.17 4.17 0 0 0-.294 1.589c0 .56.093 1.069.28 1.526.187.457.448.852.784 1.183.336.331.74.588 1.211.77a4.34 4.34 0 0 0 1.575.273zm.462-5.124h-2.03c.093-.513.296-.936.609-1.267.313-.331.67-.497 1.071-.497.355 0 .649.13.882.392.233.261.35.597.35 1.008 0 .159-.054.259-.161.301-.107.042-.348.063-.721.063zm8.546 5.124l1.89-4.97h.056l1.484 4.97h1.106l1.932-4.844c.196-.504.36-.9.49-1.19.13-.29.252-.504.364-.644.112-.14.224-.229.336-.266.112-.037.252-.056.42-.056v-.56h-3.01v.56c.27 0 .485.051.644.154.159.103.238.275.238.518 0 .13-.019.282-.056.455a3.906 3.906 0 0 1-.196.609l-1.12 2.898h-.07l-1.47-5.194h-1.148l-1.96 5.194h-.056l-.882-3.276a7.419 7.419 0 0 1-.112-.42 1.502 1.502 0 0 1-.042-.336c0-.215.065-.366.196-.455.13-.089.364-.138.7-.147v-.56h-4.004v.56c.327.019.588.119.784.301.196.182.369.497.518.945l1.918 5.754h1.05zm20.69-.14v-.56c-.299 0-.541-.023-.728-.07a.759.759 0 0 1-.441-.287c-.107-.145-.182-.357-.224-.637a7.891 7.891 0 0 1-.063-1.12v-1.428l2.044-3.5c.317-.55.59-.996.819-1.337.229-.34.434-.607.616-.798.182-.191.357-.32.525-.385.168-.065.355-.098.56-.098v-.56h-3.514v.56c.392 0 .66.03.805.091a.33.33 0 0 1 .217.329c0 .15-.06.352-.182.609a16.33 16.33 0 0 1-.644 1.169l-1.764 2.94h-.056l-2.002-3.822a6.936 6.936 0 0 1-.266-.532.882.882 0 0 1-.084-.336c0-.15.08-.261.238-.336.159-.075.434-.112.826-.112v-.56h-4.704v.56c.177 0 .336.016.476.049.14.033.27.093.392.182.121.089.24.212.357.371.117.159.245.36.385.602l2.898 5.152v1.288c0 .439-.021.791-.063 1.057-.042.266-.119.469-.231.609a.808.808 0 0 1-.455.28 3.11 3.11 0 0 1-.721.07v.56h4.984zm7.062.14a4.31 4.31 0 0 0 2.905-1.106c.378-.345.677-.756.896-1.232.22-.476.329-.999.329-1.568 0-.55-.11-1.057-.329-1.519a3.717 3.717 0 0 0-.896-1.197 4.248 4.248 0 0 0-1.316-.791 4.402 4.402 0 0 0-1.589-.287c-.55 0-1.073.093-1.568.28a4.076 4.076 0 0 0-1.302.784 3.658 3.658 0 0 0-.882 1.204 3.607 3.607 0 0 0-.322 1.526c0 .57.107 1.094.322 1.575.215.48.509.894.882 1.239.373.345.807.614 1.302.805a4.308 4.308 0 0 0 1.568.287zm0-.854c-.29 0-.548-.072-.777-.217a1.887 1.887 0 0 1-.588-.609 3.171 3.171 0 0 1-.378-.952 5.465 5.465 0 0 1-.133-1.26c0-.448.044-.856.133-1.225.089-.369.215-.684.378-.945a1.86 1.86 0 0 1 .595-.609c.233-.145.49-.217.77-.217.29 0 .553.072.791.217.238.145.441.35.609.616.168.266.299.581.392.945.093.364.14.77.14 1.218 0 .457-.047.873-.14 1.246a3.272 3.272 0 0 1-.392.959 1.875 1.875 0 0 1-.609.616 1.493 1.493 0 0 1-.791.217zm10.744.714v-.56c-.327 0-.588-.016-.784-.049-.196-.033-.345-.105-.448-.217-.103-.112-.17-.273-.203-.483a5.892 5.892 0 0 1-.049-.861v-.672c0-.345.023-.693.07-1.043.047-.35.107-.665.182-.945.103-.392.233-.705.392-.938.159-.233.327-.35.504-.35.093 0 .184.03.273.091.089.06.177.126.266.196.089.07.189.133.301.189a.834.834 0 0 0 .378.084c.299 0 .534-.103.707-.308.173-.205.259-.457.259-.756a.822.822 0 0 0-.336-.672c-.224-.177-.513-.266-.868-.266-.457 0-.891.145-1.302.434a3.16 3.16 0 0 0-.994 1.176h-.056l-.224-1.61-2.8.518v.49c.28 0 .506.03.679.091.173.06.306.184.399.371.093.187.154.453.182.798.028.345.042.807.042 1.386v1.708c0 .355-.012.637-.035.847-.023.21-.077.371-.161.483a.62.62 0 0 1-.378.224 4.654 4.654 0 0 1-.672.084v.56h4.676zm7.23 0v-.56a1.41 1.41 0 0 1-.483-.07.548.548 0 0 1-.294-.259 1.475 1.475 0 0 1-.147-.525 7.408 7.408 0 0 1-.042-.882v-.546l.7-.672 1.064 1.596c.196.29.357.544.483.763.126.22.189.357.189.413 0 .075-.06.124-.182.147a3.837 3.837 0 0 1-.63.035v.56h4.354v-.56c-.336 0-.607-.056-.812-.168-.205-.112-.415-.317-.63-.616l-2.422-3.43 1.358-1.274c.317-.299.611-.509.882-.63.27-.121.583-.182.938-.182v-.56h-3.822v.56c.467 0 .786.016.959.049.173.033.259.091.259.175 0 .103-.103.268-.308.497-.205.229-.55.572-1.036 1.029l-1.344 1.274V45l-3.122.532v.518c.28 0 .502.019.665.056a.522.522 0 0 1 .364.301c.08.163.128.408.147.735.019.327.028.775.028 1.344v5.936c0 .336-.016.609-.049.819-.033.21-.096.373-.189.49a.734.734 0 0 1-.378.245 2.638 2.638 0 0 1-.63.084v.56h4.13z"
      fill="#000"/>
  </g>
</svg>
