<svg width="272" height="267" viewBox="0 0 272 267" fill="none" xmlns="http://www.w3.org/2000/svg">
<path d="M62.7695 182.125C127.914 182.02 193.113 181.91 258.258 181.805L272 64.4648L50.6758 65.7422C54.7266 104.5 58.7734 143.312 62.7695 182.125ZM209.25 215.879C195.242 215.879 183.898 227.219 183.898 241.223C183.898 255.223 195.242 266.562 209.25 266.562C223.262 266.562 234.605 255.223 234.605 241.223C234.605 227.219 223.312 215.879 209.25 215.879ZM138.832 241.273C138.832 255.277 127.488 266.617 113.48 266.617C99.4688 266.617 88.125 255.277 88.125 241.273C88.125 227.273 99.4688 215.934 113.48 215.934C127.488 215.934 138.832 227.219 138.832 241.273Z" fill="#E9818D"/>
<path d="M184.43 237.121C183.898 235.473 183.684 233.715 183.684 232.012C183.684 222.375 191.516 214.547 201.156 214.547C202.379 214.547 203.34 215.508 203.34 216.73C203.34 217.957 202.379 218.914 201.156 218.914C193.965 218.914 188.105 224.77 188.105 231.957C188.105 233.234 188.316 234.566 188.691 235.789C189.063 236.961 188.426 238.187 187.254 238.559C187.039 238.613 186.828 238.664 186.613 238.664C185.602 238.664 184.695 238.078 184.43 237.121ZM86.5273 232.012C86.5273 222.375 94.3555 214.547 103.996 214.547C105.223 214.547 106.18 215.508 106.18 216.73C106.18 217.957 105.223 218.914 103.996 218.914C96.8047 218.914 90.9453 224.77 90.9453 231.957C90.9453 233.289 91.1602 234.566 91.5312 235.789C91.9062 236.961 91.2148 238.187 90.0938 238.559C89.8828 238.613 89.668 238.664 89.457 238.664C88.4961 238.664 87.6445 238.078 87.3242 237.121C86.7383 235.473 86.5273 233.715 86.5273 232.012ZM249.469 112.062H210.582L215.965 53.7109L256.285 53.4961L249.469 112.062ZM243.078 166.367L205.523 166.418L210.156 116.426H248.934L243.078 166.367ZM78.1094 54.457L82.8516 112.008H45.8828L39.918 54.668L78.1094 54.457ZM150.234 112.062L150.5 54.082L211.543 53.7109L206.164 112.062H150.234ZM150.234 116.426H205.734L201.102 166.418L149.965 166.527L150.234 116.426ZM87.3242 112.062L82.5312 54.457L146.078 54.082L145.812 112.062H87.3242ZM87.3789 166.633L51.5312 166.688L46.3086 116.426H83.2227L87.3789 166.633ZM87.6445 116.426H145.812L145.598 166.527L91.8008 166.633L87.6445 116.426ZM127.168 232.012C127.168 244.789 116.781 255.168 103.996 255.168C91.2148 255.168 80.8242 244.789 80.8242 232.012C80.8242 219.234 91.2148 208.852 103.996 208.852C116.781 208.852 127.168 219.234 127.168 232.012ZM222.996 232.012C222.996 244.789 212.609 255.168 199.824 255.168C187.039 255.168 176.652 244.789 176.652 232.012C176.652 219.234 187.039 208.852 199.824 208.852C212.609 208.797 222.996 219.234 222.996 232.012ZM260.441 49.7695C260.016 49.293 259.375 49.1328 258.789 49.0273L39.4922 50.3047L34.5352 2.38672C34.4297 1.26953 33.4727 0.417969 32.3555 0.417969H2.68359C1.46094 0.417969 0.5 1.37891 0.5 2.60156C0.5 3.82422 1.46094 4.78516 2.68359 4.78516H30.3281L35.2852 52.6992L39.3828 92.5234L51.2109 206.828C51.3164 207.945 52.2734 208.797 53.3945 208.797H89.0273C81.4102 213.695 76.3516 222.27 76.3516 231.957C76.3516 247.184 88.7109 259.535 103.945 259.535C119.125 259.535 131.535 247.184 131.535 231.957C131.535 222.27 126.477 213.695 118.859 208.797H184.91C177.293 213.695 172.23 222.27 172.23 231.957C172.23 247.184 184.59 259.535 199.824 259.535C215.059 259.535 227.414 247.184 227.414 232.012C227.414 222.32 222.355 213.75 214.738 208.852H239.613C240.84 208.852 241.797 207.895 241.797 206.668C241.797 205.445 240.84 204.484 239.613 204.484H55.4727L52.0078 171.16L245.047 170.84C246.164 170.84 247.125 169.988 247.23 168.867L260.973 51.4766C261.078 50.8906 260.867 50.2539 260.441 49.7695Z" fill="#0F0E0C"/>
</svg>
