<svg width="341" height="278" viewBox="0 0 341 278" fill="none" xmlns="http://www.w3.org/2000/svg">
<path d="M264.176 40.5742C264.176 36.7422 261.074 33.6367 257.254 33.6367C253.43 33.6367 250.328 36.7422 250.328 40.5742C250.328 44.4023 253.43 47.5156 257.254 47.5156C261.074 47.5156 264.176 44.4023 264.176 40.5742ZM210.219 40.5742C210.219 36.7422 207.117 33.6367 203.297 33.6367C199.473 33.6367 196.371 36.7422 196.371 40.5742C196.371 44.4023 199.473 47.5156 203.297 47.5156C207.117 47.5156 210.219 44.4023 210.219 40.5742ZM156.098 40.5742C156.098 36.7422 152.996 33.6367 149.172 33.6367C145.352 33.6367 142.25 36.7422 142.25 40.5742C142.25 44.4023 145.352 47.5156 149.172 47.5156C152.996 47.5156 156.098 44.4023 156.098 40.5742ZM102.586 40.5742C102.586 36.7422 99.4844 33.6367 95.6602 33.6367C91.8398 33.6367 88.7344 36.7422 88.7344 40.5742C88.7344 44.4023 91.8398 47.5156 95.6602 47.5156C99.4258 47.5156 102.586 44.4023 102.586 40.5742ZM49.3477 40.5742C49.3477 36.6875 46.2461 33.5781 42.3672 33.5781C38.5469 33.5781 35.4453 36.6875 35.4453 40.5195C35.4453 44.3477 38.5469 47.457 42.3672 47.457C46.2461 47.5156 49.3477 44.4023 49.3477 40.5742ZM303.562 27.25V189.734L248 245.414H8.63281V27.25H303.562ZM340.016 59.6133V277.832H25.6953V253.238H313.426V59.6133H340.016Z" fill="#3785BB"/>
<path d="M246.836 205.055H40.6523V100.191H271.547V187.234" fill="white"/>
<path d="M314.699 268.004C314.699 268.617 314.199 269.059 313.645 269.059H21.7617C21.1523 269.059 20.7109 268.559 20.7109 268.004C20.7109 267.395 21.207 266.949 21.7617 266.949H313.59C314.199 266.949 314.699 267.449 314.699 268.004ZM314.699 33.5781V252.574C314.699 253.184 314.199 253.629 313.645 253.629H21.7617C21.1523 253.629 20.7109 253.129 20.7109 252.574C20.7109 251.961 21.207 251.52 21.7617 251.52H312.539V33.5781C312.539 32.9688 313.035 32.5273 313.59 32.5273C314.199 32.5273 314.699 32.9688 314.699 33.5781ZM219.305 167.363H264.621V182.129C264.621 182.238 264.676 182.352 264.676 182.461L240.965 182.129V198.836H219.25V167.363H219.305ZM79.375 128.449H35.9453V96.1406H79.375V128.449ZM219.305 130.613H264.621V165.199H219.305V130.613ZM174.934 130.613H217.199V165.199H174.934V130.613ZM130.172 130.613H172.828V165.199H130.172V130.613ZM81.4805 130.613H128.012V165.199H81.4805V130.613ZM35.9453 130.613H79.375V165.199H35.9453V130.613ZM264.676 96.1953V128.504H219.363V96.1953H264.676ZM217.199 96.1953V128.504H174.934V96.1953H217.199ZM172.773 96.1953V128.504H130.117V96.1953H172.773ZM128.012 96.1953V128.504H81.4805V96.1953H128.012ZM35.9453 198.836V167.363H79.375V198.895L35.9453 198.836ZM81.4805 198.836V167.363H128.012V198.895L81.4805 198.836ZM130.172 198.836V167.363H172.828V198.895L130.172 198.836ZM174.934 198.836V167.363H217.199V198.895L174.934 198.836ZM2.76172 237.527V64.0547H295.586V182.461L295.145 182.906L266.781 182.516C266.836 182.406 266.836 182.297 266.836 182.184V95.0859C266.836 94.4766 266.336 94.0312 265.785 94.0312H34.8906C34.2812 94.0312 33.8398 94.5312 33.8398 95.0859V199.949C33.8398 200.559 34.3359 201.004 34.8906 201.004H241.02V237.086L240.578 237.527H2.76172ZM41.3164 21.5312V37.2422C41.3164 37.8516 41.8164 38.2969 42.3672 38.2969C42.9219 38.2969 43.4219 37.7969 43.4219 37.2422V21.5312H94.5V37.2422C94.5 37.8516 94.9961 38.2969 95.5508 38.2969C96.1602 38.2969 96.6016 37.7969 96.6016 37.2422V21.5312H148.012V37.2422C148.012 37.8516 148.512 38.2969 149.062 38.2969C149.617 38.2969 150.117 37.7969 150.117 37.2422V21.5312H202.078V37.2422C202.078 37.8516 202.578 38.2969 203.133 38.2969C203.684 38.2969 204.184 37.7969 204.184 37.2422V21.5312H256.035V37.2422C256.035 37.8516 256.531 38.2969 257.086 38.2969C257.641 38.2969 258.141 37.7969 258.141 37.2422V21.5312H295.367V61.8906H2.76172V21.5312H41.3164ZM241.797 239.359L297.414 183.629C297.637 183.406 297.75 183.129 297.75 182.852V20.4219C297.75 19.8125 297.25 19.3672 296.695 19.3672H258.418V1.32422C258.418 0.714843 257.918 0.273438 257.363 0.273438C256.809 0.273438 256.312 0.76953 256.312 1.32422V19.3125H204.461V1.32422C204.461 0.718749 203.961 0.273438 203.406 0.273438C202.855 0.273438 202.355 0.76953 202.355 1.32422V19.3125H150.395V1.32422C150.395 0.718749 149.895 0.273438 149.34 0.273438C148.785 0.273438 148.289 0.76953 148.289 1.32812V19.3125H96.8789V1.32812C96.8789 0.718749 96.3828 0.273438 95.8281 0.273438C95.2188 0.273438 94.7734 0.773437 94.7734 1.32812V19.3125H43.4766V1.32812C43.4766 0.718749 42.9805 0.273438 42.4258 0.273438C41.8711 0.273438 41.375 0.773437 41.375 1.32812V19.3125H1.65234C1.04297 19.3125 0.601562 19.8125 0.601562 20.3672V238.586C0.601562 239.195 1.09766 239.641 1.65234 239.641H241.02C241.297 239.695 241.574 239.582 241.797 239.363" fill="#0F0E0C"/>
</svg>
