<?xml version="1.0" encoding="UTF-8"?>
<svg xmlns="http://www.w3.org/2000/svg" xmlns:xlink="http://www.w3.org/1999/xlink" width="375pt" height="374.999991pt" viewBox="0 0 375 374.999991" version="1.2">
<defs>
<clipPath id="clip1">
  <path d="M 30.503906 37.5 L 320.003906 37.5 L 320.003906 282 L 30.503906 282 Z M 30.503906 37.5 "/>
</clipPath>
</defs>
<g id="surface1">
<g clip-path="url(#clip1)" clip-rule="nonzero">
<path style=" stroke:none;fill-rule:nonzero;fill:rgb(91.369629%,50.588989%,55.288696%);fill-opacity:1;" d="M 61.359375 37.558594 L 289.265625 37.558594 C 306.285156 37.558594 320.121094 51.398438 320.121094 68.414062 L 320.121094 191.824219 C 320.121094 208.886719 306.285156 222.675781 289.265625 222.675781 L 202.425781 222.675781 L 202.425781 282.035156 L 162.527344 222.675781 L 61.359375 222.675781 M 61.359375 222.675781 C 44.34375 222.675781 30.503906 208.886719 30.503906 191.824219 L 30.503906 68.414062 C 30.503906 51.398438 44.34375 37.558594 61.359375 37.558594 "/>
</g>
<path style=" stroke:none;fill-rule:nonzero;fill:rgb(100%,100%,100%);fill-opacity:1;" d="M 239.441406 114.8125 C 229.515625 114.8125 221.496094 122.832031 221.496094 132.757812 C 221.496094 142.683594 229.515625 150.703125 239.441406 150.703125 C 249.367188 150.703125 257.386719 142.683594 257.386719 132.757812 C 257.386719 122.832031 249.316406 114.8125 239.441406 114.8125 Z M 177.632812 114.8125 C 167.707031 114.8125 159.6875 122.832031 159.6875 132.757812 C 159.6875 142.683594 167.707031 150.703125 177.632812 150.703125 C 187.558594 150.703125 195.578125 142.683594 195.578125 132.757812 C 195.578125 122.832031 187.558594 114.8125 177.632812 114.8125 Z M 133.824219 132.757812 C 133.824219 142.683594 125.804688 150.703125 115.878906 150.703125 C 105.949219 150.703125 97.933594 142.683594 97.933594 132.757812 C 97.933594 122.832031 105.949219 114.8125 115.878906 114.8125 C 125.804688 114.8125 133.824219 122.882812 133.824219 132.757812 "/>
<path style=" stroke:none;fill-rule:nonzero;fill:rgb(5.879211%,5.488586%,4.708862%);fill-opacity:1;" d="M 234.109375 109.042969 C 224.625 109.042969 216.898438 116.769531 216.898438 126.253906 C 216.898438 135.742188 224.625 143.464844 234.109375 143.464844 C 243.597656 143.464844 251.320312 135.742188 251.320312 126.253906 C 251.320312 116.769531 243.644531 109.042969 234.109375 109.042969 Z M 234.109375 144.980469 C 223.792969 144.980469 215.429688 136.621094 215.429688 126.304688 C 215.429688 115.988281 223.792969 107.625 234.109375 107.625 C 244.425781 107.625 252.789062 115.988281 252.789062 126.304688 C 252.789062 136.621094 244.425781 144.980469 234.109375 144.980469 Z M 172.351562 109.042969 C 162.867188 109.042969 155.140625 116.769531 155.140625 126.253906 C 155.140625 135.742188 162.867188 143.464844 172.351562 143.464844 C 181.839844 143.464844 189.566406 135.742188 189.566406 126.253906 C 189.566406 116.769531 181.839844 109.042969 172.351562 109.042969 Z M 172.351562 144.980469 C 162.035156 144.980469 153.675781 136.621094 153.675781 126.304688 C 153.675781 115.988281 162.035156 107.625 172.351562 107.625 C 182.671875 107.625 191.03125 115.988281 191.03125 126.304688 C 191.03125 136.621094 182.671875 144.980469 172.351562 144.980469 Z M 110.546875 109.042969 C 101.0625 109.042969 93.335938 116.769531 93.335938 126.253906 C 93.335938 135.742188 101.0625 143.464844 110.546875 143.464844 C 120.035156 143.464844 127.757812 135.742188 127.757812 126.253906 C 127.757812 116.769531 120.035156 109.042969 110.546875 109.042969 Z M 110.546875 144.980469 C 100.230469 144.980469 91.867188 136.621094 91.867188 126.304688 C 91.867188 115.988281 100.230469 107.625 110.546875 107.625 C 120.863281 107.625 129.226562 115.988281 129.226562 126.304688 C 129.226562 136.621094 120.863281 144.980469 110.546875 144.980469 "/>
</g>
</svg>
