<?xml version="1.0" encoding="UTF-8"?>
<svg xmlns="http://www.w3.org/2000/svg" xmlns:xlink="http://www.w3.org/1999/xlink" width="375pt" height="374.999991pt" viewBox="0 0 375 374.999991" version="1.2">
<defs>
<clipPath id="clip1">
  <path d="M 68.332031 85.617188 L 248 85.617188 L 248 266 L 68.332031 266 Z M 68.332031 85.617188 "/>
</clipPath>
<clipPath id="clip2">
  <path d="M 105 119.371094 L 299.929688 119.371094 L 299.929688 306.867188 L 105 306.867188 Z M 105 119.371094 "/>
</clipPath>
</defs>
<g id="surface1">
<g clip-path="url(#clip1)" clip-rule="nonzero">
<path style=" stroke:none;fill-rule:nonzero;fill:rgb(94.898987%,87.449646%,1.959229%);fill-opacity:1;" d="M 157.96875 265.714844 C 108.472656 265.714844 68.332031 225.410156 68.332031 175.710938 C 68.332031 126.011719 108.472656 85.707031 157.96875 85.707031 C 207.464844 85.703125 247.609375 126.011719 247.609375 175.710938 C 247.609375 192.1875 243.152344 207.648438 235.476562 220.933594 C 212.007812 212.519531 188.542969 204.101562 165.074219 195.730469 C 173.410156 217.035156 181.792969 238.34375 190.171875 259.691406 C 180.160156 263.546875 169.308594 265.714844 157.96875 265.714844 "/>
</g>
<g clip-path="url(#clip2)" clip-rule="nonzero">
<path style=" stroke:none;fill-rule:nonzero;fill:rgb(5.879211%,5.488586%,4.708862%);fill-opacity:1;" d="M 277.035156 306.464844 C 277.871094 305.582031 277.828125 304.164062 276.945312 303.320312 L 246.902344 274.707031 C 246.023438 273.867188 244.609375 273.910156 243.773438 274.796875 L 222.066406 297.785156 L 179.496094 189.441406 L 287.839844 228.242188 L 266.136719 250.214844 C 265.695312 250.65625 265.476562 251.230469 265.519531 251.808594 C 265.519531 252.429688 265.785156 252.960938 266.226562 253.402344 L 296.222656 281.085938 C 297.105469 281.925781 298.515625 281.839844 299.355469 280.953125 C 300.191406 280.066406 300.105469 278.648438 299.222656 277.808594 L 270.902344 251.675781 L 293.445312 228.863281 C 293.972656 228.332031 294.195312 227.535156 294.015625 226.824219 C 293.839844 226.074219 293.3125 225.496094 292.605469 225.230469 L 176.410156 183.59375 C 175.617188 183.285156 174.6875 183.507812 174.070312 184.125 C 173.453125 184.746094 173.277344 185.675781 173.585938 186.472656 L 219.199219 302.613281 C 219.464844 303.320312 220.082031 303.808594 220.832031 303.984375 C 221.582031 304.117188 222.332031 303.898438 222.863281 303.320312 L 245.449219 279.402344 L 273.902344 306.464844 C 274.34375 306.863281 274.871094 307.085938 275.402344 307.085938 C 276.019531 307.175781 276.59375 306.953125 277.035156 306.464844 Z M 159.558594 172.699219 C 160.398438 171.8125 160.398438 170.441406 159.515625 169.554688 L 128.855469 139.523438 C 127.972656 138.679688 126.605469 138.679688 125.722656 139.566406 C 124.886719 140.453125 124.886719 141.828125 125.765625 142.710938 L 156.425781 172.742188 C 156.867188 173.140625 157.398438 173.363281 157.96875 173.363281 C 158.542969 173.363281 159.117188 173.140625 159.558594 172.699219 Z M 149.457031 199.628906 C 149.457031 198.390625 148.484375 197.414062 147.25 197.414062 L 107.371094 197.414062 C 106.136719 197.414062 105.164062 198.390625 105.164062 199.628906 C 105.164062 200.871094 106.136719 201.84375 107.371094 201.84375 L 147.25 201.84375 C 148.441406 201.84375 149.457031 200.871094 149.457031 199.628906 Z M 184.042969 162.601562 C 182.804688 162.601562 181.835938 161.625 181.835938 160.386719 L 181.835938 121.890625 C 181.835938 120.652344 182.804688 119.675781 184.042969 119.675781 C 185.277344 119.675781 186.246094 120.652344 186.246094 121.890625 L 186.246094 160.386719 C 186.246094 161.582031 185.234375 162.601562 184.042969 162.601562 "/>
</g>
</g>
</svg>
