<?xml version="1.0" encoding="UTF-8"?>
<svg xmlns="http://www.w3.org/2000/svg" xmlns:xlink="http://www.w3.org/1999/xlink" width="375pt" height="374.999991pt" viewBox="0 0 375 374.999991" version="1.2">
<defs>
<clipPath id="clip1">
  <path d="M 109.566406 145 L 159 145 L 159 239 L 109.566406 239 Z M 109.566406 145 "/>
</clipPath>
<clipPath id="clip2">
  <path d="M 158 144.234375 L 210 144.234375 L 210 240 L 158 240 Z M 158 144.234375 "/>
</clipPath>
<clipPath id="clip3">
  <path d="M 188 235 L 210 235 L 210 243.984375 L 188 243.984375 Z M 188 235 "/>
</clipPath>
</defs>
<g id="surface1">
<g clip-path="url(#clip1)" clip-rule="nonzero">
<path style=" stroke:none;fill-rule:nonzero;fill:rgb(12.159729%,40.779114%,23.139954%);fill-opacity:1;" d="M 146.273438 199.53125 C 145.515625 199.414062 144.738281 199.265625 143.972656 199.128906 C 144.230469 199.019531 144.511719 198.949219 144.820312 198.792969 C 145.417969 198.785156 146.003906 198.789062 146.574219 198.8125 C 146.511719 199.042969 146.394531 199.285156 146.273438 199.53125 Z M 143.71875 191.96875 C 143.359375 191.929688 142.960938 191.890625 142.644531 191.917969 C 142.800781 191.757812 142.9375 191.570312 143.019531 191.5 C 143.273438 191.664062 143.527344 191.820312 143.785156 191.976562 C 143.761719 191.976562 143.742188 191.972656 143.71875 191.96875 Z M 140.789062 194.726562 C 140.144531 194.523438 139.503906 194.292969 138.859375 194.078125 C 138.152344 194.164062 137.449219 194.222656 136.75 194.226562 C 136.046875 194.234375 135.347656 194.203125 134.667969 194.058594 C 134.816406 193.769531 134.96875 193.578125 135.125 193.449219 C 134.632812 193.546875 134.140625 193.585938 133.652344 193.582031 C 133.484375 193.742188 133.316406 193.914062 133.148438 194.089844 C 133.214844 193.960938 133.367188 193.773438 133.476562 193.578125 C 132.722656 193.566406 131.992188 193.402344 131.269531 193.230469 C 130.546875 193.058594 129.847656 192.820312 129.15625 192.613281 C 129.273438 192.617188 129.371094 192.375 129.457031 192.175781 C 129.378906 192.1875 129.300781 192.1875 129.21875 192.1875 C 129 192.257812 128.777344 192.3125 128.574219 192.304688 C 128.808594 192.15625 129.011719 192.179688 129.21875 192.1875 C 129.3125 192.15625 129.402344 192.125 129.492188 192.09375 C 129.570312 191.917969 129.640625 191.808594 129.714844 192.011719 C 130.132812 191.867188 130.5 191.796875 130.722656 192.09375 C 131.152344 192.664062 131.65625 192.667969 132.144531 192.632812 C 132.628906 192.601562 133.097656 192.535156 133.5 192.945312 C 133.695312 193.097656 133.617188 193.339844 133.476562 193.578125 L 133.652344 193.582031 C 134.035156 193.210938 134.40625 192.921875 134.753906 192.914062 C 135.132812 192.984375 135.507812 193.082031 135.886719 193.167969 L 136.113281 193.152344 L 135.996094 193.195312 C 136.957031 193.429688 137.90625 193.769531 138.859375 194.078125 C 139.441406 194.011719 140.023438 193.945312 140.605469 193.875 C 139.570312 193.511719 138.496094 193.417969 137.503906 192.800781 C 138.238281 192.230469 139.011719 191.878906 139.769531 191.859375 C 139.285156 191.75 138.792969 191.683594 138.300781 191.613281 C 138.152344 191.503906 138 191.394531 137.863281 191.257812 C 138.050781 191.3125 138.238281 191.367188 138.425781 191.421875 C 139.105469 191.597656 139.777344 191.765625 140.445312 191.917969 C 140.988281 191.949219 141.539062 192.007812 142.101562 192.132812 C 142.078125 192.171875 142.0625 192.21875 142.054688 192.269531 C 142.007812 192.761719 141.960938 193.25 142.003906 193.738281 C 141.539062 193.769531 141.070312 193.820312 140.605469 193.875 C 141.171875 194.0625 141.726562 194.332031 142.265625 194.800781 C 142.324219 194.933594 142.390625 195.0625 142.472656 195.195312 C 141.910156 195.054688 141.351562 194.898438 140.789062 194.726562 Z M 135.945312 222.339844 C 135.9375 222.546875 135.933594 222.753906 135.933594 222.957031 C 134.964844 222.894531 134.007812 222.828125 133.058594 222.769531 C 133.292969 222.753906 133.410156 222.5 133.519531 222.289062 C 133.359375 222.3125 133.203125 222.328125 133.042969 222.339844 C 132.613281 222.445312 132.1875 222.539062 131.769531 222.5625 C 132.191406 222.378906 132.617188 222.367188 133.042969 222.339844 C 133.214844 222.292969 133.390625 222.246094 133.5625 222.203125 C 133.667969 222.015625 133.78125 221.898438 133.996094 222.085938 C 134.796875 221.875 135.539062 221.738281 136.089844 222 C 136.121094 222.019531 136.15625 222.027344 136.1875 222.042969 C 136.042969 222.105469 135.949219 222.199219 135.945312 222.339844 Z M 127.148438 189.292969 C 126.128906 189.328125 125.125 189.246094 124.1875 188.988281 C 123.714844 188.867188 123.273438 188.660156 122.863281 188.394531 C 122.453125 188.128906 122.070312 187.796875 121.738281 187.378906 C 121.125 186.570312 120.683594 185.445312 120.507812 183.929688 C 120.703125 184.183594 120.941406 184.40625 121.277344 184.554688 L 124.574219 186.117188 C 125.730469 186.347656 126.832031 186.089844 127.675781 187.542969 C 127.773438 187.585938 127.871094 187.628906 127.964844 187.671875 C 128.183594 187.625 128.421875 187.371094 128.632812 187.390625 C 129.515625 187.78125 129.605469 188.511719 130.703125 188.203125 C 130.6875 188.355469 130.632812 188.464844 130.5625 188.550781 C 130.902344 188.40625 131.351562 188.753906 131.753906 188.4375 C 131.75 188.492188 131.746094 188.546875 131.742188 188.601562 C 131.480469 188.742188 131.21875 188.867188 130.953125 188.972656 C 130.679688 189.078125 130.398438 189.164062 130.121094 189.226562 C 129.644531 189.210938 129.152344 189.226562 128.652344 189.253906 C 128.15625 189.265625 127.652344 189.277344 127.148438 189.292969 Z M 120.753906 231.832031 C 120.789062 231.808594 120.824219 231.777344 120.859375 231.734375 C 120.859375 231.746094 120.859375 231.757812 120.859375 231.769531 C 120.832031 231.796875 120.789062 231.8125 120.753906 231.832031 Z M 157.464844 235.84375 C 157.464844 235.839844 157.46875 235.835938 157.472656 235.832031 C 157.796875 235.824219 158.125 235.816406 158.449219 235.808594 L 158.449219 235.695312 C 158.167969 235.675781 157.886719 235.65625 157.605469 235.628906 C 157.65625 235.5625 157.699219 235.53125 157.730469 235.5625 C 157.976562 235.574219 158.214844 235.589844 158.449219 235.609375 L 158.449219 156.03125 C 157.996094 155.976562 157.539062 155.917969 157.089844 155.859375 C 156.441406 155.769531 155.796875 155.679688 155.160156 155.566406 C 154.523438 155.453125 153.890625 155.34375 153.265625 155.234375 C 153.46875 155.238281 153.59375 154.992188 153.707031 154.792969 C 153.566406 154.804688 153.429688 154.804688 153.292969 154.800781 C 152.914062 154.871094 152.539062 154.925781 152.179688 154.917969 C 152.558594 154.769531 152.925781 154.792969 153.292969 154.800781 C 153.445312 154.769531 153.597656 154.742188 153.753906 154.710938 C 153.855469 154.53125 153.964844 154.425781 154.132812 154.632812 C 154.839844 154.488281 155.484375 154.421875 155.933594 154.714844 C 156.765625 155.273438 157.621094 155.292969 158.449219 155.261719 L 158.449219 150.746094 C 158.046875 150.902344 157.640625 151.046875 157.230469 151.175781 C 156.75 151.328125 156.269531 151.460938 155.78125 151.574219 C 155.300781 151.675781 154.8125 151.757812 154.320312 151.816406 C 153.453125 151.796875 152.570312 151.808594 151.671875 151.828125 C 150.777344 151.839844 149.875 151.839844 148.964844 151.839844 C 148.511719 151.835938 148.054688 151.832031 147.601562 151.828125 L 146.921875 151.808594 L 146.246094 151.761719 C 145.347656 151.695312 144.453125 151.597656 143.578125 151.449219 C 142.699219 151.3125 141.851562 151.078125 141.03125 150.785156 C 140.214844 150.492188 139.425781 150.128906 138.679688 149.675781 C 137.207031 148.738281 135.917969 147.421875 134.9375 145.628906 C 135.597656 147.738281 137.597656 148.609375 138.359375 150.734375 L 137.839844 151.242188 C 137.917969 152.132812 138.707031 152.78125 139.0625 153.402344 C 138.804688 153.660156 138.625 153.355469 138.449219 153.046875 C 138.625 153.351562 138.625 153.351562 138.804688 153.660156 C 138.367188 153.609375 137.851562 153.410156 137.335938 153.125 C 136.820312 152.84375 136.296875 152.523438 135.820312 152.292969 C 134.871094 151.832031 134.113281 151.722656 133.992188 153.007812 C 133.867188 154.289062 134.558594 155.1875 135.546875 155.945312 C 136.039062 156.324219 136.605469 156.675781 137.179688 157.007812 C 137.757812 157.328125 138.339844 157.644531 138.867188 157.992188 C 137.75 158.585938 136.671875 158.410156 135.636719 158.023438 C 134.597656 157.652344 133.585938 157.144531 132.542969 157.136719 C 132.890625 157.765625 132.96875 158.644531 133.605469 159.027344 L 136.011719 160.585938 C 136.886719 160.800781 137.746094 160.511719 138.304688 161.929688 C 138.378906 161.972656 138.453125 162.011719 138.523438 162.054688 C 138.695312 162 138.894531 161.742188 139.054688 161.761719 C 139.710938 162.125 139.742188 162.847656 140.605469 162.515625 C 140.585938 162.667969 140.539062 162.777344 140.476562 162.863281 C 140.75 162.710938 141.074219 163.050781 141.398438 162.726562 C 141.367188 163.015625 141.335938 163.300781 141.351562 163.539062 C 141.671875 163.6875 141.996094 163.835938 142.320312 163.980469 C 141.777344 164.164062 141.300781 164.433594 140.921875 164.824219 L 144.289062 164.824219 C 140.921875 166.210938 137.550781 164.824219 134.183594 165.285156 C 134.183594 166.210938 134.183594 166.675781 133.0625 167.136719 C 135.308594 167.136719 138.675781 166.675781 140.921875 167.136719 L 140.921875 168.523438 C 138.675781 168.988281 135.308594 168.0625 133.0625 168.523438 C 133.0625 168.988281 133.0625 169.914062 133.0625 170.375 C 133.0625 170.835938 131.9375 170.835938 130.816406 170.835938 C 131.9375 170.835938 134.183594 170.835938 135.308594 170.835938 C 135.308594 171.300781 135.308594 172.226562 135.308594 172.6875 C 135.308594 173.152344 134.183594 173.152344 133.0625 173.152344 C 133.0625 174.078125 131.9375 175.003906 133.0625 175.464844 C 134.183594 175.464844 135.308594 175.464844 136.429688 175.464844 C 134.566406 175.65625 133.09375 176.167969 132.003906 176.800781 C 131.445312 176.671875 130.894531 176.53125 130.351562 176.371094 C 129.207031 176.039062 128.097656 175.640625 127.035156 175.152344 C 124.910156 174.175781 122.976562 172.84375 121.347656 171.007812 C 122.570312 173.160156 125.441406 174.050781 126.707031 176.210938 L 126.054688 176.714844 C 126.167969 177.183594 126.53125 177.601562 126.929688 177.984375 C 126.289062 178.089844 125.886719 178.230469 125.648438 178.394531 C 125.574219 178.449219 125.523438 178.507812 125.476562 178.570312 C 123.328125 177.722656 121.0625 176.554688 121.0625 178.472656 C 121.058594 181.066406 125.1875 182.101562 128.078125 183.578125 C 125.230469 184.707031 122.398438 182.660156 119.664062 182.640625 C 119.976562 183.019531 120.179688 183.480469 120.46875 183.875 C 120.460938 185.679688 121.328125 186.464844 121.351562 188.410156 L 120.960938 188.917969 C 120.835938 189.773438 121.171875 190.390625 121.265625 190.984375 C 121.070312 191.242188 121.019531 190.945312 120.972656 190.648438 C 121.019531 190.945312 121.019531 190.945312 121.070312 191.242188 C 120.566406 191.175781 120.042969 190.40625 119.582031 189.988281 C 119.121094 189.566406 118.699219 189.484375 118.359375 190.71875 C 118.019531 191.957031 118.253906 192.804688 118.707031 193.515625 C 118.929688 193.875 119.210938 194.199219 119.496094 194.511719 C 119.785156 194.816406 120.082031 195.117188 120.339844 195.449219 C 119.5625 196.042969 118.933594 195.875 118.367188 195.523438 C 117.796875 195.183594 117.277344 194.710938 116.636719 194.71875 C 116.722656 195.320312 116.59375 196.164062 116.917969 196.527344 C 117.3125 197.019531 117.71875 197.511719 118.128906 198 C 118.636719 198.203125 119.214844 197.914062 119.324219 199.292969 L 119.441406 199.410156 C 119.554688 199.355469 119.722656 199.105469 119.820312 199.121094 C 120.167969 199.472656 120.070312 200.179688 120.664062 199.847656 C 120.628906 199.996094 120.582031 200.101562 120.527344 200.1875 C 120.722656 200.035156 120.871094 200.371094 121.125 200.054688 C 121.058594 200.335938 120.996094 200.617188 120.96875 200.847656 C 121.421875 201.222656 121.886719 201.582031 122.363281 201.917969 C 122.605469 202.089844 122.847656 202.25 123.09375 202.40625 C 123.339844 202.554688 123.589844 202.691406 123.839844 202.824219 C 124.140625 202.972656 124.445312 203.113281 124.746094 203.242188 C 125.023438 203.25 125.296875 203.292969 125.570312 203.410156 C 125.714844 203.421875 125.945312 202.871094 126.039062 202.734375 C 126.328125 203.179688 126.625 203.625 127.015625 203.933594 C 127.105469 203.792969 127.25 203.800781 127.433594 203.523438 C 127.472656 203.773438 127.523438 203.988281 127.585938 204.179688 C 128.121094 204.308594 128.65625 204.4375 129.175781 204.527344 L 129.183594 204.460938 C 129.957031 204.375 130.890625 205.03125 131.664062 204.773438 C 131.796875 204.859375 131.929688 204.945312 132.0625 205.03125 C 131.988281 205.519531 131.875 206.242188 131.8125 206.632812 C 131.742188 207.089844 130.640625 206.917969 129.535156 206.742188 C 129.421875 207.417969 128.707031 207.980469 128.75 208.488281 C 128.507812 208.492188 128.269531 208.492188 128.03125 208.496094 C 125.140625 208.515625 122.257812 208.535156 119.378906 208.554688 C 118.722656 208.660156 118.3125 208.796875 118.066406 208.960938 C 117.824219 209.128906 117.742188 209.316406 117.742188 209.515625 C 117.746094 209.921875 118.066406 210.382812 118.066406 210.847656 C 120.683594 210.882812 123.300781 210.808594 125.753906 210.839844 C 125.957031 210.84375 126.160156 210.851562 126.363281 210.855469 C 125.578125 211.363281 125.113281 211.957031 125.015625 212.476562 C 126.246094 212.242188 125.992188 213.605469 127.226562 213.371094 C 123.550781 214.082031 119.621094 215.207031 124.230469 216.5625 C 128.148438 217.492188 132.09375 218.1875 136.039062 218.753906 C 135.335938 218.957031 134.625 219.132812 133.90625 219.269531 C 125.753906 219.789062 116.425781 222.394531 109.722656 216.210938 C 111.097656 218.132812 113.675781 218.546875 115.050781 220.46875 L 114.570312 221.074219 C 114.871094 221.917969 115.917969 222.425781 116.457031 222.964844 C 116.214844 223.269531 115.945312 223 115.675781 222.726562 C 115.945312 222.996094 115.945312 222.996094 116.214844 223.269531 C 114.175781 223.398438 110.226562 221.0625 110.609375 223.625 C 110.992188 226.1875 114.589844 226.53125 117.195312 227.515625 C 114.972656 229.09375 112.339844 227.539062 110.0625 227.96875 C 110.601562 228.511719 110.898438 229.351562 111.675781 229.589844 L 114.625 230.59375 C 115.609375 230.632812 116.488281 230.199219 117.375 231.492188 C 117.460938 231.519531 117.546875 231.546875 117.632812 231.574219 C 117.804688 231.488281 117.96875 231.199219 118.144531 231.1875 C 118.925781 231.429688 119.089844 232.132812 119.960938 231.648438 C 119.96875 231.800781 119.9375 231.917969 119.882812 232.015625 C 120.074219 231.867188 120.34375 231.976562 120.589844 231.910156 C 119.917969 232.1875 118.765625 232.003906 118.144531 232.464844 C 119.925781 232.804688 121.496094 233.011719 123.128906 233.089844 C 123.242188 233.113281 123.351562 233.140625 123.464844 233.167969 L 120.34375 233.257812 C 121.410156 233.226562 122.503906 233.214844 123.621094 233.203125 C 124.644531 233.433594 125.675781 233.636719 126.714844 233.800781 C 127.292969 233.890625 127.867188 233.964844 128.429688 234.03125 C 128.914062 233.984375 129.410156 233.96875 129.921875 234.03125 C 130.175781 234.011719 130.402344 233.425781 130.523438 233.273438 C 131.179688 233.660156 131.839844 234.050781 132.617188 234.289062 C 132.738281 234.140625 132.992188 234.121094 133.234375 233.820312 C 133.375 234.054688 133.53125 234.261719 133.691406 234.4375 C 134.667969 234.480469 135.632812 234.507812 136.589844 234.535156 L 136.589844 234.464844 C 137.953125 234.277344 139.75 234.800781 141.09375 234.445312 C 141.484375 234.558594 141.882812 234.667969 142.277344 234.777344 C 142.214844 234.546875 142.203125 234.257812 142.1875 233.96875 C 142.058594 234.128906 141.90625 234.167969 141.753906 234.171875 C 142.007812 234.015625 142.234375 233.804688 142.421875 233.523438 C 142.78125 234.0625 143.191406 234.445312 143.632812 234.707031 C 144.726562 234.753906 145.824219 234.820312 146.925781 234.917969 C 147.015625 234.71875 146.9375 234.445312 146.929688 234.242188 C 147.289062 234.414062 147.652344 234.636719 148.015625 234.851562 C 147.367188 234.964844 146.722656 235.089844 146.074219 235.238281 C 143.953125 235.574219 143.484375 236.382812 143.742188 237.09375 C 144.003906 237.800781 145.011719 238.421875 145.871094 238.402344 C 150.222656 238.300781 154.371094 238.644531 158.449219 238.871094 L 158.449219 235.835938 C 158.121094 235.839844 157.789062 235.839844 157.464844 235.84375 "/>
</g>
<path style=" stroke:none;fill-rule:nonzero;fill:rgb(93.328857%,13.729858%,19.60907%);fill-opacity:1;" d="M 231.597656 205.335938 C 231.792969 205.316406 231.988281 205.296875 232.1875 205.28125 C 232.828125 205.246094 233.46875 205.25 234.097656 205.207031 C 234.71875 205.183594 235.339844 205.105469 235.9375 204.9375 C 235.894531 204.46875 235.863281 204.121094 235.945312 203.820312 C 236.761719 203.777344 237.582031 203.714844 238.40625 203.667969 C 240.515625 203.546875 242.632812 203.460938 244.695312 203.582031 C 245.722656 203.65625 246.746094 203.730469 247.75 203.886719 C 248.75 204.042969 249.734375 204.269531 250.691406 204.59375 C 250.898438 204.664062 251.101562 204.738281 251.304688 204.816406 C 244.695312 204.777344 238.121094 204.992188 231.597656 205.335938 Z M 255.476562 204.878906 C 254.375 204.851562 253.273438 204.835938 252.167969 204.828125 C 251.667969 204.457031 251.207031 204.035156 250.839844 203.5 L 251.324219 202.902344 C 251.039062 202.054688 250.019531 201.53125 249.503906 200.980469 C 249.746094 200.679688 250.003906 200.957031 250.261719 201.230469 C 250.003906 200.957031 250.003906 200.957031 249.746094 200.679688 C 251.734375 200.582031 255.601562 202.976562 255.234375 200.414062 C 254.863281 197.84375 251.375 197.441406 248.878906 196.417969 C 251.054688 194.878906 253.566406 196.472656 255.773438 196.078125 C 255.253906 195.527344 254.972656 194.683594 254.222656 194.429688 L 251.40625 193.382812 C 250.464844 193.328125 249.613281 193.746094 248.796875 192.441406 C 248.734375 192.421875 248.671875 192.398438 248.609375 192.378906 C 248.671875 191.8125 248.90625 191.457031 249.898438 191.101562 C 249.257812 191.097656 248.511719 191.136719 247.78125 191.152344 C 247.410156 191.160156 247.03125 191.171875 246.644531 191.183594 C 246.269531 191.191406 245.890625 191.195312 245.511719 191.203125 C 245.363281 191.203125 245.21875 191.203125 245.074219 191.203125 C 243.882812 190.8125 242.683594 190.457031 241.476562 190.152344 L 241.476562 189.554688 C 242.050781 189.449219 242.679688 189.417969 243.375 189.449219 C 244.074219 189.484375 244.796875 189.558594 245.558594 189.640625 C 245.933594 189.679688 246.3125 189.71875 246.683594 189.757812 C 247.0625 189.789062 247.4375 189.8125 247.804688 189.828125 C 248.53125 189.863281 249.261719 189.828125 249.890625 189.714844 C 249.886719 189.25 249.882812 188.324219 249.878906 187.863281 C 249.875 187.476562 250.769531 187.40625 251.800781 187.359375 C 251.621094 187.363281 251.429688 187.367188 251.226562 187.375 C 250.800781 187.386719 250.335938 187.410156 249.875 187.402344 C 249.414062 187.402344 248.953125 187.398438 248.53125 187.398438 C 248.117188 187.390625 247.734375 187.382812 247.433594 187.378906 C 247.441406 186.914062 247.460938 185.988281 247.472656 185.527344 C 247.484375 185.0625 248.675781 185.09375 249.863281 185.085938 C 249.867188 184.164062 251.003906 183.234375 249.847656 182.773438 C 248.703125 182.78125 247.539062 182.753906 246.351562 182.722656 C 247.238281 182.664062 248.03125 182.527344 248.726562 182.339844 L 248.847656 182.324219 C 249.144531 182.285156 249.441406 182.246094 249.738281 182.199219 C 249.871094 182.183594 250.066406 182.144531 250.238281 182.109375 L 250.765625 181.996094 C 251.082031 181.898438 251.363281 181.800781 251.613281 181.703125 C 251.917969 181.578125 252.1875 181.457031 252.421875 181.339844 C 252.894531 181.101562 253.234375 180.886719 253.46875 180.703125 C 253.597656 180.46875 253.589844 180.265625 253.507812 180.082031 C 253.363281 179.742188 252.984375 179.449219 252.785156 179.074219 C 252.832031 178.867188 252.851562 178.664062 252.832031 178.484375 C 251.902344 179.015625 251.84375 177.644531 250.855469 178.128906 C 251.039062 178.035156 251.222656 177.941406 251.410156 177.851562 C 251.5 177.800781 251.589844 177.753906 251.679688 177.707031 C 251.769531 177.65625 251.84375 177.601562 251.925781 177.550781 C 252.25 177.339844 252.550781 177.128906 252.824219 176.921875 C 252.964844 176.820312 253.078125 176.710938 253.179688 176.597656 C 253.285156 176.488281 253.382812 176.382812 253.46875 176.277344 C 253.644531 176.070312 253.78125 175.871094 253.871094 175.683594 C 253.921875 175.589844 253.945312 175.503906 253.988281 175.414062 C 254.03125 175.324219 254.058594 175.238281 254.0625 175.15625 C 254.078125 174.996094 254.011719 174.863281 253.855469 174.757812 C 253.746094 174.636719 253.585938 174.539062 253.363281 174.46875 C 253.253906 174.433594 253.128906 174.40625 252.984375 174.386719 C 252.914062 174.378906 252.839844 174.371094 252.757812 174.367188 C 252.671875 174.355469 252.570312 174.347656 252.46875 174.339844 C 250.734375 174.410156 248.511719 174.300781 245.914062 174.15625 C 244.628906 174.085938 243.191406 174.015625 241.664062 173.984375 C 241.472656 173.976562 241.300781 173.972656 241.125 173.972656 L 240.601562 173.972656 L 239.554688 173.96875 L 237.457031 173.964844 C 236.054688 173.976562 234.65625 174 233.257812 174.042969 C 233.375 173.589844 233.363281 173.140625 233 172.6875 C 231.878906 171.300781 227.386719 172.226562 226.261719 171.300781 C 222.890625 170.375 228.507812 169.914062 231.878906 169.914062 C 230.757812 168.988281 234.125 169.914062 234.125 168.988281 C 234.125 168.457031 234.125 167.925781 234.015625 167.402344 C 234.222656 167.46875 234.429688 167.535156 234.632812 167.609375 C 236.601562 168.347656 238.429688 169.480469 240.015625 171.132812 C 238.761719 169.125 236.144531 168.527344 234.828125 166.519531 L 235.363281 165.945312 C 235.101562 165.074219 234.035156 164.523438 233.496094 163.953125 C 233.761719 163.664062 234.03125 163.949219 234.300781 164.230469 C 234.03125 163.949219 234.03125 163.949219 233.761719 163.664062 C 234.839844 163.640625 236.375 164.300781 237.605469 164.632812 C 238.835938 164.964844 239.769531 164.96875 239.660156 163.679688 C 239.554688 162.390625 238.558594 161.59375 237.246094 160.972656 C 236.589844 160.664062 235.851562 160.390625 235.109375 160.140625 C 234.367188 159.894531 233.621094 159.652344 232.941406 159.375 C 235.390625 157.886719 238.113281 159.660156 240.566406 159.386719 C 240.035156 158.808594 239.777344 157.949219 238.957031 157.652344 L 235.851562 156.4375 C 234.792969 156.335938 233.828125 156.730469 232.941406 155.394531 C 232.847656 155.359375 232.757812 155.328125 232.667969 155.296875 C 232.472656 155.371094 232.285156 155.652344 232.09375 155.65625 C 231.265625 155.378906 231.117188 154.664062 230.160156 155.101562 C 230.15625 154.949219 230.195312 154.835938 230.253906 154.742188 C 229.957031 154.929688 229.527344 154.625 229.195312 154.984375 C 229.1875 154.695312 229.183594 154.40625 229.125 154.175781 C 228.109375 153.886719 227.089844 153.617188 226.054688 153.375 C 225.539062 153.25 225.023438 153.136719 224.5 153.027344 C 223.984375 152.925781 223.464844 152.832031 222.941406 152.746094 C 222.316406 152.652344 221.703125 152.5625 221.09375 152.488281 C 220.574219 152.527344 220.039062 152.535156 219.488281 152.460938 C 219.214844 152.476562 218.964844 153.058594 218.835938 153.210938 C 218.132812 152.816406 217.429688 152.425781 216.597656 152.179688 C 216.464844 152.332031 216.191406 152.347656 215.933594 152.648438 C 215.78125 152.410156 215.617188 152.203125 215.445312 152.027344 C 214.394531 151.980469 213.355469 151.941406 212.335938 151.925781 L 212.335938 151.992188 C 211.589844 152.089844 210.722656 152.003906 209.859375 151.945312 L 209.859375 232.578125 C 211.140625 232.511719 212.421875 232.453125 213.691406 232.441406 C 214.339844 232.433594 214.984375 232.4375 215.628906 232.460938 C 216.273438 232.496094 216.914062 232.550781 217.554688 232.628906 C 217.3125 232.910156 217.050781 233.101562 216.773438 233.230469 C 217.675781 233.132812 218.589844 233.128906 219.492188 233.15625 C 219.785156 233.007812 220.078125 232.839844 220.371094 232.675781 C 220.257812 232.800781 220 232.980469 219.816406 233.171875 C 222.625 233.320312 225.394531 233.929688 228.097656 234.375 C 227.878906 234.371094 227.75 234.613281 227.625 234.8125 C 227.773438 234.804688 227.925781 234.800781 228.074219 234.808594 C 228.484375 234.742188 228.890625 234.691406 229.277344 234.703125 C 228.871094 234.847656 228.472656 234.820312 228.074219 234.808594 C 227.90625 234.835938 227.738281 234.867188 227.574219 234.894531 C 227.460938 235.070312 227.34375 235.179688 227.160156 234.96875 C 226.394531 235.101562 225.695312 235.167969 225.214844 234.851562 C 224.296875 234.242188 223.355469 234.207031 222.4375 234.210938 C 221.527344 234.214844 220.648438 234.257812 219.847656 233.808594 C 219.472656 233.644531 219.589844 233.402344 219.816406 233.171875 C 219.710938 233.167969 219.601562 233.164062 219.492188 233.15625 C 218.828125 233.511719 218.164062 233.777344 217.519531 233.773438 C 216.808594 233.695312 216.105469 233.589844 215.402344 233.496094 L 214.988281 233.511719 L 215.195312 233.46875 C 214.300781 233.351562 213.40625 233.214844 212.476562 233.0625 C 211.601562 232.921875 210.730469 232.765625 209.859375 232.605469 L 209.859375 233.296875 C 210.722656 233.4375 211.582031 233.609375 212.425781 233.875 C 211.605469 234.234375 210.742188 234.492188 209.859375 234.640625 L 209.859375 234.96875 C 210.246094 235 210.632812 235.035156 211.019531 235.066406 C 211.738281 235.328125 212.453125 235.59375 212.941406 236.15625 C 212.015625 235.960938 211.238281 235.9375 210.496094 236.214844 C 211.289062 236.34375 212.089844 236.484375 212.898438 236.636719 L 213.5 236.753906 L 214.066406 236.871094 C 214.441406 236.953125 214.820312 237.035156 215.199219 237.117188 C 215.347656 237.140625 215.492188 237.171875 215.640625 237.21875 C 215.492188 237.179688 215.34375 237.148438 215.199219 237.117188 C 214.359375 236.980469 213.542969 237.085938 212.585938 237.097656 C 211.660156 237.109375 210.738281 237.035156 209.859375 236.539062 L 209.859375 242.554688 C 210.519531 242.429688 211.183594 242.320312 211.84375 242.210938 C 212.144531 242.273438 212.476562 242.335938 212.8125 242.390625 C 212.980469 242.417969 213.15625 242.441406 213.316406 242.460938 C 213.464844 242.480469 213.609375 242.5 213.75 242.511719 C 214.316406 242.5625 214.832031 242.539062 215.144531 242.386719 C 216.816406 241.214844 218.664062 240.140625 220.675781 239.351562 C 222.667969 238.546875 224.789062 237.992188 226.960938 237.78125 C 227.925781 237.8125 228.90625 237.820312 229.917969 237.796875 C 230.421875 237.785156 230.929688 237.773438 231.4375 237.761719 C 231.953125 237.738281 232.46875 237.71875 232.984375 237.699219 C 234.007812 237.671875 235.066406 237.601562 236.101562 237.585938 C 236.621094 237.574219 237.148438 237.546875 237.667969 237.542969 C 238.191406 237.53125 238.707031 237.550781 239.234375 237.539062 C 240.285156 237.527344 241.3125 237.59375 242.363281 237.648438 C 242.890625 237.679688 243.410156 237.742188 243.933594 237.804688 C 244.460938 237.851562 244.988281 237.921875 245.519531 238.011719 C 245.785156 238.058594 246.046875 238.109375 246.316406 238.164062 C 246.582031 238.214844 246.855469 238.257812 247.125 238.3125 C 247.667969 238.421875 248.214844 238.554688 248.769531 238.714844 C 248.90625 238.753906 249.046875 238.796875 249.183594 238.835938 C 249.328125 238.875 249.46875 238.910156 249.609375 238.949219 C 249.894531 239.023438 250.179688 239.105469 250.46875 239.195312 C 251.046875 239.378906 251.632812 239.585938 252.234375 239.820312 C 251.695312 239.472656 251.109375 239.226562 250.507812 239.035156 C 250.207031 238.9375 249.902344 238.851562 249.597656 238.777344 C 249.445312 238.738281 249.292969 238.699219 249.140625 238.660156 C 248.992188 238.617188 248.839844 238.570312 248.691406 238.523438 C 248.089844 238.339844 247.503906 238.152344 246.960938 237.90625 C 246.691406 237.78125 246.429688 237.652344 246.1875 237.484375 C 245.949219 237.3125 245.722656 237.125 245.515625 236.90625 L 245.917969 236.246094 C 245.492188 235.449219 244.402344 235.070312 243.832031 234.59375 C 244.035156 234.265625 244.316406 234.503906 244.609375 234.742188 C 244.324219 234.503906 244.324219 234.503906 244.03125 234.265625 C 244.480469 234.179688 245.046875 234.21875 245.644531 234.289062 C 246.503906 234.882812 247.25 235.566406 247.847656 236.332031 C 247.464844 235.550781 246.789062 234.902344 245.980469 234.320312 C 246.566406 234.371094 247.179688 234.429688 247.722656 234.441406 C 247.875 234.445312 248.023438 234.441406 248.160156 234.4375 C 248.300781 234.425781 248.433594 234.402344 248.554688 234.375 C 248.796875 234.324219 249.003906 234.242188 249.15625 234.128906 C 249.460938 233.902344 249.535156 233.535156 249.277344 232.945312 C 249.023438 232.347656 248.625 231.933594 248.148438 231.636719 C 247.910156 231.484375 247.65625 231.378906 247.378906 231.265625 C 247.101562 231.148438 246.804688 231.058594 246.503906 230.980469 C 245.898438 230.816406 245.265625 230.738281 244.613281 230.585938 C 244.292969 230.515625 243.972656 230.449219 243.660156 230.378906 C 243.347656 230.3125 243.042969 230.234375 242.75 230.125 C 242.859375 230.015625 242.976562 229.925781 243.09375 229.839844 C 243.203125 229.75 243.320312 229.671875 243.4375 229.601562 C 243.667969 229.464844 243.910156 229.363281 244.152344 229.292969 C 244.261719 229.261719 244.371094 229.238281 244.480469 229.21875 C 244.722656 229.28125 244.957031 229.34375 245.1875 229.40625 C 246.109375 229.652344 246.90625 229.828125 247.464844 229.800781 C 248.023438 229.761719 248.371094 229.492188 248.355469 228.832031 C 248.351562 228.804688 248.347656 228.777344 248.34375 228.746094 C 248.425781 228.710938 248.511719 228.679688 248.589844 228.636719 C 248.484375 228.5625 248.378906 228.472656 248.277344 228.378906 C 248.136719 227.902344 247.800781 227.464844 247.304688 227.050781 C 246.652344 226.535156 245.730469 226.070312 244.664062 225.695312 C 244.132812 225.5 243.5625 225.347656 242.976562 225.179688 C 242.621094 225.089844 242.261719 225.003906 241.902344 224.921875 C 242.332031 224.730469 242.710938 224.484375 243.023438 224.171875 C 241.761719 224.226562 240.5 224.273438 239.230469 224.351562 C 240.570312 223.785156 241.921875 223.582031 243.28125 223.523438 C 243.464844 223.550781 243.648438 223.574219 243.832031 223.597656 C 246.007812 223.917969 248.15625 224.523438 250.246094 224.824219 C 249.816406 224.429688 249.503906 223.992188 249.109375 223.589844 C 249.597656 223.566406 250.089844 223.527344 250.578125 223.457031 C 250.558594 222.53125 250.542969 222.070312 251.804688 221.570312 C 250.539062 221.605469 248.957031 221.765625 247.375 221.863281 C 246.753906 221.902344 246.132812 221.933594 245.53125 221.953125 C 244.84375 221.746094 244.152344 221.550781 243.464844 221.371094 C 243.675781 221.371094 243.894531 221.367188 244.105469 221.363281 C 245.234375 221.144531 245.507812 220.796875 245.507812 220.390625 C 245.507812 220.347656 245.503906 220.296875 245.496094 220.253906 C 246.09375 220.253906 246.710938 220.273438 247.328125 220.304688 C 248.917969 220.378906 250.511719 220.449219 251.777344 220.183594 C 251.769531 219.722656 251.75 218.792969 251.742188 218.332031 C 251.734375 217.902344 252.808594 217.859375 253.972656 217.84375 C 253.351562 217.851562 252.542969 217.855469 251.730469 217.871094 C 250.773438 217.898438 249.8125 217.921875 249.171875 217.941406 C 249.160156 217.480469 249.136719 216.554688 249.125 216.09375 C 249.109375 215.628906 250.398438 215.59375 251.6875 215.558594 C 251.667969 214.628906 252.949219 213.683594 251.644531 213.246094 C 250.34375 213.28125 249.050781 213.316406 247.753906 213.351562 C 250.339844 213.050781 252.269531 212.296875 253.566406 211.488281 C 254.859375 210.664062 255.511719 209.734375 255.507812 209.039062 C 254.195312 209.515625 254.179688 208.128906 252.867188 208.605469 C 253.851562 208.246094 254.839844 207.859375 255.6875 207.472656 C 255.824219 207.59375 255.964844 207.710938 256.097656 207.839844 C 255.996094 207.695312 255.886719 207.5625 255.773438 207.433594 C 258.246094 206.296875 259.421875 205.183594 255.476562 204.878906 "/>
<path style=" stroke:none;fill-rule:nonzero;fill:rgb(93.328857%,13.729858%,19.60907%);fill-opacity:1;" d="M 209.859375 236.527344 C 210.070312 236.394531 210.28125 236.292969 210.496094 236.214844 C 210.28125 236.179688 210.070312 236.152344 209.859375 236.121094 L 209.859375 236.527344 "/>
<g clip-path="url(#clip2)" clip-rule="nonzero">
<path style=" stroke:none;fill-rule:nonzero;fill:rgb(100%,100%,100%);fill-opacity:1;" d="M 196.296875 151.636719 C 196.277344 151.59375 196.257812 151.554688 196.234375 151.515625 C 196.289062 151.523438 196.34375 151.535156 196.394531 151.539062 C 196.363281 151.570312 196.328125 151.601562 196.296875 151.636719 Z M 188.085938 162.972656 C 187.984375 162.988281 187.882812 162.996094 187.785156 163.007812 C 187.382812 162.867188 186.984375 162.703125 186.59375 162.511719 C 187.546875 162.59375 188.507812 162.691406 189.464844 162.796875 C 189.003906 162.855469 188.542969 162.910156 188.085938 162.972656 Z M 177.921875 231.328125 C 178.296875 231.1875 178.675781 231.078125 179.0625 230.992188 C 178.1875 230.921875 177.316406 230.859375 176.445312 230.796875 C 176.65625 230.78125 176.871094 230.765625 177.082031 230.75 C 178.109375 230.671875 179.132812 230.585938 180.152344 230.492188 C 180.800781 230.4375 181.441406 230.375 182.085938 230.308594 C 182.589844 230.457031 183.054688 230.636719 183.441406 230.871094 C 181.773438 230.703125 180.378906 230.695312 179.0625 230.992188 C 181.925781 231.210938 184.832031 231.480469 187.78125 231.773438 C 184.570312 231.542969 181.132812 232.28125 177.921875 231.328125 Z M 177.894531 237.386719 C 178.21875 237.351562 178.546875 237.308594 178.871094 237.273438 C 179.378906 237.363281 179.898438 237.414062 180.453125 237.421875 Z M 178.878906 161.945312 C 178.902344 161.949219 178.925781 161.953125 178.949219 161.953125 C 179.4375 161.921875 179.914062 161.851562 180.351562 161.6875 C 179.839844 162.355469 179.152344 162.863281 178.597656 163.496094 C 178.300781 163.496094 178.007812 163.496094 177.710938 163.496094 C 178.035156 162.664062 178.425781 162.214844 178.878906 161.945312 Z M 180.523438 161.4375 C 180.476562 161.507812 180.4375 161.578125 180.390625 161.640625 C 179.929688 161.707031 179.46875 161.785156 179.011719 161.875 C 179.457031 161.648438 179.960938 161.5625 180.523438 161.4375 Z M 161.695312 231.578125 C 161.589844 231.402344 161.492188 231.238281 161.414062 231.082031 C 161.460938 231.082031 161.503906 231.085938 161.550781 231.085938 L 163.070312 231.109375 L 163.828125 231.117188 L 164.605469 231.121094 C 165.652344 231.117188 166.691406 231.117188 167.734375 231.113281 C 168.777344 231.101562 169.816406 231.109375 170.859375 231.058594 C 171.292969 231.042969 171.726562 231.023438 172.160156 231.003906 C 172.675781 231.089844 173.171875 231.222656 173.648438 231.429688 C 169.761719 231.726562 165.746094 231.667969 161.695312 231.578125 Z M 206.28125 231.945312 C 207.429688 232.152344 208.582031 232.371094 209.742188 232.585938 C 209.78125 232.582031 209.820312 232.582031 209.859375 232.578125 L 209.859375 151.945312 C 209.039062 151.886719 208.226562 151.851562 207.53125 152.027344 C 207.113281 151.917969 206.691406 151.8125 206.269531 151.707031 C 206.335938 151.9375 206.355469 152.226562 206.371094 152.515625 C 206.507812 152.351562 206.667969 152.316406 206.828125 152.308594 C 206.558594 152.464844 206.320312 152.675781 206.128906 152.960938 C 205.738281 152.425781 205.300781 152.046875 204.832031 151.789062 C 204.898438 151.785156 204.964844 151.78125 205.03125 151.777344 C 204.804688 151.699219 204.558594 151.71875 204.304688 151.765625 C 203.316406 151.730469 202.324219 151.679688 201.335938 151.609375 C 201.238281 151.808594 201.324219 152.082031 201.335938 152.285156 C 200.890625 152.089844 200.441406 151.832031 199.992188 151.585938 C 200.304688 151.128906 201.03125 151.421875 201.394531 150.902344 C 200.207031 150.496094 199.203125 150.296875 198.085938 150.316406 C 198.164062 150.308594 198.242188 150.304688 198.320312 150.296875 C 198.289062 150.292969 198.257812 150.292969 198.226562 150.289062 L 200.230469 150.128906 C 199.453125 150.191406 198.644531 150.21875 197.820312 150.253906 C 196.089844 150.09375 194.425781 149.996094 192.78125 149.945312 C 192.953125 150.121094 193.117188 150.320312 193.269531 150.558594 C 193.519531 150.253906 193.785156 150.234375 193.910156 150.082031 C 194.25 150.175781 194.566406 150.300781 194.871094 150.4375 C 194.425781 150.484375 193.980469 150.550781 193.535156 150.625 C 193.292969 150.617188 193.039062 150.613281 192.765625 150.617188 C 192 150.207031 191.253906 148.476562 190.171875 150.074219 C 190.859375 150.257812 191.554688 150.445312 192.25 150.628906 C 191.621094 150.648438 190.941406 150.691406 190.257812 150.746094 C 190.121094 150.953125 190.011719 151.136719 189.949219 151.074219 C 189.835938 151.074219 189.722656 151.066406 189.609375 151.0625 C 189.8125 150.976562 190.011719 150.886719 190.210938 150.789062 C 188.429688 150.679688 186.648438 150.5625 184.863281 150.042969 C 185.332031 149.890625 185.863281 149.851562 186.421875 149.859375 C 187.539062 149.875 188.753906 150.078125 189.746094 149.941406 L 189.746094 149.875 C 188.503906 149.859375 187.277344 149.84375 186.050781 149.828125 C 185.710938 149.824219 185.371094 149.816406 185.027344 149.804688 C 185.160156 149.773438 185.296875 149.738281 185.429688 149.703125 C 184.046875 149.738281 182.738281 149.65625 181.3125 149.753906 C 181.316406 149.726562 181.324219 149.710938 181.328125 149.691406 C 180.550781 149.695312 179.773438 149.640625 178.996094 149.539062 C 179 149.527344 179.003906 149.511719 179.011719 149.5 C 178.703125 149.472656 178.394531 149.4375 178.085938 149.402344 C 177.570312 149.3125 177.050781 149.207031 176.539062 149.085938 C 174.957031 148.714844 173.390625 148.238281 171.867188 147.757812 C 173.125 145.972656 173.824219 148.523438 174.703125 148.464844 C 175.894531 148.246094 177.089844 148.175781 178.261719 148.136719 C 179.4375 148.085938 180.585938 148.078125 181.679688 148 C 180.804688 148.0625 179.929688 148.125 179.054688 148.1875 C 180.367188 148.09375 181.46875 148.304688 182.808594 148.78125 C 182.402344 149.375 181.542969 148.902344 181.328125 149.691406 C 183.144531 149.691406 184.976562 149.339844 186.765625 148.476562 C 188.945312 147.730469 187.714844 145.242188 186.832031 145.3125 C 182.417969 145.65625 178.464844 144.222656 174.402344 145.324219 C 173.4375 145.820312 172.484375 146.140625 171.519531 146.414062 C 170.554688 146.671875 169.582031 146.878906 168.621094 147.050781 C 167.546875 146.804688 166.050781 146.570312 165.40625 146.878906 C 164.542969 147.488281 163.679688 148.046875 162.785156 148.589844 C 161.894531 149.125 160.980469 149.632812 160.054688 150.070312 C 159.527344 150.316406 158.992188 150.539062 158.449219 150.746094 L 158.449219 155.261719 C 158.476562 155.261719 158.503906 155.261719 158.53125 155.257812 C 159.386719 155.226562 160.210938 155.160156 160.976562 155.570312 C 161.339844 155.722656 161.234375 155.964844 161.027344 156.207031 C 161.128906 156.207031 161.226562 156.207031 161.332031 156.207031 C 161.953125 155.832031 162.574219 155.542969 163.1875 155.53125 C 163.867188 155.601562 164.542969 155.695312 165.21875 155.773438 L 165.613281 155.757812 L 165.414062 155.800781 C 167.140625 156.027344 168.84375 156.355469 170.546875 156.648438 C 171.566406 156.574219 172.582031 156.496094 173.605469 156.421875 C 172.679688 156.25 171.746094 156.136719 170.816406 156 C 169.882812 155.859375 168.949219 155.699219 168.042969 155.390625 C 169.289062 154.8125 170.632812 154.445312 171.984375 154.417969 C 171.113281 154.316406 170.234375 154.253906 169.351562 154.191406 C 168.6875 153.9375 168.027344 153.667969 167.585938 153.109375 C 168.433594 153.300781 169.152344 153.328125 169.835938 153.035156 C 168.367188 152.800781 166.894531 152.480469 165.394531 152.152344 C 166.214844 152.289062 167.066406 152.183594 167.917969 152.167969 C 168.765625 152.15625 169.617188 152.222656 170.429688 152.707031 C 170.234375 152.84375 170.039062 152.949219 169.835938 153.035156 C 171.164062 153.246094 172.480469 153.421875 173.792969 153.542969 C 175.105469 153.65625 176.414062 153.722656 177.71875 153.730469 C 177.027344 152.914062 176.148438 152.96875 175.242188 153.058594 C 174.339844 153.148438 173.402344 153.28125 172.621094 152.597656 C 175.464844 152.160156 178.4375 152.398438 181.421875 152.398438 C 182.347656 152.398438 183.273438 152.378906 184.195312 152.304688 C 184.3125 152.921875 184.988281 153.847656 185.554688 154.679688 C 184.941406 154.734375 184.332031 154.785156 183.738281 154.714844 C 184.433594 154.835938 185.117188 154.949219 185.804688 155.058594 C 186.152344 155.601562 186.402344 156.066406 186.339844 156.332031 C 185.492188 158.695312 184.160156 158.566406 182.382812 158.953125 C 182.433594 158.855469 182.480469 158.757812 182.539062 158.667969 C 183 158.585938 183.460938 158.480469 183.925781 158.359375 C 183.859375 158.351562 183.792969 158.347656 183.726562 158.339844 C 183.320312 158.378906 182.929688 158.453125 182.566406 158.625 C 183.003906 157.925781 183.589844 157.398438 184.050781 156.730469 C 180.570312 155.992188 177.089844 156.148438 173.605469 156.421875 C 174.910156 156.652344 176.191406 157.011719 177.417969 157.769531 C 176.273438 157.628906 175.128906 157.457031 173.984375 157.265625 C 172.839844 157.078125 171.695312 156.855469 170.546875 156.648438 C 169.308594 156.75 168.078125 156.8125 166.847656 156.824219 C 165.621094 156.839844 164.390625 156.820312 163.175781 156.679688 C 163.398438 156.390625 163.648438 156.195312 163.910156 156.0625 C 163.046875 156.167969 162.1875 156.207031 161.332031 156.207031 C 161.058594 156.371094 160.789062 156.546875 160.515625 156.722656 C 160.617188 156.59375 160.855469 156.402344 161.027344 156.207031 C 160.160156 156.203125 159.300781 156.125 158.449219 156.03125 L 158.449219 235.609375 C 158.691406 235.632812 158.929688 235.664062 159.164062 235.707031 C 160.761719 235.507812 162.238281 235.226562 163.066406 234.9375 C 163.195312 234.855469 163.253906 234.730469 163.261719 234.578125 C 167.320312 234.988281 171.355469 235.652344 175.3125 236.273438 C 172.878906 238.054688 171.394531 235.503906 169.679688 235.542969 C 167.710938 235.710938 165.730469 235.777344 163.78125 235.804688 C 163.769531 235.785156 163.757812 235.773438 163.746094 235.753906 C 163.738281 235.773438 163.722656 235.789062 163.710938 235.804688 C 161.921875 235.828125 160.160156 235.824219 158.449219 235.835938 L 158.449219 238.871094 C 162.4375 239.09375 166.363281 239.210938 170.351562 238.691406 C 172.851562 238.0625 175.367188 237.691406 177.882812 237.390625 C 180.207031 237.4375 182.738281 237.753906 185.261719 237.4375 C 186.21875 237.429688 186.90625 240.007812 188.371094 238.273438 C 187.230469 237.910156 186.085938 237.535156 184.929688 237.191406 C 186.253906 237.246094 187.484375 237.226562 188.175781 237.046875 C 191.492188 235.792969 194.925781 234.609375 198.488281 233.640625 C 199.539062 233.355469 200.601562 233.089844 201.675781 232.84375 C 203.269531 232.890625 204.871094 232.84375 206.46875 232.761719 C 205.800781 232.632812 205.136719 232.472656 204.488281 232.253906 C 205.082031 232.144531 205.679688 232.039062 206.28125 231.945312 "/>
</g>
<g clip-path="url(#clip3)" clip-rule="nonzero">
<path style=" stroke:none;fill-rule:nonzero;fill:rgb(100%,100%,100%);fill-opacity:1;" d="M 209.859375 236.539062 C 209.855469 236.535156 209.855469 236.535156 209.847656 236.53125 C 209.855469 236.53125 209.855469 236.53125 209.859375 236.527344 L 209.859375 236.121094 C 207.203125 235.703125 204.589844 235.429688 201.984375 235.324219 C 203.421875 237.015625 205.792969 235.214844 207.46875 236.605469 C 205.925781 236.792969 204.34375 236.808594 202.75 236.75 C 201.160156 236.683594 199.550781 236.558594 197.941406 236.484375 C 196.332031 236.414062 194.726562 236.394531 193.132812 236.546875 C 191.53125 236.675781 189.945312 236.972656 188.378906 237.558594 C 190.53125 237.820312 192.695312 238.121094 194.839844 238.917969 C 194.433594 238.765625 193.949219 238.886719 193.480469 238.972656 C 194.980469 239.011719 196.382812 239.167969 197.941406 239.136719 C 197.9375 239.15625 197.929688 239.175781 197.921875 239.195312 C 199.667969 239.261719 201.402344 239.582031 203.125 240.011719 C 204.847656 240.429688 206.554688 240.957031 208.242188 241.457031 C 206.824219 243.21875 206.078125 240.660156 205.121094 240.6875 C 202.492188 241.058594 199.859375 240.808594 197.464844 240.867188 C 198.425781 240.847656 199.378906 240.828125 200.339844 240.804688 C 198.902344 240.835938 197.707031 240.578125 196.269531 240.035156 C 196.738281 239.464844 197.65625 239.972656 197.921875 239.195312 C 195.945312 239.109375 193.964844 239.371094 191.957031 240.113281 C 189.546875 240.703125 190.730469 243.273438 191.699219 243.269531 C 192.917969 243.269531 194.085938 243.335938 195.238281 243.464844 C 196.390625 243.585938 197.523438 243.75 198.648438 243.886719 C 200.894531 244.164062 203.113281 244.335938 205.390625 243.835938 C 206.878906 243.195312 208.371094 242.832031 209.859375 242.554688 L 209.859375 236.539062 "/>
</g>
<path style=" stroke:none;fill-rule:nonzero;fill:rgb(100%,100%,100%);fill-opacity:1;" d="M 209.859375 234.640625 C 209.304688 234.738281 208.742188 234.789062 208.179688 234.792969 C 208.738281 234.863281 209.296875 234.917969 209.859375 234.96875 L 209.859375 234.640625 "/>
<path style=" stroke:none;fill-rule:nonzero;fill:rgb(100%,100%,100%);fill-opacity:1;" d="M 209.742188 232.585938 C 208.652344 232.644531 207.5625 232.703125 206.46875 232.761719 C 207.589844 232.976562 208.726562 233.109375 209.859375 233.296875 L 209.859375 232.605469 C 209.820312 232.597656 209.78125 232.59375 209.742188 232.585938 "/>
<path style=" stroke:none;fill-rule:nonzero;fill:rgb(100%,100%,100%);fill-opacity:1;" d="M 158.449219 235.695312 L 158.449219 235.808594 C 159.339844 235.789062 160.230469 235.769531 161.121094 235.746094 C 160.191406 235.769531 159.3125 235.75 158.449219 235.695312 "/>
</g>
</svg>
