<?xml version="1.0" encoding="UTF-8"?>
<svg xmlns="http://www.w3.org/2000/svg" xmlns:xlink="http://www.w3.org/1999/xlink" width="375pt" height="374.999991pt" viewBox="0 0 375 374.999991" version="1.2">
<defs>
<clipPath id="clip1">
  <path d="M 41.582031 145.585938 L 365.386719 145.585938 L 365.386719 274.414062 L 41.582031 274.414062 Z M 41.582031 145.585938 "/>
</clipPath>
<clipPath id="clip2">
  <path d="M 30 38 L 362 38 L 362 352.335938 L 30 352.335938 Z M 30 38 "/>
</clipPath>
<clipPath id="clip3">
  <path d="M 25.757812 43 L 358 43 L 358 348 L 25.757812 348 Z M 25.757812 43 "/>
</clipPath>
</defs>
<g id="surface1">
<path style=" stroke:none;fill-rule:nonzero;fill:rgb(100%,100%,100%);fill-opacity:1;" d="M 351.046875 272.652344 C 350.855469 276.675781 350.925781 278.75 351.296875 278.8125 C 351.554688 278.875 351.867188 278.121094 352.300781 276.550781 C 354.125 280.695312 355.382812 282.707031 356.144531 282.519531 C 357.019531 282.269531 357.144531 278.9375 356.457031 272.402344 C 354.628906 272.464844 352.867188 272.527344 351.046875 272.652344 Z M 27.007812 287.734375 C 26.691406 288.804688 26.378906 290.375 26.25 292.386719 C 26.125 295.214844 26.566406 297.976562 27.007812 297.976562 C 27.320312 297.976562 27.382812 296.34375 28.640625 294.332031 C 29.144531 293.578125 29.648438 293.015625 29.960938 292.636719 C 30.464844 293.578125 30.839844 294.019531 31.09375 293.957031 C 31.535156 293.832031 31.535156 291.882812 31.09375 288.050781 Z M 86.292969 250.03125 C 87.113281 249.464844 88.179688 248.710938 89.253906 247.832031 C 90.324219 246.886719 90.566406 246.574219 90.511719 246.257812 C 90.441406 245.128906 87.550781 244.5 87.300781 244.4375 C 90.636719 241.796875 91.320312 240.855469 91.195312 240.605469 C 90.949219 240.164062 87.550781 241.105469 85.730469 243.683594 C 84.40625 245.503906 84.28125 247.515625 84.28125 248.523438 C 84.910156 249.023438 85.605469 249.527344 86.292969 250.03125 Z M 51.902344 243.871094 C 50.332031 244.75 48.886719 245.066406 47.941406 245.191406 C 47.1875 245.503906 46.683594 246.132812 46.558594 246.886719 C 46.433594 247.832031 47 248.773438 47.941406 249.148438 L 47.941406 255.308594 C 48.007812 255.433594 48.761719 256.441406 50.140625 256.503906 C 51.589844 256.566406 52.472656 255.371094 52.53125 255.308594 L 52.53125 251.351562 C 53.855469 250.972656 54.542969 250.28125 54.921875 249.839844 C 56.179688 248.332031 56.179688 246.324219 56.117188 242.992188 C 56.117188 241.734375 55.992188 240.730469 55.929688 240.039062 C 55.363281 240.855469 54.167969 242.613281 51.902344 243.871094 Z M 241.902344 78.722656 C 241.40625 78.28125 241.148438 77.78125 241.023438 77.46875 C 241.023438 77.339844 240.902344 76.523438 240.148438 75.957031 C 239.261719 75.394531 238.320312 75.707031 238.261719 75.707031 C 237.761719 76.082031 236.558594 76.773438 234.863281 76.964844 C 233.234375 77.152344 231.976562 76.710938 231.402344 76.460938 C 231.53125 77.339844 231.789062 78.910156 232.917969 80.480469 C 233.414062 81.238281 234.617188 82.871094 236.875 83.375 C 238.703125 83.8125 240.207031 83.25 240.835938 82.996094 C 241.09375 84.125 241.335938 85.257812 241.589844 86.324219 C 242.035156 86.324219 243.292969 86.199219 244.234375 85.257812 C 245.492188 83.9375 245.621094 81.613281 244.363281 79.601562 C 243.921875 79.667969 242.847656 79.539062 241.902344 78.722656 Z M 341.375 310.484375 L 339.800781 273.910156 L 317.226562 273.46875 L 315.839844 310.421875 L 319.496094 335.242188 L 326.410156 335.242188 L 325.523438 308.160156 L 328.855469 286.792969 L 333.132812 311.992188 L 338.914062 331.976562 L 346.144531 331.976562 Z M 295.601562 95.125 L 304.964844 77.40625 L 301.382812 75.582031 L 289.316406 92.488281 L 271.769531 90.039062 C 271.398438 89.910156 267.871094 88.714844 265.480469 90.539062 C 262.910156 92.550781 262.398438 97.640625 265.796875 101.726562 C 276.230469 101.660156 286.605469 101.660156 297.050781 101.597656 L 315.09375 101.597656 L 314.339844 96.320312 Z M 48.390625 301.433594 C 48.324219 301.75 47.886719 303.886719 47.316406 306.714844 Z M 57.441406 294.523438 C 58.320312 302.503906 59.203125 310.484375 60.082031 318.464844 L 56.5 347.058594 L 50.527344 347.058594 L 50.527344 319.847656 C 49.457031 315.511719 48.324219 311.175781 47.257812 306.839844 C 45.9375 313.75 43.859375 324.875 43.859375 324.875 L 37.761719 344.167969 L 31.097656 344.167969 L 35.875 321.542969 L 36.253906 293.894531 C 38.957031 293.203125 42.855469 292.449219 47.632812 292.699219 C 51.660156 292.886719 54.992188 293.703125 57.441406 294.523438 Z M 141.566406 47.304688 C 139.734375 46.296875 138.296875 45.164062 137.285156 44.222656 C 137.09375 44.535156 134.335938 48.808594 136.277344 52.457031 C 136.59375 53.019531 137.09375 53.773438 137.980469 54.464844 C 137.722656 56.414062 137.476562 58.300781 137.285156 60.246094 C 137.351562 60.371094 138.226562 62.070312 140.113281 62.257812 C 141.566406 62.445312 143.011719 61.628906 143.765625 60.3125 C 143.695312 58.675781 143.570312 56.980469 143.507812 55.34375 C 144.011719 54.90625 145.023438 53.902344 145.527344 52.265625 C 145.964844 50.886719 145.839844 49.6875 145.707031 49.125 C 144.515625 48.746094 143.066406 48.183594 141.566406 47.304688 Z M 240.015625 85.699219 C 241.21875 88.777344 242.40625 91.855469 243.605469 94.933594 C 242.21875 95.378906 240.777344 95.816406 239.386719 96.191406 C 233.730469 96.445312 229.078125 96.757812 225.871094 97.007812 C 220.402344 97.449219 215.441406 97.953125 215.371094 97.511719 C 215.371094 97.324219 216 97.074219 216.570312 96.949219 C 213.671875 96.820312 212.226562 96.632812 212.226562 96.378906 C 212.171875 95.753906 219.457031 94.621094 234.042969 93.113281 C 234.734375 92.734375 235.558594 92.234375 236.308594 91.542969 C 238.578125 89.40625 239.578125 87.078125 240.015625 85.699219 "/>
<path style=" stroke:none;fill-rule:nonzero;fill:rgb(5.879211%,5.488586%,4.708862%);fill-opacity:1;" d="M 273.277344 79.414062 C 270.191406 76.335938 265.921875 80.042969 260.761719 77.214844 C 256.300781 74.765625 256.492188 70.304688 252.40625 69.613281 C 250.070312 69.234375 249.820312 70.617188 246.433594 70.871094 C 240.957031 71.308594 238.816406 67.851562 235.242188 68.542969 C 233.410156 68.921875 230.894531 70.429688 228.511719 76.082031 L 231.902344 78.597656 C 231.585938 77.78125 231.46875 77.027344 231.398438 76.527344 C 231.972656 76.777344 233.230469 77.214844 234.855469 77.027344 C 236.554688 76.839844 237.753906 76.148438 238.257812 75.769531 C 238.316406 75.707031 239.257812 75.394531 240.144531 76.023438 C 240.898438 76.527344 241.019531 77.40625 241.019531 77.53125 C 241.144531 77.84375 241.402344 78.347656 241.898438 78.785156 C 242.839844 79.667969 243.917969 79.730469 244.289062 79.730469 C 245.105469 80.984375 245.355469 82.433594 245.105469 83.625 L 245.671875 83.8125 C 246.558594 82.621094 247.746094 82.433594 247.746094 82.433594 C 248.945312 82.367188 250.519531 82.496094 251.460938 83.5625 C 252.019531 84.128906 252.214844 84.820312 252.148438 86.265625 L 264.847656 91.105469 C 268.996094 92.046875 272.964844 90.222656 274.410156 87.082031 C 275.597656 84.632812 275.164062 81.300781 273.277344 79.414062 Z M 233.984375 92.988281 Z M 213.164062 96.191406 C 213.738281 96.257812 214.738281 96.382812 216.566406 96.445312 C 216.75 96.445312 216.9375 96.636719 216.9375 96.820312 C 216.9375 97.011719 216.882812 97.136719 216.75 97.261719 C 218.140625 97.199219 220.464844 97.011719 222.785156 96.820312 C 223.796875 96.761719 224.796875 96.636719 225.808594 96.570312 C 230.210938 96.257812 234.730469 95.941406 239.328125 95.753906 L 243.097656 94.621094 L 240.074219 86.832031 C 239.257812 88.714844 238.070312 90.410156 236.554688 91.734375 C 235.871094 92.363281 235.046875 92.925781 234.171875 93.363281 C 234.101562 93.363281 234.039062 93.429688 234.039062 93.429688 C 219.769531 94.9375 214.738281 95.753906 213.164062 96.191406 Z M 216.378906 98.078125 C 215.179688 98.078125 214.925781 97.890625 214.863281 97.578125 C 214.863281 97.449219 214.863281 97.324219 214.925781 97.261719 C 211.976562 97.074219 211.71875 96.761719 211.71875 96.382812 C 211.664062 95.753906 211.664062 95 233.855469 92.675781 C 234.613281 92.238281 235.359375 91.734375 235.988281 91.164062 C 237.628906 89.722656 238.886719 87.773438 239.640625 85.574219 C 239.699219 85.382812 239.832031 85.324219 240.011719 85.324219 C 240.199219 85.324219 240.328125 85.449219 240.390625 85.574219 L 243.972656 94.8125 C 244.042969 94.9375 244.042969 95.0625 243.972656 95.125 C 243.917969 95.25 243.847656 95.3125 243.726562 95.3125 L 239.515625 96.570312 L 239.382812 96.570312 C 234.800781 96.761719 230.265625 97.011719 225.867188 97.390625 C 224.796875 97.449219 223.796875 97.578125 222.855469 97.640625 C 219.453125 97.890625 217.511719 98.078125 216.378906 98.078125 "/>
<path style=" stroke:none;fill-rule:nonzero;fill:rgb(100%,100%,100%);fill-opacity:1;" d="M 161.925781 265.804688 L 326.777344 265.804688 C 334.824219 265.804688 341.496094 259.203125 341.496094 251.097656 L 341.496094 112.660156 C 341.496094 104.613281 334.894531 97.953125 326.777344 97.953125 L 79.058594 97.953125 C 71.015625 97.953125 64.351562 104.550781 64.351562 112.660156 L 64.351562 251.160156 C 64.351562 259.203125 70.953125 265.867188 79.0625 265.867188 L 146.59375 265.867188 M 161.925781 265.804688 L 153.195312 265.804688 "/>
<path style=" stroke:none;fill-rule:nonzero;fill:rgb(32.548523%,76.078796%,54.508972%);fill-opacity:1;" d="M 137.214844 60.25 C 134.890625 60.5 130.300781 61.378906 125.773438 64.648438 C 119.046875 69.484375 116.972656 76.273438 116.410156 78.347656 L 116.410156 90.285156 L 126.402344 95.3125 L 155.324219 95.3125 C 158.726562 93.238281 162.050781 91.164062 165.453125 89.09375 C 165.136719 85.699219 164.753906 82.308594 164.441406 78.851562 C 164.3125 77.53125 163.371094 69.109375 155.953125 63.894531 C 150.921875 60.375 145.648438 60.25 143.761719 60.3125 C 143.007812 61.695312 141.5625 62.449219 140.109375 62.257812 C 138.160156 62.074219 137.277344 60.375 137.214844 60.25 Z M 173.367188 291.128906 L 221.28125 291.128906 L 221.28125 261.71875 L 173.367188 261.71875 Z M 265.160156 89.910156 C 261.074219 87.964844 258.0625 85.890625 256.042969 84.253906 C 252.53125 81.488281 249.890625 78.535156 246.488281 78.976562 C 245.613281 79.101562 244.859375 79.414062 244.414062 79.667969 C 245.488281 80.925781 245.734375 82.683594 245.042969 84.128906 C 244.414062 85.386719 243.097656 86.265625 241.648438 86.328125 C 241.402344 85.195312 241.144531 84.066406 240.898438 82.996094 C 240.457031 83.125 240.011719 83.25 239.640625 83.375 C 239.515625 83.8125 239.382812 84.441406 239.257812 85.324219 C 238.886719 88.214844 238.441406 91.292969 240.074219 93.179688 C 240.457031 93.617188 241.457031 94.496094 243.535156 94.75 C 243.917969 95 244.355469 95.316406 244.789062 95.566406 C 244.789062 94.621094 244.726562 90.039062 244.789062 86.640625 C 244.859375 82.871094 247.6875 82.433594 247.6875 82.433594 C 248.878906 82.367188 250.449219 82.496094 251.390625 83.5625 C 252.460938 84.632812 252.214844 86.140625 251.273438 92.171875 C 250.699219 95.441406 250.386719 97.324219 250.136719 98.457031 C 251.148438 98.960938 252.214844 99.398438 253.402344 99.839844 C 257.875 101.597656 261.960938 102.414062 265.105469 102.855469 C 265.664062 101.851562 266.921875 99.464844 266.867188 96.195312 C 266.921875 93.242188 265.734375 90.917969 265.160156 89.910156 Z M 31.96875 117.308594 L 31.96875 175.3125 L 75.726562 175.3125 L 75.726562 132.769531 L 60.765625 117.308594 Z M 310.113281 245.570312 L 104.082031 245.570312 C 99.9375 245.570312 96.539062 242.175781 96.539062 238.027344 L 96.539062 123.71875 C 96.539062 119.570312 99.9375 116.179688 104.082031 116.179688 L 310.113281 116.179688 C 314.265625 116.179688 317.660156 119.570312 317.660156 123.71875 L 317.660156 237.964844 C 317.660156 242.175781 314.265625 245.570312 310.113281 245.570312 "/>
<g clip-path="url(#clip1)" clip-rule="nonzero">
<path style=" stroke:none;fill-rule:nonzero;fill:rgb(100%,100%,100%);fill-opacity:1;" d="M 365.386719 240.730469 L 365.386719 152.75 C 365.386719 148.917969 362.300781 145.839844 358.46875 145.839844 L 229.953125 145.839844 C 226.125 145.839844 223.035156 148.917969 223.035156 152.75 L 223.035156 240.730469 C 223.035156 244.5625 226.125 247.640625 229.953125 247.640625 L 358.46875 247.640625 C 362.300781 247.578125 365.386719 244.5 365.386719 240.730469 Z M 143.566406 274.160156 L 49.328125 274.160156 C 45.109375 274.160156 41.652344 270.703125 41.652344 266.496094 L 41.652344 210 C 41.652344 205.789062 45.109375 202.332031 49.324219 202.332031 L 143.5625 202.332031 C 147.777344 202.332031 151.234375 205.789062 151.234375 210 L 151.234375 266.496094 C 151.234375 270.703125 147.84375 274.160156 143.5625 274.160156 "/>
</g>
<path style=" stroke:none;fill-rule:nonzero;fill:rgb(100%,100%,100%);fill-opacity:1;" d="M 141.433594 159.851562 L 111.257812 159.851562 C 108.988281 159.851562 107.101562 157.96875 107.101562 155.703125 L 107.101562 153.066406 C 107.101562 150.804688 108.988281 148.917969 111.257812 148.917969 L 141.433594 148.917969 C 143.691406 148.917969 145.578125 150.804688 145.578125 153.066406 L 145.578125 155.703125 C 145.578125 158.03125 143.691406 159.851562 141.433594 159.851562 Z M 198.335938 227.847656 L 154.066406 227.847656 L 154.066406 221.121094 L 198.335938 221.121094 Z M 218.382812 207.675781 L 154.066406 207.675781 C 153.878906 206.730469 153.3125 204.53125 151.425781 202.585938 C 148.722656 199.757812 145.207031 199.570312 144.445312 199.570312 L 114.769531 199.570312 L 114.769531 194.101562 L 121.316406 194.101562 C 124.328125 189.136719 129.546875 182.222656 137.40625 180.777344 C 148.164062 178.832031 153.191406 189.136719 163.878906 187.503906 C 176.574219 185.492188 178.53125 169.65625 188.835938 170.097656 C 197.574219 170.472656 201.21875 182.097656 209.777344 180.96875 C 213.738281 180.464844 216.691406 177.386719 218.382812 175.058594 Z M 307.789062 126.546875 C 307.789062 128.496094 306.21875 130.066406 304.273438 130.066406 C 302.320312 130.066406 300.746094 128.496094 300.746094 126.546875 C 300.746094 124.597656 302.320312 123.027344 304.273438 123.027344 C 306.21875 123.027344 307.789062 124.597656 307.789062 126.546875 Z M 289.554688 123.027344 C 287.613281 123.027344 286.042969 124.597656 286.042969 126.546875 C 286.042969 128.496094 287.613281 130.066406 289.554688 130.066406 C 291.511719 130.066406 293.082031 128.496094 293.082031 126.546875 C 293.082031 124.597656 291.511719 123.027344 289.554688 123.027344 Z M 276.855469 126.546875 C 276.855469 128.496094 275.285156 130.066406 273.335938 130.066406 C 271.390625 130.066406 269.820312 128.496094 269.820312 126.546875 C 269.820312 124.597656 271.390625 123.027344 273.335938 123.027344 C 275.285156 123.027344 276.855469 124.597656 276.855469 126.546875 "/>
<path style=" stroke:none;fill-rule:nonzero;fill:rgb(5.879211%,5.488586%,4.708862%);fill-opacity:1;" d="M 89.9375 258.578125 L 83.402344 258.578125 L 83.402344 239.222656 L 89.9375 239.222656 Z M 78.8125 259.582031 L 72.273438 259.582031 L 72.273438 228.222656 L 78.8125 228.222656 Z M 67.242188 259.269531 L 60.703125 259.269531 L 60.703125 235.449219 L 67.242188 235.449219 Z M 342.625 224.832031 C 341.679688 228.539062 338.152344 231.367188 333.878906 231.679688 C 333.878906 230.925781 333.878906 230.171875 333.949219 229.355469 C 334.003906 228.601562 334.136719 227.910156 334.320312 227.28125 C 334.449219 227.15625 336.078125 225.773438 335.832031 223.636719 C 335.640625 222.316406 334.890625 221.5625 334.578125 221.25 C 334.261719 221.3125 332.746094 221.5625 331.363281 220.621094 C 329.601562 219.488281 329.421875 217.542969 329.351562 217.289062 C 328.792969 217.605469 327.972656 218.167969 327.152344 218.988281 L 327.152344 213.332031 C 327.660156 213.140625 333.632812 211.320312 338.40625 215.089844 C 339.035156 215.53125 343.9375 219.488281 342.625 224.832031 Z M 282.132812 219.175781 L 282.132812 198.941406 C 288.238281 202.269531 294.339844 205.539062 300.367188 208.867188 C 294.269531 212.324219 288.171875 215.71875 282.132812 219.175781 Z M 231.78125 180.777344 L 231.78125 239.347656 L 348.777344 239.347656 L 348.777344 180.777344 L 231.78125 180.777344 "/>
<path style=" stroke:none;fill-rule:nonzero;fill:rgb(32.548523%,76.078796%,54.508972%);fill-opacity:1;" d="M 145.136719 227.847656 L 124.269531 227.847656 L 124.269531 230.675781 L 145.136719 230.675781 Z M 110 222.378906 C 105.914062 222.378906 102.578125 225.710938 102.578125 229.796875 C 102.578125 233.878906 105.914062 237.210938 110 237.210938 C 114.085938 237.210938 117.410156 233.878906 117.410156 229.796875 C 117.410156 225.710938 114.085938 222.378906 110 222.378906 Z M 78.433594 204.972656 C 76.925781 204.972656 75.730469 206.167969 75.730469 207.675781 C 75.730469 209.183594 76.925781 210.378906 78.433594 210.378906 C 79.945312 210.378906 81.136719 209.183594 81.136719 207.675781 C 81.136719 206.167969 79.878906 204.972656 78.433594 204.972656 Z M 67.746094 204.972656 C 66.238281 204.972656 65.042969 206.167969 65.042969 207.675781 C 65.042969 209.183594 66.238281 210.378906 67.746094 210.378906 C 69.253906 210.378906 70.449219 209.183594 70.449219 207.675781 C 70.449219 206.167969 69.191406 204.972656 67.746094 204.972656 Z M 56.554688 204.910156 C 55.042969 204.910156 53.851562 206.105469 53.851562 207.613281 C 53.851562 209.121094 55.042969 210.3125 56.554688 210.3125 C 58.0625 210.3125 59.257812 209.121094 59.257812 207.613281 C 59.195312 206.105469 58 204.910156 56.554688 204.910156 Z M 336.707031 169.214844 L 254.847656 169.214844 L 254.847656 172.796875 L 336.707031 172.796875 Z M 303.257812 160.292969 L 254.847656 160.292969 L 254.847656 164.753906 L 303.257812 164.753906 Z M 238.066406 158.660156 C 234.609375 158.660156 231.835938 161.488281 231.835938 164.878906 C 231.835938 168.335938 234.664062 171.101562 238.066406 171.101562 C 241.457031 171.101562 244.285156 168.273438 244.285156 164.878906 C 244.285156 161.488281 241.523438 158.660156 238.066406 158.660156 Z M 146.589844 257.507812 L 104.898438 257.507812 L 104.898438 261.277344 L 146.589844 261.277344 Z M 146.589844 250.46875 L 104.898438 250.46875 L 104.898438 254.242188 L 146.589844 254.242188 Z M 146.589844 247.140625 L 104.898438 247.140625 L 104.898438 243.367188 L 146.589844 243.367188 L 146.589844 247.140625 "/>
<path style=" stroke:none;fill-rule:nonzero;fill:rgb(100%,100%,100%);fill-opacity:1;" d="M 315.089844 215.027344 C 319.292969 213.140625 321.375 211.949219 321.179688 211.507812 C 321.0625 211.195312 320.050781 211.195312 318.105469 211.507812 C 317.917969 205.914062 317.410156 203.023438 316.535156 202.898438 C 315.523438 202.773438 314.074219 206.167969 312.132812 213.015625 Z M 330.050781 220.683594 C 331.367188 221.5 332.691406 221.3125 333.007812 221.25 C 333.253906 221.5 334.007812 222.191406 334.136719 223.386719 C 334.382812 225.269531 332.882812 226.589844 332.75 226.714844 C 332.625 227.28125 332.496094 227.910156 332.433594 228.601562 C 332.183594 230.863281 332.566406 232.8125 333.007812 234.132812 C 332.308594 235.515625 330.863281 236.078125 329.738281 235.703125 C 328.726562 235.324219 328.347656 234.320312 328.292969 234.132812 L 328.292969 231.175781 C 325.582031 231.113281 324.394531 229.796875 324.136719 229.480469 C 322.003906 227.03125 323.695312 222.882812 324.953125 220.871094 C 326.089844 219.113281 327.535156 218.105469 328.347656 217.605469 C 328.292969 217.855469 328.480469 219.675781 330.050781 220.683594 "/>
<path style=" stroke:none;fill-rule:nonzero;fill:rgb(100%,100%,100%);fill-opacity:1;" d="M 126.402344 95.3125 C 123.574219 96.066406 118.417969 98.015625 115.65625 102.792969 C 114.332031 105.117188 113.898438 107.503906 114.015625 115.988281 C 114.085938 120.324219 114.332031 125.980469 114.898438 132.703125 C 117.914062 133.019531 120.871094 133.269531 123.886719 133.585938 L 125.898438 110.269531 L 141.617188 99.777344 L 155.582031 107.882812 L 155.953125 133.585938 L 165.453125 134.214844 C 166.199219 127.113281 166.765625 120.828125 167.210938 115.550781 C 167.710938 108.699219 167.839844 105.746094 166.324219 102.476562 C 164.195312 97.828125 160.226562 95.25 157.710938 93.933594 L 155.324219 95.3125 Z M 251.519531 83.5625 C 252.585938 84.695312 252.335938 86.136719 251.390625 92.171875 C 250.328125 98.769531 250.136719 99.648438 249.128906 100.53125 C 247.746094 101.722656 245.804688 101.660156 241.960938 101.535156 C 235.613281 101.285156 234.296875 99.714844 229.269531 100.214844 C 227.625 100.40625 225.550781 100.78125 225.496094 100.53125 C 225.425781 100.339844 226.496094 99.839844 227.4375 99.464844 C 222.722656 99.019531 220.339844 98.644531 220.339844 98.332031 C 220.339844 98.015625 223.101562 97.828125 228.640625 97.703125 L 244.917969 95.753906 C 244.917969 95.753906 244.859375 90.476562 244.917969 86.707031 C 244.984375 82.933594 247.816406 82.496094 247.816406 82.496094 C 249.003906 82.433594 250.574219 82.558594 251.519531 83.5625 "/>
<path style=" stroke:none;fill-rule:nonzero;fill:rgb(5.879211%,5.488586%,4.708862%);fill-opacity:1;" d="M 270.636719 123.46875 C 268.933594 123.46875 267.550781 124.851562 267.550781 126.546875 C 267.550781 128.242188 268.933594 129.625 270.636719 129.625 C 272.335938 129.625 273.710938 128.242188 273.710938 126.546875 C 273.78125 124.851562 272.335938 123.46875 270.636719 123.46875 Z M 270.636719 130.503906 C 268.4375 130.503906 266.675781 128.746094 266.675781 126.546875 C 266.675781 124.347656 268.4375 122.585938 270.636719 122.585938 C 272.839844 122.585938 274.59375 124.347656 274.59375 126.546875 C 274.59375 128.746094 272.839844 130.503906 270.636719 130.503906 "/>
<path style=" stroke:none;fill-rule:nonzero;fill:rgb(5.879211%,5.488586%,4.708862%);fill-opacity:1;" d="M 286.851562 123.46875 C 285.15625 123.46875 283.773438 124.851562 283.773438 126.546875 C 283.773438 128.242188 285.15625 129.625 286.851562 129.625 C 288.554688 129.625 289.9375 128.242188 289.9375 126.546875 C 289.996094 124.851562 288.554688 123.46875 286.851562 123.46875 Z M 286.851562 130.503906 C 284.652344 130.503906 282.898438 128.746094 282.898438 126.546875 C 282.898438 124.347656 284.652344 122.585938 286.851562 122.585938 C 289.054688 122.585938 290.8125 124.347656 290.8125 126.546875 C 290.8125 128.746094 289.054688 130.503906 286.851562 130.503906 "/>
<path style=" stroke:none;fill-rule:nonzero;fill:rgb(5.879211%,5.488586%,4.708862%);fill-opacity:1;" d="M 301.570312 123.46875 C 299.875 123.46875 298.484375 124.851562 298.484375 126.546875 C 298.484375 128.242188 299.875 129.625 301.570312 129.625 C 303.261719 129.625 304.644531 128.242188 304.644531 126.546875 C 304.714844 124.851562 303.332031 123.46875 301.570312 123.46875 Z M 301.570312 130.503906 C 299.371094 130.503906 297.601562 128.746094 297.601562 126.546875 C 297.601562 124.347656 299.371094 122.585938 301.570312 122.585938 C 303.769531 122.585938 305.53125 124.347656 305.53125 126.546875 C 305.53125 128.746094 303.769531 130.503906 301.570312 130.503906 "/>
<g clip-path="url(#clip2)" clip-rule="nonzero">
<path style=" stroke:none;fill-rule:nonzero;fill:rgb(5.879211%,5.488586%,4.708862%);fill-opacity:1;" d="M 316.90625 266.242188 C 316.90625 265.992188 316.90625 265.675781 316.972656 265.425781 L 221.214844 265.425781 C 221.214844 265.675781 221.214844 265.992188 221.152344 266.242188 L 221.722656 266.242188 C 221.78125 266.496094 221.84375 266.683594 221.910156 266.933594 L 225.238281 266.933594 L 225.238281 295.527344 L 178.144531 295.527344 L 178.144531 291.695312 C 177.902344 291.695312 177.585938 291.632812 177.328125 291.632812 L 177.328125 295.96875 C 177.328125 296.21875 177.515625 296.40625 177.769531 296.40625 L 225.683594 296.40625 C 225.929688 296.40625 226.125 296.21875 226.125 295.96875 L 226.125 266.558594 C 226.125 266.433594 226.054688 266.367188 226 266.304688 L 316.90625 266.304688 Z M 319.421875 335.242188 C 313.257812 337.253906 310.246094 338.699219 310.371094 339.515625 C 310.5625 340.585938 315.90625 340.773438 326.40625 339.957031 C 326.335938 338.386719 326.335938 336.8125 326.28125 335.242188 Z M 333.195312 221.3125 C 333.441406 221.5625 334.195312 222.253906 334.320312 223.449219 C 334.578125 225.332031 333.0625 226.652344 332.9375 226.777344 C 332.8125 227.34375 332.691406 227.972656 332.625 228.664062 C 332.566406 229.417969 332.566406 230.109375 332.566406 230.800781 C 336.464844 230.550781 339.664062 227.972656 340.550781 224.578125 C 341.738281 219.742188 337.28125 216.160156 336.710938 215.65625 C 332.378906 212.199219 326.964844 213.894531 326.460938 214.085938 L 326.460938 219.238281 C 327.222656 218.484375 327.976562 217.980469 328.410156 217.730469 C 328.410156 217.980469 328.605469 219.742188 330.234375 220.808594 C 331.554688 221.5625 332.882812 221.375 333.195312 221.3125 Z M 155.007812 255.058594 C 154.765625 255.058594 154.570312 255.246094 154.570312 255.496094 C 154.570312 255.75 154.765625 255.9375 155.007812 255.9375 L 316.464844 255.9375 C 319.609375 255.9375 322.507812 254.554688 324.519531 252.105469 C 324.636719 251.914062 324.636719 251.664062 324.449219 251.539062 C 324.261719 251.414062 324.011719 251.414062 323.890625 251.601562 C 322.0625 253.863281 319.363281 255.121094 316.535156 255.121094 L 155.007812 255.121094 Z M 221.28125 261.71875 L 173.367188 261.71875 L 197.320312 275.167969 Z M 103.894531 245.128906 L 144.761719 245.128906 L 144.761719 242.175781 L 103.894531 242.175781 Z M 103.082031 245.570312 L 103.082031 241.796875 C 103.082031 241.546875 103.265625 241.359375 103.523438 241.359375 L 145.207031 241.359375 C 145.453125 241.359375 145.648438 241.546875 145.648438 241.796875 L 145.648438 245.570312 C 145.648438 245.820312 145.453125 246.007812 145.207031 246.007812 L 103.523438 246.007812 C 103.265625 246.007812 103.082031 245.820312 103.082031 245.570312 Z M 300.371094 159.097656 L 252.777344 159.097656 L 252.777344 162.742188 L 300.371094 162.742188 Z M 301.1875 158.28125 L 301.1875 163.558594 L 251.957031 163.558594 L 251.957031 158.28125 Z M 338.722656 331.976562 C 334.007812 336.1875 331.9375 338.699219 332.496094 339.515625 C 333.195312 340.585938 337.777344 339.140625 346.328125 335.242188 C 346.015625 334.175781 345.699219 333.042969 345.386719 331.976562 Z M 103.894531 259.332031 L 144.761719 259.332031 L 144.761719 256.378906 L 103.894531 256.378906 Z M 103.082031 255.9375 C 103.082031 255.6875 103.265625 255.496094 103.523438 255.496094 L 145.207031 255.496094 C 145.453125 255.496094 145.648438 255.6875 145.648438 255.9375 L 145.648438 259.707031 C 145.648438 259.960938 145.453125 260.148438 145.207031 260.148438 L 103.523438 260.148438 C 103.265625 260.148438 103.082031 259.960938 103.082031 259.707031 Z M 346.328125 251.097656 L 341.496094 251.097656 C 341.550781 251.351562 341.496094 251.664062 341.367188 251.914062 L 346.644531 251.914062 C 346.457031 251.726562 346.398438 251.539062 346.398438 251.285156 C 346.398438 251.222656 346.328125 251.160156 346.328125 251.097656 Z M 103.894531 252.230469 L 144.761719 252.230469 L 144.761719 249.277344 L 103.894531 249.277344 Z M 103.082031 248.898438 C 103.082031 248.648438 103.265625 248.460938 103.523438 248.460938 L 145.207031 248.460938 C 145.453125 248.460938 145.648438 248.648438 145.648438 248.898438 L 145.648438 252.667969 C 145.648438 252.921875 145.453125 253.109375 145.207031 253.109375 L 103.523438 253.109375 C 103.265625 253.109375 103.082031 252.921875 103.082031 252.667969 Z M 218.382812 245.128906 C 218.140625 244.25 218.007812 243.367188 218.007812 242.425781 L 218.007812 181.46875 C 215.492188 184.488281 212.796875 186.246094 209.832031 186.625 C 205.179688 187.25 201.917969 184.234375 198.773438 181.34375 C 195.875 178.703125 192.921875 175.941406 188.902344 175.8125 C 184.054688 175.625 181.101562 179.207031 177.769531 183.355469 C 174.441406 187.503906 170.601562 192.214844 164.070312 193.222656 C 158.65625 194.101562 154.570312 191.902344 150.675781 189.765625 C 146.648438 187.566406 142.816406 185.554688 137.53125 186.496094 C 131.746094 187.566406 126.589844 191.777344 122.070312 199.128906 L 144.507812 199.128906 C 150.046875 199.128906 154.570312 203.652344 154.570312 209.183594 L 154.570312 245.191406 L 218.382812 245.191406 Z M 153.695312 209.625 C 153.695312 204.28125 149.351562 199.945312 144.007812 199.945312 L 54.726562 199.945312 C 49.324219 199.945312 44.921875 204.34375 44.921875 209.75 L 44.921875 215.40625 L 153.691406 215.40625 Z M 78.933594 178.769531 L 78.933594 136.789062 L 78.746094 136.601562 L 64.347656 136.601562 L 64.347656 121.707031 L 64.160156 121.519531 L 35.992188 121.519531 L 35.992188 178.703125 L 78.933594 178.703125 Z M 361.105469 158.785156 L 361.105469 242.425781 C 361.105469 246.574219 358.402344 250.09375 354.699219 251.414062 C 354.753906 251.097656 354.753906 250.847656 354.628906 250.53125 C 357.898438 249.277344 360.289062 246.132812 360.289062 242.425781 L 360.289062 158.785156 C 360.289062 154.007812 356.390625 150.113281 351.609375 150.113281 L 227.5 150.113281 C 222.722656 150.113281 218.824219 154.007812 218.824219 158.785156 L 218.824219 242.425781 C 218.824219 247.203125 222.722656 251.097656 227.5 251.097656 L 316.78125 251.097656 C 316.660156 251.351562 316.660156 251.664062 316.714844 251.914062 L 227.5 251.914062 C 223.484375 251.914062 220.027344 249.402344 218.636719 245.882812 C 218.578125 245.945312 218.511719 245.945312 218.382812 245.945312 L 154.507812 245.945312 L 154.507812 261.277344 C 154.507812 262.722656 154.191406 264.105469 153.695312 265.363281 L 173.242188 265.363281 C 173.1875 265.613281 173.1875 265.929688 173.1875 266.179688 L 153.3125 266.179688 C 151.550781 269.511719 148.09375 271.710938 144.074219 271.710938 L 57.996094 271.710938 C 57.75 271.710938 57.558594 271.523438 57.558594 271.269531 C 57.558594 271.019531 57.75 270.832031 58 270.832031 L 144.007812 270.832031 C 149.351562 270.832031 153.695312 266.496094 153.695312 261.152344 L 153.695312 216.09375 L 44.929688 216.09375 L 44.925781 237.648438 C 46.121094 236.832031 47.691406 236.015625 49.640625 235.640625 C 54.355469 234.886719 57.75 237.335938 58.378906 237.777344 L 56.113281 241.859375 L 56.054688 241.921875 C 55.988281 241.105469 55.929688 240.414062 55.863281 239.851562 C 55.359375 240.730469 54.105469 242.488281 51.902344 243.746094 C 50.332031 244.625 48.882812 244.941406 47.941406 245.066406 C 47.1875 245.378906 46.683594 246.007812 46.558594 246.761719 C 46.433594 247.703125 47 248.648438 47.941406 249.023438 L 47.941406 252.105469 C 47.3125 251.789062 46.054688 251.035156 44.863281 249.777344 L 44.863281 255.121094 C 44.863281 255.371094 44.671875 255.558594 44.421875 255.558594 C 44.167969 255.558594 43.980469 255.371094 43.980469 255.121094 L 43.980469 249.90625 C 43.980469 249.652344 44.167969 249.464844 44.421875 249.464844 C 44.484375 249.464844 44.546875 249.464844 44.609375 249.527344 C 44.234375 249.085938 43.855469 248.585938 43.480469 247.957031 C 41.339844 244.375 42.15625 240.730469 42.410156 239.914062 C 42.660156 239.597656 43.226562 238.90625 44.109375 238.152344 C 44.042969 238.089844 43.980469 237.964844 43.980469 237.902344 L 43.980469 209.496094 C 43.980469 203.714844 48.699219 199.003906 54.480469 199.003906 L 63.972656 199.003906 L 63.972656 179.523438 L 35.554688 179.523438 C 35.304688 179.523438 35.117188 179.332031 35.117188 179.082031 L 35.117188 121.078125 C 35.117188 120.828125 35.304688 120.640625 35.554688 120.640625 L 64.351562 120.640625 C 64.476562 120.640625 64.542969 120.703125 64.667969 120.765625 L 79.632812 136.222656 C 79.691406 136.285156 79.757812 136.414062 79.757812 136.539062 L 79.757812 179.082031 C 79.757812 179.332031 79.566406 179.523438 79.316406 179.523438 L 64.792969 179.523438 L 64.792969 199.003906 L 96.101562 199.003906 L 96.101562 125.855469 C 96.101562 120.324219 100.625 115.800781 106.160156 115.800781 L 114.019531 115.800781 C 114.019531 116.050781 114.085938 116.367188 114.144531 116.617188 L 106.410156 116.617188 C 101.199219 116.617188 96.921875 120.890625 96.921875 126.105469 L 96.921875 136.222656 L 107.171875 136.222656 C 109.058594 135.34375 112.132812 134.214844 116.414062 132.832031 C 118.417969 133.019531 120.375 133.207031 122.386719 133.394531 C 122.261719 134.589844 122.191406 135.785156 122.074219 136.976562 C 122.128906 136.726562 122.191406 136.476562 122.261719 136.222656 L 157.023438 136.222656 L 157.023438 133.648438 C 159.222656 133.773438 161.425781 133.960938 163.625 134.085938 C 167.398438 135.21875 170.101562 136.097656 171.742188 136.851562 C 171.425781 136.601562 171.113281 136.414062 170.671875 136.222656 L 317.164062 136.222656 L 317.164062 126.105469 C 317.164062 120.890625 312.890625 116.617188 307.664062 116.617188 L 167.269531 116.617188 C 167.339844 116.367188 167.339844 116.050781 167.339844 115.800781 L 308.292969 115.800781 C 313.707031 115.800781 318.109375 120.199219 318.109375 125.605469 L 318.109375 145.839844 C 318.109375 146.089844 317.917969 146.277344 317.660156 146.277344 C 317.410156 146.277344 317.222656 146.089844 317.222656 145.839844 L 317.222656 137.105469 L 172.246094 137.105469 C 173.1875 137.605469 173.683594 137.984375 173.628906 138.296875 C 173.433594 139.367188 167.898438 139.492188 157.023438 138.800781 L 157.023438 137.105469 L 122.074219 137.105469 C 122.074219 137.355469 122.003906 137.605469 122.003906 137.859375 C 110.753906 139.050781 105.027344 139.175781 104.78125 138.109375 C 104.714844 137.859375 105.027344 137.542969 105.601562 137.105469 L 96.855469 137.105469 L 96.855469 199.191406 L 120.933594 199.191406 C 125.648438 191.398438 131.121094 186.875 137.28125 185.742188 C 142.875 184.738281 146.964844 186.9375 150.925781 189.074219 C 154.886719 191.210938 158.59375 193.222656 163.757812 192.40625 C 169.976562 191.398438 173.558594 187.0625 176.960938 182.789062 C 180.285156 178.640625 183.492188 174.746094 188.773438 174.933594 C 193.117188 175.121094 196.191406 177.949219 199.210938 180.714844 C 202.421875 183.605469 205.378906 186.371094 209.652344 185.804688 C 212.609375 185.429688 215.367188 183.480469 217.953125 180.148438 L 217.953125 158.785156 C 217.953125 153.570312 222.226562 149.296875 227.441406 149.296875 L 325.898438 149.296875 L 325.898438 115.925781 C 325.898438 110.648438 321.621094 106.375 316.347656 106.375 L 167.710938 106.375 C 167.710938 106.121094 167.65625 105.808594 167.585938 105.558594 L 316.46875 105.558594 C 317.097656 105.558594 317.722656 105.621094 318.289062 105.746094 C 317.480469 105.117188 316.347656 103.296875 314.894531 100.339844 C 314.707031 99.019531 314.519531 97.640625 314.335938 96.320312 L 319.175781 96.320312 C 319.925781 102.289062 319.863281 105.496094 319.050781 105.933594 C 323.507812 107.066406 326.777344 111.148438 326.777344 115.925781 L 326.777344 149.296875 L 351.613281 149.296875 C 356.898438 149.296875 361.105469 153.570312 361.105469 158.785156 Z M 61.714844 349.066406 C 60.390625 348.753906 58.628906 348.1875 56.558594 346.996094 L 50.585938 346.996094 L 50.585938 352.335938 C 55.425781 352.335938 60.328125 352.273438 65.171875 352.273438 C 65.171875 351.769531 65.105469 351.078125 64.730469 350.515625 C 64.039062 349.445312 62.78125 349.320312 61.714844 349.070312 Z M 252.777344 170.722656 L 333.824219 170.722656 L 333.824219 167.960938 L 252.777344 167.960938 Z M 251.957031 167.203125 L 334.636719 167.203125 L 334.636719 171.605469 L 251.957031 171.605469 Z M 136.585938 53.023438 C 136.460938 52.832031 136.335938 52.648438 136.273438 52.457031 C 134.332031 48.8125 137.089844 44.539062 137.277344 44.222656 C 138.347656 45.167969 139.730469 46.296875 141.5625 47.304688 C 143.0625 48.121094 144.507812 48.6875 145.648438 49.0625 C 145.765625 49.691406 145.835938 50.886719 145.453125 52.203125 C 145.136719 53.210938 144.636719 54.027344 144.195312 54.59375 C 144.761719 54.277344 148.792969 51.953125 149.417969 47.304688 C 149.734375 44.851562 149.351562 40.203125 145.765625 38.632812 C 143.1875 37.5 139.863281 38.316406 137.53125 40.707031 C 137.035156 40.578125 134.203125 40.140625 132.320312 41.835938 C 129.804688 44.097656 130.363281 48.6875 132.691406 51.074219 C 134.074219 52.457031 135.777344 52.898438 136.585938 53.023438 Z M 125.773438 116.617188 L 155.761719 116.617188 L 155.761719 115.800781 L 125.898438 115.800781 C 125.898438 116.050781 125.84375 116.367188 125.773438 116.617188 Z M 326.777344 98.390625 C 334.636719 98.390625 341.054688 104.804688 341.054688 112.660156 L 341.054688 146.027344 L 341.867188 146.027344 L 341.867188 112.660156 C 341.867188 104.363281 335.082031 97.578125 326.777344 97.578125 L 319.363281 97.578125 C 319.421875 97.828125 319.421875 98.140625 319.421875 98.390625 Z M 315.589844 74.328125 C 315.523438 73.507812 311.371094 73.003906 303.074219 72.816406 L 301.816406 75.832031 L 304.960938 77.40625 C 312.132812 76.148438 315.648438 75.078125 315.589844 74.328125 Z M 164.070312 98.207031 C 164.125 98.265625 164.125 98.332031 164.195312 98.390625 L 209.652344 98.390625 L 211.152344 101.722656 L 229.199219 101.722656 L 229.199219 100.339844 L 226.753906 99.839844 L 212.292969 99.839844 L 205.25 83.25 L 202.859375 83.25 L 209.207031 97.515625 L 163.621094 97.515625 C 163.8125 97.765625 163.9375 97.953125 164.070312 98.207031 Z M 155.324219 95.3125 L 157.710938 78.597656 L 123.886719 78.597656 L 126.402344 95.3125 Z M 41.90625 346.996094 C 40.839844 346.617188 39.328125 345.800781 37.820312 344.167969 L 31.09375 344.167969 L 30.527344 349.695312 C 35.496094 350.199219 40.398438 350.765625 45.367188 351.269531 C 45.425781 350.386719 45.425781 349.257812 44.671875 348.378906 C 43.917969 347.496094 43.039062 347.371094 41.910156 346.996094 Z M 64.792969 112.660156 C 64.792969 104.804688 71.203125 98.390625 79.0625 98.390625 L 119.242188 98.390625 C 119.613281 98.078125 119.929688 97.828125 120.375 97.578125 L 79.0625 97.578125 C 70.765625 97.578125 63.972656 104.363281 63.972656 112.660156 L 63.972656 120.386719 C 64.289062 120.515625 64.542969 120.703125 64.792969 120.953125 Z M 85.980469 115.988281 L 85.980469 198.625 C 85.980469 198.878906 86.167969 199.066406 86.421875 199.066406 C 86.671875 199.066406 86.863281 198.878906 86.863281 198.625 L 86.863281 115.988281 C 86.863281 110.710938 91.140625 106.4375 96.414062 106.4375 L 114.402344 106.4375 C 114.460938 106.1875 114.527344 105.871094 114.585938 105.621094 L 96.414062 105.621094 C 90.636719 105.621094 85.980469 110.269531 85.980469 115.988281 Z M 151.871094 105.996094 C 151.871094 106.125 151.8125 106.3125 151.8125 106.4375 L 132.449219 106.4375 C 132.761719 106.1875 133.078125 105.933594 133.324219 105.621094 L 151.367188 105.621094 C 151.5 105.746094 151.679688 105.871094 151.871094 105.996094 Z M 155.515625 115.800781 L 125.777344 115.800781 L 125.777344 116.617188 L 155.453125 116.617188 C 155.453125 116.367188 155.453125 116.050781 155.515625 115.800781 Z M 73.59375 168.902344 L 73.59375 168.148438 C 73.59375 167.519531 73.089844 167.015625 72.460938 167.015625 L 42.15625 167.015625 C 41.527344 167.015625 41.027344 167.519531 41.027344 168.148438 L 41.027344 168.902344 C 41.027344 169.53125 41.527344 170.03125 42.15625 170.03125 L 72.460938 170.03125 C 73.089844 170.03125 73.59375 169.53125 73.59375 168.902344 Z M 73.59375 160.667969 L 73.59375 159.914062 C 73.59375 159.285156 73.089844 158.785156 72.460938 158.785156 L 42.15625 158.785156 C 41.527344 158.785156 41.027344 159.285156 41.027344 159.914062 L 41.027344 160.667969 C 41.027344 161.296875 41.527344 161.800781 42.15625 161.800781 L 72.460938 161.800781 C 73.089844 161.863281 73.59375 161.296875 73.59375 160.667969 Z M 73.59375 152.5 L 73.59375 151.746094 C 73.59375 151.117188 73.089844 150.613281 72.460938 150.613281 L 42.15625 150.613281 C 41.527344 150.613281 41.027344 151.117188 41.027344 151.746094 L 41.027344 152.5 C 41.027344 153.128906 41.527344 153.632812 42.15625 153.632812 L 72.460938 153.632812 C 73.089844 153.695312 73.59375 153.128906 73.59375 152.5 Z M 73.59375 145.085938 L 73.59375 144.332031 C 73.59375 143.703125 73.089844 143.199219 72.460938 143.199219 L 42.15625 143.199219 C 41.527344 143.199219 41.027344 143.703125 41.027344 144.332031 L 41.027344 145.085938 C 41.027344 145.714844 41.527344 146.214844 42.15625 146.214844 L 72.460938 146.214844 C 73.089844 146.214844 73.59375 145.714844 73.59375 145.085938 Z M 56.996094 133.019531 L 42.15625 133.019531 C 41.527344 133.019531 41.027344 132.515625 41.027344 131.886719 L 41.027344 131.132812 C 41.027344 130.503906 41.527344 130.003906 42.15625 130.003906 L 56.933594 130.003906 C 57.5625 130.003906 58.066406 130.503906 58.066406 131.132812 L 58.066406 131.886719 C 58.128906 132.453125 57.625 133.019531 56.996094 133.019531 "/>
</g>
<g clip-path="url(#clip3)" clip-rule="nonzero">
<path style=" stroke:none;fill-rule:nonzero;fill:rgb(5.879211%,5.488586%,4.708862%);fill-opacity:1;" d="M 166.082031 102.542969 C 164.566406 99.148438 161.800781 96.382812 157.839844 94.308594 L 155.707031 95.628906 C 155.636719 95.691406 155.582031 95.691406 155.511719 95.691406 L 126.660156 95.691406 C 123.257812 96.636719 118.730469 98.707031 116.21875 102.980469 C 114.960938 105.179688 114.527344 107.503906 114.644531 115.988281 C 114.714844 121.394531 115.027344 126.859375 115.46875 132.328125 L 123.699219 133.144531 L 125.648438 110.269531 C 125.648438 110.144531 125.71875 110.019531 125.84375 109.957031 L 141.5625 99.464844 C 141.679688 99.398438 141.875 99.398438 141.996094 99.464844 L 155.953125 107.570312 C 156.078125 107.632812 156.140625 107.757812 156.140625 107.945312 L 156.523438 133.207031 L 165.195312 133.773438 C 165.886719 127.675781 166.453125 121.519531 166.898438 115.488281 C 167.457031 108.449219 167.527344 105.746094 166.082031 102.542969 Z M 166.828125 102.226562 C 168.339844 105.558594 168.28125 108.386719 167.710938 115.488281 C 167.210938 121.644531 166.640625 127.992188 165.957031 134.214844 C 165.957031 134.402344 165.765625 134.589844 165.507812 134.589844 L 156.019531 133.960938 C 155.828125 133.960938 155.636719 133.773438 155.636719 133.585938 L 155.265625 108.132812 L 141.75 100.277344 L 126.402344 110.523438 L 124.460938 133.648438 C 124.460938 133.773438 124.390625 133.835938 124.328125 133.898438 C 124.269531 133.960938 124.144531 134.023438 124.011719 133.960938 L 115.027344 133.082031 C 114.839844 133.082031 114.644531 132.894531 114.644531 132.703125 C 114.140625 127.113281 113.898438 121.519531 113.769531 115.988281 C 113.640625 107.316406 114.085938 104.929688 115.46875 102.542969 C 118.101562 98.015625 122.886719 95.878906 126.402344 94.875 L 155.324219 94.875 L 157.59375 93.492188 C 157.710938 93.429688 157.839844 93.429688 158.027344 93.492188 C 162.238281 95.628906 165.195312 98.582031 166.828125 102.226562 Z M 91.507812 240.351562 C 91.382812 240.164062 91.195312 240.039062 90.878906 240.039062 L 90.824219 240.039062 C 89.691406 240.039062 86.984375 241.167969 85.289062 243.433594 C 84.03125 245.191406 83.777344 247.203125 83.777344 248.523438 C 83.777344 248.773438 83.964844 248.960938 84.21875 248.898438 C 84.46875 248.898438 84.660156 248.710938 84.59375 248.460938 C 84.59375 247.265625 84.785156 245.441406 85.917969 243.871094 C 87.300781 241.921875 89.621094 240.980469 90.507812 240.855469 C 90.195312 241.230469 89.308594 242.113281 86.921875 243.996094 C 86.796875 244.121094 86.734375 244.25 86.796875 244.4375 C 86.859375 244.5625 86.984375 244.6875 87.109375 244.75 C 88.492188 245.066406 89.9375 245.695312 90.003906 246.195312 C 90.003906 246.386719 89.691406 246.761719 88.867188 247.453125 C 87.925781 248.269531 86.984375 248.960938 85.976562 249.652344 C 85.789062 249.777344 85.726562 250.03125 85.851562 250.21875 C 85.917969 250.34375 86.042969 250.40625 86.167969 250.40625 C 86.230469 250.40625 86.355469 250.40625 86.417969 250.34375 C 87.425781 249.652344 88.429688 248.898438 89.375 248.082031 C 90.4375 247.140625 90.824219 246.699219 90.824219 246.195312 C 90.753906 245.128906 89.25 244.5 88.117188 244.1875 C 91.695312 241.359375 91.765625 240.792969 91.507812 240.351562 Z M 314.703125 96.257812 C 314.703125 96.066406 314.515625 95.941406 314.332031 95.878906 L 296.226562 94.75 L 305.273438 77.59375 C 305.34375 77.46875 305.34375 77.40625 305.273438 77.28125 C 305.21875 77.15625 305.148438 77.089844 305.085938 77.027344 L 301.5 75.203125 C 301.3125 75.140625 301.128906 75.140625 301 75.328125 L 289.117188 92.046875 L 271.824219 89.660156 C 271.582031 89.59375 271.390625 89.785156 271.390625 90.035156 C 271.324219 90.285156 271.511719 90.476562 271.761719 90.476562 L 289.3125 92.925781 C 289.5 92.925781 289.625 92.863281 289.679688 92.738281 L 301.5 76.148438 L 304.398438 77.59375 L 295.339844 94.6875 L 278.679688 92.925781 C 278.425781 92.925781 278.238281 93.050781 278.238281 93.304688 C 278.238281 93.554688 278.363281 93.742188 278.621094 93.742188 L 295.597656 95.503906 L 314.019531 96.695312 L 314.648438 101.160156 L 297.101562 101.160156 L 265.851562 101.285156 C 265.609375 101.285156 265.417969 101.472656 265.417969 101.722656 C 265.417969 101.976562 265.609375 102.164062 265.851562 102.164062 L 297.101562 102.039062 L 315.144531 102.039062 C 315.277344 102.039062 315.402344 101.976562 315.460938 101.914062 C 315.523438 101.851562 315.589844 101.722656 315.589844 101.597656 Z M 328.292969 286.667969 Z M 341.738281 310.484375 L 346.398438 331.851562 C 346.398438 331.976562 346.398438 332.101562 346.328125 332.226562 C 346.265625 332.351562 346.140625 332.351562 346.015625 332.351562 L 338.785156 332.351562 C 338.597656 332.351562 338.40625 332.226562 338.40625 332.039062 L 332.625 312.054688 L 328.792969 289.304688 L 325.894531 308.160156 L 326.777344 335.179688 C 326.777344 335.304688 326.71875 335.433594 326.652344 335.496094 C 326.59375 335.558594 326.460938 335.621094 326.335938 335.621094 L 319.421875 335.621094 C 319.230469 335.621094 319.050781 335.496094 318.980469 335.242188 L 315.332031 310.421875 L 316.660156 273.40625 C 316.660156 273.15625 316.847656 273.03125 317.09375 273.03125 C 317.34375 273.03125 317.476562 273.21875 317.476562 273.46875 L 316.089844 310.421875 L 319.679688 334.867188 L 325.777344 334.867188 L 324.890625 308.222656 L 328.222656 286.792969 L 328.222656 280.632812 C 328.222656 280.382812 328.410156 280.195312 328.664062 280.195312 C 328.921875 280.195312 329.109375 280.382812 329.109375 280.632812 L 329.109375 286.792969 L 329.109375 286.730469 C 329.109375 286.605469 329.039062 286.542969 328.976562 286.476562 L 329.109375 286.730469 L 329.109375 286.855469 L 329.109375 286.730469 L 333.378906 311.867188 L 339.035156 331.535156 L 345.457031 331.535156 L 340.921875 310.609375 L 339.351562 273.972656 C 339.351562 273.722656 339.539062 273.53125 339.726562 273.53125 C 339.980469 273.53125 340.167969 273.722656 340.167969 273.910156 Z M 356.898438 272.339844 C 356.898438 272.085938 356.640625 271.960938 356.457031 271.960938 C 356.199219 271.960938 356.074219 272.214844 356.074219 272.402344 C 356.953125 281.136719 356.199219 282.015625 356.074219 282.078125 C 356.011719 282.078125 355.199219 281.953125 352.6875 276.359375 C 352.617188 276.171875 352.429688 276.109375 352.300781 276.109375 C 352.113281 276.109375 351.988281 276.234375 351.925781 276.421875 C 351.742188 277.113281 351.554688 277.617188 351.429688 277.933594 C 351.359375 277.242188 351.296875 275.796875 351.484375 272.714844 C 351.484375 272.464844 351.296875 272.277344 351.113281 272.277344 C 350.855469 272.214844 350.667969 272.464844 350.667969 272.652344 C 350.351562 279.0625 350.800781 279.125 351.238281 279.1875 C 351.609375 279.25 351.925781 279 352.371094 277.679688 C 354.382812 282.078125 355.328125 282.960938 356.011719 282.960938 L 356.199219 282.960938 C 357.085938 282.707031 357.773438 281.261719 356.898438 272.339844 Z M 251.273438 83.878906 C 250.574219 83.125 249.441406 82.808594 247.871094 82.871094 C 247.621094 82.933594 245.417969 83.4375 245.355469 86.703125 C 245.300781 90.476562 245.355469 95.691406 245.355469 95.753906 C 245.355469 95.941406 245.230469 96.132812 244.984375 96.191406 L 228.695312 98.140625 C 225.054688 98.207031 223.035156 98.332031 221.96875 98.457031 C 222.910156 98.644531 224.609375 98.835938 227.5 99.148438 C 227.695312 99.148438 227.816406 99.335938 227.882812 99.523438 C 227.882812 99.710938 227.816406 99.902344 227.625 99.960938 C 227.4375 100.027344 227.1875 100.152344 227.066406 100.214844 C 227.3125 100.214844 227.5 100.152344 227.753906 100.152344 C 228.253906 100.089844 228.757812 100.027344 229.269531 99.960938 C 230.015625 99.902344 230.644531 99.835938 231.273438 99.835938 C 232.972656 99.835938 234.296875 100.089844 235.800781 100.40625 C 237.441406 100.71875 239.257812 101.09375 242.085938 101.222656 L 242.214844 101.222656 C 245.859375 101.347656 247.746094 101.410156 249.003906 100.339844 C 249.890625 99.585938 250.015625 98.707031 251.078125 92.234375 C 251.957031 86.265625 252.148438 84.820312 251.273438 83.878906 Z M 244.042969 80.042969 C 243.414062 79.980469 242.472656 79.726562 241.648438 78.976562 C 241.214844 78.597656 240.898438 78.097656 240.640625 77.59375 L 240.640625 77.46875 C 240.640625 77.339844 240.515625 76.710938 239.957031 76.273438 C 239.328125 75.832031 238.699219 76.023438 238.503906 76.082031 C 237.753906 76.585938 236.554688 77.214844 234.984375 77.402344 C 233.789062 77.527344 232.78125 77.339844 231.972656 77.089844 C 232.214844 78.222656 232.65625 79.289062 233.355469 80.230469 C 233.855469 80.984375 234.984375 82.496094 237.058594 82.996094 C 238.628906 83.375 240.074219 82.933594 240.773438 82.621094 C 240.828125 82.621094 240.898438 82.554688 240.957031 82.554688 C 241.019531 82.554688 241.085938 82.554688 241.144531 82.621094 C 241.269531 82.679688 241.332031 82.808594 241.332031 82.871094 L 242.03125 85.886719 C 242.589844 85.824219 243.414062 85.636719 244.042969 84.945312 C 244.984375 83.878906 245.042969 81.804688 244.042969 80.042969 Z M 251.832031 83.308594 C 253.035156 84.566406 252.777344 86.390625 251.777344 92.296875 C 250.644531 99.019531 250.449219 99.960938 249.386719 100.84375 C 248.316406 101.785156 246.992188 102.039062 244.917969 102.039062 C 244.097656 102.039062 243.15625 101.976562 242.03125 101.976562 L 241.898438 101.976562 C 239.011719 101.847656 237.125 101.472656 235.484375 101.15625 C 233.472656 100.71875 231.972656 100.40625 229.269531 100.71875 C 228.757812 100.78125 228.253906 100.84375 227.753906 100.90625 C 225.867188 101.15625 225.179688 101.285156 225.054688 100.71875 C 224.984375 100.40625 225.113281 100.152344 225.808594 99.835938 C 219.894531 99.210938 219.894531 98.894531 219.894531 98.457031 C 219.894531 97.953125 219.957031 97.578125 228.570312 97.386719 L 244.476562 95.503906 C 244.476562 94.246094 244.414062 89.972656 244.476562 86.765625 C 244.476562 86.265625 244.546875 85.824219 244.671875 85.382812 C 244.601562 85.449219 244.546875 85.574219 244.476562 85.636719 C 243.535156 86.640625 242.214844 86.765625 241.527344 86.832031 C 241.332031 86.832031 241.144531 86.703125 241.144531 86.515625 L 240.515625 83.625 C 239.574219 83.9375 238.257812 84.191406 236.742188 83.8125 C 234.355469 83.25 233.097656 81.488281 232.53125 80.734375 C 231.65625 79.539062 231.085938 78.03125 230.894531 76.523438 C 230.894531 76.398438 230.957031 76.210938 231.085938 76.148438 C 231.210938 76.082031 231.34375 76.023438 231.46875 76.082031 C 232.152344 76.398438 233.355469 76.710938 234.730469 76.585938 C 236.183594 76.460938 237.246094 75.832031 237.945312 75.394531 C 237.945312 75.394531 238 75.328125 238.070312 75.328125 C 238.257812 75.269531 239.328125 74.953125 240.328125 75.582031 C 241.144531 76.148438 241.332031 76.964844 241.402344 77.277344 C 241.585938 77.71875 241.84375 78.03125 242.15625 78.347656 C 242.90625 79.039062 243.785156 79.164062 244.289062 79.226562 C 244.414062 79.226562 244.546875 79.289062 244.601562 79.414062 C 245.417969 80.734375 245.734375 82.179688 245.488281 83.5 C 246.433594 82.242188 247.746094 82.054688 247.746094 82.054688 L 247.816406 82.054688 C 249.632812 81.992188 250.957031 82.367188 251.832031 83.308594 Z M 47.566406 249.398438 L 47.566406 255.308594 C 47.566406 255.558594 47.753906 255.746094 48.007812 255.746094 C 48.257812 255.746094 48.445312 255.558594 48.445312 255.308594 L 48.445312 249.148438 C 48.445312 248.960938 48.320312 248.835938 48.195312 248.769531 C 47.441406 248.457031 46.9375 247.703125 47.0625 246.949219 C 47.125 246.382812 47.566406 245.878906 48.132812 245.628906 C 49.578125 245.441406 50.960938 245 52.21875 244.308594 C 53.789062 243.429688 54.921875 242.296875 55.675781 241.292969 C 55.738281 241.921875 55.738281 242.488281 55.738281 243.117188 C 55.800781 246.507812 55.800781 248.332031 54.671875 249.652344 C 54.167969 250.28125 53.414062 250.71875 52.472656 251.035156 C 52.28125 251.097656 52.15625 251.222656 52.15625 251.410156 L 52.15625 255.371094 C 52.15625 255.621094 52.34375 255.808594 52.597656 255.808594 C 52.847656 255.808594 53.035156 255.621094 53.035156 255.371094 L 53.035156 251.726562 C 53.980469 251.410156 54.734375 250.84375 55.300781 250.214844 C 56.683594 248.582031 56.683594 246.382812 56.617188 243.117188 C 56.617188 242.109375 56.558594 241.105469 56.429688 240.097656 C 56.429688 239.910156 56.304688 239.785156 56.117188 239.722656 C 55.929688 239.660156 55.738281 239.785156 55.675781 239.910156 C 55.046875 240.980469 53.855469 242.550781 51.84375 243.617188 C 50.644531 244.246094 49.390625 244.6875 48.007812 244.875 L 47.882812 244.875 C 47 245.1875 46.371094 246.007812 46.246094 246.886719 C 45.996094 247.828125 46.558594 248.835938 47.566406 249.398438 Z M 137.664062 54.652344 L 136.964844 60.183594 C 136.964844 60.433594 137.089844 60.625 137.347656 60.625 C 137.53125 60.625 137.789062 60.5 137.789062 60.246094 L 138.472656 54.464844 C 138.472656 54.339844 138.417969 54.152344 138.347656 54.085938 C 137.664062 53.585938 137.089844 52.894531 136.777344 52.203125 C 135.273438 49.3125 136.902344 45.980469 137.53125 44.789062 C 138.789062 45.855469 140.109375 46.796875 141.5625 47.617188 C 142.816406 48.304688 144.132812 48.875 145.523438 49.3125 C 145.648438 50.253906 145.578125 51.199219 145.265625 52.015625 C 144.824219 53.457031 144.007812 54.402344 143.378906 54.902344 C 143.253906 54.96875 143.253906 55.09375 143.253906 55.21875 L 143.503906 60.183594 C 143.503906 60.433594 143.691406 60.558594 143.949219 60.558594 C 144.195312 60.558594 144.320312 60.371094 144.320312 60.121094 L 144.074219 55.34375 C 144.761719 54.714844 145.578125 53.710938 146.082031 52.203125 C 146.394531 51.132812 146.519531 49.941406 146.332031 48.808594 C 146.332031 48.683594 146.207031 48.558594 146.082031 48.496094 C 144.703125 48.054688 143.320312 47.488281 142.0625 46.734375 C 140.546875 45.917969 139.101562 44.847656 137.84375 43.71875 C 137.789062 43.65625 137.664062 43.59375 137.53125 43.59375 C 137.40625 43.59375 137.277344 43.65625 137.214844 43.78125 C 136.902344 44.285156 134.136719 48.621094 136.148438 52.453125 C 136.40625 53.398438 136.964844 54.085938 137.664062 54.652344 Z M 59.699219 318.398438 L 57.058594 294.769531 C 53.980469 293.765625 50.769531 293.199219 47.566406 293.074219 C 43.855469 292.886719 40.210938 293.261719 36.625 294.144531 L 36.25 321.542969 L 31.59375 343.726562 L 37.507812 343.726562 L 43.539062 324.683594 C 43.730469 323.804688 47.691406 302.375 48.007812 301.308594 C 48.070312 301.117188 48.320312 300.929688 48.511719 300.992188 C 48.699219 301.054688 48.886719 301.308594 48.824219 301.496094 C 48.761719 301.808594 48.320312 303.820312 47.816406 306.648438 L 50.960938 319.65625 L 50.960938 346.617188 L 56.117188 346.617188 Z M 57.875 294.457031 L 60.515625 318.398438 L 60.515625 318.527344 L 56.933594 347.117188 C 56.933594 347.308594 56.746094 347.496094 56.492188 347.496094 L 50.519531 347.496094 C 50.269531 347.496094 50.082031 347.308594 50.082031 347.054688 L 50.082031 319.84375 L 47.253906 308.722656 C 46.308594 313.8125 44.988281 320.535156 44.167969 324.933594 L 38.070312 344.351562 C 38.011719 344.542969 37.882812 344.667969 37.695312 344.667969 L 31.09375 344.667969 C 30.964844 344.667969 30.839844 344.605469 30.78125 344.542969 C 30.714844 344.417969 30.652344 344.289062 30.714844 344.226562 L 35.496094 321.605469 L 35.871094 294.015625 C 35.871094 293.828125 35.996094 293.640625 36.1875 293.640625 C 39.957031 292.632812 43.792969 292.257812 47.691406 292.445312 C 51.085938 292.632812 54.417969 293.261719 57.625 294.269531 C 57.75 294.144531 57.816406 294.269531 57.875 294.457031 Z M 29.898438 293.324219 C 29.582031 293.703125 29.269531 294.082031 29.019531 294.519531 C 28.265625 295.652344 28.011719 296.65625 27.761719 297.347656 C 27.574219 297.976562 27.445312 298.417969 27.007812 298.417969 C 26.878906 298.417969 26.753906 298.351562 26.628906 298.226562 C 26.066406 297.597656 25.8125 294.707031 25.875 292.382812 C 25.9375 290.8125 26.191406 289.242188 26.628906 287.671875 C 26.691406 287.480469 26.945312 287.292969 27.132812 287.355469 C 27.382812 287.417969 27.507812 287.671875 27.445312 287.859375 C 27.070312 289.367188 26.820312 290.875 26.753906 292.382812 C 26.628906 294.394531 26.878906 296.152344 27.070312 297.035156 C 27.257812 296.34375 27.636719 295.273438 28.390625 294.082031 C 28.765625 293.453125 29.269531 292.886719 29.773438 292.320312 C 29.835938 292.257812 30.023438 292.195312 30.152344 292.195312 C 30.277344 292.195312 30.402344 292.320312 30.464844 292.382812 C 30.78125 292.949219 30.964844 293.199219 31.09375 293.390625 C 31.21875 292.949219 31.28125 291.753906 30.839844 288.109375 C 30.839844 287.859375 30.964844 287.671875 31.21875 287.671875 C 31.46875 287.609375 31.660156 287.796875 31.660156 288.046875 C 32.351562 293.640625 31.910156 294.207031 31.34375 294.394531 C 30.714844 294.457031 30.339844 294.015625 29.898438 293.324219 "/>
</g>
<path style=" stroke:none;fill-rule:nonzero;fill:rgb(32.548523%,76.078796%,54.508972%);fill-opacity:1;" d="M 328.292969 234.132812 C 326.28125 234.570312 322.632812 235.011719 318.289062 234.070312 C 313.515625 233 310.179688 230.675781 308.542969 229.355469 L 316.660156 216.160156 L 311.371094 212.515625 C 307.417969 216.160156 304.832031 219.675781 303.261719 222.253906 C 300.816406 226.085938 299.488281 228.160156 299.875 230.863281 C 300.3125 234.257812 303.140625 236.457031 306.089844 238.65625 C 307.976562 240.101562 311.371094 242.300781 316.402344 243.496094 C 316.660156 253.488281 316.90625 263.542969 317.21875 273.53125 C 320.050781 274.414062 324.136719 275.292969 329.109375 275.355469 C 334.265625 275.355469 338.539062 274.414062 341.425781 273.53125 L 341.425781 247.769531 C 342.625 248.269531 344.570312 249.277344 346.398438 251.285156 C 348.027344 253.046875 348.84375 254.742188 349.355469 255.9375 C 349.726562 261.53125 350.101562 267.1875 350.484375 272.777344 L 357.714844 272.464844 C 357.648438 270.453125 357.527344 267.625 357.144531 264.230469 C 356.328125 257.257812 355.570312 250.847656 351.609375 244.5 C 349.914062 241.734375 347.710938 238.214844 343.253906 236.015625 C 339.097656 234.003906 335.136719 234.132812 333.125 234.320312 C 332.75 235.386719 331.679688 236.078125 330.613281 236.015625 C 329.480469 235.765625 328.605469 235.074219 328.292969 234.132812 Z M 52.527344 255.246094 L 68.433594 260.585938 L 83.839844 248.207031 L 86.730469 250.28125 C 83.964844 254.492188 81.324219 257.824219 79.3125 260.273438 C 75.285156 265.050781 73.527344 266.304688 71.390625 266.808594 C 70.132812 267.121094 68.625 266.996094 65.605469 266.808594 C 62.652344 266.621094 60.195312 266.304688 58.4375 265.992188 C 58.0625 270.203125 57.871094 274.726562 57.871094 279.566406 C 57.871094 284.84375 58.0625 289.808594 58.4375 294.332031 C 54.851562 294.523438 50.957031 294.585938 46.808594 294.460938 C 43.097656 294.332031 39.578125 294.082031 36.304688 293.769531 C 36.875 290.121094 37.3125 286.101562 37.503906 281.640625 C 37.691406 277.367188 37.628906 273.46875 37.375 269.949219 C 35.742188 272.839844 34.042969 275.730469 32.40625 278.558594 L 31.84375 287.988281 L 26.433594 287.734375 C 26.308594 284.339844 26.625 279.441406 28.445312 273.847656 C 31.402344 264.921875 36.746094 259.203125 39.640625 256.503906 L 48 255.308594 C 48.066406 255.433594 48.820312 256.441406 50.203125 256.503906 C 51.585938 256.503906 52.464844 255.371094 52.527344 255.246094 "/>
</g>
</svg>
