<?xml version="1.0" encoding="UTF-8"?>
<svg xmlns="http://www.w3.org/2000/svg" xmlns:xlink="http://www.w3.org/1999/xlink" width="375pt" height="374.999991pt" viewBox="0 0 375 374.999991" version="1.2">
<defs>
<clipPath id="clip1">
  <path d="M 19.210938 41 L 375 41 L 375 261.914062 L 19.210938 261.914062 Z M 19.210938 41 "/>
</clipPath>
<clipPath id="clip2">
  <path d="M 67 16.644531 L 369.503906 16.644531 L 369.503906 337.644531 L 67 337.644531 Z M 67 16.644531 "/>
</clipPath>
<clipPath id="clip3">
  <path d="M 16.230469 36 L 375 36 L 375 126 L 16.230469 126 Z M 16.230469 36 "/>
</clipPath>
<clipPath id="clip4">
  <path d="M 66.339844 16.644531 L 369.503906 16.644531 L 369.503906 337.644531 L 66.339844 337.644531 Z M 66.339844 16.644531 "/>
</clipPath>
</defs>
<g id="surface1">
<g clip-path="url(#clip1)" clip-rule="nonzero">
<path style=" stroke:none;fill-rule:nonzero;fill:rgb(95.289612%,87.449646%,1.959229%);fill-opacity:1;" d="M 89.925781 124.289062 C 90.242188 126.777344 88.90625 129.207031 86.550781 130.226562 L 57.953125 130.226562 C 55.914062 129.398438 54.449219 127.863281 53.878906 126.203125 L 24.453125 126.203125 C 21.203125 124.671875 19.167969 121.285156 19.421875 117.710938 C 19.613281 114.644531 21.457031 111.960938 24.261719 110.554688 C 24.707031 105.699219 28.210938 101.675781 32.605469 100.910156 C 37.191406 100.144531 40.566406 103.082031 41.648438 104.167969 C 45.851562 98.417969 52.539062 95.289062 58.847656 96.3125 C 63.367188 97.015625 67.632812 99.824219 70.4375 104.039062 C 71.773438 106.019531 72.667969 108.191406 73.175781 110.425781 C 78.527344 110.425781 83.429688 114.132812 85.019531 119.496094 C 87.503906 119.816406 89.542969 121.796875 89.925781 124.289062 Z M 383.15625 74.277344 C 382.773438 71.335938 380.351562 69.039062 377.421875 68.65625 C 375.449219 62.074219 369.269531 57.605469 362.644531 57.988281 C 362.390625 57.988281 362.136719 58.050781 361.882812 58.050781 C 361.371094 55.367188 360.226562 52.621094 358.632812 50.195312 C 355.386719 45.339844 350.609375 42.148438 345.386719 41.316406 C 338.1875 40.230469 330.484375 43.746094 325.707031 50.386719 C 324.558594 49.238281 320.675781 45.726562 315.386719 46.617188 C 310.292969 47.511719 306.34375 52.113281 305.835938 57.605469 C 302.648438 59.199219 300.484375 62.265625 300.230469 65.78125 C 299.976562 69.804688 302.269531 73.699219 306.027344 75.425781 L 340.671875 75.425781 C 340.929688 77.722656 342.902344 79.960938 345.640625 81.109375 L 379.269531 81.109375 C 381.945312 80.023438 383.535156 77.148438 383.15625 74.277344 Z M 175.589844 256.824219 C 174.949219 250.757812 173.296875 241.878906 168.710938 232.105469 C 164.953125 224.121094 160.429688 218.117188 156.800781 214.027344 C 131.578125 183.433594 129.539062 141.277344 150.175781 112.597656 C 173.742188 79.832031 215.394531 80.597656 218.960938 80.726562 C 248.703125 80.855469 275.898438 96.886719 289.148438 122.4375 C 297.300781 138.148438 298.765625 156.542969 295.324219 173.726562 C 293.097656 184.777344 288.957031 195.953125 282.332031 205.34375 C 275.136719 215.625 264.054688 221.886719 256.792969 232.105469 C 250.167969 241.429688 247.175781 250.882812 245.648438 257.398438 C 237.429688 259.570312 226.667969 261.613281 213.929688 261.804688 C 198.070312 262.125 184.886719 259.507812 175.589844 256.824219 "/>
</g>
<g clip-path="url(#clip2)" clip-rule="nonzero">
<path style=" stroke:none;fill-rule:nonzero;fill:rgb(100%,100%,100%);fill-opacity:1;" d="M 113.617188 188.480469 C 113.300781 188.03125 113.171875 187.523438 113.300781 187.074219 C 113.488281 186.246094 114.445312 185.734375 115.464844 185.796875 C 116.230469 185.160156 116.867188 184.390625 117.3125 183.5625 C 117.695312 182.796875 118.011719 181.964844 118.140625 181.070312 C 118.140625 180.941406 118.265625 180.816406 118.332031 180.816406 C 118.457031 180.75 118.585938 180.75 118.648438 180.816406 C 119.414062 181.261719 120.242188 181.582031 121.132812 181.773438 C 122.277344 181.964844 123.425781 181.964844 124.570312 181.644531 C 124.761719 181.582031 124.953125 181.710938 125.019531 181.835938 C 125.589844 183.242188 125.910156 184.648438 126.035156 186.117188 C 126.226562 188.289062 126.546875 191.609375 124.445312 193.207031 C 123.933594 193.589844 122.851562 194.164062 121.003906 193.972656 L 121.003906 198.890625 C 121.003906 199.019531 120.941406 199.148438 120.878906 199.210938 C 120.433594 199.53125 119.414062 200.167969 117.949219 200.167969 C 117.757812 200.167969 117.503906 200.167969 117.3125 200.105469 C 115.273438 199.847656 114.191406 198.378906 113.871094 197.933594 C 113.808594 197.804688 113.808594 197.679688 113.808594 197.550781 C 114.253906 196.59375 114.574219 195.570312 114.765625 194.484375 C 115.144531 192.824219 115.210938 191.035156 115.082031 189.308594 C 114.445312 189.246094 113.9375 188.925781 113.617188 188.480469 Z M 160.175781 220.925781 C 160.109375 220.992188 159.984375 221.054688 159.855469 220.992188 L 156.289062 219.648438 C 156.542969 220.734375 156.480469 221.246094 156.097656 221.4375 C 156.035156 221.503906 155.90625 221.503906 155.84375 221.503906 C 155.589844 221.503906 155.335938 221.3125 154.953125 221.054688 C 154.632812 220.863281 154.316406 220.609375 153.804688 220.351562 C 153.296875 220.097656 152.660156 219.839844 152.085938 219.714844 C 152.023438 219.714844 151.894531 219.648438 151.894531 219.523438 C 151.832031 219.457031 151.832031 219.332031 151.894531 219.265625 L 153.359375 216.390625 C 153.421875 216.328125 153.488281 216.265625 153.613281 216.199219 C 154.316406 216.136719 156.226562 216.074219 157.945312 217.351562 C 159.410156 218.4375 159.984375 219.839844 160.175781 220.609375 C 160.300781 220.734375 160.238281 220.863281 160.175781 220.925781 Z M 79.480469 221.246094 C 78.589844 221.4375 77.761719 221.695312 76.996094 222.078125 C 76.292969 222.398438 75.785156 222.78125 75.402344 223.097656 C 74.957031 223.417969 74.574219 223.675781 74.257812 223.675781 C 74.128906 223.675781 74.066406 223.675781 73.9375 223.609375 C 73.492188 223.355469 73.492188 222.652344 73.8125 221.3125 L 67.570312 222.398438 C 67.441406 222.398438 67.25 222.332031 67.1875 222.203125 C 67.125 222.078125 67.125 221.949219 67.1875 221.820312 C 68.332031 220.160156 69.925781 218.757812 71.710938 217.796875 C 74 216.519531 76.230469 216.199219 77.695312 216.199219 C 77.886719 216.199219 78.015625 216.265625 78.078125 216.457031 L 79.796875 220.863281 C 79.863281 220.992188 79.863281 221.054688 79.796875 221.183594 C 79.671875 221.183594 79.542969 221.246094 79.480469 221.246094 Z M 129.285156 255.929688 C 127.054688 248.136719 124.761719 240.21875 122.339844 232.296875 C 121.769531 230.316406 121.132812 228.335938 120.558594 226.355469 C 120.429688 226.355469 120.304688 226.292969 120.238281 226.292969 L 105.207031 222.332031 C 105.082031 222.332031 104.953125 222.269531 104.824219 222.269531 C 102.152344 226.164062 99.414062 230.125 96.738281 234.019531 C 96.738281 234.085938 96.671875 234.085938 96.671875 234.148438 L 93.234375 246.921875 L 81.644531 234.660156 C 81.515625 234.53125 81.261719 234.53125 81.132812 234.660156 L 77.441406 238.109375 C 77.316406 238.238281 77.316406 238.363281 77.375 238.554688 C 79.671875 243.667969 82.472656 248.585938 85.589844 253.183594 C 89.730469 259.25 92.023438 262.636719 94.761719 262.765625 L 95.019531 262.765625 C 102.152344 262.765625 108.136719 246.859375 109.410156 243.15625 L 120.875 260.910156 L 131.195312 288.058594 C 131.257812 288.121094 131.320312 288.25 131.386719 288.25 L 131.640625 288.25 L 136.925781 286.140625 C 137.117188 286.078125 137.179688 285.886719 137.117188 285.695312 C 134.570312 275.859375 131.957031 265.894531 129.285156 255.929688 Z M 302.585938 232.105469 L 302.519531 231.976562 C 301.566406 231.148438 300.671875 230.1875 300.035156 229.101562 C 299.527344 228.273438 299.082031 227.378906 298.761719 226.421875 C 299.144531 225.207031 298.636719 223.929688 297.679688 223.484375 C 296.789062 223.097656 295.960938 223.484375 295.640625 223.675781 C 294.878906 223.609375 294.113281 223.484375 293.414062 223.226562 C 292.519531 222.84375 291.695312 222.332031 290.929688 221.628906 L 290.417969 221.183594 L 290.292969 221.820312 C 290.101562 222.78125 289.71875 223.675781 289.144531 224.503906 C 288.699219 225.144531 288.125 225.71875 287.488281 226.230469 L 287.363281 226.292969 L 287.363281 226.421875 C 287.171875 227.507812 287.171875 229.101562 288 230.699219 C 288.953125 232.617188 291.121094 234.597656 293.539062 234.277344 C 294.175781 234.214844 294.8125 233.957031 295.386719 233.574219 L 296.980469 235.042969 C 297.363281 235.746094 298 236.320312 298.828125 236.578125 C 299.144531 236.703125 299.464844 236.703125 299.847656 236.703125 C 300.355469 236.703125 300.863281 236.578125 301.3125 236.320312 C 302.777344 235.617188 303.414062 233.703125 302.585938 232.105469 Z M 347.675781 244.496094 C 350.097656 245.199219 352.582031 245.644531 355.066406 245.773438 C 355.957031 245.839844 356.722656 245.839844 357.359375 245.839844 C 359.585938 245.839844 360.480469 245.582031 360.671875 244.945312 C 360.796875 244.304688 360.414062 243.476562 353.984375 240.984375 C 355.828125 239.769531 356.085938 239.257812 355.894531 238.8125 C 355.703125 238.363281 355.449219 237.789062 347.675781 240.089844 C 347.550781 240.152344 347.421875 240.28125 347.421875 240.472656 L 347.421875 244.175781 C 347.421875 244.304688 347.550781 244.496094 347.675781 244.496094 Z M 271.757812 260.402344 C 270.675781 260.144531 269.71875 259.953125 268.957031 259.761719 L 268.382812 259.632812 C 266.917969 259.25 266.34375 259.125 265.644531 259.316406 C 264.816406 259.507812 264.050781 260.082031 263.414062 260.976562 C 263.351562 261.039062 263.351562 261.167969 263.351562 261.296875 C 263.351562 261.421875 263.414062 261.488281 263.542969 261.550781 L 267.171875 263.402344 C 266.597656 264.679688 266.472656 265.445312 266.917969 265.894531 C 267.046875 266.023438 267.238281 266.085938 267.492188 266.085938 C 267.808594 266.085938 268.320312 265.957031 269.148438 265.765625 C 269.464844 265.703125 269.785156 265.574219 270.230469 265.511719 C 270.867188 265.320312 271.441406 265.191406 271.820312 265.128906 C 272.011719 265.0625 272.078125 264.9375 272.078125 264.746094 L 272.078125 260.847656 C 272.078125 260.59375 271.949219 260.464844 271.757812 260.402344 Z M 369.011719 257.527344 C 368.949219 256.886719 368.824219 255.867188 352.328125 256.570312 L 352.070312 256.570312 L 352.007812 256.824219 C 350.734375 261.359375 349.777344 266.023438 349.078125 270.683594 C 348.632812 273.8125 348.25 276.945312 348.058594 280.136719 L 342.710938 277.519531 C 343.15625 276.6875 343.539062 275.792969 343.984375 274.835938 C 344.367188 273.941406 344.046875 272.855469 343.28125 272.28125 L 321.308594 256.632812 L 321.117188 256.824219 C 318.824219 258.738281 316.40625 260.464844 313.921875 261.996094 C 311.820312 263.273438 309.589844 264.488281 307.296875 265.511719 L 307.105469 265.636719 L 307.488281 291.570312 C 307.488281 292.273438 307.871094 292.914062 308.445312 293.296875 C 308.824219 293.550781 309.207031 293.679688 309.589844 293.679688 C 309.84375 293.679688 310.101562 293.613281 310.355469 293.550781 C 310.546875 293.488281 310.738281 293.421875 310.929688 293.359375 L 309.84375 300.640625 L 313.15625 332.257812 C 303.414062 335.003906 302.777344 335.960938 302.839844 336.730469 C 302.902344 337.175781 303.03125 337.816406 307.933594 337.816406 C 310.226562 337.816406 313.539062 337.6875 318.441406 337.304688 L 318.761719 337.304688 L 320.355469 300.195312 L 321.054688 290.164062 C 323.285156 289.65625 325.128906 289.269531 326.722656 289.015625 C 329.714844 288.503906 331.882812 288.121094 334.300781 286.78125 C 334.9375 286.460938 335.511719 286.078125 336.085938 285.695312 C 337.996094 287.867188 340.289062 289.589844 342.835938 290.804688 C 345.003906 291.828125 347.230469 292.914062 349.332031 292.914062 C 349.96875 292.914062 350.605469 292.785156 351.242188 292.527344 C 355.574219 290.804688 356.148438 283.265625 356.785156 274.582031 C 357.101562 270.363281 357.101562 266.148438 356.785156 261.996094 C 369.203125 258.996094 369.078125 258.101562 369.011719 257.527344 Z M 196.285156 39.082031 C 196.984375 40.421875 197.367188 41.894531 197.496094 43.359375 C 197.558594 44.511719 197.433594 45.660156 197.175781 46.746094 L 197.175781 47.003906 C 197.6875 48.152344 198.832031 48.980469 200.105469 48.980469 L 200.234375 48.980469 C 201.445312 48.917969 202.527344 48.152344 203.035156 47.003906 C 203.101562 46.9375 203.101562 46.8125 203.035156 46.746094 C 202.527344 45.40625 202.527344 44.382812 202.972656 43.746094 C 203.292969 43.296875 203.671875 43.234375 204.183594 43.105469 C 204.691406 42.980469 205.265625 42.851562 205.839844 42.402344 C 207.8125 40.742188 207.238281 37.101562 206.792969 34.164062 C 206.601562 33.015625 206.347656 31.929688 206.03125 30.84375 C 206.03125 30.714844 205.902344 30.652344 205.839844 30.652344 C 205.773438 30.585938 205.648438 30.585938 205.519531 30.652344 C 204.246094 31.160156 202.84375 31.355469 201.445312 31.355469 C 200.171875 31.355469 198.832031 31.097656 197.621094 30.652344 C 197.496094 30.585938 197.367188 30.652344 197.242188 30.714844 C 197.113281 30.777344 197.113281 30.96875 197.175781 31.097656 C 197.367188 31.671875 197.6875 32.757812 197.304688 33.972656 C 197.175781 34.484375 196.921875 34.996094 196.605469 35.441406 C 195.777344 35.570312 195.074219 36.207031 194.949219 37.101562 C 194.882812 37.929688 195.457031 38.761719 196.285156 39.082031 Z M 259.464844 117.261719 L 240.804688 92.863281 L 240.675781 92.734375 L 212.71875 79.195312 C 212.652344 79.195312 212.589844 79.128906 212.527344 79.128906 L 191.445312 81.367188 C 191.253906 81.367188 191.125 81.558594 191.125 81.75 L 191.125 94.523438 C 191.125 94.652344 191.191406 94.714844 191.253906 94.777344 L 216.730469 115.855469 L 227.683594 139.9375 C 227.75 140.066406 227.875 140.128906 228.003906 140.128906 L 228.066406 140.128906 L 234.691406 138.914062 C 234.816406 138.914062 234.882812 138.851562 234.945312 138.722656 C 235.007812 138.660156 235.007812 138.53125 235.007812 138.402344 L 227.75 109.46875 C 227.75 109.40625 227.683594 109.339844 227.683594 109.277344 L 213.925781 94.84375 L 234.5 100.910156 L 254.308594 123.90625 C 254.371094 123.96875 254.5 124.03125 254.625 124.03125 C 254.753906 124.03125 254.816406 123.96875 254.878906 123.90625 L 259.65625 117.515625 C 259.53125 117.515625 259.53125 117.390625 259.464844 117.261719 Z M 218.449219 49.238281 L 222.71875 45.660156 C 222.78125 45.59375 222.78125 45.59375 222.84375 45.53125 L 231.25 24.644531 C 233.226562 24.328125 235.007812 23.496094 236.410156 22.28125 C 237.046875 21.707031 239.148438 19.792969 238.511719 18.769531 C 238.128906 18.128906 236.984375 17.875 231.1875 20.109375 C 231.25 17.300781 230.996094 17.042969 230.613281 16.980469 C 230.105469 16.917969 229.722656 17.171875 228.449219 21.773438 L 217.8125 40.550781 L 213.992188 43.808594 C 213.863281 43.871094 213.863281 44.0625 213.863281 44.191406 C 214.246094 45.46875 214.820312 46.554688 215.648438 47.578125 C 216.285156 48.34375 216.984375 48.980469 217.875 49.492188 C 217.941406 49.558594 218.003906 49.558594 218.066406 49.558594 C 218.132812 49.558594 218.257812 49.558594 218.320312 49.492188 L 218.449219 49.238281 M 183.039062 46.492188 C 182.019531 46.363281 181 46.171875 179.980469 46.042969 L 162.65625 31.414062 C 158.390625 25.667969 157.945312 25.988281 157.496094 26.242188 C 157.179688 26.433594 157.050781 26.882812 157.5625 28.480469 C 152.085938 26.304688 151.574219 27.136719 151.320312 27.519531 C 151.191406 27.777344 151.128906 28.09375 151.257812 28.480469 C 151.703125 29.757812 153.613281 31.734375 155.90625 32.691406 C 156.925781 33.140625 158.070312 33.332031 159.21875 33.332031 L 174.121094 50.898438 C 174.183594 50.960938 174.183594 50.960938 174.25 51.023438 C 176.222656 51.664062 178.199219 52.300781 180.109375 52.941406 L 180.488281 52.6875 L 180.746094 52.175781 C 181.0625 51.535156 181.953125 49.746094 182.019531 49.683594 C 182.402344 48.980469 182.78125 47.960938 183.039062 46.492188 Z M 227.238281 171.9375 C 229.40625 173.980469 233.800781 172.320312 239.210938 170.339844 C 242.398438 169.191406 262.585938 161.78125 262.460938 147.34375 C 262.394531 140.0625 257.171875 131.121094 250.996094 130.609375 C 238.003906 129.523438 220.804688 165.867188 227.238281 171.9375 Z M 186.351562 170.210938 C 184.183594 172.257812 179.789062 170.59375 174.375 168.613281 C 171.191406 167.464844 151 160.054688 151.128906 145.621094 C 151.191406 138.339844 156.414062 129.398438 162.59375 128.886719 C 175.648438 127.800781 192.78125 164.144531 186.351562 170.210938 "/>
</g>
<path style=" stroke:none;fill-rule:nonzero;fill:rgb(5.879211%,5.488586%,4.708862%);fill-opacity:1;" d="M 264.371094 210.582031 C 263.097656 211.859375 256.472656 218.691406 251.570312 230.0625 C 248.703125 236.769531 246.984375 243.921875 246.347656 251.523438 C 233.101562 254.714844 219.46875 256.25 205.839844 256.121094 C 193.292969 256.058594 180.746094 254.523438 168.519531 251.648438 C 168.199219 249.222656 167.691406 246.859375 167.179688 244.496094 L 189.855469 195.699219 C 190.109375 195.121094 189.855469 194.484375 189.34375 194.230469 C 188.773438 193.972656 188.136719 194.230469 187.878906 194.738281 L 184.1875 202.722656 L 154.378906 202.722656 L 158.644531 193.269531 C 158.902344 192.695312 158.644531 192.058594 158.074219 191.800781 C 157.5 191.546875 156.863281 191.800781 156.609375 192.375 L 151.578125 203.425781 L 149.15625 208.726562 L 148.902344 208.472656 C 124 178.261719 121.261719 136.742188 142.277344 107.488281 C 165.589844 75.167969 206.160156 75.617188 210.746094 75.808594 C 240.617188 75.933594 267.429688 91.839844 280.613281 117.261719 C 296.410156 147.410156 289.65625 185.734375 264.371094 210.582031 Z M 238.769531 269.023438 C 228.832031 270.875 218.640625 271.835938 208.515625 271.835938 L 207.878906 271.835938 C 198.007812 271.769531 188.007812 270.875 178.261719 269.085938 C 177.878906 269.023438 177.625 268.640625 177.691406 268.257812 C 177.753906 267.875 178.136719 267.617188 178.519531 267.683594 C 188.199219 269.472656 198.070312 270.429688 207.878906 270.429688 C 218.132812 270.492188 228.386719 269.535156 238.449219 267.683594 C 238.832031 267.617188 239.214844 267.875 239.277344 268.257812 C 239.40625 268.578125 239.152344 268.960938 238.769531 269.023438 Z M 238.003906 281.605469 C 228.070312 283.460938 217.878906 284.417969 207.75 284.417969 L 207.113281 284.417969 C 197.242188 284.351562 187.242188 283.460938 177.5 281.671875 C 177.117188 281.605469 176.863281 281.222656 176.925781 280.839844 C 176.988281 280.457031 177.371094 280.203125 177.753906 280.265625 C 187.433594 282.054688 197.304688 283.011719 207.113281 283.011719 C 217.367188 283.074219 227.621094 282.117188 237.6875 280.265625 C 238.066406 280.203125 238.449219 280.457031 238.515625 280.839844 C 238.703125 281.160156 238.449219 281.542969 238.003906 281.605469 Z M 237.6875 294.125 C 227.75 295.976562 217.558594 296.9375 207.433594 296.9375 L 206.796875 296.9375 C 196.925781 296.871094 186.925781 295.976562 177.179688 294.191406 C 176.796875 294.125 176.542969 293.742188 176.605469 293.359375 C 176.671875 292.976562 177.054688 292.71875 177.433594 292.785156 C 187.117188 294.574219 196.988281 295.53125 206.796875 295.53125 C 216.988281 295.53125 227.304688 294.636719 237.367188 292.785156 C 237.75 292.71875 238.132812 292.976562 238.195312 293.359375 C 238.324219 293.679688 238.066406 294.0625 237.6875 294.125 Z M 163.867188 246.476562 L 134.507812 246.476562 L 140.558594 233.191406 L 163.039062 233.191406 C 164.1875 236.128906 165.144531 239.066406 165.90625 242.132812 Z M 157.691406 259.699219 L 128.457031 259.699219 L 133.488281 248.648438 L 162.851562 248.648438 Z M 150.683594 274.773438 L 121.640625 274.773438 L 127.5 261.933594 L 156.671875 261.933594 Z M 144.316406 288.570312 L 115.402344 288.570312 L 120.625 277.007812 L 149.664062 277.007812 Z M 137.246094 303.769531 L 108.457031 303.769531 L 114.382812 290.804688 L 143.296875 290.804688 Z M 130.941406 317.3125 L 102.34375 317.3125 L 107.503906 305.941406 L 136.226562 305.941406 Z M 146.609375 219.714844 L 156.289062 219.714844 C 157.5625 221.820312 158.964844 224.25 160.238281 226.929688 C 160.875 228.273438 161.449219 229.613281 162.023438 230.957031 L 141.511719 230.957031 Z M 150.429688 211.347656 C 151.640625 212.878906 153.234375 214.921875 154.886719 217.476562 L 147.628906 217.476562 Z M 155.78125 217.476562 C 153.871094 214.539062 152.085938 212.175781 150.75 210.582031 L 153.296875 204.960938 L 183.101562 204.960938 L 177.308594 217.476562 Z M 170.046875 233.191406 L 166.351562 241.113281 C 165.652344 238.429688 164.761719 235.746094 163.804688 233.191406 Z M 162.914062 230.957031 C 162.277344 229.488281 161.640625 228.015625 160.9375 226.546875 C 159.730469 223.992188 158.457031 221.695312 157.179688 219.648438 L 176.289062 219.648438 L 171.066406 230.890625 Z M 281.378906 116.941406 C 268.003906 91.265625 240.996094 75.234375 210.871094 75.042969 C 206.285156 74.851562 165.269531 74.402344 141.769531 107.042969 C 131.640625 121.09375 126.671875 138.914062 127.820312 157.246094 C 128.964844 175.769531 136.226562 194.101562 148.390625 208.917969 L 148.839844 209.429688 L 144.890625 218.117188 L 138.773438 231.59375 L 131.769531 247.117188 L 118.902344 275.410156 L 105.71875 304.410156 L 99.542969 317.949219 L 95.910156 325.871094 C 95.65625 326.445312 95.910156 327.085938 96.484375 327.339844 C 96.613281 327.402344 96.804688 327.46875 96.929688 327.46875 C 97.375 327.46875 97.757812 327.210938 97.949219 326.828125 L 101.261719 319.484375 L 129.859375 319.484375 L 126.863281 325.871094 C 126.609375 326.445312 126.863281 327.085938 127.375 327.339844 C 127.5 327.402344 127.691406 327.46875 127.820312 327.46875 C 128.265625 327.46875 128.648438 327.210938 128.839844 326.828125 L 166.609375 245.582031 C 167.054688 247.5625 167.4375 249.542969 167.691406 251.585938 C 167.5625 251.585938 167.4375 251.523438 167.308594 251.523438 L 167.308594 303.324219 C 173.613281 306.964844 186.351562 313.222656 203.546875 313.925781 C 224.566406 314.820312 240.105469 306.964844 246.410156 303.324219 C 246.539062 295.976562 246.667969 288.570312 246.792969 281.222656 C 246.03125 282.4375 245.136719 283.394531 244.4375 283.265625 C 242.71875 282.820312 242.460938 275.089844 244.117188 274.515625 C 244.820312 274.324219 245.773438 275.285156 246.855469 276.6875 C 246.984375 268.320312 247.175781 259.953125 247.304688 251.523438 C 247.175781 251.523438 247.046875 251.585938 246.921875 251.585938 C 247.496094 244.113281 249.214844 236.960938 252.078125 230.316406 C 256.921875 219.011719 263.417969 212.304688 264.691406 211.027344 C 290.421875 186.054688 297.171875 147.347656 281.378906 116.941406 "/>
<path style=" stroke:none;fill-rule:nonzero;fill:rgb(5.879211%,5.488586%,4.708862%);fill-opacity:1;" d="M 320.867188 228.847656 C 320.867188 230.636719 319.464844 232.488281 317.488281 233.191406 C 315.769531 233.828125 313.476562 233.511719 312.394531 232.105469 C 310.738281 229.996094 312.839844 226.613281 311.4375 225.652344 C 310.546875 225.078125 309.402344 226.355469 307.492188 226.230469 C 305.390625 226.101562 303.734375 224.183594 302.714844 222.523438 C 302.90625 223.355469 303.160156 225.078125 302.648438 227.125 C 302.203125 228.910156 301.3125 230.1875 300.738281 230.828125 C 300.355469 230.378906 300.039062 229.933594 299.65625 229.359375 C 298.957031 228.273438 298.574219 227.316406 298.320312 226.484375 C 298.765625 225.398438 298.253906 224.25 297.425781 223.867188 C 296.597656 223.484375 295.707031 224.058594 295.644531 224.058594 C 295.070312 224.058594 294.179688 223.929688 293.222656 223.546875 C 291.949219 223.035156 291.121094 222.332031 290.613281 221.886719 C 290.484375 222.523438 290.167969 223.609375 289.402344 224.695312 C 288.765625 225.589844 288.128906 226.164062 287.621094 226.484375 C 287.554688 227.058594 287.429688 228.015625 287.683594 229.167969 C 286.855469 228.847656 284.371094 227.632812 283.605469 225.269531 C 282.585938 222.011719 285.007812 217.414062 290.230469 215.371094 C 290.167969 211.601562 291.824219 208.472656 294.433594 207.386719 C 296.472656 206.554688 298.511719 207.195312 299.019531 207.386719 C 302.777344 208.664062 302.394531 211.984375 305.707031 213.710938 C 309.785156 215.816406 313.476562 212.496094 315.386719 214.605469 C 316.980469 216.328125 314.496094 218.691406 315.960938 222.398438 C 317.488281 225.972656 320.867188 226.164062 320.867188 228.847656 Z M 206.351562 32.246094 C 206.285156 32.375 206.160156 32.5 206.09375 32.632812 C 205.96875 31.929688 205.777344 31.355469 205.648438 30.96875 C 204.757812 31.289062 203.292969 31.734375 201.445312 31.671875 C 199.726562 31.671875 198.390625 31.289062 197.496094 30.96875 C 197.6875 31.480469 198.070312 32.632812 197.625 34.097656 C 197.433594 34.867188 197.050781 35.441406 196.734375 35.824219 C 195.96875 35.824219 195.394531 36.398438 195.269531 37.164062 C 195.203125 37.929688 195.714844 38.632812 196.476562 38.828125 C 196.988281 39.71875 197.6875 41.316406 197.816406 43.425781 L 197.816406 44 C 191.765625 42.019531 188.773438 36.589844 189.917969 32.695312 C 190.9375 29.4375 194.632812 28.03125 195.269531 27.777344 C 196.414062 25.15625 198.769531 23.433594 201.445312 23.304688 C 204.121094 23.238281 207.433594 24.902344 207.878906 27.777344 C 208.324219 30.011719 206.605469 31.929688 206.351562 32.246094 Z M 129.414062 214.539062 C 129.285156 215.308594 129.09375 216.007812 128.902344 216.710938 C 127.3125 221.246094 123.488281 223.609375 121.261719 224.566406 C 122.726562 220.671875 124.191406 216.839844 125.589844 212.945312 Z M 127.183594 179.347656 C 126.609375 181.328125 125.972656 183.304688 125.398438 185.285156 C 125.207031 183.816406 124.828125 182.667969 124.507812 181.835938 C 123.808594 182.027344 122.46875 182.285156 120.941406 181.964844 C 119.796875 181.773438 118.902344 181.328125 118.332031 180.941406 C 118.203125 181.582031 118.011719 182.539062 117.4375 183.5625 C 116.800781 184.777344 115.910156 185.605469 115.402344 185.988281 C 114.445312 185.863281 113.617188 186.371094 113.488281 187.011719 C 113.300781 187.777344 114 188.863281 115.210938 188.925781 C 115.402344 190.332031 115.402344 192.25 114.953125 194.484375 C 114.699219 195.699219 114.316406 196.71875 113.9375 197.613281 L 107.183594 196.464844 L 97.757812 205.152344 C 97.183594 203.875 96.867188 202.53125 97.375 200.933594 C 98.585938 197.230469 102.214844 197.804688 104.128906 193.527344 C 105.847656 189.566406 103.363281 187.777344 104.890625 183.691406 C 106.421875 179.664062 110.558594 177.046875 114.316406 176.152344 C 121.324219 174.429688 126.671875 178.835938 127.183594 179.347656 Z M 100.050781 213.519531 C 98.96875 219.457031 92.089844 221.3125 92.855469 225.207031 C 93.363281 227.632812 96.421875 229.230469 99.605469 230.125 L 104.765625 222.203125 L 105.273438 209.6875 Z M 125.464844 185.925781 C 125.464844 185.667969 125.398438 185.414062 125.398438 185.222656 C 125.972656 186.117188 127.4375 188.351562 127.3125 191.480469 C 127.183594 195.699219 124.445312 198.507812 123.105469 199.59375 L 120.433594 198.636719 L 120.433594 193.335938 C 122.535156 193.652344 123.617188 192.953125 124 192.695312 C 125.910156 191.226562 125.65625 188.03125 125.464844 185.925781 "/>
<g clip-path="url(#clip3)" clip-rule="nonzero">
<path style=" stroke:none;fill-rule:nonzero;fill:rgb(5.879211%,5.488586%,4.708862%);fill-opacity:1;" d="M 55.597656 125.117188 L 84 125.117188 C 86.230469 124.160156 87.503906 121.859375 87.1875 119.496094 C 86.867188 117.132812 84.957031 115.28125 82.601562 114.960938 L 82.410156 114.960938 L 82.34375 114.769531 C 80.816406 109.597656 76.042969 105.957031 70.816406 105.957031 L 70.566406 105.957031 L 70.5 105.699219 C 69.992188 103.53125 69.035156 101.359375 67.761719 99.441406 C 64.960938 95.289062 60.820312 92.542969 56.425781 91.839844 C 50.308594 90.882812 43.6875 93.949219 39.546875 99.570312 L 39.355469 99.886719 L 39.101562 99.632812 C 38.148438 98.675781 34.832031 95.738281 30.375 96.503906 C 26.109375 97.207031 22.671875 101.167969 22.285156 105.828125 L 22.285156 106.019531 L 22.09375 106.085938 C 19.421875 107.425781 17.636719 110.042969 17.382812 112.984375 C 17.128906 116.367188 19.101562 119.625 22.222656 121.09375 L 51.777344 121.09375 L 51.839844 121.285156 C 52.347656 122.945312 53.75 124.351562 55.597656 125.117188 Z M 84.128906 125.820312 L 55.40625 125.757812 C 53.433594 124.925781 51.902344 123.457031 51.265625 121.796875 L 21.90625 121.796875 C 18.53125 120.199219 16.429688 116.6875 16.679688 113.046875 C 16.875 109.980469 18.785156 107.171875 21.585938 105.699219 C 22.09375 100.847656 25.726562 96.757812 30.1875 95.992188 C 34.578125 95.226562 37.957031 97.910156 39.230469 99.058594 C 43.496094 93.375 50.25 90.371094 56.488281 91.328125 C 61.136719 92.03125 65.40625 94.90625 68.269531 99.1875 C 69.542969 101.101562 70.5 103.210938 71.011719 105.445312 C 76.359375 105.574219 81.199219 109.277344 82.855469 114.515625 C 85.402344 114.960938 87.441406 117.007812 87.824219 119.5625 C 88.207031 122.179688 86.742188 124.800781 84.257812 125.820312 Z M 343.285156 76.128906 L 376.722656 76.128906 C 379.332031 75.042969 380.863281 72.296875 380.480469 69.546875 C 380.097656 66.738281 377.867188 64.566406 375.003906 64.25 L 374.8125 64.25 L 374.746094 64.054688 C 372.835938 57.605469 366.785156 53.199219 360.289062 53.644531 C 360.097656 53.644531 359.84375 53.710938 359.652344 53.710938 L 359.269531 53.773438 L 359.207031 53.453125 C 358.699219 50.769531 357.550781 48.085938 355.957031 45.726562 C 352.773438 40.996094 348.0625 37.804688 342.964844 37.039062 C 335.894531 35.953125 328.316406 39.464844 323.605469 45.980469 L 323.414062 46.300781 L 323.160156 46.042969 C 322.074219 44.957031 318.253906 41.507812 313.09375 42.339844 C 308.191406 43.171875 304.242188 47.703125 303.796875 53.070312 L 303.796875 53.261719 L 303.605469 53.324219 C 300.484375 54.855469 298.445312 57.859375 298.191406 61.246094 C 297.9375 65.078125 300.167969 68.847656 303.734375 70.570312 L 338.570312 70.570312 L 338.636719 70.824219 C 338.828125 72.933594 340.671875 75.042969 343.285156 76.128906 Z M 376.847656 76.765625 L 343.09375 76.703125 C 340.355469 75.554688 338.378906 73.378906 338 71.082031 L 303.476562 71.082031 C 299.65625 69.292969 297.238281 65.269531 297.554688 61.117188 C 297.808594 57.605469 299.910156 54.410156 303.160156 52.75 C 303.734375 47.191406 307.808594 42.53125 312.96875 41.636719 C 318.0625 40.804688 321.949219 43.871094 323.347656 45.214844 C 328.253906 38.699219 335.960938 35.1875 343.09375 36.332031 C 348.378906 37.164062 353.285156 40.421875 356.53125 45.339844 C 358.125 47.703125 359.207031 50.324219 359.78125 53.070312 C 359.90625 53.070312 360.097656 53.007812 360.226562 53.007812 C 366.914062 52.558594 373.21875 57.03125 375.257812 63.671875 C 378.25 64.117188 380.605469 66.484375 381.050781 69.546875 C 381.5 72.613281 379.777344 75.617188 376.847656 76.765625 "/>
</g>
<path style=" stroke:none;fill-rule:nonzero;fill:rgb(5.879211%,5.488586%,4.708862%);fill-opacity:1;" d="M 254.371094 123.839844 L 258.320312 127.164062 C 262.460938 122.882812 266.539062 118.601562 270.675781 114.261719 C 269.847656 113.683594 268.640625 113.046875 267.238281 113.175781 C 265.582031 113.367188 264.753906 114.578125 262.335938 116.238281 C 261.25 117.007812 259.914062 117.773438 258.320312 118.539062 Z M 227.878906 139.746094 C 228.324219 141.46875 228.769531 143.195312 229.214844 144.917969 C 235.328125 143.769531 241.378906 142.621094 247.496094 141.46875 C 247.113281 140.449219 246.347656 138.980469 245.011719 138.402344 C 243.417969 137.765625 242.082031 138.722656 239.46875 139.042969 C 238.132812 139.234375 236.15625 139.296875 233.546875 138.722656 Z M 266.792969 268.128906 C 268.195312 265.382812 268.003906 262.316406 266.347656 260.65625 C 265.136719 259.441406 262.652344 258.355469 261.25 259.507812 C 260.359375 260.273438 260.042969 261.871094 260.488281 263.402344 C 260.550781 263.53125 260.488281 263.660156 260.421875 263.722656 C 262.523438 265.253906 264.691406 266.660156 266.792969 268.128906 Z M 271.3125 271.195312 C 270.421875 272.984375 269.277344 274.898438 267.875 276.878906 C 266.410156 279.050781 264.882812 280.839844 263.480469 282.375 C 262.269531 281.542969 260.996094 280.710938 259.785156 279.945312 L 246.984375 279.691406 C 246.410156 280.96875 245.839844 281.796875 245.457031 281.734375 C 244.5 281.542969 244.308594 276.304688 245.265625 276.050781 C 245.710938 275.921875 246.347656 276.753906 247.046875 277.964844 C 249.46875 277.328125 251.890625 276.625 254.246094 275.984375 C 253.035156 274.835938 251.761719 273.6875 250.550781 272.535156 C 251.1875 270.75 252.335938 268.320312 254.308594 265.832031 C 255.582031 264.234375 256.921875 263.082031 258.003906 262.1875 C 258.578125 262.574219 259.148438 262.957031 259.660156 263.339844 C 259.214844 261.550781 259.660156 259.890625 260.742188 258.996094 C 262.523438 257.527344 265.453125 258.742188 266.855469 260.144531 C 268.765625 262.125 269.023438 265.445312 267.429688 268.511719 C 268.703125 269.40625 270.039062 270.300781 271.316406 271.195312 Z M 260.421875 149.007812 C 259.214844 146.386719 256.472656 143.769531 253.925781 143.769531 L 253.609375 143.769531 C 249.46875 144.089844 246.667969 151.304688 243.925781 158.203125 C 241.378906 164.589844 239.214844 170.085938 237.367188 174.8125 C 243.609375 174.042969 249.40625 171.425781 253.480469 167.59375 C 257.8125 163.570312 263.226562 155.203125 260.421875 149.007812 Z M 180.683594 173.34375 C 174.949219 153.796875 168.453125 142.171875 163.105469 142.171875 L 162.976562 142.171875 C 159.09375 142.300781 154.761719 148.816406 154.761719 154.628906 C 154.761719 163.570312 165.78125 170.148438 172.785156 172.128906 C 172.785156 172.128906 176.289062 173.152344 180.683594 173.34375 Z M 255.007812 169.253906 C 250.296875 173.660156 243.609375 176.535156 236.476562 177.175781 C 232.527344 187.332031 229.980469 194.101562 229.40625 196.847656 C 226.414062 210.835938 225.519531 225.335938 226.796875 239.769531 L 224.566406 239.960938 C 223.292969 225.269531 224.183594 210.582031 227.242188 196.335938 C 227.8125 193.589844 230.171875 187.265625 234.054688 177.300781 L 234.054688 177.238281 C 227.367188 177.367188 221.636719 175.386719 218.515625 171.746094 C 215.902344 168.808594 215.140625 164.976562 214.503906 161.589844 C 213.800781 157.949219 213.164062 154.753906 210.492188 153.734375 C 209.34375 153.285156 207.941406 153.285156 206.476562 153.734375 C 203.613281 154.691406 202.65625 157.5 201.511719 161.078125 C 200.492188 164.144531 199.34375 167.65625 196.605469 170.46875 C 193.546875 173.535156 189.21875 175.257812 183.675781 175.515625 L 183.675781 175.578125 C 185.714844 182.921875 187.5 190.84375 188.707031 197.933594 C 190.9375 211.21875 191.636719 224.761719 190.808594 238.300781 L 188.582031 238.171875 C 189.410156 224.824219 188.707031 211.410156 186.480469 198.316406 C 185.269531 191.097656 183.421875 183.050781 181.320312 175.578125 C 176.289062 175.449219 172.339844 174.300781 172.148438 174.238281 C 164.25 171.9375 152.53125 164.847656 152.53125 154.5625 C 152.53125 148.113281 157.308594 140.128906 162.851562 139.9375 C 171.382812 139.617188 178.453125 157.757812 182.914062 173.34375 C 188.136719 173.214844 192.210938 171.746094 194.886719 168.933594 C 197.304688 166.507812 198.324219 163.378906 199.28125 160.441406 C 200.554688 156.609375 201.699219 153.03125 205.648438 151.6875 C 207.625 151.050781 209.535156 151.050781 211.191406 151.6875 C 214.949219 153.160156 215.710938 157.054688 216.539062 161.144531 C 217.179688 164.398438 217.878906 167.785156 220.042969 170.277344 C 222.910156 173.535156 228.386719 175.257812 234.820312 174.9375 C 236.730469 170.019531 239.023438 164.144531 241.761719 157.308594 C 244.882812 149.390625 247.8125 141.917969 253.289062 141.46875 C 257.113281 141.152344 260.804688 144.597656 262.335938 147.984375 C 265.964844 155.96875 259.148438 165.359375 255.011719 169.253906 Z M 131.515625 288.058594 C 131.894531 289.078125 132.214844 290.039062 132.597656 291.058594 C 141.769531 288.695312 146.226562 287.164062 146.097656 286.332031 C 145.972656 285.695312 142.914062 285.566406 136.800781 285.949219 Z M 77.699219 238.363281 C 70.179688 241.175781 66.234375 242.132812 65.789062 241.304688 C 65.34375 240.410156 69.289062 237.214844 77.699219 231.722656 L 81.390625 234.851562 L 77.699219 238.363281 "/>
<path style=" stroke:none;fill-rule:nonzero;fill:rgb(95.289612%,87.449646%,1.959229%);fill-opacity:1;" d="M 114.125 197.167969 C 111.832031 196.910156 109.476562 196.59375 107.183594 196.335938 L 93.683594 208.855469 C 88.078125 211.28125 82.472656 213.773438 76.933594 216.199219 C 77.445312 217.988281 78.015625 219.714844 78.527344 221.503906 C 84.320312 219.839844 90.050781 218.179688 95.847656 216.519531 L 105.402344 209.621094 L 104.890625 222.203125 C 106.292969 223.226562 108.457031 224.632812 111.386719 225.527344 C 115.335938 226.738281 118.710938 226.546875 120.625 226.292969 C 122.277344 221.820312 124 217.351562 125.65625 212.878906 L 135.015625 216.585938 C 140.941406 217.671875 146.863281 218.757812 152.722656 219.777344 C 153.488281 218.5625 154.1875 217.351562 154.953125 216.136719 C 149.476562 214.539062 143.933594 212.878906 138.457031 211.28125 L 125.589844 200.425781 C 123.933594 199.722656 122.34375 199.019531 120.6875 198.316406 C 120.496094 198.507812 119.222656 199.59375 117.3125 199.339844 C 115.273438 199.148438 114.253906 197.359375 114.125 197.167969 Z M 197.179688 46.746094 C 194.824219 46.683594 192.402344 46.554688 190.046875 46.492188 C 187.242188 46.363281 184.378906 46.300781 181.574219 46.171875 C 181.382812 47.003906 181.128906 48.023438 180.683594 49.109375 C 180.046875 50.707031 179.21875 51.984375 178.582031 52.878906 C 180.429688 53.773438 182.339844 54.667969 184.378906 55.496094 C 186.222656 56.265625 188.007812 57.03125 189.726562 57.730469 C 189.855469 62.777344 190.046875 67.953125 190.363281 73.191406 C 190.554688 76.449219 190.808594 79.707031 191.066406 82.835938 C 193.613281 83.28125 196.925781 83.664062 200.871094 83.347656 C 206.605469 82.835938 211.128906 81.109375 213.929688 79.707031 C 213.421875 76.128906 212.972656 72.359375 212.65625 68.402344 C 212.273438 64.121094 212.082031 60.097656 211.953125 56.199219 C 212.847656 55.242188 213.738281 54.285156 214.695312 53.261719 C 216.414062 51.472656 218.070312 49.8125 219.726562 48.152344 C 218.960938 47.769531 217.816406 47.066406 216.730469 45.851562 C 215.777344 44.769531 215.203125 43.617188 214.949219 42.914062 C 212.527344 43.617188 210.042969 44.382812 207.558594 45.214844 C 205.90625 45.726562 204.3125 46.300781 202.71875 46.8125 C 202.59375 47.003906 201.699219 48.089844 200.109375 48.089844 C 198.261719 48.152344 197.242188 46.875 197.179688 46.746094 Z M 297.554688 235.363281 C 294.625 237.980469 293.160156 240.535156 292.394531 242.390625 C 291.757812 243.921875 291.566406 244.945312 290.675781 248.074219 C 289.785156 251.074219 288.957031 253.4375 288.445312 254.972656 C 286.601562 256.121094 283.925781 257.527344 280.484375 258.546875 C 277.175781 259.507812 274.246094 259.761719 272.078125 259.824219 L 272.078125 265.574219 C 273.605469 265.703125 275.835938 265.703125 278.449219 265.445312 C 281.824219 265.128906 286.027344 264.679688 290.359375 262.125 C 294.945312 259.441406 297.492188 255.609375 298.890625 253.121094 C 300.101562 254.589844 301.3125 256.375 302.585938 258.421875 C 304.242188 261.230469 305.324219 263.851562 306.089844 266.023438 C 308.574219 265 311.375 263.59375 314.433594 261.679688 C 317.296875 259.824219 319.65625 257.910156 321.566406 256.183594 C 320.355469 254.714844 318.699219 252.351562 317.554688 249.09375 C 316.597656 246.476562 316.28125 244.113281 316.152344 242.390625 C 319.65625 243.792969 324.625 245.328125 330.671875 245.902344 C 337.617188 246.605469 343.476562 245.839844 347.488281 244.945312 L 347.488281 239.769531 L 330.164062 239.769531 C 328.191406 238.492188 325.449219 236.769531 322.074219 234.851562 C 315.132812 230.890625 313.160156 230.445312 311.820312 230.316406 C 309.972656 230.125 306.597656 230.0625 302.332031 232.234375 C 302.96875 233.703125 302.394531 235.363281 301.121094 236.066406 C 299.910156 236.703125 298.445312 236.382812 297.554688 235.363281 Z M 346.277344 316.800781 L 373.472656 317.246094 C 375.703125 317.183594 377.550781 315.394531 377.742188 313.222656 C 377.996094 310.988281 376.46875 308.878906 374.238281 308.371094 C 374.429688 308.050781 375.511719 306.070312 374.683594 303.898438 C 373.792969 301.535156 371.117188 300.257812 368.695312 300.703125 C 365.703125 301.214844 364.492188 304.21875 364.429688 304.34375 C 363.792969 301.535156 361.246094 300.003906 359.144531 300.578125 C 357.679688 300.960938 356.53125 302.429688 356.277344 304.21875 C 354.8125 301.855469 351.882812 300.960938 349.398438 301.980469 C 347.042969 303.003906 345.640625 305.621094 346.214844 308.242188 C 344.046875 308.371094 342.394531 309.964844 342.136719 311.882812 C 341.882812 314.246094 343.730469 316.546875 346.277344 316.800781 Z M 41.011719 315.140625 L 68.207031 315.585938 C 70.433594 315.523438 72.28125 313.734375 72.472656 311.5625 C 72.726562 309.328125 71.199219 307.21875 68.96875 306.707031 C 69.160156 306.390625 70.242188 304.410156 69.414062 302.238281 C 68.523438 299.875 65.851562 298.597656 63.429688 299.042969 C 60.4375 299.554688 59.222656 302.558594 59.164062 302.683594 C 58.523438 299.875 55.976562 298.339844 53.875 298.917969 C 52.410156 299.300781 51.261719 300.769531 51.011719 302.558594 C 49.542969 300.195312 46.613281 299.300781 44.128906 300.320312 C 41.773438 301.34375 40.375 303.960938 40.945312 306.582031 C 38.78125 306.707031 37.125 308.304688 36.871094 310.222656 C 36.613281 312.585938 38.398438 314.949219 41.011719 315.140625 Z M 260.996094 310.347656 C 260.742188 308.433594 259.023438 306.835938 256.921875 306.707031 C 257.492188 304.089844 256.09375 301.472656 253.734375 300.449219 C 251.253906 299.363281 248.320312 300.320312 246.855469 302.683594 C 246.601562 300.894531 245.457031 299.425781 243.992188 299.042969 C 241.953125 298.46875 239.34375 300.003906 238.703125 302.8125 C 238.640625 302.621094 237.429688 299.683594 234.4375 299.171875 C 232.015625 298.722656 229.34375 300.066406 228.449219 302.367188 C 227.621094 304.535156 228.707031 306.515625 228.898438 306.835938 C 226.667969 307.347656 225.203125 309.457031 225.394531 311.691406 C 225.648438 313.863281 227.433594 315.652344 229.660156 315.714844 L 256.855469 315.269531 C 259.46875 314.949219 261.25 312.585938 260.996094 310.347656 Z M 154.632812 310.347656 C 154.886719 308.433594 156.609375 306.835938 158.710938 306.707031 C 158.136719 304.089844 159.539062 301.472656 161.894531 300.449219 C 164.378906 299.363281 167.308594 300.320312 168.773438 302.683594 C 169.027344 300.894531 170.175781 299.425781 171.640625 299.042969 C 173.675781 298.46875 176.289062 300.003906 176.925781 302.8125 C 176.988281 302.621094 178.199219 299.683594 181.191406 299.171875 C 183.613281 298.722656 186.289062 300.066406 187.179688 302.367188 C 188.007812 304.535156 186.925781 306.515625 186.734375 306.835938 C 188.964844 307.347656 190.429688 309.457031 190.238281 311.691406 C 189.980469 313.863281 188.199219 315.652344 185.96875 315.714844 L 158.773438 315.269531 C 156.097656 314.949219 154.316406 312.585938 154.632812 310.347656 "/>
<g clip-path="url(#clip4)" clip-rule="nonzero">
<path style=" stroke:none;fill-rule:nonzero;fill:rgb(5.879211%,5.488586%,4.708862%);fill-opacity:1;" d="M 302.777344 231.914062 C 302.90625 231.785156 302.90625 231.59375 302.714844 231.464844 C 301.757812 230.636719 300.929688 229.742188 300.292969 228.65625 C 299.785156 227.890625 299.402344 227.058594 299.082031 226.164062 C 299.464844 224.824219 298.890625 223.417969 297.746094 222.90625 C 296.789062 222.460938 295.898438 222.84375 295.515625 223.035156 C 294.816406 222.972656 294.117188 222.84375 293.480469 222.589844 C 292.585938 222.269531 291.824219 221.757812 291.121094 221.054688 L 290.613281 220.609375 C 290.550781 220.542969 290.421875 220.480469 290.292969 220.542969 C 290.167969 220.609375 290.101562 220.671875 290.101562 220.800781 L 289.976562 221.4375 C 289.785156 222.332031 289.402344 223.226562 288.894531 223.992188 C 288.445312 224.632812 287.9375 225.144531 287.300781 225.652344 L 287.171875 225.71875 C 287.109375 225.78125 287.046875 225.847656 287.046875 225.910156 L 287.046875 226.039062 C 286.855469 227.125 286.855469 228.847656 287.683594 230.507812 C 288.703125 232.550781 290.996094 234.53125 293.542969 234.277344 C 294.179688 234.214844 294.753906 234.019531 295.324219 233.636719 L 296.726562 234.980469 C 296.789062 235.042969 296.855469 235.042969 296.917969 235.042969 C 296.980469 235.042969 297.109375 234.980469 297.171875 234.914062 C 297.300781 234.789062 297.300781 234.597656 297.171875 234.46875 L 295.582031 233 C 295.453125 232.871094 295.324219 232.871094 295.199219 232.9375 C 294.625 233.320312 294.050781 233.511719 293.480469 233.574219 C 291.25 233.828125 289.210938 231.976562 288.257812 230.125 C 287.492188 228.59375 287.492188 227.058594 287.683594 226.039062 L 287.683594 225.972656 C 288.382812 225.460938 288.957031 224.886719 289.464844 224.183594 C 290.039062 223.355469 290.421875 222.398438 290.675781 221.4375 L 290.675781 221.375 L 290.738281 221.4375 C 291.503906 222.140625 292.332031 222.714844 293.289062 223.097656 C 294.050781 223.355469 294.816406 223.546875 295.582031 223.609375 C 295.644531 223.609375 295.707031 223.609375 295.769531 223.546875 C 296.027344 223.355469 296.789062 223.035156 297.554688 223.355469 C 298.382812 223.738281 298.828125 224.886719 298.511719 225.910156 L 298.511719 226.101562 C 298.828125 227.058594 299.273438 227.953125 299.847656 228.847656 C 300.546875 229.933594 301.441406 230.957031 302.457031 231.785156 C 302.457031 232.042969 302.648438 232.042969 302.777344 231.914062 Z M 347.804688 240.089844 C 355.320312 237.855469 355.578125 238.429688 355.640625 238.621094 C 355.703125 238.8125 355.640625 239.195312 353.855469 240.410156 C 353.730469 240.472656 353.730469 240.601562 353.730469 240.726562 C 353.730469 240.855469 353.792969 240.917969 353.921875 240.984375 C 358.441406 242.773438 360.609375 243.921875 360.417969 244.625 C 360.289062 245.070312 359.335938 245.261719 357.421875 245.261719 C 356.785156 245.261719 356.085938 245.261719 355.128906 245.199219 C 352.648438 245.070312 350.164062 244.6875 347.804688 243.984375 C 347.617188 243.921875 347.488281 244.050781 347.425781 244.175781 C 347.359375 244.367188 347.488281 244.496094 347.617188 244.558594 C 350.035156 245.261719 352.582031 245.710938 355.128906 245.839844 C 356.085938 245.902344 356.785156 245.902344 357.421875 245.902344 C 359.460938 245.902344 360.800781 245.710938 360.992188 244.753906 C 361.179688 243.921875 360.800781 243.027344 354.621094 240.601562 C 356.023438 239.578125 356.40625 239.003906 356.148438 238.363281 C 355.894531 237.664062 355.578125 237.023438 347.550781 239.449219 C 347.359375 239.515625 347.296875 239.707031 347.359375 239.832031 C 347.425781 239.960938 347.617188 240.152344 347.804688 240.089844 Z M 271.695312 264.425781 C 271.3125 264.488281 270.742188 264.679688 270.105469 264.808594 C 269.722656 264.871094 269.46875 265 269.148438 265.0625 L 269.023438 265.128906 C 268.257812 265.320312 267.746094 265.445312 267.429688 265.445312 C 267.238281 265.445312 267.175781 265.382812 267.109375 265.320312 C 266.792969 265 266.917969 264.296875 267.429688 263.210938 C 267.492188 263.082031 267.429688 262.890625 267.300781 262.765625 L 263.671875 260.910156 L 263.671875 260.847656 C 264.246094 260.019531 264.945312 259.507812 265.773438 259.316406 C 266.410156 259.125 266.917969 259.25 268.382812 259.632812 L 268.957031 259.761719 C 269.722656 259.953125 270.675781 260.144531 271.761719 260.402344 C 271.953125 260.464844 272.078125 260.335938 272.140625 260.144531 C 272.207031 259.953125 272.078125 259.824219 271.886719 259.761719 C 270.804688 259.507812 269.847656 259.316406 269.085938 259.125 L 268.511719 258.996094 C 267.046875 258.613281 266.410156 258.484375 265.582031 258.675781 C 264.625 258.933594 263.863281 259.507812 263.160156 260.464844 C 263.035156 260.65625 263.035156 260.847656 263.035156 261.039062 C 263.097656 261.230469 263.226562 261.421875 263.417969 261.488281 L 266.792969 263.210938 C 266.410156 264.042969 266.089844 265.128906 266.730469 265.765625 C 266.917969 265.957031 267.175781 266.085938 267.492188 266.085938 C 267.875 266.085938 268.382812 265.957031 269.210938 265.703125 L 269.339844 265.636719 C 269.59375 265.574219 269.914062 265.511719 270.296875 265.382812 C 270.933594 265.191406 271.503906 265.0625 271.886719 265 C 272.078125 264.9375 272.140625 264.808594 272.140625 264.617188 C 272.078125 264.488281 271.886719 264.359375 271.695312 264.425781 Z M 368.695312 257.269531 C 368.570312 256.375 363.21875 256.121094 352.390625 256.570312 L 352.328125 256.570312 L 352.328125 256.632812 C 351.117188 261.167969 350.097656 265.832031 349.398438 270.429688 C 348.953125 273.558594 348.570312 276.6875 348.378906 279.816406 C 348.378906 279.945312 348.316406 280.011719 348.1875 280.074219 C 348.125 280.136719 347.996094 280.136719 347.871094 280.074219 L 342.773438 277.519531 L 336.46875 285.121094 C 338.316406 287.164062 340.480469 288.824219 342.902344 289.972656 C 345.066406 290.996094 347.234375 292.019531 349.207031 292.019531 C 349.84375 292.019531 350.417969 291.890625 350.992188 291.699219 C 355.132812 290.039062 355.703125 282.628906 356.339844 274.003906 C 356.660156 269.855469 356.660156 265.574219 356.339844 261.421875 C 356.339844 261.296875 356.46875 261.105469 356.597656 261.105469 C 367.613281 258.675781 368.761719 257.78125 368.695312 257.269531 Z M 320.675781 290.039062 L 311.121094 293.039062 L 310.101562 300.066406 L 313.351562 331.617188 C 313.351562 331.746094 313.285156 331.9375 313.09375 331.9375 C 306.214844 333.917969 302.90625 335.195312 303.03125 336.027344 C 303.097656 336.28125 303.160156 336.855469 307.808594 336.855469 C 310.292969 336.855469 313.796875 336.664062 318.253906 336.34375 L 318.316406 336.34375 L 319.910156 299.554688 Z M 357.105469 261.613281 C 357.359375 265.703125 357.359375 269.855469 357.042969 274.003906 C 356.40625 282.820312 355.832031 290.421875 351.308594 292.273438 C 350.671875 292.527344 350.035156 292.65625 349.269531 292.65625 C 347.167969 292.65625 344.875 291.570312 342.648438 290.550781 C 340.164062 289.335938 337.871094 287.675781 335.960938 285.566406 C 335.449219 285.949219 334.878906 286.269531 334.367188 286.523438 C 331.882812 287.867188 329.65625 288.25 326.660156 288.761719 C 325.195312 289.015625 323.414062 289.335938 321.246094 289.847656 L 320.546875 299.617188 L 318.953125 336.730469 C 318.953125 336.921875 318.828125 337.046875 318.636719 337.046875 L 318.316406 337.046875 C 313.859375 337.367188 310.292969 337.558594 307.808594 337.558594 C 302.96875 337.558594 302.523438 336.984375 302.394531 336.21875 C 302.203125 335.261719 302.90625 334.238281 312.648438 331.492188 L 309.402344 300.195312 L 309.402344 300.128906 L 310.355469 293.421875 C 309.59375 293.742188 308.765625 293.613281 308.128906 293.167969 C 307.492188 292.71875 307.042969 291.953125 307.042969 291.1875 L 306.664062 265.636719 C 306.664062 265.445312 306.789062 265.320312 306.980469 265.320312 C 307.171875 265.320312 307.300781 265.445312 307.300781 265.636719 L 307.679688 291.1875 C 307.679688 291.761719 308 292.335938 308.507812 292.65625 C 309.019531 292.976562 309.65625 293.039062 310.164062 292.847656 L 310.738281 292.65625 L 320.929688 289.398438 C 323.222656 288.824219 325.132812 288.503906 326.597656 288.25 C 329.527344 287.738281 331.691406 287.355469 334.113281 286.078125 C 334.6875 285.757812 335.257812 285.4375 335.832031 284.992188 L 342.457031 277.070312 C 342.902344 276.242188 343.285156 275.347656 343.667969 274.453125 C 343.984375 273.6875 343.730469 272.726562 343.03125 272.28125 L 321.4375 256.761719 C 321.3125 256.632812 321.246094 256.441406 321.375 256.3125 C 321.503906 256.183594 321.695312 256.121094 321.820312 256.25 L 343.410156 271.640625 C 344.367188 272.28125 344.6875 273.558594 344.238281 274.582031 C 343.921875 275.410156 343.539062 276.175781 343.15625 276.945312 L 347.804688 279.242188 C 347.996094 276.242188 348.378906 273.238281 348.824219 270.238281 C 349.527344 265.574219 350.480469 260.910156 351.753906 256.375 L 351.820312 256.121094 C 351.882812 255.992188 351.945312 255.867188 352.136719 255.867188 L 352.390625 255.867188 C 369.144531 255.226562 369.269531 256.25 369.398438 257.144531 C 369.460938 258.039062 369.589844 258.933594 357.105469 261.613281 Z M 158.199219 217.09375 C 157.308594 216.457031 156.351562 216.074219 155.269531 215.882812 C 155.078125 215.882812 154.953125 216.007812 154.886719 216.136719 C 154.886719 216.328125 155.015625 216.457031 155.144531 216.519531 C 156.097656 216.648438 156.992188 217.03125 157.816406 217.605469 C 159.15625 218.628906 159.730469 219.96875 159.921875 220.671875 L 156.351562 219.332031 C 156.226562 219.265625 156.097656 219.332031 156.035156 219.394531 C 155.972656 219.457031 155.90625 219.585938 155.90625 219.714844 C 156.097656 220.542969 156.097656 221.054688 155.90625 221.183594 L 155.78125 221.183594 C 155.652344 221.183594 155.398438 220.992188 155.078125 220.800781 C 154.824219 220.609375 154.441406 220.289062 153.933594 220.035156 C 153.679688 219.90625 153.359375 219.777344 153.042969 219.648438 C 152.851562 219.585938 152.722656 219.648438 152.660156 219.839844 C 152.597656 220.035156 152.660156 220.160156 152.851562 220.226562 C 153.105469 220.351562 153.421875 220.480469 153.679688 220.609375 C 154.125 220.863281 154.507812 221.117188 154.761719 221.3125 C 155.144531 221.566406 155.460938 221.820312 155.78125 221.820312 C 155.90625 221.820312 156.035156 221.757812 156.164062 221.695312 C 156.671875 221.4375 156.734375 220.800781 156.609375 220.097656 L 159.601562 221.246094 C 159.855469 221.3125 160.046875 221.3125 160.238281 221.117188 C 160.429688 220.925781 160.492188 220.734375 160.429688 220.480469 C 160.300781 219.714844 159.730469 218.246094 158.199219 217.09375 Z M 129.605469 255.800781 L 121.386719 226.804688 C 121.324219 226.613281 121.195312 226.546875 121.003906 226.613281 C 120.8125 226.675781 120.75 226.867188 120.8125 226.996094 L 129.03125 255.992188 L 136.929688 285.886719 L 136.929688 285.949219 L 131.640625 288.058594 L 131.578125 288.058594 L 121.261719 260.910156 L 121.261719 260.847656 L 109.796875 243.089844 C 109.730469 242.964844 109.605469 242.964844 109.476562 242.964844 C 109.351562 242.964844 109.285156 243.089844 109.222656 243.15625 C 108.078125 246.414062 102.089844 262.507812 95.082031 262.507812 L 94.828125 262.507812 C 92.21875 262.382812 89.988281 259.058594 85.910156 253.054688 C 82.792969 248.457031 79.992188 243.539062 77.695312 238.363281 L 81.390625 234.914062 L 81.453125 234.914062 L 92.980469 247.117188 C 93.046875 247.179688 93.171875 247.242188 93.300781 247.179688 C 93.425781 247.179688 93.492188 247.050781 93.554688 246.921875 L 96.992188 234.148438 L 104.445312 222.78125 C 104.574219 222.652344 104.507812 222.460938 104.382812 222.332031 C 104.253906 222.203125 104.0625 222.269531 103.9375 222.398438 L 96.484375 233.765625 C 96.421875 233.828125 96.421875 233.894531 96.421875 233.957031 L 93.109375 246.15625 L 81.898438 234.40625 C 81.644531 234.148438 81.199219 234.148438 80.945312 234.40625 L 77.253906 237.917969 C 77.058594 238.109375 76.996094 238.429688 77.125 238.683594 C 79.480469 243.792969 82.21875 248.710938 85.402344 253.375 C 89.605469 259.570312 91.898438 262.957031 94.828125 263.082031 L 95.082031 263.082031 C 102.152344 263.082031 108.011719 248.265625 109.605469 243.921875 L 120.75 261.105469 L 131.003906 288.25 C 131.070312 288.441406 131.195312 288.570312 131.386719 288.632812 C 131.449219 288.695312 131.578125 288.695312 131.640625 288.695312 C 131.707031 288.695312 131.832031 288.695312 131.894531 288.632812 L 137.183594 286.523438 C 137.5 286.398438 137.691406 286.015625 137.566406 285.695312 Z M 78.140625 221.949219 C 78.335938 221.886719 78.398438 221.695312 78.335938 221.566406 C 78.273438 221.375 78.082031 221.3125 77.953125 221.375 C 77.570312 221.503906 77.1875 221.695312 76.808594 221.886719 C 76.105469 222.203125 75.59375 222.589844 75.148438 222.90625 C 74.640625 223.226562 74.257812 223.546875 74.003906 223.355469 C 73.75 223.164062 73.75 222.523438 74.066406 221.4375 C 74.066406 221.3125 74.066406 221.246094 74.003906 221.121094 C 73.941406 220.992188 73.8125 220.992188 73.683594 220.992188 L 67.445312 222.078125 L 67.378906 222.011719 C 68.527344 220.351562 70.054688 219.011719 71.773438 218.054688 C 73.304688 217.222656 74.894531 216.710938 76.613281 216.519531 C 76.808594 216.519531 76.933594 216.328125 76.867188 216.199219 C 76.867188 216.007812 76.679688 215.882812 76.550781 215.945312 C 74.769531 216.136719 73.046875 216.648438 71.453125 217.542969 C 69.609375 218.5625 68.015625 219.96875 66.871094 221.695312 C 66.742188 221.949219 66.679688 222.203125 66.871094 222.460938 C 66.996094 222.714844 67.316406 222.84375 67.570312 222.78125 L 73.304688 221.820312 C 73.113281 222.78125 73.046875 223.609375 73.683594 223.992188 C 73.8125 224.058594 74.003906 224.121094 74.195312 224.121094 C 74.640625 224.121094 75.023438 223.867188 75.53125 223.484375 C 75.914062 223.226562 76.421875 222.84375 77.125 222.523438 C 77.445312 222.269531 77.824219 222.078125 78.140625 221.949219 Z M 114.765625 189.628906 C 114.890625 191.289062 114.828125 192.886719 114.445312 194.484375 C 114.253906 195.507812 113.9375 196.527344 113.488281 197.484375 C 113.425781 197.679688 113.488281 197.804688 113.679688 197.933594 C 113.871094 197.996094 114 197.933594 114.125 197.742188 C 114.574219 196.71875 114.890625 195.699219 115.144531 194.613281 C 115.527344 192.886719 115.589844 191.097656 115.464844 189.308594 C 115.464844 189.183594 115.335938 189.054688 115.210938 189.054688 C 114.699219 188.925781 114.253906 188.671875 114 188.226562 C 113.746094 187.839844 113.617188 187.457031 113.746094 187.074219 C 113.9375 186.4375 114.765625 185.988281 115.589844 186.054688 C 115.65625 186.054688 115.78125 186.054688 115.847656 185.988281 C 116.609375 185.351562 117.3125 184.519531 117.757812 183.625 C 118.203125 182.796875 118.457031 181.964844 118.585938 181.070312 L 118.265625 181.007812 L 118.648438 181.007812 C 119.414062 181.519531 120.304688 181.835938 121.195312 181.964844 C 122.34375 182.21875 123.617188 182.15625 124.761719 181.835938 L 124.828125 181.835938 C 125.335938 183.179688 125.71875 184.582031 125.847656 186.054688 C 126.035156 188.160156 126.355469 191.355469 124.382812 192.886719 C 123.933594 193.207031 122.917969 193.78125 121.195312 193.589844 C 121.132812 193.589844 121.003906 193.589844 120.941406 193.652344 C 120.878906 193.71875 120.8125 193.78125 120.8125 193.910156 L 120.8125 198.828125 C 120.8125 199.019531 120.941406 199.148438 121.132812 199.148438 C 121.324219 199.148438 121.453125 199.019531 121.453125 198.828125 L 121.453125 194.292969 C 123.171875 194.355469 124.253906 193.78125 124.761719 193.398438 C 126.992188 191.675781 126.675781 188.289062 126.484375 185.988281 C 126.355469 184.519531 125.972656 183.050781 125.464844 181.644531 C 125.335938 181.328125 125.019531 181.136719 124.636719 181.261719 C 123.554688 181.519531 122.40625 181.582031 121.386719 181.390625 C 120.558594 181.199219 119.730469 180.941406 119.03125 180.496094 C 118.839844 180.367188 118.585938 180.367188 118.394531 180.496094 C 118.203125 180.625 118.011719 180.816406 118.011719 181.007812 C 117.882812 181.835938 117.628906 182.605469 117.246094 183.371094 C 116.800781 184.136719 116.292969 184.839844 115.589844 185.414062 L 115.527344 185.414062 C 114.445312 185.414062 113.488281 186.054688 113.234375 186.949219 C 113.109375 187.457031 113.234375 188.097656 113.617188 188.609375 C 113.679688 189.117188 114.191406 189.503906 114.765625 189.628906 Z M 196.03125 39.335938 C 196.667969 40.613281 197.050781 42.019531 197.117188 43.359375 C 197.179688 44.382812 197.117188 45.40625 196.859375 46.363281 C 196.796875 46.554688 196.925781 46.683594 197.117188 46.746094 L 197.179688 46.746094 C 197.304688 46.746094 197.433594 46.617188 197.496094 46.492188 C 197.753906 45.46875 197.816406 44.382812 197.753906 43.296875 C 197.6875 41.761719 197.242188 40.230469 196.476562 38.886719 C 196.414062 38.824219 196.351562 38.761719 196.289062 38.761719 C 195.585938 38.507812 195.140625 37.804688 195.203125 37.101562 C 195.269531 36.398438 195.839844 35.824219 196.542969 35.757812 C 196.605469 35.757812 196.734375 35.695312 196.734375 35.632812 C 197.050781 35.121094 197.304688 34.609375 197.496094 34.035156 C 197.878906 32.691406 197.5625 31.542969 197.371094 30.96875 L 197.433594 30.902344 C 198.707031 31.351562 199.980469 31.609375 201.320312 31.609375 C 202.71875 31.609375 204.183594 31.351562 205.523438 30.902344 L 205.585938 30.902344 C 205.90625 31.992188 206.160156 33.078125 206.351562 34.164062 C 206.796875 37.039062 207.304688 40.550781 205.523438 42.082031 C 205.011719 42.53125 204.503906 42.65625 203.992188 42.71875 C 203.421875 42.851562 202.976562 42.976562 202.59375 43.488281 C 202.148438 44.128906 202.082031 45.085938 202.464844 46.363281 C 202.527344 46.554688 202.71875 46.617188 202.847656 46.554688 C 203.039062 46.492188 203.101562 46.296875 203.039062 46.171875 C 202.71875 45.148438 202.71875 44.382812 203.101562 43.871094 C 203.292969 43.550781 203.546875 43.488281 204.121094 43.359375 C 204.628906 43.230469 205.269531 43.105469 205.90625 42.59375 C 208.007812 40.804688 207.433594 37.101562 206.988281 34.097656 C 206.796875 32.949219 206.542969 31.800781 206.222656 30.714844 C 206.160156 30.523438 206.03125 30.394531 205.839844 30.265625 C 205.648438 30.203125 205.457031 30.203125 205.332031 30.265625 C 204.058594 30.714844 202.71875 30.96875 201.382812 30.96875 C 200.109375 30.96875 198.898438 30.714844 197.6875 30.265625 C 197.433594 30.203125 197.179688 30.265625 196.988281 30.394531 C 196.796875 30.585938 196.734375 30.839844 196.796875 31.097656 C 196.988281 31.609375 197.242188 32.628906 196.925781 33.777344 C 196.796875 34.226562 196.605469 34.671875 196.351562 35.054688 C 195.394531 35.246094 194.695312 36.015625 194.566406 36.972656 C 194.566406 37.996094 195.140625 38.953125 196.03125 39.335938 Z M 240.933594 92.605469 C 240.871094 92.542969 240.808594 92.480469 240.679688 92.414062 L 212.71875 78.875 C 212.59375 78.808594 212.402344 78.875 212.273438 79 C 212.210938 79.128906 212.273438 79.320312 212.402344 79.449219 L 240.359375 92.988281 L 259.023438 117.453125 L 254.246094 123.839844 L 254.183594 123.839844 L 234.375 100.847656 L 234.246094 100.71875 L 213.675781 94.648438 C 213.546875 94.585938 213.355469 94.648438 213.292969 94.777344 C 213.230469 94.90625 213.230469 95.035156 213.355469 95.160156 L 227.175781 109.597656 L 234.4375 138.53125 L 234.375 138.59375 L 227.6875 139.746094 L 216.730469 115.664062 C 216.730469 115.601562 216.667969 115.601562 216.667969 115.535156 L 191.191406 94.457031 L 191.191406 81.683594 C 191.191406 81.492188 191.066406 81.363281 190.875 81.363281 C 190.683594 81.363281 190.554688 81.492188 190.554688 81.683594 L 190.554688 94.457031 C 190.554688 94.648438 190.617188 94.84375 190.808594 94.96875 L 216.222656 115.984375 L 227.113281 140 C 227.242188 140.253906 227.496094 140.382812 227.75 140.382812 L 227.878906 140.382812 L 234.5 139.167969 C 234.691406 139.105469 234.882812 139.042969 234.945312 138.851562 C 235.074219 138.660156 235.074219 138.46875 235.011719 138.339844 L 227.75 109.40625 C 227.75 109.277344 227.6875 109.148438 227.558594 109.085938 L 214.628906 95.542969 L 233.992188 101.292969 L 253.734375 124.222656 C 253.863281 124.414062 254.117188 124.480469 254.308594 124.480469 C 254.5 124.480469 254.691406 124.351562 254.820312 124.222656 L 259.59375 117.835938 C 259.785156 117.582031 259.785156 117.261719 259.59375 117.007812 Z M 213.992188 43.996094 L 217.816406 40.742188 L 217.878906 40.675781 L 228.578125 21.898438 L 228.578125 21.835938 C 229.46875 18.640625 230.042969 17.171875 230.425781 17.238281 C 230.550781 17.238281 230.808594 17.300781 230.742188 20.046875 C 230.742188 20.175781 230.808594 20.238281 230.871094 20.304688 C 230.933594 20.363281 231.0625 20.363281 231.191406 20.363281 C 235.457031 18.707031 237.75 18.195312 238.132812 18.898438 C 238.449219 19.40625 237.621094 20.683594 236.09375 22.027344 C 234.757812 23.238281 233.035156 24.007812 231.125 24.328125 C 231 24.328125 230.933594 24.390625 230.871094 24.515625 L 222.398438 45.40625 L 217.878906 49.171875 C 217.75 49.300781 217.75 49.492188 217.816406 49.621094 C 217.878906 49.683594 217.941406 49.746094 218.070312 49.746094 C 218.132812 49.746094 218.195312 49.746094 218.261719 49.683594 L 222.78125 45.914062 C 222.847656 45.851562 222.910156 45.722656 222.972656 45.660156 L 231.316406 24.902344 C 233.292969 24.582031 235.011719 23.6875 236.414062 22.472656 C 237.496094 21.515625 239.277344 19.664062 238.578125 18.578125 C 238.066406 17.683594 236.667969 17.554688 231.316406 19.664062 C 231.378906 17.492188 231.125 16.789062 230.425781 16.664062 C 229.660156 16.53125 229.214844 16.980469 227.878906 21.640625 L 217.304688 40.296875 L 213.546875 43.550781 C 213.421875 43.679688 213.421875 43.871094 213.484375 43.996094 C 213.675781 44.128906 213.867188 44.128906 213.992188 43.996094 Z M 181.828125 46.554688 C 181.765625 46.746094 181.636719 46.808594 181.449219 46.808594 L 179.792969 46.363281 C 179.726562 46.363281 179.726562 46.296875 179.664062 46.296875 L 162.339844 31.671875 L 162.277344 31.609375 C 158.644531 26.691406 157.816406 26.304688 157.5625 26.5 C 157.4375 26.5625 157.308594 26.882812 157.816406 28.347656 C 157.882812 28.480469 157.816406 28.605469 157.753906 28.667969 C 157.691406 28.734375 157.5625 28.796875 157.4375 28.734375 C 153.933594 27.390625 152.023438 27.007812 151.578125 27.648438 C 151.449219 27.839844 151.449219 28.03125 151.578125 28.347656 C 151.957031 29.5625 153.871094 31.480469 156.035156 32.375 C 157.054688 32.757812 158.136719 33.011719 159.21875 33.011719 C 159.285156 33.011719 159.410156 33.078125 159.472656 33.140625 L 174.378906 50.703125 L 178.261719 51.980469 C 178.453125 52.046875 178.519531 52.238281 178.453125 52.367188 C 178.390625 52.492188 178.261719 52.558594 178.136719 52.558594 L 178.007812 52.558594 L 174.125 51.28125 C 173.996094 51.214844 173.933594 51.152344 173.867188 51.089844 L 159.09375 33.652344 C 157.945312 33.652344 156.800781 33.394531 155.78125 32.949219 C 153.359375 31.925781 151.386719 29.882812 151.003906 28.542969 C 150.875 28.09375 150.875 27.648438 151.066406 27.328125 C 151.386719 26.882812 151.894531 25.988281 157.054688 27.902344 C 156.734375 26.882812 156.734375 26.242188 157.308594 25.925781 C 157.945312 25.539062 158.457031 25.21875 162.851562 31.160156 L 180.109375 45.722656 L 181.703125 46.105469 C 181.765625 46.234375 181.828125 46.425781 181.828125 46.554688 "/>
</g>
<path style=" stroke:none;fill-rule:nonzero;fill:rgb(100%,100%,100%);fill-opacity:1;" d="M 245.328125 299.875 C 245.773438 298.917969 244.4375 297.445312 244.308594 297.320312 C 244.183594 297.574219 243.480469 298.917969 244.054688 299.808594 C 244.117188 299.9375 244.375 300.320312 244.691406 300.320312 C 245.011719 300.386719 245.265625 299.9375 245.328125 299.875 Z M 237.941406 298.46875 C 238.894531 297.511719 237.878906 295.148438 237.8125 294.957031 C 237.496094 295.210938 236.15625 296.554688 236.414062 297.894531 C 236.476562 298.085938 236.539062 298.660156 236.984375 298.789062 C 237.429688 298.980469 237.941406 298.46875 237.941406 298.46875 Z M 244.246094 290.164062 C 244.691406 289.207031 243.355469 287.738281 243.226562 287.609375 C 243.101562 287.867188 242.398438 289.207031 242.972656 290.101562 C 243.035156 290.230469 243.289062 290.613281 243.609375 290.613281 C 243.925781 290.675781 244.183594 290.230469 244.246094 290.164062 Z M 238.960938 288.25 C 238.578125 288.121094 238.449219 287.546875 238.386719 287.355469 C 238.132812 286.015625 239.46875 284.671875 239.789062 284.417969 C 239.851562 284.609375 240.871094 286.972656 239.914062 287.929688 C 239.914062 287.929688 239.40625 288.378906 238.960938 288.25 "/>
</g>
</svg>
