<svg width="176" height="282" viewBox="0 0 176 282" fill="none" xmlns="http://www.w3.org/2000/svg">
<path d="M26.1914 139.66C9.63672 108.891 10.6484 72.3906 29.2891 45.2695C30.9805 42.7969 56.7148 6.6914 98.6133 8.48828C128.289 9.78125 148.453 29.3203 153.746 34.8789C156.672 37.9141 161.797 43.8086 166.078 51.6719C184.266 85.082 169.965 124.109 166.473 132.98C142.988 182.34 119.504 231.695 96.0234 281.055C72.7656 233.941 49.5039 186.832 26.1914 139.664" fill="#F3DF05"/>
<path d="M76.9297 50.9961C92.9258 50.9961 105.879 63.9688 105.879 79.8594C105.879 95.8047 92.9258 108.723 76.9297 108.723C60.9375 108.723 47.9844 95.8047 47.9844 79.8594C47.9844 63.9102 60.9375 50.9961 76.9297 50.9961Z" fill="white"/>
<path d="M83.1836 2.36718C43.1992 2.36718 18.7031 37.2383 17.6875 38.8086C-0.72657 65.5391 -1.90626 101.309 14.6484 132.082L83.5195 271.562L153.07 125.398C158.531 111.527 169.457 75.8164 152.73 45.043C148.734 37.7422 143.891 32.0156 140.566 28.4805C133.473 21.0664 113.988 3.60156 86.168 2.42187C85.0976 2.36718 84.1406 2.36718 83.1836 2.36718ZM83.5195 274.992C83.125 274.992 82.7891 274.766 82.5625 274.43L12.7344 133.035C-4.16016 101.59 -2.98048 65.0352 15.8867 37.6328C17.0117 36.0586 43.3086 -1.44922 86.1094 0.40234C114.719 1.63671 134.652 19.4375 141.918 27.0742C145.352 30.668 150.367 36.5664 154.422 44.0898C171.598 75.6484 160.445 112.09 154.871 126.297L84.4766 274.375C84.3086 274.711 83.9141 274.934 83.5195 274.992Z" fill="#0F0E0C"/>
</svg>
