<svg width="107" height="151" viewBox="0 0 107 151" fill="none" xmlns="http://www.w3.org/2000/svg">
<path d="M33.6719 21.7773C33.0117 21.7773 32.4766 22.0039 32.0703 22.4531C31.668 22.9023 31.4648 23.5742 31.4648 24.4727V30.7578H21.8398V24.4727C21.8398 23.5625 21.6289 22.8906 21.2148 22.4453C20.8008 22 20.2539 21.7773 19.5859 21.7773C18.9062 21.7773 18.3672 22.0039 17.9727 22.4531C17.5742 22.9023 17.3789 23.5742 17.3789 24.4727V41.7539C17.3789 42.6523 17.5781 43.3281 17.9805 43.7812C18.3789 44.2344 18.9141 44.4648 19.5859 44.4648C20.2461 44.4648 20.7852 44.2383 21.207 43.7891C21.6289 43.3398 21.8398 42.6641 21.8398 41.7539V34.3789H31.4648V41.7539C31.4648 42.6523 31.6641 43.3281 32.0664 43.7812C32.4648 44.2344 33 44.4648 33.6719 44.4648C34.332 44.4648 34.8711 44.2383 35.293 43.7891C35.7148 43.3398 35.9219 42.6641 35.9219 41.7539V24.4727C35.9219 23.5625 35.7148 22.8906 35.3008 22.4453C34.8867 22 34.3398 21.7773 33.6719 21.7773Z" fill="#009A94"/>
<path d="M42.457 27.8555C41.8555 27.8555 41.3672 28.0586 40.9922 28.4688C40.6172 28.875 40.4297 29.4844 40.4297 30.293V41.9805C40.4297 42.7773 40.6172 43.3906 40.9922 43.8203C41.3672 44.25 41.8555 44.4648 42.457 44.4648C43.0586 44.4648 43.5508 44.2539 43.9414 43.8359C44.332 43.4141 44.5273 42.7969 44.5273 41.9805V30.1719C44.5273 29.4453 44.332 28.875 43.9414 28.4688C43.5508 28.0586 43.0586 27.8555 42.457 27.8555Z" fill="#009A94"/>
<path d="M43.9141 22.4688C43.5 22.1289 43.0312 21.957 42.5 21.957C41.9492 21.957 41.4688 22.1445 41.0508 22.5195C40.6367 22.8945 40.4297 23.3711 40.4297 23.9492C40.4297 24.5859 40.6328 25.082 41.0352 25.4297C41.4414 25.7773 41.9297 25.9531 42.5 25.9531C43.0508 25.9531 43.5273 25.7773 43.9258 25.4219C44.3281 25.0664 44.5273 24.5781 44.5273 23.9492C44.5273 23.3008 44.3242 22.8047 43.9141 22.4688Z" fill="#009A94"/>
<path d="M51.75 39.9609C51.1211 39.9609 50.5859 40.1758 50.1523 40.6094C49.7148 41.043 49.5 41.5703 49.5 42.1875C49.5 42.8984 49.7266 43.4492 50.1836 43.8438C50.6367 44.2344 51.1719 44.4336 51.7812 44.4336C52.3828 44.4336 52.9062 44.2344 53.3594 43.8359C53.8086 43.4375 54.0352 42.8867 54.0352 42.1875C54.0352 41.5703 53.8125 41.043 53.3672 40.6094C52.9219 40.1758 52.3828 39.9609 51.75 39.9609Z" fill="#009A94"/>
<path d="M51.8711 21.7773C51.1602 21.7773 50.5859 22.0117 50.1523 22.4727C49.7148 22.9375 49.5 23.5859 49.5 24.4141C49.5 25.0195 49.543 26.0234 49.6328 27.418L50.1133 34.5898C50.2031 35.5156 50.3555 36.207 50.5664 36.6602C50.7773 37.1133 51.1523 37.3398 51.6914 37.3398C52.2227 37.3398 52.6016 37.1055 52.832 36.6367C53.0625 36.168 53.2109 35.4961 53.2852 34.6172L53.9297 27.2422C54 26.5625 54.0352 25.8945 54.0352 25.2344C54.0352 24.1172 53.8867 23.2617 53.5977 22.668C53.3086 22.0781 52.7344 21.7773 51.8711 21.7773Z" fill="#009A94"/>
<path d="M97.7109 90.9141L101.59 108.348L84.9062 101.688C84.4336 101.496 83.9023 101.496 83.4336 101.688C79.8828 103.102 76.1289 103.816 72.2734 103.816C70.3437 103.816 68.418 103.633 66.5547 103.273C54.3828 100.941 44.7773 91.1992 42.6484 79.0312C42.3477 77.3359 42.1953 75.5898 42.1953 73.8438C42.1953 71.8047 42.4063 69.7695 42.8164 67.7773C55.0664 65.1719 64.8984 55.9844 68.3828 44.1172C69.6797 43.9531 70.9844 43.8672 72.2734 43.8672C88.8633 43.8672 102.355 57.3164 102.355 73.8438C102.355 79.3711 100.832 84.7695 97.957 89.457C97.6875 89.8945 97.6016 90.418 97.7109 90.9141ZM34.6016 140.715C30.7461 140.715 26.9922 139.996 23.4453 138.586C22.9727 138.395 22.4453 138.395 21.9727 138.586L5.28516 145.246L9.16406 127.812C9.27344 127.312 9.1875 126.793 8.91797 126.355C6.04297 121.668 4.51953 116.27 4.51953 110.742C4.51953 94.2148 18.0156 80.7695 34.6016 80.7695C36.0781 80.7695 37.5586 80.8789 39.0156 81.0938C41.7891 93.7617 51.7656 103.875 64.4297 106.859C64.5937 108.137 64.6797 109.437 64.6797 110.742C64.6797 127.27 51.1875 140.715 34.6016 140.715ZM24.5508 62.4414C24.0742 62.2539 23.5469 62.2539 23.0742 62.4414L6.39062 69.1055L10.2695 51.6719C10.3789 51.1719 10.293 50.6484 10.0234 50.2109C7.14844 45.5234 5.625 40.125 5.625 34.5977C5.625 18.0703 19.1211 4.625 35.707 4.625C52.293 4.625 65.7852 18.0703 65.7852 34.5977C65.7852 51.125 52.293 64.5703 35.707 64.5703C31.8516 64.5703 28.0977 63.8555 24.5508 62.4414ZM72.2734 39.918C71.2891 39.918 70.3008 39.9609 69.3086 40.0469C69.5977 38.2734 69.75 36.4531 69.75 34.5977C69.75 15.8945 54.4766 0.675781 35.707 0.675781C16.9336 0.675781 1.66016 15.8945 1.66016 34.5977C1.66016 40.582 3.23828 46.4336 6.22656 51.5781L1.70703 71.9023C1.54688 72.6172 1.80078 73.3594 2.35938 73.8359C2.72266 74.1445 3.17969 74.3047 3.64453 74.3047C3.89063 74.3047 4.14063 74.2578 4.37891 74.1641L23.8281 66.3984C27.625 67.8086 31.6172 68.5234 35.707 68.5234C36.707 68.5234 37.6953 68.4766 38.6719 68.3945C38.3828 70.1914 38.2305 72.0156 38.2305 73.8438C38.2305 74.9102 38.2852 75.9727 38.3828 77.0312C37.1289 76.8906 35.8633 76.8164 34.6016 76.8164C15.8281 76.8164 0.554688 92.0352 0.554688 110.742C0.554688 116.727 2.13281 122.578 5.12109 127.723L0.601562 148.047C0.445312 148.762 0.695312 149.504 1.25391 149.98C1.62109 150.289 2.07422 150.449 2.53906 150.449C2.78906 150.449 3.03906 150.402 3.27734 150.305L22.7227 142.539C26.5156 143.949 30.5078 144.664 34.6016 144.664C53.3711 144.664 68.6445 129.445 68.6445 110.742C68.6445 109.676 68.5937 108.613 68.4922 107.559C69.7422 107.695 71.0078 107.766 72.2734 107.766C76.3672 107.766 80.3594 107.055 84.1523 105.645L103.602 113.406C103.84 113.5 104.09 113.547 104.336 113.547C104.801 113.547 105.258 113.387 105.621 113.078C106.18 112.605 106.434 111.859 106.273 111.145L101.754 90.8242C104.742 85.6797 106.32 79.8281 106.32 73.8438C106.32 55.1367 91.0469 39.918 72.2734 39.918Z" fill="#009A94"/>
<path d="M60.4336 77.5391V65.5703H62.6523V77.5391H60.4336ZM62.6523 82.0117H65.1992V70.6289C66.8125 71.6016 68.0703 72.9531 68.9805 74.6914L71.0664 73.0195C70.1367 71.1328 68.4062 69.5664 65.875 68.3203L65.1992 68.8281V63.1289H57.8711V82.0117H60.4336V80.0938H62.6523V82.0117Z" fill="#009A94"/>
<path d="M62.5859 87.9062L64.9375 89.25C67.7852 85.7656 69.5742 81.875 70.293 77.5742L68.1445 76.6719C67.1875 80.6758 65.3359 84.4219 62.5859 87.9062Z" fill="#009A94"/>
<path d="M81.3203 74.5586H78.875L80.582 73.4766C79.8047 71.9297 78.7656 70.6992 77.4609 69.793H81.4062L81.3203 74.5586ZM80.9297 82.4375H78.7422L80.4844 81.3047C79.9141 79.8984 78.6719 78.5547 76.7539 77.2773L74.7656 78.5547C76.3125 79.5039 77.4766 80.8008 78.2656 82.4375H73.7969L74.6328 77.1133H81.2578C81.1484 79.5352 81.0391 81.3125 80.9297 82.4375ZM74.7969 69.793H77.082L75.2422 70.9062C76.5547 71.957 77.5625 73.1719 78.2656 74.5586H74.668C74.7305 73.1953 74.7773 71.6055 74.7969 69.793ZM84.0156 67.2383H73.1562C73.1836 67.1875 73.207 67.1406 73.2383 67.0859L73.6953 66.6016C73.6563 66.5469 73.6172 66.4922 73.5781 66.4375C73.8633 65.8867 74.0898 65.3984 74.2578 64.9961H85.875V62.5547H75.2422C75.4727 61.8477 75.6055 60.9609 75.6367 59.9023L73.3516 59.1328C73.0898 60.8945 72.5352 62.6328 71.6953 64.3438C70.875 63.6484 69.957 63.0781 68.9297 62.6406L67.0703 64.3281C68.4258 64.957 69.5273 65.7305 70.3906 66.6367C69.8594 67.4492 69.2656 68.2539 68.6016 69.0547L70.9375 70.5625L72.1055 68.7969C72.168 69.3945 72.2031 70.3438 72.2031 71.6445C72.2031 72.6719 72.1563 73.6406 72.0703 74.5586H70.0508V77.1133H71.9062C71.6758 79.8438 71.2695 82.4375 70.6914 84.8906H80.6484C80.6172 86.2891 80.3125 86.9727 79.7461 86.9375L75.5391 86.6602L76.8203 89.3789L78.9375 89.4102C80.3633 89.4336 81.3789 89.2031 81.9883 88.7266C82.5977 88.2461 83.0352 86.9648 83.3125 84.8906H85.875V82.4375H83.4922L83.8203 77.1133H86.6797V74.5586H83.8867L84.0156 67.2383Z" fill="#009A94"/>
<path d="M47.7891 113.676C47.7891 114.555 47.6719 115.187 47.4453 115.574C47.2461 115.922 46.9297 116.203 46.5039 116.426C46.0781 116.645 45.6133 116.754 45.1094 116.754C44.6367 116.754 44.2539 116.617 43.9609 116.348C43.668 116.078 43.5234 115.754 43.5234 115.367C43.5234 114.996 43.6484 114.707 43.8984 114.5C44.1445 114.289 44.4062 114.152 44.6797 114.082C44.9531 114.008 45.4492 113.898 46.1602 113.746C46.8711 113.594 47.4141 113.449 47.7891 113.312V113.676ZM50.2695 114.895C50.2773 114.387 50.2813 113.922 50.2852 113.508C50.2891 113.094 50.2891 112.586 50.2891 111.992C50.2891 111.051 50.1563 110.293 49.8945 109.723C49.6289 109.152 49.1758 108.738 48.5352 108.473C47.8945 108.211 47.0156 108.078 45.8945 108.078C44.8906 108.078 44.0547 108.215 43.3828 108.488C42.7109 108.762 42.2187 109.105 41.8984 109.527C41.582 109.949 41.4258 110.383 41.4258 110.832C41.4258 111.113 41.5273 111.352 41.7344 111.531C41.9453 111.715 42.1914 111.809 42.4766 111.809C42.7969 111.809 43.0039 111.75 43.0977 111.633C43.1953 111.52 43.3594 111.281 43.5938 110.922C43.8281 110.562 44.1055 110.293 44.4336 110.113C44.7617 109.934 45.2461 109.844 45.8945 109.844C46.6484 109.844 47.1406 110 47.3828 110.316C47.6211 110.625 47.7578 111.117 47.7891 111.789C47.2539 111.941 46.7578 112.074 46.3008 112.184C45.8438 112.293 45.293 112.41 44.6523 112.543C44.0117 112.672 43.6094 112.754 43.4492 112.793C42.6758 112.961 42.0703 113.289 41.6289 113.777C41.1875 114.27 40.9648 114.859 40.9648 115.555C40.9648 116.07 41.1016 116.547 41.3672 116.984C41.6367 117.426 42.0156 117.777 42.5117 118.031C43.0078 118.289 43.5781 118.418 44.2344 118.418C44.9492 118.418 45.5937 118.301 46.168 118.062C46.7461 117.82 47.3398 117.465 47.957 116.984C48.2422 117.453 48.5117 117.805 48.7695 118.051C49.0234 118.297 49.2812 118.418 49.543 118.418C49.8555 118.418 50.1328 118.313 50.3789 118.098C50.625 117.883 50.7461 117.645 50.7461 117.387C50.7461 117.238 50.668 116.902 50.5078 116.387C50.3477 115.867 50.2695 115.371 50.2695 114.895Z" fill="#009A94"/>
<path d="M31.0898 115.66C30.6328 116.242 30.0156 116.531 29.2461 116.531C28.7344 116.531 28.293 116.398 27.9141 116.137C27.5391 115.871 27.25 115.492 27.0469 114.996C26.8438 114.5 26.7461 113.922 26.7461 113.258C26.7461 112.586 26.8477 112 27.0508 111.5C27.2578 110.996 27.5508 110.617 27.9297 110.359C28.3086 110.105 28.7461 109.977 29.2461 109.977C30.0156 109.977 30.6328 110.266 31.0898 110.84C31.5469 111.418 31.7734 112.223 31.7734 113.258C31.7734 114.281 31.5469 115.082 31.0898 115.66ZM32.9609 109.527C32.5117 109.07 31.9727 108.715 31.3477 108.469C30.7148 108.223 30.0156 108.098 29.2461 108.098C28.4844 108.098 27.793 108.219 27.1641 108.465C26.5352 108.707 26 109.059 25.5586 109.512C25.1172 109.965 24.7773 110.508 24.543 111.148C24.3047 111.785 24.1875 112.488 24.1875 113.258C24.1875 114.02 24.3047 114.715 24.5391 115.348C24.7695 115.973 25.1133 116.52 25.5625 116.98C26.0156 117.445 26.5508 117.797 27.1641 118.047C27.7813 118.293 28.4727 118.418 29.2461 118.418C30.0234 118.418 30.7227 118.297 31.3477 118.051C31.9688 117.805 32.5 117.453 32.9492 116.996C33.3984 116.535 33.7422 115.988 33.9766 115.348C34.2148 114.711 34.332 114.012 34.332 113.258C34.332 112.496 34.2148 111.797 33.9805 111.164C33.7461 110.531 33.4062 109.988 32.9609 109.527Z" fill="#009A94"/>
<path d="M20.5938 104.32C20.1836 104.32 19.8516 104.461 19.6016 104.738C19.3477 105.02 19.2227 105.437 19.2227 105.996V109.902H13.2422V105.996C13.2422 105.43 13.1133 105.012 12.8516 104.734C12.5938 104.457 12.2578 104.32 11.8398 104.32C11.418 104.32 11.082 104.461 10.8359 104.738C10.5937 105.02 10.4688 105.437 10.4688 105.996V116.734C10.4688 117.293 10.5938 117.711 10.8438 117.996C11.0898 118.277 11.4258 118.418 11.8398 118.418C12.25 118.418 12.5859 118.277 12.8477 118C13.1094 117.723 13.2422 117.301 13.2422 116.734V112.148H19.2227V116.734C19.2227 117.293 19.3477 117.711 19.5977 117.996C19.8438 118.277 20.1797 118.418 20.5938 118.418C21.0039 118.418 21.3398 118.277 21.6016 118C21.8633 117.723 21.9961 117.301 21.9961 116.734V105.996C21.9961 105.43 21.8633 105.012 21.6055 104.734C21.3477 104.457 21.0117 104.32 20.5938 104.32Z" fill="#009A94"/>
<path d="M37.5977 104.32C37.2109 104.32 36.9062 104.453 36.6797 104.711C36.4531 104.973 36.3359 105.355 36.3359 105.863V116.875C36.3359 117.371 36.4531 117.754 36.6875 118.02C36.9219 118.285 37.2266 118.418 37.5977 118.418C37.9766 118.418 38.2852 118.289 38.5273 118.031C38.7656 117.777 38.8867 117.391 38.8867 116.875V105.863C38.8867 105.352 38.7695 104.965 38.5312 104.707C38.293 104.449 37.9844 104.32 37.5977 104.32Z" fill="#009A94"/>
<path d="M54.7305 115.621C54.3398 115.621 54.0078 115.754 53.7383 116.023C53.4688 116.293 53.332 116.621 53.332 117.004C53.332 117.445 53.4727 117.789 53.7539 118.031C54.0391 118.277 54.3711 118.398 54.75 118.398C55.125 118.398 55.4492 118.277 55.7305 118.027C56.0117 117.781 56.1484 117.438 56.1484 117.004C56.1484 116.621 56.0117 116.293 55.7344 116.023C55.457 115.754 55.125 115.621 54.7305 115.621Z" fill="#009A94"/>
<path d="M53.7148 112.281C53.7695 112.859 53.8633 113.289 53.9922 113.57C54.125 113.852 54.3594 113.992 54.6953 113.992C55.0234 113.992 55.2617 113.848 55.4023 113.555C55.5469 113.262 55.6406 112.844 55.6836 112.301L56.0859 107.715C56.1289 107.293 56.1484 106.879 56.1484 106.469C56.1484 105.773 56.0586 105.242 55.8789 104.875C55.6992 104.508 55.3398 104.32 54.8047 104.32C54.3633 104.32 54.0078 104.465 53.7383 104.754C53.4688 105.039 53.332 105.441 53.332 105.957C53.332 106.336 53.3594 106.961 53.4141 107.828L53.7148 112.281Z" fill="#009A94"/>
</svg>
