<svg width="314" height="301" viewBox="0 0 314 301" fill="none" xmlns="http://www.w3.org/2000/svg">
<path d="M162.078 71.9336C114.109 71.9336 75.2656 110.766 75.2656 158.59C75.2656 184.598 86.793 207.973 104.984 223.852C107.086 222.355 109.605 221.457 112.367 221.457H197.559C203.445 221.457 208.426 225.531 209.809 230.984C233.34 215.461 248.891 188.855 248.891 158.59C248.891 110.707 210.047 71.9336 162.078 71.9336ZM202.484 269.34C196.66 287.977 179.188 300.621 159.797 300.32C140.887 300.023 124.137 287.438 118.551 269.277C146.527 269.277 174.504 269.277 202.484 269.34Z" fill="#43B4BE"/>
<path d="M200.863 264.844H105.582C102.34 264.844 99.6992 262.207 99.6992 258.973V251.18C99.6992 247.945 102.34 245.309 105.582 245.309H200.863C204.105 245.309 206.746 247.945 206.746 251.18V258.973C206.805 262.148 204.105 264.844 200.863 264.844ZM206.805 239.254V231.465C206.805 228.227 204.164 225.59 200.922 225.59H105.582C102.34 225.59 99.6992 228.227 99.6992 231.465V239.254C99.6992 242.492 102.34 245.129 105.582 245.129H200.863C204.105 245.188 206.805 242.492 206.805 239.254ZM181.469 156.254C179.488 154.277 176.848 153.137 173.844 153.137H172.883C166.941 153.137 162.199 157.871 162.137 163.805L162.078 174.59H173.844C179.789 174.59 184.594 169.797 184.594 163.863C184.594 160.867 183.391 158.172 181.469 156.254ZM148.328 163.383V174.531H134.281C131.219 174.531 128.398 173.273 126.355 171.234C124.316 169.199 123.113 166.441 123.113 163.383C123.113 157.211 128.098 152.238 134.281 152.238H137.164C143.285 152.238 148.328 157.211 148.328 163.383Z" fill="white"/>
<path d="M172.285 235.359C172.285 235.898 171.863 236.379 171.266 236.379H132.84C132.301 236.379 131.82 235.957 131.82 235.359C131.82 234.762 132.238 234.34 132.84 234.34H171.266C171.863 234.398 172.285 234.82 172.285 235.359ZM279.328 51.5586L244.809 86.4961C244.629 86.6758 244.328 86.793 244.09 86.793C243.848 86.793 243.609 86.6758 243.367 86.4961C242.949 86.1367 242.949 85.4766 243.367 85.0547L277.891 50.1172C278.25 49.6992 278.91 49.6992 279.328 50.1172C279.75 50.5352 279.75 51.1367 279.328 51.5586ZM31.7383 53.5352C31.3789 53.1133 31.3789 52.5156 31.7383 52.0977C32.1562 51.7344 32.7578 51.7344 33.1797 52.0977L67.6992 87.0352C68.0586 87.4531 68.0586 88.0547 67.6992 88.4727C67.5195 88.6523 67.2773 88.7734 66.9805 88.7734C66.7383 88.7734 66.4375 88.6523 66.2578 88.4727L31.7383 53.5352ZM152.23 50.7188V1.69531C152.23 1.15625 152.652 0.675781 153.254 0.675781C153.852 0.675781 154.273 1.09766 154.273 1.69531V50.7188C154.273 51.2578 153.852 51.7344 153.254 51.7344C152.652 51.7344 152.23 51.2578 152.23 50.7188ZM313.789 160.207C313.789 160.746 313.371 161.227 312.77 161.227H263.66C263.121 161.227 262.641 160.805 262.641 160.207C262.641 159.609 263.059 159.188 263.66 159.188H312.77C313.312 159.188 313.789 159.668 313.789 160.207ZM50.6484 160.266C50.6484 160.805 50.2266 161.285 49.6289 161.285H1.77734C1.23828 161.285 0.757812 160.867 0.757812 160.266C0.757812 159.668 1.17969 159.25 1.77734 159.25H49.6875C50.2266 159.25 50.6484 159.727 50.6484 160.266ZM84.6289 174.648C84.75 175.187 84.4492 175.73 83.9102 175.848C83.8477 175.848 83.7305 175.91 83.668 175.91C83.25 175.91 82.8281 175.609 82.707 175.188C81.6875 171.355 80.9062 167.457 80.4883 163.504C80.4258 162.965 80.8477 162.484 81.3867 162.426C81.9297 162.363 82.4102 162.785 82.4687 163.324C82.8867 167.098 83.6094 170.934 84.6289 174.648ZM138.184 84.5156C138.301 85.0547 138.004 85.5977 137.461 85.7148C107.023 92.9062 84.8711 118.617 82.3477 149.781C82.2891 150.32 81.8672 150.68 81.3281 150.68H81.2656C80.7266 150.617 80.3086 150.141 80.3672 149.602C82.9492 117.598 105.703 91.168 136.98 83.7969C137.461 83.6172 138.004 83.9766 138.184 84.5156ZM165.918 178.188L165.98 169.734C165.98 165.121 169.762 161.406 174.383 161.406H175.227C177.445 161.406 179.609 162.305 181.168 163.863C182.73 165.422 183.629 167.52 183.629 169.797C183.629 174.41 179.848 178.188 175.227 178.188H165.918ZM199.84 224.75L199.66 224.93C198.82 224.691 197.918 224.57 196.957 224.57H165.617L165.859 180.223H175.164C180.867 180.223 185.551 175.551 185.551 169.855C185.551 167.098 184.469 164.461 182.488 162.543C180.508 160.566 177.926 159.488 175.105 159.488H174.266C168.562 159.488 163.879 164.102 163.879 169.797L163.816 178.246H144.008V169.855C144.008 164.164 139.324 159.488 133.621 159.488H131.219C125.516 159.488 120.832 164.164 120.832 169.855C120.832 172.613 121.914 175.25 123.895 177.168C125.875 179.145 128.457 180.223 131.277 180.223H142.086V224.57H109.484C108.523 224.57 107.625 224.691 106.781 224.93L106.602 224.75C82.4102 208.93 67.9375 182.32 67.9375 153.496C67.9375 106.57 106.184 68.3945 153.191 68.3945C200.199 68.3945 238.445 106.57 238.445 153.496C238.504 182.262 224.035 208.93 199.84 224.75ZM163.637 224.57H144.066V180.223H163.879L163.637 224.57ZM142.086 178.188H131.277C129.059 178.188 126.895 177.285 125.336 175.73C123.773 174.172 122.871 172.074 122.871 169.797C122.871 165.18 126.656 161.406 131.277 161.406H133.68C138.301 161.406 142.086 165.18 142.086 169.797V178.188ZM205.723 234.398H182.25C181.711 234.398 181.23 234.82 181.23 235.418C181.23 236.016 181.648 236.438 182.25 236.438H205.723C205.242 240.812 201.461 244.227 196.957 244.227H109.484C104.98 244.227 101.199 240.812 100.719 236.438H120.953C121.492 236.438 121.973 236.016 121.973 235.418C121.973 234.82 121.551 234.398 120.953 234.398H100.719C101.199 230.023 104.98 226.609 109.484 226.609H196.957C201.461 226.547 205.242 229.965 205.723 234.398ZM205.723 253.996H155.293C154.754 253.996 154.273 254.414 154.273 255.016C154.273 255.555 154.691 256.035 155.293 256.035H205.723C205.242 260.41 201.52 263.824 196.957 263.824L108.402 263.766C104.383 263.285 101.199 260.047 100.719 256.035H140.703C141.246 256.035 141.723 255.613 141.723 255.016C141.723 254.477 141.305 253.996 140.703 253.996H100.719C101.199 249.621 104.98 246.207 109.484 246.207H196.957C201.461 246.207 205.242 249.621 205.723 253.996ZM152.531 296.547C133.32 296.246 116.57 283.961 110.324 265.801H196.18C189.812 284.32 172.043 296.844 152.531 296.547ZM153.25 66.3594C105.164 66.3594 66.0195 105.434 66.0195 153.434C66.0195 182.562 80.4258 209.469 104.621 225.711C101.141 227.508 98.7383 231.102 98.7383 235.297C98.7383 239.672 101.32 243.449 105.102 245.125C101.379 246.805 98.7383 250.578 98.7383 254.953C98.7383 260.469 102.879 265.023 108.285 265.684C114.59 285.039 132.297 298.164 152.531 298.523H153.25C173.605 298.523 191.977 285.16 198.34 265.684C203.684 265.023 207.824 260.469 207.824 254.953C207.824 250.578 205.242 246.805 201.461 245.125C205.184 243.449 207.824 239.672 207.824 235.297C207.824 231.102 205.422 227.508 201.941 225.711C226.137 209.469 240.547 182.5 240.547 153.434C240.484 105.434 201.34 66.3594 153.25 66.3594Z" fill="#0F0E0C"/>
</svg>
