<svg width="155" height="300" viewBox="0 0 155 300" fill="none" xmlns="http://www.w3.org/2000/svg">
<path d="M30.5951 132.013L4.57166 69.2587L61.4857 45.4892L88.6537 111.138L140.583 236.399L83.6654 260.173L30.5951 132.013Z" fill="#54C38A"/>
<path d="M31.3763 17.1259C31.0756 16.4033 31.4349 15.497 32.1576 15.1962L38.4076 12.6025C44.1771 10.1884 50.849 12.9619 53.2553 18.7548L55.2943 23.6415C55.5951 24.3681 55.2357 25.2744 54.517 25.5751C53.7943 25.8759 52.892 25.454 52.5326 24.7275L50.4896 19.8447C48.6849 15.5595 43.7553 13.5087 39.4896 15.2548L33.2396 17.8525C32.517 18.2119 31.6771 17.8525 31.3763 17.1259ZM51.2709 102.325L60.1654 123.747C60.4662 124.47 60.1029 125.376 59.3842 125.677C58.6615 125.981 57.7631 125.618 57.4623 124.895L48.5638 103.474C48.2631 102.751 48.6263 101.845 49.349 101.544C50.1303 101.181 50.9701 101.544 51.2709 102.325ZM68.6381 144.321L99.4115 218.54C99.7123 219.263 99.3529 220.169 98.6302 220.47C97.9076 220.774 97.0092 220.411 96.7084 219.688L65.9349 145.47C65.6342 144.747 65.9935 143.841 66.7162 143.54C67.4974 143.177 68.3373 143.54 68.6381 144.321ZM148.095 265.485L119.607 277.372L99.5326 262.349L151.701 240.563L148.095 265.485ZM126.036 282.2L122.31 279.364L147.615 268.802L146.954 273.45L126.036 282.2ZM11.9623 15.6181L39.7279 3.97358C46.8803 1.01655 55.056 4.39545 58.0013 11.5751L67.3763 34.2626L13.1654 56.829L4.02478 34.8056C0.962283 27.3251 4.50916 18.6962 11.9623 15.6181ZM19.4154 71.915L73.6263 49.2861L151.579 237.485L97.306 260.052L19.4154 71.915ZM14.306 59.5439L68.517 36.9189L72.4857 46.5712L18.2709 69.2001L14.306 59.5439ZM38.6459 1.31733L10.8178 12.9033C1.86463 16.6455 -2.3424 26.9619 1.32166 35.954L95.142 262.528C95.2045 262.708 95.3217 262.829 95.4427 262.95L95.5638 263.071C95.6224 263.071 95.6224 263.13 95.6849 263.13L144.068 299.274C144.486 299.575 145.029 299.638 145.509 299.454C145.99 299.274 146.29 298.852 146.411 298.31L154.947 238.392V238.149C154.947 237.97 154.884 237.786 154.826 237.669L60.7045 10.4306C57.099 1.8017 47.2435 -2.30376 38.6459 1.31733Z" fill="#0F0E0C"/>
</svg>
