<svg xmlns="http://www.w3.org/2000/svg" xmlns:xlink="http://www.w3.org/1999/xlink"><defs><path d="M12.662 39.432c2.844 0 5.301-.387 7.371-1.161 2.07-.774 3.645-1.863 4.725-3.267 1.08-1.404 1.62-3.006 1.62-4.806 0-2.124-.558-3.78-1.674-4.968-1.116-1.188-2.43-2.007-3.942-2.457-1.512-.45-3.456-.873-5.832-1.269-2.124-.324-3.672-.666-4.644-1.026s-1.458-.99-1.458-1.89c0-.792.45-1.44 1.35-1.944.9-.504 2.25-.756 4.05-.756 3.024 0 5.814.72 8.37 2.16l2.808-5.994c-1.332-.792-3.015-1.413-5.049-1.863a28.293 28.293 0 00-6.129-.675c-2.772 0-5.175.396-7.209 1.188-2.034.792-3.582 1.899-4.644 3.321C1.313 15.447.782 17.076.782 18.912c0 2.196.567 3.888 1.701 5.076a9.132 9.132 0 004.023 2.484c1.548.468 3.51.882 5.886 1.242 2.016.252 3.51.558 4.482.918.972.36 1.458.954 1.458 1.782 0 1.764-1.782 2.646-5.346 2.646-1.764 0-3.564-.261-5.4-.783-1.836-.522-3.402-1.197-4.698-2.025L.08 36.3c1.368.9 3.204 1.647 5.508 2.241 2.304.594 4.662.891 7.074.891zm32.44 0c3.06 0 5.733-.648 8.019-1.944 2.286-1.296 3.951-3.096 4.995-5.4l-6.534-3.564c-1.476 2.664-3.654 3.996-6.534 3.996-2.196 0-4.014-.72-5.454-2.16-1.44-1.44-2.16-3.402-2.16-5.886s.72-4.446 2.16-5.886c1.44-1.44 3.258-2.16 5.454-2.16 2.844 0 5.022 1.332 6.534 3.996l6.534-3.51c-1.044-2.376-2.709-4.203-4.995-5.481-2.286-1.278-4.959-1.917-8.019-1.917-3.096 0-5.877.639-8.343 1.917s-4.392 3.051-5.778 5.319c-1.386 2.268-2.079 4.842-2.079 7.722 0 2.88.693 5.454 2.079 7.722 1.386 2.268 3.312 4.041 5.778 5.319 2.466 1.278 5.247 1.917 8.343 1.917zm29.632 0c1.8 0 3.474-.333 5.022-.999a11.172 11.172 0 003.996-2.889V39h7.992V9.948H83.32v14.364c0 2.592-.612 4.545-1.836 5.859-1.224 1.314-2.844 1.971-4.86 1.971-3.924 0-5.886-2.34-5.886-7.02V9.948h-8.424v16.416c0 4.32 1.116 7.578 3.348 9.774 2.232 2.196 5.256 3.294 9.072 3.294zm38.164 0c3.06 0 5.796-.639 8.208-1.917s4.302-3.051 5.67-5.319c1.368-2.268 2.052-4.842 2.052-7.722 0-2.88-.684-5.454-2.052-7.722-1.368-2.268-3.258-4.041-5.67-5.319-2.412-1.278-5.148-1.917-8.208-1.917-3.06 0-5.805.639-8.235 1.917-2.43 1.278-4.329 3.051-5.697 5.319-1.368 2.268-2.052 4.842-2.052 7.722 0 2.88.684 5.454 2.052 7.722 1.368 2.268 3.267 4.041 5.697 5.319 2.43 1.278 5.175 1.917 8.235 1.917zm0-6.912c-2.16 0-3.942-.729-5.346-2.187-1.404-1.458-2.106-3.411-2.106-5.859s.702-4.401 2.106-5.859c1.404-1.458 3.186-2.187 5.346-2.187s3.933.729 5.319 2.187c1.386 1.458 2.079 3.411 2.079 5.859s-.693 4.401-2.079 5.859c-1.386 1.458-3.159 2.187-5.319 2.187zm52.684 6.912c4.32 0 7.272-1.35 8.856-4.05V39h7.884V22.422c0-4.32-1.206-7.551-3.618-9.693-2.412-2.142-5.868-3.213-10.368-3.213-2.34 0-4.617.306-6.831.918-2.214.612-4.113 1.476-5.697 2.592l3.024 5.886c1.044-.828 2.313-1.485 3.807-1.971a14.663 14.663 0 014.563-.729c2.232 0 3.906.495 5.022 1.485 1.116.99 1.674 2.403 1.674 4.239h-6.696c-4.248 0-7.389.774-9.423 2.322s-3.051 3.672-3.051 6.372c0 1.692.432 3.204 1.296 4.536.864 1.332 2.115 2.376 3.753 3.132 1.638.756 3.573 1.134 5.805 1.134zm2.106-5.67c-1.476 0-2.637-.315-3.483-.945-.846-.63-1.269-1.485-1.269-2.565 0-2.268 1.728-3.402 5.184-3.402h5.778v2.97c-.468 1.296-1.26 2.277-2.376 2.943-1.116.666-2.394.999-3.834.999zM139 0h9l-8 31h11v8h-20v-8l8-31z" id="a"/></defs><symbol id="logo"><g fill-rule="evenodd"><path d="M114.836 56.76v-8.344c0-.43.019-.775.056-1.036.037-.261.114-.462.231-.602a.89.89 0 01.49-.287c.21-.051.488-.082.833-.091v-.56h-4.158v.56c.308.01.558.037.749.084a.75.75 0 01.448.294c.107.15.177.362.21.637s.049.642.049 1.099v5.418h-.056l-5.642-8.092h-3.906v.56c.317.019.572.058.763.119.191.06.338.166.441.315.103.15.173.352.21.609.037.257.056.581.056.973v5.628c0 .439-.019.786-.056 1.043-.037.257-.114.455-.231.595a.89.89 0 01-.49.287c-.21.051-.488.082-.833.091v.56h4.158v-.56a3.742 3.742 0 01-.749-.084.75.75 0 01-.448-.294c-.107-.15-.177-.36-.21-.63a9.719 9.719 0 01-.049-1.106v-6.02h.056l6.202 8.834h1.876zm6.922 0c1.27 0 2.329-.48 3.178-1.442l-.392-.49c-.364.327-.74.579-1.127.756a2.786 2.786 0 01-1.169.266c-.681 0-1.22-.266-1.617-.798s-.595-1.255-.595-2.17c0-.224.019-.378.056-.462h4.508c.215 0 .345-.016.392-.049.047-.033.07-.124.07-.273 0-.961-.275-1.708-.826-2.24-.55-.532-1.32-.798-2.31-.798-.588 0-1.127.098-1.617.294-.49.196-.915.469-1.274.819a3.62 3.62 0 00-.833 1.246 4.17 4.17 0 00-.294 1.589c0 .56.093 1.069.28 1.526a3.5 3.5 0 00.784 1.183 3.5 3.5 0 001.211.77 4.34 4.34 0 001.575.273zm.462-5.124h-2.03c.093-.513.296-.936.609-1.267.313-.331.67-.497 1.071-.497.355 0 .649.13.882.392.233.261.35.597.35 1.008 0 .159-.054.259-.161.301-.107.042-.348.063-.721.063zm8.546 5.124l1.89-4.97h.056l1.484 4.97h1.106l1.932-4.844c.196-.504.36-.9.49-1.19.13-.29.252-.504.364-.644.112-.14.224-.229.336-.266.112-.037.252-.056.42-.056v-.56h-3.01v.56c.27 0 .485.051.644.154.159.103.238.275.238.518 0 .13-.019.282-.056.455a3.906 3.906 0 01-.196.609l-1.12 2.898h-.07l-1.47-5.194h-1.148l-1.96 5.194h-.056l-.882-3.276a7.419 7.419 0 01-.112-.42 1.502 1.502 0 01-.042-.336c0-.215.065-.366.196-.455.13-.089.364-.138.7-.147v-.56h-4.004v.56c.327.019.588.119.784.301.196.182.369.497.518.945l1.918 5.754h1.05zm20.69-.14v-.56c-.299 0-.541-.023-.728-.07a.759.759 0 01-.441-.287c-.107-.145-.182-.357-.224-.637a7.891 7.891 0 01-.063-1.12v-1.428l2.044-3.5c.317-.55.59-.996.819-1.337.229-.34.434-.607.616-.798.182-.191.357-.32.525-.385.168-.065.355-.098.56-.098v-.56h-3.514v.56c.392 0 .66.03.805.091a.33.33 0 01.217.329c0 .15-.06.352-.182.609a16.33 16.33 0 01-.644 1.169l-1.764 2.94h-.056l-2.002-3.822a6.936 6.936 0 01-.266-.532.882.882 0 01-.084-.336c0-.15.08-.261.238-.336.159-.075.434-.112.826-.112v-.56h-4.704v.56c.177 0 .336.016.476.049.14.033.27.093.392.182.121.089.24.212.357.371.117.159.245.36.385.602l2.898 5.152v1.288c0 .439-.021.791-.063 1.057-.042.266-.119.469-.231.609a.808.808 0 01-.455.28 3.11 3.11 0 01-.721.07v.56h4.984zm7.062.14a4.31 4.31 0 002.905-1.106 3.8 3.8 0 00.896-1.232c.22-.476.329-.999.329-1.568 0-.55-.11-1.057-.329-1.519a3.717 3.717 0 00-.896-1.197 4.248 4.248 0 00-1.316-.791 4.402 4.402 0 00-1.589-.287 4.4 4.4 0 00-1.568.28 4.076 4.076 0 00-1.302.784 3.658 3.658 0 00-.882 1.204 3.607 3.607 0 00-.322 1.526c0 .57.107 1.094.322 1.575.215.48.509.894.882 1.239.373.345.807.614 1.302.805a4.308 4.308 0 001.568.287zm0-.854c-.29 0-.548-.072-.777-.217a1.887 1.887 0 01-.588-.609 3.171 3.171 0 01-.378-.952 5.465 5.465 0 01-.133-1.26c0-.448.044-.856.133-1.225.089-.369.215-.684.378-.945a1.86 1.86 0 01.595-.609 1.43 1.43 0 01.77-.217c.29 0 .553.072.791.217.238.145.441.35.609.616.168.266.299.581.392.945.093.364.14.77.14 1.218 0 .457-.047.873-.14 1.246a3.272 3.272 0 01-.392.959 1.875 1.875 0 01-.609.616 1.493 1.493 0 01-.791.217zm10.744.714v-.56c-.327 0-.588-.016-.784-.049-.196-.033-.345-.105-.448-.217-.103-.112-.17-.273-.203-.483a5.892 5.892 0 01-.049-.861v-.672c0-.345.023-.693.07-1.043.047-.35.107-.665.182-.945.103-.392.233-.705.392-.938.159-.233.327-.35.504-.35.093 0 .184.03.273.091.089.06.177.126.266.196.089.07.189.133.301.189a.834.834 0 00.378.084c.299 0 .534-.103.707-.308.173-.205.259-.457.259-.756a.822.822 0 00-.336-.672c-.224-.177-.513-.266-.868-.266-.457 0-.891.145-1.302.434a3.16 3.16 0 00-.994 1.176h-.056l-.224-1.61-2.8.518v.49c.28 0 .506.03.679.091.173.06.306.184.399.371.093.187.154.453.182.798.028.345.042.807.042 1.386v1.708c0 .355-.012.637-.035.847-.023.21-.077.371-.161.483a.62.62 0 01-.378.224 4.654 4.654 0 01-.672.084v.56h4.676zm7.23 0v-.56a1.41 1.41 0 01-.483-.07.548.548 0 01-.294-.259 1.475 1.475 0 01-.147-.525 7.408 7.408 0 01-.042-.882v-.546l.7-.672 1.064 1.596c.196.29.357.544.483.763.126.22.189.357.189.413 0 .075-.06.124-.182.147a3.837 3.837 0 01-.63.035v.56h4.354v-.56c-.336 0-.607-.056-.812-.168-.205-.112-.415-.317-.63-.616l-2.422-3.43 1.358-1.274c.317-.299.611-.509.882-.63.27-.121.583-.182.938-.182v-.56h-3.822v.56c.467 0 .786.016.959.049.173.033.259.091.259.175 0 .103-.103.268-.308.497-.205.229-.55.572-1.036 1.029l-1.344 1.274V45l-3.122.532v.518c.28 0 .502.019.665.056a.522.522 0 01.364.301c.08.163.128.408.147.735.019.327.028.775.028 1.344v5.936c0 .336-.016.609-.049.819-.033.21-.096.373-.189.49a.734.734 0 01-.378.245 2.638 2.638 0 01-.63.084v.56h4.13z"/><use xlink:href="#a"/></g></symbol></svg>